<svg xmlns="http://www.w3.org/2000/svg" style="display:block" viewBox="0 0 2048 2048"><defs><linearGradient id="a" x1="727.555" x2="48.932" y1="1280.4" y2="1397" gradientUnits="userSpaceOnUse"><stop class="stop0" offset="0" stop-color="#000104"/><stop class="stop1" offset="1" stop-color="#071023"/></linearGradient></defs><path fill="#FEFEFE" d="M0 0h2048v2048H0z"/><path fill="#000001" d="m357.846 1027.31 13.73-.51-8.621 14.77c-4.162-1.68-7.238-1.88-11.712-1.92zm115.439-36.375c2.673-2.255 5.58-4.258 8.397-6.331 5.874 10.383 10.9 21.276 16.142 31.996-3.242.96-6.1 1.99-9.162 3.4-.096.04-.205.05-.307.08-4.759-9.89-9.48-19.69-15.07-29.145m-50.828 192.855c5.533 7.01 12.108 23.86 16.615 32.69 18.155 35.53 37.639 70.99 53.583 107.57-12.666 6.33-26.831 10.74-40.149 15.55a6020 6020 0 0 1-74.776 26.37l-54.016 19.75c10.354-25.68 24.715-50.14 36.689-75.12 20.203-42.15 38.876-86.24 62.054-126.81"/><path fill="#FEFEFE" d="M421.815 1208.6c3.862 2.48 50.599 97.48 57.611 110.45l-89.566 31.48c-14.849 4.52-29.369 10.5-44.167 15.31 23.346-53.36 50.893-104.78 76.122-157.24"/><path fill="url(#a)" d="M497.824 1016.6c39.609 75.09 76.101 151.74 115.344 227.02a10369 10369 0 0 1 101.516 198.74c21.337 41.96 44.222 83.81 63.727 126.62 1.038 2.28 1.707 4.04 1.649 6.6-1.229 1.72-1.451 2.08-3.677 2.48-9.369 1.68-36.082-.1-47.629-.09l-77.266.19c-13.157.06-27.389 1.46-40.354-.44-13.597-29.83-29.239-58.71-44.077-87.93-10.084-19.86-19.245-40.22-30.093-59.7-27.555 7.22-54.252 19.5-80.886 29.56-38.76 14.64-77.93 28.44-116.831 42.73-26.292 9.66-52.541 20.52-79.351 28.58-7.713 14.61-14.392 29.73-22.188 44.3a7301 7301 0 0 0-96.581-.19c-20.037.12-40.127.81-60.15-.06l.936-.8c-2.244.51-2.418.84-4.697.04-.797-2.76.003-5.01 1.092-7.56 6.389-15 15.179-29.54 22.544-44.15l61.317-119.87a14280 14280 0 0 1 115.803-224.14c23.441-44.92 46.056-90.36 70.782-134.6a129 129 0 0 1 2.489-4.28c4.474.04 7.55.24 11.712 1.92A30669 30669 0 0 0 91.857 1564c21.256 1.3 42.684.35 63.975.33 24.907-.02 50.254.8 75.088-1.06a642 642 0 0 0 21.314-40.46 14407 14407 0 0 0 206.414-76.12c27.497-10.17 54.683-21.77 82.583-30.72l77.395 152.08c19.491-1.78 39.439-.99 58.993-.96l87.659-.15c-17.786-40.01-39.358-78.49-58.866-117.68l-170.25-335.14c-15.825-31.4-32.602-62.33-47.807-94.04.102-.03.211-.04.307-.08 3.062-1.41 5.92-2.44 9.162-3.4"/><path fill="#061326" d="M804.563 552.388c.422.093.848.171 1.267.279 4.561 1.177 122.776 79.532 132.764 86.71 2.231 1.602 4.27 3.1 5.587 5.57.843 1.58.327 2.531-.321 4.148-4.293 10.721-41.101 56.517-50.121 68.712-9.945 13.447-19.307 28.583-30.185 41.15-1.825 2.109-3.49 3.241-6.053 4.282-1.453-.059-2.653.187-3.902-.697-5.992-4.242-15.29-53.749-17.376-64.147-57.167 13.237-104.703 32.123-149.864 70.611-25.108 20.12-47.688 47.907-60.974 77.39-4.123 9.149-6.712 22.079-12.086 30.198-1.228 1.855-2.34 1.776-4.349 2.158-2.256-1.328-3.018-2.406-3.625-5.115-1.61-7.188-.599-16.183-.046-23.474 2.731-36.036 13.353-68.413 31.596-99.474 40.172-68.4 106.834-107.197 181.816-126.563-4.026-17.815-15.195-48.945-15.801-65.357-.089-2.417.69-4.22 1.673-6.381"/><path fill="#B2D5E4" d="M815.951 571.301c8.705 2.909 25.333 16.805 34.057 22.522l82.678 53.444c-7.648 13.371-18.244 26.099-27.381 38.566-15.36 20.962-30.567 42.642-47.443 62.421-4.11-20.122-7.944-40.969-14.321-60.492-12.056 1.122-23.773 4.255-35.443 7.36-42.929 11.424-79.937 29.367-115.953 55.161-23.799 18.034-43.932 39.018-60.098 64.216-5.666 8.832-10.419 18.204-16.159 26.986 3.134-18.266 6.87-36.285 13.992-53.475a256.26 256.26 0 0 1 142.318-138.419c18.566-7.384 39.099-10.395 57.016-18.079.385-.165.765-.341 1.148-.512-4.002-20.127-9.112-39.887-14.411-59.699"/><path fill="#C14743" d="M462.26 997.604c.323.111.665.177.968.334 3.907 2.035 13.494 25.302 15.957 30.742-2.648 7.67-6.84 15.14-10.238 22.52-5.908 12.82-11.578 25.77-17.338 38.66-31.303 70.07-65.467 139.13-98.718 208.33-17.298 35.99-37.327 71.48-50.555 109.25 26.929-11.35 54.472-20.32 81.957-30.16a4129 4129 0 0 0 125.313-46.58c-26.337-54.44-54.251-108-81.233-162.11 7.383-17.89 16.599-34.94 24.484-52.62 20.625 32.59 37.193 68.73 55.037 102.97 21.771 38.87 41.678 79.38 61.494 119.3-34.161 14.25-69.894 25.05-104.769 37.46l-164.595 60.04a2850 2850 0 0 1-50.044 17.73c-10.627 3.64-21.817 6.7-31.926 11.64l166.279-323.69a8150 8150 0 0 0 46.798-91.73c7.467-15.06 13.991-31.51 22.216-46.05 1.734-3.07 5.85-4.542 8.913-6.036"/><path fill="#C14743" d="m436.82 1008.1 1.073 1.03c-16.942 36.41-35.604 71.73-53.982 107.41a18444 18444 0 0 1-85.935 165.83c-42.143 81.26-81.5 164.1-126.093 244.05 5.166-.75 10.103-1.79 15.162-3.05 8.517-14.34 15.316-29.69 23.954-44.03 26.38-9.77 53.443-18.05 79.937-27.66a25497 25497 0 0 1 283.877-102.67c7.456 17.74 18.206 35 27.055 52.18a9537 9537 0 0 1 54.066 107.58l10.94-6-136.931-265.79a5037 5037 0 0 0-44.181-84.91c-8.658-16.65-16.738-34.03-26.781-49.89 4.999-17.95 19.276-41.51 26.173-60.45 13.766 29.99 29.536 59.6 44.509 89.01l145.73 284.72c23.014 45.4 49.882 92.67 70.348 138.86-39.062 2.7-80.769-3.3-119.223.88-11.379-17.82-20.309-38.95-29.83-57.87-16.23-32.24-32.929-64.25-48.815-96.67a13694 13694 0 0 0-215.482 79.7c-29.547 11.18-59.772 21.42-88.843 33.72-7.666 12.04-12.819 25.59-20.517 37.67a5491 5491 0 0 1-110.147.12c20.961-47.96 48.02-93.83 71.781-140.48l105.857-205.61c31.448-60.2 63.567-119.92 94.161-180.59 17.843-4.63 35.075-10.05 52.137-17.09"/><path fill="#061326" d="M1167.49 470.39c50.7-3.53 103.66 13.007 142.23 46.491a192.7 192.7 0 0 1 65.5 131.962 184.52 184.52 0 0 1-47.42 137.554 179.14 179.14 0 0 1-124.69 60.817 193.3 193.3 0 0 1-138.27-41.795 185.3 185.3 0 0 1-69.477-124.636c-5.401-48.866 7.067-100.31 38.417-138.768 34.19-41.953 79.94-66.364 133.71-71.625"/><path fill="#FEFEFE" d="m1167.3 480.5 1.04-.117c46.61-4.827 96.73 12.963 132.44 42.521a180.1 180.1 0 0 1 64.21 122.431 178.3 178.3 0 0 1-40.88 130.733 177.77 177.77 0 0 1-119.87 61.868l-.95.112c-47.83 5.235-97.61-12.252-134.67-42.189a176.4 176.4 0 0 1-63.61-117.018c-4.9-48.223 7.93-95.237 38.83-132.934 31.09-37.926 74.79-60.647 123.46-65.407"/><path fill="#061326" d="M1174.72 505.417c35.73-4.469 77.19 11.312 105.21 32.76 31.38 24.016 53.82 60.521 58.84 99.884 5.62 44.016-5.63 85.781-33.1 120.618-26.41 33.489-65.97 50.264-107.42 55.314a160.47 160.47 0 0 1-111.78-35.967c-30.81-25.327-52.49-64.215-56.37-104.025a153.05 153.05 0 0 1 34.2-113.15c28.11-34.071 67.17-51.251 110.42-55.434"/><path fill="#4480AF" d="M1180.54 513.429c.3-.024.61-.056.92-.07 35.71-1.665 75.76 14.275 102.04 38.092 29.71 26.911 46.46 61.045 48.4 101.131 1.95 40.215-10.87 78.098-38.3 107.955-26.49 28.83-65.19 44.172-103.73 45.925-37.38-.702-71.12-11.767-99.74-36.328-29.23-25.088-48.9-59.973-51.74-98.685-2.95-40.255 7.49-77.503 34.32-108.071 27.83-31.711 66.33-47.286 107.83-49.949"/><path fill="#FEFEFE" d="M1156.58 738.385c-13.7.189-49.13 1.847-60.52-3.62-2.8-3.092-3.03-7.405-2.75-11.4.32-4.547 1.64-8.914 3.37-13.111 8.98-21.841 20.86-43.475 31.2-64.758 11.71-24.095 22.76-49.357 35.64-72.783 2.1-3.817 4.64-8.179 8.08-10.906 4.71-3.731 11.79-3.815 17.42-2.901 10.18 1.65 18.88 6.514 24.7 15.074 9.96 14.63 55.55 103.176 60.04 118.767-4.36 10.856-24.79 52.015-32.58 57.755-2.68.561-4.09.784-6.56-.658-4.54-2.65-7.14-10.175-8.96-14.796-15.42-31.553-31.86-62.863-46.29-94.871a599 599 0 0 1-8.39-16.709c-3.72 7.668-34.18 64.772-34.66 67.469 8.45-2.853 33.37-14.075 41.6-10.209 1.47.691 2.44 1.529 3.12 3.07 4.4 9.884-10.99 33.769-16.17 43.093-2.39 4.299-4.81 7.996-8.29 11.494"/><path fill="#000001" d="M1179.37 640.177c-.39-7.017-6.64-13.263-4.8-20.287l.68 3.216.29-1.738c1.58 3.291 2.72 7.936 6.09 9.406 11.12 19.538 20.57 40.346 30.31 60.61 8.6 17.885 17.62 35.445 25.7 53.584l.32 1.283 3.56 1.025.03 1.083c-2.8 1.164-2.83 1.268-5.73.433-3.82-3.479-6.02-9.205-8.39-13.756l-1.77.012c-15.42-31.553-31.86-62.863-46.29-94.871"/><path fill="#061326" d="M1156.58 738.385c-13.7.189-49.13 1.847-60.52-3.62-2.8-3.092-3.03-7.405-2.75-11.4.32-4.547 1.64-8.914 3.37-13.111 8.98-21.841 20.86-43.475 31.2-64.758 11.71-24.095 22.76-49.357 35.64-72.783 2.1-3.817 4.64-8.179 8.08-10.906 4.71-3.731 11.79-3.815 17.42-2.901 10.18 1.65 18.88 6.514 24.7 15.074 9.96 14.63 55.55 103.176 60.04 118.767-4.36 10.856-24.79 52.015-32.58 57.755-2.68.561-4.09.784-6.56-.658-4.54-2.65-7.14-10.175-8.96-14.796l1.77-.012c2.37 4.551 4.57 10.277 8.39 13.756 2.9.835 2.93.731 5.73-.433l-.03-1.083-3.56-1.025-.32-1.283c3.81-3.241 25.4-46.244 28.48-53.487-8-18.683-18.22-36.932-27.33-55.133-9.82-19.623-18.99-41.228-31.22-59.35-2.34-3.472-4.42-5.759-8.09-7.878-5.56-3.208-13.89-5.896-20.3-3.954-4.1 1.243-6.35 5.296-8.42 8.755-10.44 17.419-18.26 37.121-26.96 55.479-13.68 28.857-27.97 57.44-42.23 85.99-2.45 4.903-3.14 9.374-1.31 14.555 9.05 4.549 41.85 2.885 53.69 2.804 5.9-11.194 12.87-22.382 17.92-33.96 1.46-3.348 2.83-6.615 1.43-10.214-7.37-4.179-29.66 9.091-39.87 8.715-3.41-.126-3.54-.979-5.59-3.48 1.43-5.411 36.18-72.788 40.67-79.072 1.4-.337 2.06-.865 3.42-.127 4.74 2.591 8.27 11.082 9.7 16.163-3.37-1.47-4.51-6.115-6.09-9.406l-.29 1.738-.68-3.216c-1.84 7.024 4.41 13.27 4.8 20.287a599 599 0 0 1-8.39-16.709c-3.72 7.668-34.18 64.772-34.66 67.469 8.45-2.853 33.37-14.075 41.6-10.209 1.47.691 2.44 1.529 3.12 3.07 4.4 9.884-10.99 33.769-16.17 43.093-2.39 4.299-4.81 7.996-8.29 11.494"/><path fill="#000001" d="M266.887 469.393c.327-.047.652-.104.98-.141 32.343-3.716 60.621 6.811 86.113 26.105 22.956-8.987 45.473-12.878 70.06-9.673a114.5 114.5 0 0 1 77.046 44.801c19.846 26.249 27.531 57.98 22.68 90.497-5.425 36.361-25.135 62.047-53.964 83.408 16.093 47.158 36.912 94.901 56.25 140.951 8.373 19.938 18.403 40.034 24.999 60.591-25.764 51.291-95.144 79.13-145.832 98.198-26.99 9.14-75.272 22.9-102.512 9.43-5.578-2.76-9.225-8.88-12.01-14.237-5.537-10.653-9.469-22.625-13.863-33.801a2710 2710 0 0 1-25.038-65.199c-10.475-28.201-22.306-55.897-32.218-84.305-27.866 5.673-55.359 4.277-81.329-8.135-26.728-12.774-48.903-40.386-58.365-68.181a113.97 113.97 0 0 1 6.204-89.189c14.995-30.023 39.747-48.427 71.008-59.027 2.578-28.645 9.568-55.172 27.898-78.076 20.408-25.5 49.665-40.514 81.893-44.017"/><path fill="#FEFEFE" d="M514.738 848.928c6.27 8.957 19.661 44.244 23.905 56.077-15.16 24.246-35.523 39.879-59.906 54.441-42.271 25.245-121.708 58.464-170.385 46.174-1.916-1.26-3.787-2.49-5.103-4.42-6.302-9.235-17.079-42.997-21.167-55.241 63.911 1.204 148.721-34.666 201.22-70.655 11.111-7.617 20.042-17.467 30.576-25.713z"/><path fill="#FEFEFE" d="M271.506 479.364c17.695-2.042 37.616 2.552 53.439 10.419 28.091 13.967 49.216 38.775 56.32 69.606 1.929 8.371.252 17.304 3.034 25.475 1.528 1.377 2.352 2.174 4.428 2.641 1.822.411 1.919-.077 3.405-.944.733-1.362 1.319-2.635 1.563-4.181.889-5.65.047-12.164-.806-17.798-3.708-24.484-14.776-41.863-29.227-61.38a116.65 116.65 0 0 1 79.915-2.193 104.74 104.74 0 0 1 59.922 53.345c12.739 26.598 13.586 58.708 3.792 86.373-7.149 20.196-22.358 43.43-42.353 52.915-2.577-1.524-3.789-2.273-6.889-2.257-1.271.916-2.015 1.096-2.555 2.657-1.056 3.055-.309 5.6.619 8.571 5.78 18.497 14.747 36.843 22.045 54.843 10.78 26.587 20.75 53.44 31.95 79.862-37.805 39.374-87.947 62.967-138.925 80.605-30.521 10.753-61.341 17.211-93.823 16.296-4.607-9.814-8.138-20.387-12.129-30.478-11.738-29.673-22.506-59.785-33.862-89.619-3.962-10.41-7.599-26.053-14.189-34.877-1.784-2.388-3.38-3.437-6.296-3.834l-1.638 1.93c-1.907 9.456 3.892 19.935 7.159 28.643-24.415 4.951-48.024 3.702-70.851-7.051-26.241-12.361-45.507-35.463-55.05-62.678A103.7 103.7 0 0 1 95.4 656.35c13.401-27.778 34.329-43.28 62.941-53.076 2.828 17.878 6.707 44.614 21.507 56.928 2.676 2.227 5.19 3.346 8.657 2.927 1.164-2.029.706-3.693-.096-5.812-1.745-4.608-5.109-9.143-7.465-13.514a102.3 102.3 0 0 1-11.684-36.352 114.1 114.1 0 0 1 23.646-85.993c20.1-25.267 46.815-38.517 78.601-42.094"/><path fill="#000001" d="M131.288 643.642c2.749-.117 3.904.166 5.909 1.897.444 5.417-11.355 18.861-13.934 28.371-6.69 24.669 4.862 29.409 15.097 47.71.091 3.303-.665 4.141-2.244 6.966-5.98-.978-10.674-5.306-14.561-9.775-8.335-9.584-11.503-25.507-10.142-37.832 1.568-14.195 8.592-28.494 19.875-37.337m279.815-127.333c9.722-.549 18.096.034 26.865 4.849 12.049 6.616 20.431 18.036 23.956 31.231 2.801 10.49 3.581 24.457-2.411 33.901-2.265 3.57-4.689 4.087-8.545 4.913-4.837-9.933 9.364-27.835-5.623-51.21-12.668-19.757-23.272-10.749-37.992-14.723-2.74-.74-3.621-1.299-4.979-3.748l.772-1.967c2.569-2.216 4.751-2.599 7.957-3.246m-7.647 164.469c1.844-.139 2.798.116 4.496.832 4.779 5.631 67.146 162.104 67.187 166.921.024 2.835-.656 3.802-2.497 5.844-2.776.762-3.054.771-5.787-.123-2.175-2.038-3.405-3.884-4.609-6.62-2.286-5.196-3.194-10.977-5.351-16.252-18.437-45.08-35.64-90.649-54.18-135.698-26.872 18.277-54.665 33.841-85.381 44.773-8.843 3.148-51.739 13.901-53.169 14.862 7.063 19.658 58.721 148.862 57.077 157.836-.425 2.321-1.772 3.515-3.51 4.926-1.585.046-1.498.309-2.648-.385-3.055-1.844-4.694-5.535-6.061-8.68-4.45-10.235-7.497-21.606-11.144-32.189a1890 1890 0 0 0-17.297-47.529 2930 2930 0 0 0-19.829-51.127c-3.871-9.83-8.938-20.104-11.03-30.447 1.977-3.359 5.948-3.551 9.562-4.12 56.33-8.878 98.109-30.204 144.171-62.824"/><path fill="#061326" d="M1598.69 837.438c20.76-1.14 42.01.716 62.56 3.647a362.76 362.76 0 0 1 239.4 141.738c56.26 75.367 80.94 177.097 67.37 269.957-14.79 101.3-65.22 188.71-147.52 249.78-77.18 57.28-175 78.29-269.64 64.17a350.83 350.83 0 0 1-194.7-99.81c-15.4-15.66-28.58-32.78-41.62-50.4-13.96 17.76-29.08 33.51-47.03 47.34-74.45 57.39-176.66 77.5-268.648 65.78-41.448-6-79.049-19.08-116.599-37.41-8.598 18.67-28.165 71.93-38.056 84.38l-2.166-.48c-6.075-9.31-9.757-22.35-13.997-32.82l-30.297-75.12c-11.219-27.69-26.775-57.96-35.221-86.2 25.671-8.76 53.806-13.68 80.137-20.55a4553 4553 0 0 1 68.882-17.8c9.5-2.4 19.491-5.79 29.096-7.49 3.095-.55 4.433-.52 7.25.86 2.296 7.57-23.777 60.23-28.017 69.62 34.545 21.62 75.287 36.36 114.836 45.52a363.34 363.34 0 0 0 272.79-45.03c-6.57-14.86-17.15-28.59-24.58-43.21-21.07-41.54-32.99-90.29-35.72-136.74-5.79-98.46 25.8-193.21 91.9-267.039 68.67-76.703 157.18-117.361 259.59-122.693"/><path fill="#B2D5E4" d="m930.512 1350.13 1.977.54c-7.471 20.02-16.844 39.74-25.673 59.2 19.411 16.98 68.858 36.03 94.334 44.18 92.56 29.61 198.62 22.54 285.21-22.13-43.01 46.52-107.35 72.62-168.46 84.66-64.01 10.27-125.811 7.23-187.341-14.63a246 246 0 0 1-22.58-9.28c-8.118-3.88-18.99-11.57-27.637-13.2-1.845-.35-2.121-.08-3.811.47-8.457 11.68-25.959 56.99-32.881 72.74l-38.862-95.48c-9.263-22.3-20.338-44.99-26.876-68.26 51.056-12.05 101.722-26.01 152.6-38.81"/><path fill="#FEFEFE" d="M1594.48 847.424c.43-.051.87-.119 1.3-.152 13.69-1.036 28.02-.208 41.69.869a353.18 353.18 0 0 1 200.89 83.006A351 351 0 0 1 1959.8 1170.8a367.8 367.8 0 0 1-84.86 268.06c-12.73 14.87-27.16 27.84-42.02 40.51-62.28 53.1-125.22 74.38-205.91 80.51-28.72.79-56.74-.03-85.09-5.12-56.51-10.13-113.5-38.59-157.08-75.76-70.34-59.98-118.83-149.03-126.14-241.66-5.51-69.79 5.15-131.34 36.7-193.98 12.43-24.68 26.97-47.66 45.01-68.652 67.33-78.381 151.38-119.827 254.07-127.284"/><path fill="#000001" d="M1696.86 906.573c1.25.465 2.41 1.253 3.57 1.919 6.28 10.759 8.95 40.809 11.81 54.546 13.29 4.525 67.06 24.435 76.04 32.116 2.06 10.926-47.36 259.276-55.97 286.346-6.63 20.84-17.72 38.94-29.41 57.24 50.19 19.49 83.31 52.55 107.7 99.82 2.72 5.26 7.04 13 5.14 18.94-2.1 1.65-2.43 1.41-5.15 1.41-6.41-3.48-10.69-16.08-13.88-22.5a172.74 172.74 0 0 0-100.74-87.32c-33.08 50.37-77.61 65.85-126.33 96.3-8.17 19.59-14.56 41.58-21.25 61.83-2.55 7.73-4.57 17.28-8.5 24.38-.91 1.64-2.15 2.48-3.67 3.48-2.61-1.57-4.25-2.52-5.69-5.35-.36-11.83 22.48-69.39 28.09-84.78-11.05-16.75-22.31-33.29-32.89-50.36-22.87 16.13-38.18 38.26-50.53 63.2-3.1 6.26-8.56 24.43-13.23 28.14-2.64.28-2.96.09-5.37-1.1-1.29-1.9-1.86-3.27-1.73-5.62.38-7.12 4.61-15.09 7.64-21.44 15.62-32.76 33.43-53.93 60.6-77.2-7.72-6.11-16.64-10.66-24.41-16.87-23.21-18.56-39.49-46.55-47.38-74.93-12.14-43.69-1.66-89.27 20.24-127.86-9.19-.13-29.22 4.05-35.71 2.18-1.97-.57-1.31-.12-2.32-1.84 4.36-19.31 177.51-183.237 205.25-207.901 18.73-16.657 37.67-32.224 58.08-46.776"/><path fill="#FEFEFE" d="m1656.76 1376.06.44.28c-3.74 11.06-78.39 50.92-92.13 58.2l-16.11-23.56a324 324 0 0 1-16.86-27.97 394 394 0 0 0 12.34 3.98c38.02 11.36 77.3 7.84 112.32-10.93"/><path fill="#C14743" d="M1715.02 976.785c20.23 8.739 42.95 13.88 61.99 25.065-2.87 17.29-7.42 34.41-10.63 51.67-8.27 44.47-15.63 89.04-25.29 133.26a927 927 0 0 1-6.91 36.02c-.99-29.41-.23-58.78-1.68-88.22a1466 1466 0 0 0-17.48-157.795m-23.18-53.15 1.11.673c4.8 7.178 5.9 30.678 7.42 40.062 4.87 29.927 9.97 59.82 13.46 89.95 8.17 70.62 9.67 140.98 6.74 211.96-30.16-45.9-84.45-78.68-134.83-98.27-43.21-16.27-84.41-19.97-130.16-18.83 14.29-14.59 27.9-29.82 42.19-44.4a2665 2665 0 0 1 145.48-139.51c15.99-14.062 31.83-28.496 48.59-41.635"/><path fill="#FEFEFE" d="M1485.94 1159.94a297.1 297.1 0 0 1 109.1 24.53c45.32 19.25 103.63 57.15 122.52 104-10.87 29.02-27.56 49.67-51.52 68.84-14.17 10.15-31.15 17.45-48.12 21.4a136.14 136.14 0 0 1-101.62-16.74c-28.74-17.96-47.79-48.74-55.01-81.57-9.29-42.24 1.91-84.61 24.65-120.46"/><path fill="#000001" d="M1502.68 1191.41c3.62.4 5.78.93 8.21 3.71 2.23 9.91-1.26 43.03-6.18 51.72-1.82-.16-3.44-.56-5.21-.98-2.6-2.22-3.07-4.45-3.38-7.71-.86-8.96 1.27-40.26 6.56-46.74m44.34 5.14c3.46.64 4.13.54 6.73 3.1 1.23 3.28 1.55 6.28 1.51 9.77-.1 9.13-1.57 33.27-4.6 40.95-.66 1.67-1.97 2.88-3.22 4.11-2.38-.34-4.02-.75-6.16-1.86-2.54-3.41-1.69-7.91-1.48-11.91.51-9.62.24-31.53 3.62-39.96.7-1.74 2.25-2.99 3.6-4.2m-56.03 86.3c7.2 2.64 8.72 10.44 13.27 16.01 2.49 3.03 6.08 4.7 9.94 5.05 13.73 1.24 16.47-7.98 25.58-15.18 2.16-1.7 4.06-2.66 6.83-2.35 1.33 1.35 1.58 2.31 1.87 4.23.49 3.27-1.13 5.47-2.78 8.08a61 61 0 0 1-4.28 4.75c-6.81 6.91-15.5 11.53-25.37 11.38-8.78-.14-16.76-4.54-22.68-10.83-3.34-3.55-7.97-10.42-6.96-15.65.62-3.23 2.12-3.71 4.58-5.49"/></svg>