<svg xmlns="http://www.w3.org/2000/svg" style="display:block" viewBox="0 0 2048 2048"><path fill="#FEFEFE" d="M0 0h2048v2048H0z"/><path fill="#092339" d="M331.738 906.707c1.401-.066 3.491-.348 4.823.031 2.472.703 3.6 2.069 4.546 4.384 2.277 5.573-.625 19.157-2.863 24.701-.994.239-2.775.819-3.857.763-2.104-.108-3.69-.771-4.759-2.676-3.522-6.273-.561-20.948 2.11-27.203M1417.1 1366.15c6.81-.27 13.81-.8 20.59.03 3.3.39 5.8.88 8 3.59.02 3.34-1.58 4.88-3.81 7.28-7.52.15-18.11 1.25-25.23-1.53-2.53-.99-3.61-1.93-4.47-4.43 1.5-2.32 2.72-3.37 4.92-4.94M997.144 232.105c8.656-.318 17.616-1.085 26.256-.694 4.36.197 8.69.285 11.86 3.643.62 3.25.15 3.767-1.11 6.714-.15.012-.3.031-.45.038-8.98.432-29.58 3.362-36.396-2.523-1.117-3.084-.737-4.026-.16-7.178m-75.131.038c9.773-.24 19.853-.926 29.601-.236 3.941.279 7.913.444 10.671 3.623.165 3.007-.234 3.073-2.054 5.54-10.085.566-20.871 1.915-30.93 1.111-3.325-.266-5.966-.617-8.288-3.246-.603-3.041-.025-3.934 1-6.792m-536.5 522.275c3.025.45 5.032.555 7.262 2.891 3.048 7.722-6.998 25.338-10.351 33.141-.876.117-2.094.309-2.952.277-2.757-.103-3.318-.613-5.206-2.396-2.204-9.21 7.349-25.196 11.247-33.913m645.667-382.344c10.49-.424 21.54-.927 32-.08 4.09.331 6.74.609 9.48 3.82-.44 2.737-.95 3.637-2.9 5.596-8.91.623-18.28.606-27.2.348-5.05-.146-9.44-.165-13.05-3.994-.13-2.849.2-3.198 1.67-5.69M458.393 623.853c1.809.024 3.261.246 5.026.582.993 1.03 2.116 1.628 2.168 3.169.242 7.141-13.052 23.75-17.575 29.827-1.992.182-3.15-.107-5.07-.565-1.753-1.61-2.452-1.889-2.458-4.443-.02-7.921 12.556-23.127 17.909-28.57m519.51-252.33c5.182-.162 10.586-.747 15.651.508 1.427 1.207 2.63 2.001 3.296 3.822.53 1.449.245 1.066-.659 2.69-7.465 4.102-18.403 2.84-26.769 2.73-4.127.196-8.672.519-12.695-.645-2.434-.704-3.313-1.362-4.434-3.572l1.136-2.811c5.231-4.501 17.662-2.783 24.474-2.722M436.05 477.566c.877.032 2.206.038 3.028.273 2.538.724 3.004 1.694 4.194 3.809.477 9.371-11.015 24.387-16.085 32.292-3.261-1.275-4.892-2.082-6.821-5.096-1.042-9.263 10.532-23.63 15.684-31.278m747.77-105.422c9.14-.252 18.39-.743 27.53-.553 5.01.105 8.95.197 12.51 3.927.25 3.237-.23 3.74-1.73 6.505-7.15-.039-14.3.191-21.46.259-6.2.058-13.89.827-18.55-3.76-.2-3.136.16-3.583 1.7-6.378m-381.67-131.87c.782-.169 1.544-.352 2.345-.435 2.84-.295 3.175-.466 5.225 1.326.331 2.88.215 3.314-.982 5.964-7.252 5.981-20.572 6.555-29.678 8.512-.721.101-1.376.209-2.116.223-2.549.05-3.977.078-5.638-2.121-1.627-2.154-1.297-3.049-.622-5.367 6.851-5.919 22.683-6.552 31.466-8.102M533.5 362.536c1.68.132 3.041.541 4.651 1.007 1.862 1.835 2.049 1.792 2.31 4.359-3.534 9.237-17.614 19.073-24.686 25.961-.426.02-.853.098-1.278.06-2.749-.249-3.607-.637-5.499-2.442-.124-.979-.268-1.565-.034-2.604 1.917-8.536 17.921-20.855 24.536-26.341m319.805-129.114c8.663-.489 26.967-3.42 33.783 1.883.672 2.159.736 3.08-.751 5.112-1.663 2.271-3.546 2.133-6.087 2.509-8.718-.111-29.656 3.059-36.483-2.618-.443-2.233-.462-2.639 1.036-4.424 2.001-2.385 5.655-2.25 8.502-2.462m407.665 137.926c7.23.237 14.35-.191 21.58-.321 5.56-.099 11.89-.391 16.14 3.688.99 3.159.43 4.112-.41 7.245-10.42.226-25.18 2.315-35.07-.543-2.48-.716-3.19-1.575-4.42-3.735.06-2.829.63-3.983 2.18-6.334M376.029 612.381c.724.043 1.44.056 2.148.256 2.899.817 3.187 1.451 4.713 3.877 1.052 9.938-3.194 26.796-7.833 35.633-3.328-.683-6.499-1.113-8.674-3.937-.7-8.742 4.917-28.296 9.646-35.829m731.141-240.277c8.72-.783 17.81-1.024 26.57-1.048 4.76-.013 10.55-.043 14.1 3.543.76 3.121.31 3.821-.67 6.79-.34.053-.68.116-1.02.159-9.12 1.14-31.7 3.194-38.85-2.308-1.29-3.147-.83-3.898-.13-7.136M344.609 758.855c3.794.548 7.284.792 10.001 3.667.489 11.465-2.191 24.464-4.047 35.804-3.164.211-5.069.308-7.761-1.542-4.907-8.434-.19-28.648 1.807-37.929m385.302-502.729c3.166.597 5.807 1.383 7.758 4.101l-.446 2.155c-6.824 7.584-24.761 10.75-34.648 13.59-.779-.011-1.277.021-2.075-.193-2.457-.658-3.479-1.835-4.871-3.843l.513-2.282c6.934-7.268 24.173-10.489 33.769-13.528M560.989 511.808c.268-.026.535-.069.805-.078 3.218-.101 4.797.515 7.042 2.613l.02 2.548c-4.307 9.19-18.505 18.437-25.99 25.246-2.259.109-4.547-.201-6.438-1.532-1.333-.938-1.009-1.965-1.212-3.468 3.836-9.617 17.794-18.652 25.773-25.329M840.573 381.18c1.864.341 3.144 1.33 4.773 2.294.456 2.598.173 2.73-1.082 5.099-9.51 6.859-23.825 7.972-35.034 10.863-.389-.141-.79-.254-1.168-.424-2.282-1.027-3.991-2.474-5.02-4.759l.88-2.296c8.625-6.985 25.761-8.575 36.651-10.777M362.095 826.609c.942.054 2.607.106 3.478.364 2.302.681 3.281 1.871 3.873 4.123 1.891 7.194-5.067 28.833-9.058 35.203l-6.236-1.677c-.998-.96-2.323-1.73-2.568-3.164-1.008-5.895 7.141-29.31 10.511-34.849m119.268-410.174c.885.452 2.656 1.189 3.415 1.933 1.645 1.613 2.146 3.167 1.717 5.451-1.507 8.041-14.862 23.844-21.372 28.832-.955-.507-2.904-1.354-3.713-2.183-1.774-1.816-2.134-3.305-1.84-5.776 1.038-8.719 15.413-22.451 21.793-28.257m-61.375 269.302c.278.08.559.149.834.239 3.272 1.065 4.169 1.675 5.751 4.618.271 9.655-10.785 26.78-16.993 33.916l-4.128-1.526c-1.174-1.439-1.811-1.795-2.074-3.709-1.193-8.657 11.054-26.752 16.61-33.538m-61.044-.302c1.012.093 3.114.117 4.128.539 2.133.886 2.846 2.359 3.432 4.508 2.234 8.192-3.146 28.881-6.973 36.614-1.764-.566-3.847-1.304-5.29-2.477-1.44-1.171-2.108-3.049-2.437-4.815-1.63-8.752 2.01-26.916 7.14-34.369m147.657-122.667c1.665.121 3.264.507 4.899.835 2.257 1.946 2.406 1.898 2.922 4.803-2.973 9.985-16.497 20.531-23.579 28.327-1.443-.102-2.965-.51-4.395-.772-2.237-2.001-2.286-1.971-2.758-4.923 3.074-10.072 15.767-20.631 22.911-28.27m86.79-246.895c1.624.25 3.139.74 4.715 1.197 1.76 2.122 1.65 2.052 1.548 4.824-5.262 9.511-20.737 17.616-29.503 24.246-1.798-.749-3.268-1.592-4.927-2.596-.674-1.273-1.521-2.108-1.235-3.609 1.589-8.33 22.329-19.473 29.402-24.062m100.875 113.201c.9.464 2.555 1.163 3.324 1.907 2.024 1.958 1.92 2.528 1.718 5.11-6.093 8.379-24.325 14.504-33.917 19.204-.89-.39-2.404-.994-3.136-1.592-2.152-1.757-2.045-2.917-1.965-5.386 5.071-8.522 24.845-15.107 33.976-19.243m70.971-28.063c2.321-.16 3.306.095 5.361 1.18l.518 2.36.26-1.709c.243.258.537.477.73.775 1.264 1.953.97 2.512.269 4.516-5.175 5.45-26.748 11.513-35.045 14.962-3.134-.503-4.126-1.085-6.408-3.101-.85-2.5-.885-2.501.024-4.971 4.23-4.162 27.377-11.313 34.291-14.012m-139.61 65.78c1.939.041 3.206.596 4.967 1.372 1.567 2.078 1.528 1.91 1.224 4.493-5.429 8.831-23.226 17.845-32.455 22.932-1.926-.926-3.63-1.511-4.964-3.249-.972-1.265-.452-2.265-.3-3.748 6.173-8.964 21.717-16.888 31.528-21.8m280.761-95.385c3.159-.311 7.915-1.301 10.883.222 2.404 1.234 2.756 2.652 3.69 4.976l-1.013 2.327c-7.743 5.116-20.554 3.89-29.712 4.919-3.148.418-7.283 1.465-10.199-.121-2.347-1.276-3.141-2.636-3.968-5.055l1.401-2.018c8.075-4.233 19.934-4.436 28.918-5.25M403.21 541.46c.932.291 2.985.764 3.833 1.403 2.061 1.553 2.521 3.051 2.502 5.563-.052 7.112-8.669 28.907-13.998 33.745-1.499-.224-2.997-.553-4.484-.84-1.566-1.82-2.308-2.451-2.558-4.942-.88-8.759 8.949-28.255 14.705-34.929m256.77-259.486c2.273.129 3.875.174 5.874 1.353 1.938 1.144 1.301.405 1.871 2.708-4.612 9.729-25.448 16.783-34.936 21.164l-2.778-.418c-1.448-1.012-2.213-1.576-3.076-3.178-.915-1.699-.23-2.166.353-3.876 8.007-8.239 22.329-12.966 32.692-17.753m549.91 1083.566c5.39-.28 11.79-1.09 16.54 2.03 2.05 1.34 2.2 1.49 2.6 3.76-.56.93-.57 1.08-1.5 1.92-5.69 5.16-15.29 3.86-22.28 3.68-4.49.12-11.9 1.21-16.01-.68-2.6-1.2-2.69-2.25-3.48-4.75.33-1.37.3-2.52 1.39-3.52 4.56-4.19 16.79-2.47 22.74-2.44m54.02.67c10.49-1.05 25.69-2.6 35.9-.1 2.76.68 3.62 1.43 5.16 3.75-.04 3.11-.82 4.07-2.58 6.48-8.66 1.17-26.42 2.31-34.87.23-2.87-.71-3.71-1.56-5.31-3.96-.13-2.76.4-3.98 1.7-6.4m75.12.04c10.84-.4 24.11-2.24 34.68-.12 3.17.64 4.3 1.58 5.99 4.27.16 3.02-.63 4.11-2.14 6.59-8.84.47-29.55 2.28-37.14-.69-2.69-1.06-2.81-1.63-3.92-4.09.33-2.71.86-3.82 2.53-5.96M338.204 832.542c1.955.176 3.427.542 5.295 1.087 1.358 1.302 2.281 2.229 2.902 4.061 2.694 7.941.122 30.555-3.743 37.826-.865.135-2.376.404-3.213.382-2.452-.062-2.972-.806-4.536-2.45-3.23-9.867-.847-31.557 3.295-40.906m878.726 282.828c4.02.19 8.09.39 12.07 1.03 3.32.53 4.87 1.39 6.77 4.12.01 2.72-.33 3.74-1.84 5.99l-.89-.29c-.49-.15-.98-.3-1.47-.46-5.31-1.72-10.54-2.59-16.12-1.59a24.86 24.86 0 0 0-16.6 10.96c-4.61 7.02-5.53 16.25-3.43 24.28 1.92 7.36 6.75 13.93 13.56 17.45 8.56 4.42 16.09 2.78 24.7-.13 1-.35.34-.24 1.98.36.43 2.83.66 4.12-.51 6.84-2.03 1.89-3.58 2.81-6.32 3.46-8.53 1.99-20.68.02-28.03-4.77-8.08-5.25-13.32-14.27-14.91-23.64-1.79-10.56.14-21.76 6.75-30.35 6.34-8.24 14.26-11.74 24.29-13.26m16.55 424.85c5.99-.59 16.81-1.26 21.9 1.96.63 2.68.43 4.31 0 6.97-5.74 1.76-14.01-1.03-20.28-.29-5.4.65-10.43 2.8-13.68 7.31-5.28 7.32-6.26 21.03-4.78 29.8 1.02 5.99 4.08 12.07 9.19 15.59 7.66 5.29 18.39 4.25 26.98 2.43.82-.53 1.62-.52 2.58-.66 1.9 2.32 2.07 2.78 2.53 5.75-1.04.95-2.02 1.71-3.34 2.25-9.02 3.71-23.78 2.54-32.46-1.67-6.62-3.21-11.8-10.59-14.11-17.41-3.62-10.72-3.06-23.69 2.24-33.75 5.21-9.91 12.92-14.93 23.23-18.28m173.2-423.77c6.87-.28 17.07-1.91 23.66.06 1.81.54 1.53.9 2.35 2.45-.48 2.14-.67 2.37-2.04 3.92-5.83 3.28-22.02 1.34-29.41 1.46l-.05 22.81c9.19-.19 18.43-1 27.14 2.52l.25 2.27c-7.27 4.32-19.03 3.01-27.3 2.92l.02 21.19.48 1.98c7.28 4.85 21.26-2.37 29.9 2.01 1.53 2.33 1.4 2.64 1.29 5.46-7.17 3.58-31.48 1.46-40.6 1.39-.11-23.25.94-46.6-.11-69.83zm35.39 424.05c2.91-.09 5.43.01 8.3.45l.95 2.04c-.35 2.62-.21 3.13-1.97 5.05-8.79 1.63-18.88.55-27.85.74-.15 7.43.16 14.91.27 22.34 8.39-.06 18.81-1.23 26.2 3.26l.3 1.45c-6.52 4.85-18.43 3.33-26.29 3.16v25.13l13.52.02c5.65-.15 12.51-1.22 17.4 2.06.42 2.34.38 2.19-.93 4.19-8.14 4.37-29.14 2.08-39.31 2.19.22-23.86.75-48.08-.71-71.9 10.01-.29 20.1-.13 30.12-.18m-98.32-.2c13.25-.21 30.38-1.53 41.98 6 7.26 4.71 11.42 12.4 12.9 20.78 2.25 12.75-1.47 24.42-8.79 34.73-12.71 12.19-29.33 10.31-45.59 10.67z"/><path fill="#FEFEFE" d="M1353.15 1548.29c8.41-.29 16.48-.82 24.1 3.45 6.05 3.39 10.09 9.09 11.59 15.84 2.41 10.75-1.16 21.16-6.81 30.2-8.97 6.88-18.07 6.46-28.83 6.47a4896 4896 0 0 1-.05-55.96"/><path fill="#092339" d="M1324.45 1116.41c14.89-.19 32.87-2.02 44.73 8.77 6.41 5.83 9.2 14.15 9.47 22.65.39 12.36-3.61 22.23-11.92 31.17-12.81 10.16-28.57 8.6-43.96 8.8-.02-9.62-1.71-67.32 1.68-71.39"/><path fill="#FEFEFE" d="M1332.1 1124.05c10.03-.33 19.96-.61 28.35 5.8 5.04 3.85 8.15 9.45 8.95 15.73 1.25 9.82-2.56 19.34-8.33 27.08-9.21 6.65-17.73 6.89-28.62 7.06-1.43-18.32-.41-37.29-.35-55.67"/><path fill="#092339" d="M1269.73 1116.14c5.82-.57 11.42-.67 16.98 1.4 8.48 3.14 14.96 9.59 18.57 17.83 4.52 10.33 4.44 22.86-.07 33.18-4.4 10.06-11.42 15.01-21.17 19-7.58.72-15.14.66-22.14-2.73-7.88-3.82-13.56-10.79-16.18-19.1-3.41-10.81-2.1-24.04 3.36-33.98 4.77-8.7 11.26-13.08 20.65-15.6"/><path fill="#FEFEFE" d="M1272.37 1123.06c2.95.03 5.93.03 8.79.8 5.98 1.62 10.81 6.09 13.76 11.43 4.51 8.18 5.13 18.44 2.19 27.24-2.81 8.4-8.04 13.6-15.89 17.31-4.09.47-8.74 1.09-12.62-.58-6.18-2.67-10.56-8.5-12.75-14.71-3.17-8.99-2.81-19.94 1.43-28.53 3.38-6.83 7.94-10.62 15.09-12.96"/><path fill="#092339" d="M1291.16 1540.19c6.79-.48 12.93-.88 19.36 1.92 8.09 3.52 13.73 10.35 16.53 18.63 3.84 11.35 3.11 26.03-2.64 36.64-4.72 8.71-11.42 13.01-20.75 15.58-5.86.32-11.86.39-17.45-1.61-7.79-2.79-13.77-8.15-17.24-15.68-4.63-10.05-4.79-24.1-.74-34.38 4.34-11.03 12.52-16.62 22.93-21.1"/><path fill="#FEFEFE" d="M1294.2 1548.13c3.69-.09 7.59-.38 11.13.86 5.61 1.97 9.92 6.6 12.13 12.04 3.74 9.25 3.31 22.12-.67 31.22-3.23 7.35-7.4 10.57-14.69 13.44-3.93.2-8.22.03-11.89-1.5-5.66-2.36-10.07-7.45-12.33-13.06-3.48-8.65-3.71-20 .04-28.6 3.43-7.85 8.53-11.34 16.28-14.4"/><path fill="#092339" d="m1120.57 1276.73 9.69 9.13c-10.08 15.07-21.76 29.25-32.69 43.73-18.16 24.07-35.99 48.29-54.44 72.15l-114.275 148.75c-3.713-2.41-6.965-5.48-10.299-8.38 27.153-37.81 56.663-73.54 84.854-110.53 39.25-51.49 77.35-103.78 117.16-154.85m20.93-336.088c4.11 2.358 6.94 5.739 9.98 9.259-7.69 11-16.51 21.534-24.72 32.183a6001 6001 0 0 0-43.28 57.046l-141.488 188.86c-4.316-1.01-7.11-4.48-10.059-7.54 8.474-15.57 21.57-30.19 32.271-44.34l57.736-76.96 77.05-103.887c13.68-18.292 26.87-38.005 42.51-54.621M355.587 1446.91c3.55-.09 6.181-.13 9.516 1.17 2.155 2.73 2.289 4.82 2.567 8.28 1.649 20.48.294 42.1.244 62.71l.179 114.63c6.957-7.32 13.906-14.76 20.492-22.42 5.675-6.61 11.52-15.61 18.507-20.81 2.394-1.78 5.309-3.23 8.369-2.31 2.496.75 2.662 1.91 3.598 4.09-.217 4.08-1.612 7.06-3.867 10.46-7.431 11.2-18.258 21.48-27.048 31.74-7.32 8.55-14.835 19.71-23.26 26.94-1.971 1.7-4.19 2.26-6.685 2.75-5.766-3.46-59.351-62.97-60.015-68.23-.304-2.4.144-3.89 1.865-5.64 1.047-1.07 3.381-2.17 4.818-2 9.411 1.13 40.468 41.16 48.155 49.98l-.16-123.32c-.027-20.06-1.467-41.32.184-61.26.229-2.76 1.093-4.43 2.541-6.76M1221.35 161.766c2.2.494 4.14 1.246 5.84 2.774 9.58 8.621 18.38 18.938 27.48 28.137 11.27 11.392 24.26 22.719 34.17 35.262 1.9 2.402 3.5 4.543 3.62 7.699-.84 2.762-1.94 4.76-3.71 7.05-7.91 10.231-54.76 58.138-63.86 63.366-2.58.231-4.88.311-7.07-1.378-1.83-1.409-2.68-3.232-2.4-5.536 1.26-10.124 42.45-45.826 52.23-55.178-21.89.766-43.95.264-65.86.295-17.64.193-119.95 1.308-128.1-1.783-2.92-1.109-4.06-2.525-5.22-5.333.21-1.708.3-3.339 1.39-4.773a5.7 5.7 0 0 1 1.11-1.133c1.89-1.469 4.47-1.926 6.81-2.045 19.95-1.014 40.79.733 60.82.87a3851 3851 0 0 0 130.48-.825c-14.12-16.73-30.29-31.133-45.32-46.989-3.32-3.507-9.19-9.028-9.04-14.064 1.32-3.367 3.73-4.558 6.63-6.416m-502.432 358.64c2.082.044 3.977.245 5.902 1.118 13.18 5.975 27.908 28.383 33.375 41.396 6.276 14.94 6.837 29.39.649 44.418-5.381 13.066-26.776 38.578-39.584 43.011-2.475.857-3.57.652-5.881-.408-4.693-6.752.069-15.311.009-22.848-.005-.587-.024-1.173-.036-1.76-3.563 2.58-7.241 5.474-11.226 7.354-7.15 3.373-15.432 3.253-22.692.347-10.971-4.392-18.801-14.039-22.957-24.881-4.929-12.857-4.888-27.526.861-40.112 6.227-13.632 18.762-24.132 32.778-29.168 9.665-3.473 16.827-1.9 25.785 2.103-.101-7.306-.783-14.015 3.017-20.57"/><path fill="#FEFEFE" d="M727.168 539.398c.978.697 1.825 1.316 2.676 2.169 12.109 12.141 20.872 29.1 20.263 46.516-.652 18.652-12.18 32.335-25.295 44.196 0-5.236.816-11.936-1.043-16.872-1.118-2.97-2.52-4.07-5.329-5.354-8.059.422-14.814 6.85-21.092 11.464-.573.26-1.142.531-1.72.781-4.156 1.797-8.89.667-12.892-1.173-7.083-3.258-11.691-11.495-14.152-18.544a41.63 41.63 0 0 1 2.642-33.002c4.734-8.829 15.399-18.753 25.065-21.515 12.524-3.578 12.191 6.369 20.635 10.997 2.321.034 3.417.083 5.343-1.521 4.863-4.048 4.463-12.379 4.899-18.142"/><path fill="#092339" d="M1817.07 872.888c.34-.018.68-.049 1.02-.055 2.97-.055 6.08-.014 8.16 2.449 1.64 1.953 2.3 4.809 2.52 7.292.73 8.201-.26 17.374-.24 25.683l.15 64.051-.26 214.522.13 396.2.44 132.44c-.01 21.05 2.08 46.25-1.4 66.86-3.62 2.49-10.2 2.49-14.61 2.6-21.39.54-43.1-.55-64.53-.66l-142.43-.27-590.27-.03c-1.93.02-4.23.16-6.12-.3-3.72-.89-6.34-4.05-8.21-7.17.17-1.49-.11-1.92 1.15-2.99 3.39-2.87 8.68-3.28 12.93-3.48 29.77-1.4 60.13-.18 89.96-.15l171.61.01 535.69.21a16415 16415 0 0 0 .29-257.94l-.02-366.5-.06-177.454-.06-57.959c0-9.792-.56-19.989.23-29.733.27-3.381 1.85-5.137 3.93-7.626M735.194 1618.27c13.156-.05 26.349-.31 39.495.29 2.238 14.03 1.005 29.75.991 44 15.752 4.86 30.322 11.43 44.392 20.02 10.622-11.2 24.253-24.99 37.426-33.06 9.45 7.55 17.647 17.13 25.869 25.98-9.068 13.1-22.945 24.6-33.772 36.54a123.3 123.3 0 0 1 18.567 43.71c3.374-.06 6.753-.04 10.128-.06 8.422-.04 38.46-1.83 43.041 2.71 1.505 6.62 2.006 30.92-.874 36.61-9.812 4.11-38.499 1.99-50.401 1.97-4.799 16.54-11.053 30.98-20.544 45.35 11.424 11.29 22.378 23.14 33.327 34.88-8.074 9.37-16.765 18.89-26.055 27.05-13.21-9.74-25.211-20.71-37.259-31.82-14.368 9.77-29.352 15.27-46.21 19.13.042 5.92 1.288 42.24-.511 45.43-.49.86-1.292 1.51-1.938 2.26-8.355.3-30.219 3.27-35.98-3.31-4.552-5.19-3.066-37.06-3.29-45.3-16.298-1.5-33.58-8.1-46.334-18.41-10.554 10.71-21.372 23.34-33.966 31.66-9.593-9.27-20.257-18.55-27.688-29.68 8.712-11.82 21.513-24.35 32.608-33.97-10.323-11.65-15.763-28.1-21.605-42.28-10.201-.27-41.553 1.98-48.659-2.45-6.53-8.64-3.135-29.24-2.747-39.83l54.384-.58c1.532-16.86 9.298-29.26 18.735-42.86-8.925-7.59-23.753-19.03-30.128-28.41-1.929-2.84-2.893-5.63-2.16-9.09 1.68-7.92 18.062-20.58 24.669-25.18 12.836 8.15 25.217 21.04 36.038 31.76 15.391-7.09 30.698-14.52 47.655-16.82-.006-11.54-3.002-37.45 2.796-46.24"/><path fill="#B4BBBF" d="m740.82 1626.91 26.467.02c-.065 14.17-.312 28.37.35 42.54 20.231 6.27 36.981 14.41 55.169 25.19 10.693-12.88 22.743-23.97 34.934-35.41l15.188 16.42c-10.925 11.97-25.541 22.45-34.546 35.92 11.526 16.73 18.879 33.19 24.469 52.62 17.056-.41 34.156-.18 51.219-.18.151 8.13-.01 16.28-.039 24.41-16.676 1.05-33.762.37-50.494.55-5.344 19.98-12.765 37.81-25.409 54.33 10.625 11.85 22.448 22.92 34.172 33.67l-15.63 15.67c-12.989-9.61-24.813-20.9-36.821-31.7-.291.26-.591.51-.872.78-13.893 13.28-35.072 18.13-53.142 22.99-.28 13.18.665 26.64-.185 39.78-.209 3.22-.452 4.2-2.837 6.37-7.199.44-14.328.49-21.539.42-.705-15.46-.256-31.11-.281-46.6-22.042-5.01-38.986-10.09-57.082-24.08-9.776 11.26-20.805 21.72-31.141 32.48-6.755-5.76-12.804-12.15-18.94-18.56 11.431-10.31 22.517-20.98 34.032-31.19-4.631-7.78-9.515-15.51-13.593-23.59-3.936-7.79-6.116-19.9-11.705-26.23-6.464-7.31-40.864-4.72-51.657-5.13l.081-23.96c17.756-.26 35.567.82 53.297-.03 3.883-20.87 10.995-35.58 22.572-53.17-11.655-11.05-23.21-22.42-34.349-33.98 4.948-6.16 10.009-12.07 15.405-17.84 12.919 10.27 24.308 23.06 36.403 34.35 14.889-13.05 37.252-18.95 56.297-22.34z"/><path fill="#092339" d="M738.843 1689.3c21.385-2.74 45.932 2.79 63.95 14.63 19.874 13.06 35.946 36.74 40.667 60.04 4.503 22.22-1.479 43.4-14.033 61.95-15.001 22.17-35.98 35.71-62.183 40.82-23.558 2.96-47.341-1.82-67.156-15.28-18.737-12.74-32.491-35.36-36.646-57.5-4.319-23.01.66-48.15 14.162-67.35 14.471-20.58 36.765-32.93 61.239-37.31"/><path fill="#FEFEFE" d="M742.001 1697.35c19.097-1.78 38.94 2.15 55.194 12.55 18.337 11.72 33.809 32.92 38.444 54.28 4.164 19.18-1.034 38.47-11.554 54.72-13.953 21.55-33.198 33.73-58.105 38.95-22.072 2.25-44.535-1.38-62.783-14.76-16.906-12.4-29.129-32.99-32.257-53.69a80.42 80.42 0 0 1 14.428-58.91c13.771-18.66 33.973-29.62 56.633-33.14"/><path fill="#1D2429" d="M697.716 1772.99c.262-2.86.737-5.67 1.551-8.43 3.519-11.91 11.711-24.04 22.589-30.26l-.794 1.43c-2.697 4.76-5.309 7.32-6.873 12.9-2.693 4.09-5.239 8.67-8.327 12.45l-.609-1.64.593-3.17c-3.662 3.4-5.687 12.09-7.008 16.92z"/><path fill="#092339" d="M721.856 1734.3c7.805-7.66 22.545-10.06 33.197-9.9 15.448.23 28.134 5.69 38.976 16.78 9.548 9.76 15.337 23.31 14.994 37.03-.367 14.63-7.454 30.22-18.137 40.15-10.784 10.02-26.269 15.47-40.963 14.56-16.066-.99-31.353-9.6-41.482-21.96-7.294-8.9-12.869-24.17-11.237-35.72.127-.91.27-1.32.512-2.25l1.122.2c1.321-4.83 3.346-13.52 7.008-16.92l-.593 3.17.609 1.64c3.088-3.78 5.634-8.36 8.327-12.45 1.564-5.58 4.176-8.14 6.873-12.9z"/><path fill="#779BA8" d="M704.092 1777.03c-.235-3-.492-6.83.679-9.62.608-1.46 1.322-1.4 2.637-1.99 3.68.49 6.135 2.56 9.116 4.65-.381 3.02-.232 4.07-2.199 6.47-3.398 1.11-6.724.68-10.233.49"/><path fill="#46C8E4" d="M774.311 1764c2.996.13 5.976.32 8.974.15l1.69 1.17c.234 5.77 3.188 6.65 2.54 9.06-.412-.38-.82-.76-1.238-1.14-.474-.42-.959-.84-1.438-1.26-2.595 2.15-3.792 3.69-7.16 4.23-4.088-1.99-7.014-7.08-9.161-11.01 2.572-.08 3.626.11 5.793-1.2"/><path fill="#46C8E4" d="M725.449 1739.11c11.655-6.27 28.393-10.66 41.618-6.9 2.645.75 4.978 2.06 6.226 4.63 2.9 5.98 1.416 14.92.208 21.25-.478 2.5-.199 3.59.81 5.91-2.167 1.31-3.221 1.12-5.793 1.2-1.261 3.36-1.959 5.88-4.946 8.03-7.479.8-11.803-9.28-19.218-1.1l-.207 1.02c-3.472-.27-6.831-.51-10.227-1.31-2.624.89-3.534 1.73-5.272 3.88.995-4.8.622-6.67-.798-11.19-1.685-5.36-2.503-9.51.185-14.61.142-.27.294-.54.441-.81a58 58 0 0 0-2.407-4.07c-1.36-2.11-.785-3.5-.62-5.93"/><path fill="#092339" d="M725.449 1739.11c3.285 1.22 5.413 1.94 7.607 4.75.883 3.74-3.678 12.93-2.262 14.9 2.04 2.86 6.117 3.42 5.658 7.86-.075.73-.789 3.13-1.203 3.78-.347.56-.886.96-1.329 1.44-2.624.89-3.534 1.73-5.272 3.88.995-4.8.622-6.67-.798-11.19-1.685-5.36-2.503-9.51.185-14.61.142-.27.294-.54.441-.81a58 58 0 0 0-2.407-4.07c-1.36-2.11-.785-3.5-.62-5.93"/><path fill="#46C8E4" d="m762.821 1779.07 1.352 2.53 1.757.49 1.865-1.3c-.338-2.1-.683-2.54-1.887-4.19l.692-1.35c5.115.8 7.807 6.58 12.916 7.13.44-.38.87-.77 1.321-1.14 4.498-3.68 11.114-1.1 15.563-5l-.065-1.24c-2.024-.96-4.03-1.86-6.122-2.67-.278-4.46.122-10.42-2.465-14.2l-1.66-.59-3.068 2.37-1.63-.75c-.538-7.15-.676-14.42-1.523-21.53 11.014 8.41 19.868 18.2 21.577 32.56 1.563 13.14-3.087 27.55-11.329 37.79a49.1 49.1 0 0 1-32.749 17.81 47.9 47.9 0 0 1-35.571-11.09c-10.239-8.52-15.253-18.97-18.164-31.67 3.816-.09 7.9.21 11.678-.28 2.749-.34 3.713-1.48 5.337-3.55.952-3.81.066-7.26-.607-11.05-4.506-4.95-7.619-5.85-14.177-7.07 3.088-3.78 5.634-8.36 8.327-12.45 3.546-3.38 7.485-6.4 11.26-9.52-.165 2.43-.74 3.82.62 5.93a58 58 0 0 1 2.407 4.07c-.147.27-.299.54-.441.81-2.688 5.1-1.87 9.25-.185 14.61 1.42 4.52 1.793 6.39.798 11.19 1.738-2.15 2.648-2.99 5.272-3.88 3.396.8 6.755 1.04 10.227 1.31l.207-1.02c2.301.06 4.557.14 6.85.36-.291 2.02-1.118 2.35-2.475 3.81 4.061-.2 7.441.29 11.396 1.19z"/><path fill="#1D2429" d="M728.648 1775.72c1.738-2.15 2.648-2.99 5.272-3.88 3.396.8 6.755 1.04 10.227 1.31l.207-1.02c2.301.06 4.557.14 6.85.36-.291 2.02-1.118 2.35-2.475 3.81 4.061-.2 7.441.29 11.396 1.19l2.696 1.58-.866.45c1.49 7.58 3.905 17.8-.437 24.82-1.747 2.83-7.193 6.37-10.524 6.83-2.644.35-4.915-.43-6.916-2.17-8.075-7.02-8.125-21.5-8.44-31.3-2.589-.44-4.577-.87-6.99-1.98"/><path fill="#46C8E4" d="M748.729 1776.3c4.061-.2 7.441.29 11.396 1.19-5.75 9.54-8.196.7-12.616 2.98.307 2.72 8.85 6.59 11.083 9.51 1.527 2 2.506 4.6 1.656 7.08-.702 2.05-3.393 4.79-5.417 5.71-2.397 1.08-4.934.99-7.297-.2-2.168-1.08-3.544-3.18-4.391-5.38-1.826-4.72-2.818-15.22-.746-19.96 2.07-.73 4.162-.78 6.332-.93"/><path fill="#092339" d="M735.972 1198.98c7.948.14 32.749-2.41 38.23 1.06 4.311 12.25 2.448 41.85 2.812 55.88 17.707 4.11 32.502 10.41 47.692 20.35 13.531-11.87 27.399-26.11 43.091-34.92 8.715 8.77 17.487 17.91 25.126 27.63-10.459 14.38-24.869 26.74-36.543 40.26 10.409 16.1 15.278 31.9 20.249 50.2 16.491.56 39.717-2.06 55.148 1.57 4.346 4.67 2.624 24.84 2.51 31.77-.029 1.77-.158 5.02-1.654 6.14-7.468 5.58-46.184 2.73-57.142 2.36-3.852 20.45-9.998 35.22-21.77 52.34 11.949 11.46 29.849 26.9 37.894 41.02-7.506 8.08-17.691 22.39-27.286 27.23-8.129-2.46-35.58-29.94-41.571-37.66-15.622 8.69-30.279 15.33-47.81 19.38.039 11.11 1.76 41.6-.521 50.57-.56 2.21-1.082 2.35-2.902 3.47-8.464.14-32.202 2.97-37.935-3.29-1.4-1.53-2.042-3.59-2.306-5.6-.796-6.09.402-12.85.554-18.99.208-8.39-.045-16.83-.164-25.22-17.901-4.27-34.288-10.1-50.025-19.73-12.29 12.48-26.696 27.17-41.103 37.11-10.217-7.58-18.95-18.44-27.572-27.75 7.256-12.47 27.214-30.19 39.248-38.54-11.36-16.82-18.363-34.28-23.597-53.77-14.92.12-39.078 2.35-52.837-1.27-1.673-.44-2.435-.56-3.04-2.28-.938-2.66-.26-34.67.742-38 8.465-3.68 46.094-1.63 56.747-1.65 2.013-19.87 8.116-34.61 19.441-50.97-13.393-11.32-25.582-24.18-37.236-37.25a77 77 0 0 1 1.987-2.24c5.538-6.02 20.216-24.12 28.073-24.48 13.501 8.33 26.941 21.98 38.654 32.75 16.609-10.71 32.731-16.23 51.837-20.8.562-10.19-1.522-50.8 2.979-56.68"/><path fill="#B4BBBF" d="M831.11 1283.31c11.634-10.49 23.191-21.17 35.529-30.84 4.912 5.21 10.205 10.33 14.372 16.16-11.268 13.26-24.457 25.36-34.99 39.15-5.975-1.91-11.43-18.4-14.911-24.47"/><path fill="#B4BBBF" d="m742.278 1208.04 25.677-.02.54 54.26c23.428 5.72 35.176 13.33 55.952 24.45 2.942-.06 4.492-1.67 6.663-3.42 3.481 6.07 8.936 22.56 14.911 24.47.126 5.37 11.199 19.89 13.788 25.68 4.771 10.66 6.699 22.82 10.114 34 18.453 1.61 37.599.62 56.132.61.235 8.31.135 16.65.171 24.96-19.36.09-38.738-.28-58.098-.47-3.416 26.5-11.085 40.84-26.053 62.53 12.455 13.44 26.462 25.85 39.342 38.95-6.329 5.59-12.329 11.55-18.385 17.43-14.365-11.16-29.152-25.43-40.571-39.57-17.327 13.42-34.868 19.32-55.776 24.88-1.1 17.43-.48 35.12-.415 52.58-8.514.21-17.047.18-25.564.26a3188 3188 0 0 0 .023-52.24c-22.793-4.37-40.18-11.45-59.665-23.94-14.049 12.45-27.038 26.13-40.549 39.17-5.995-5.97-11.159-12.78-16.468-19.35 12.574-12.26 24.988-26.6 41.693-33.03-14.909-24.48-22.257-39.76-29.739-67.25a2673 2673 0 0 1-54.261-.16c-.049-8.58.158-17.17.246-25.75a1774 1774 0 0 0 54.933-.14c3.823-23.68 9.831-40.23 23.845-59.85-11.675-12.55-24.869-24.15-37.247-36.04 5.946-5.98 11.539-12.35 17.234-18.56 13.598 10.65 25.28 23.6 39.077 34.15 22.312-11.84 37.007-18.24 62.019-23.14 1.255-18.4.715-37.03.431-55.45"/><path fill="#092339" d="M742.669 1282.4c22.082-2.14 45.508 4.02 63.886 16.43a97.08 97.08 0 0 1 41.682 62.7 95.82 95.82 0 0 1-15.229 72.46c-16.486 24.12-39.336 37.67-67.787 42.88-26.073 2.32-50.943-2.54-71.971-18.94a98.36 98.36 0 0 1-36.994-66.81 99.8 99.8 0 0 1 21.215-73.56c16.585-20.63 39.046-32.37 65.198-35.16"/><path fill="#FEFEFE" d="M742.538 1291.37c19.711-3.14 42.406 3.64 58.699 14.59 20.512 13.77 33.787 34.49 38.51 58.69 4.353 22.29-1.216 46.25-13.949 64.94-14.766 21.67-34.339 33.31-59.791 38.15-23.391 3.31-46.968-1.29-66.138-15.6a87.4 87.4 0 0 1-34.313-58.34c-3.47-24.51 1.796-49.54 17.057-69.31 15.113-19.59 35.727-30.02 59.925-33.12"/><path fill="#092339" d="M748.443 1320.31a55.9 55.9 0 0 1 36.473 9.14c12.901 8.73 22.376 22.31 25.276 37.69 2.958 15.69.151 32.14-9.221 45.27-10.617 14.87-25.082 21.54-42.655 24.52-15.022.47-28.079-1.28-40.747-10.27-12.753-9.06-20.606-22.84-22.981-38.22-2.441-15.8.51-31.55 10.228-44.48 10.588-14.1 26.58-21.25 43.627-23.65"/><path fill="#46C8E4" d="M750.156 1327.38c11.041.16 20.78 1.46 30.332 7.58a52.38 52.38 0 0 1 22.825 33.56c2.72 13.71.152 27.79-7.976 39.26-9.43 13.3-22.504 19.31-38.013 22.24-13.39.42-25.587-1.17-36.703-9.37-10.576-7.8-17.222-19.19-19.308-32.1-2.231-13.82.365-28.19 8.824-39.54 9.905-13.28 24.086-19.59 40.019-21.63"/><path fill="#1D2429" d="m744.542 1353 3.434 3.51c-8.338 12.6-16.841 24.6-26.321 36.38 1.644 2.44 4.352 2.98 7.155 3.55a190 190 0 0 0 5.198.92l3.484 4.79c4.311 5.65 7.235 2.26 12.488 10.97l1.645.15c2.487-2.76 3.075-4.15 3.853-7.79 4.324-1.52 6.661-2.91 9.888-6.25l1.636 1.22 2.513-1.14c.152 2.19.489 1.3-.85 2.87-4.92 5.77-11.948 13.73-18.329 17.73-4.883-4.63-8.858-10.12-14.145-14.26-.988 1.47-2.135 3.55-3.448 4.71-1.937 1.7-2.871 1.57-5.213 1.4l-1.079-1.94c.117-3.69 2.363-5.83 4.558-8.56-1.361-.83-2.336-1.22-3.938-1.38-4.255-.42-7.508-1.01-10.962-3.74-1.938-1.54-1.81-1.86-2.066-4.19 2.372-5.54 7.774-8.93 12.622-12.12a241 241 0 0 1-2.958-1.95c-3.418-2.27-5.573-3.5-6.432-7.76l.876-1.32c1.129-.03 1.77-.1 2.941.12 3.595.68 5.663 3.98 7.812 6.66 4.375-8.06 10.618-14.9 15.638-22.58"/><path fill="#46C8E4" d="M744.542 1353c2.6-5.49 5.457-11.3 11.468-13.81 2.264-.94 2.578-.58 4.603.45 1.631 3.52 1.264 8.59 4.355 10.53 2.091.01 4.179.04 6.27 0 2.705-.06 3.95.08 6.327 1.62 1.483 2.22 1.847 3.43 1.16 6.12-.926 3.62-2.642 7.24-3.924 10.77 3.791 2.33 10.535 5.34 12.602 9.29-.406 2.49-1.084 3.52-3.205 5.02-5.108 3.6-14.316 5.29-18.239 9.75 1.222 2.16 2.56 4.3 3.556 6.57l-2.513 1.14-1.636-1.22c-3.227 3.34-5.564 4.73-9.888 6.25-.778 3.64-1.366 5.03-3.853 7.79l-1.645-.15c-5.253-8.71-8.177-5.32-12.488-10.97l-3.484-4.79a190 190 0 0 1-5.198-.92c-2.803-.57-5.511-1.11-7.155-3.55 9.48-11.78 17.983-23.78 26.321-36.38z"/><path fill="#092339" d="M744.542 1353c2.6-5.49 5.457-11.3 11.468-13.81 2.264-.94 2.578-.58 4.603.45 1.631 3.52 1.264 8.59 4.355 10.53 2.091.01 4.179.04 6.27 0 2.705-.06 3.95.08 6.327 1.62 1.483 2.22 1.847 3.43 1.16 6.12-.926 3.62-2.642 7.24-3.924 10.77 3.791 2.33 10.535 5.34 12.602 9.29-.406 2.49-1.084 3.52-3.205 5.02-5.108 3.6-14.316 5.29-18.239 9.75 1.222 2.16 2.56 4.3 3.556 6.57l-2.513 1.14-1.636-1.22c-3.358-2.84-5.762-3.39-10.053-4.13 4.183-8.98 16.944-12.75 25.47-16.25-3.117-2.02-5.869-3.92-9.627-4.47-1.885-.27-2.16-.1-3.772-1.24 1.707-4.64 6.517-12.47 6.013-17.02-2.194-1.58-3.765-2.35-6.384-3.02l-.868.55c-.03 1.9-.123 3.69-.408 5.57-2.223-.06-2.588-.18-4.341-1.44-3.309-2.39-3.662-7.94-4.415-11.71l-1.313-.22c-3.404 2.87-5.414 6.9-7.692 10.66zM316.906 987.474c9.953-.031 28.33-2.388 36.37 3.359 1.167 1.762 2.076 3.232 2.391 5.354.787 5.313-.392 11.453-.575 16.873-.33 9.77-.16 19.59-.145 29.36 13.524 4.5 26.312 9.66 39.106 15.91 14.367-10.79 25.287-26.77 40.393-36.53 10.467 7.79 43.456 38.39 47.439 49.34-2.575 7.45-28.432 28.62-35.983 36.28 6.974 13.85 12.846 27.82 18.094 42.4 13.482.52 36.2-.68 48.257 1.54 2.624.48 3.367 1.29 4.56 3.66 4.22 8.38 2.412 56.43-1.316 66.11-12.597 3.29-40.041.63-53.826.4-3.624 14.39-10.44 27.23-17.524 40.13.958.81 1.897 1.6 2.802 2.46 5.65 5.38 31.67 30.34 31.752 35.96-6.847 11.62-36.04 41.39-48.029 46.83-7.695-2.1-28.573-27.44-36.771-34.58l-1.516-1.31a123.4 123.4 0 0 1-34.56 13.79c-3.355 18.54-4.208 37.31-6.45 56-9.851.32-19.767.11-29.625.13-10.899-.01-23.16 1.13-33.84-.99-3.709-4.05-6.523-46.67-7.02-54.71-11.55-3.52-22.57-8.47-33.597-13.33-8.271 8.97-30.288 31.26-40.456 35.86-8.36-3.56-44.178-41.43-48.644-49.02 11.749-13.15 24.227-25.8 36.277-38.69-5.952-12.82-11.414-25.73-15.661-39.23-18.761-.77-37.571-1.28-56.307-2.51-1.702-10.43-3.044-55.31.037-63.93 8.993-4.56 42.97-4.36 55.469-5.38 4.006-12.52 10.24-24.11 16.768-35.46-11.034-15.4-27.35-27.48-36.919-43.86a585 585 0 0 0 22.948-22.4c5.379-5.65 10.646-12.51 16.688-17.35 1.923-1.55 4.256-2.78 6.763-2.91 8.058-.41 32.802 26.64 39.749 33.42l39.072-16.11c-.174-9.53-2.799-49.659 2.249-55.068 9.351-2.868 21.75-1.687 31.58-1.798"/><path fill="#779BA8" d="m331.989 996.475 14.057-.149c.149 17.764-1.185 35.534-.607 53.294 7.882 3.28 16.291 5.44 24.286 8.49 9.553 3.65 18.663 8.32 28.058 12.34 11.496-13.28 23.864-25.52 36.369-37.83 11.816 12.75 24.549 24.8 36.802 37.15-12.796 12.42-26.073 23.8-37.963 37.18 5.422 7.84 10.515 15.49 14.442 24.21 3.069 6.82 3.863 21.87 9.25 26.1 5.709 4.48 43.821 2.65 53.04 2.63l-1.206 52.7c-18.176-.09-36.34-1.39-54.528-1.44-4.69 18.84-11.077 32.97-21.243 49.45 8.209 14.4 23.244 26.8 34.254 39.31-10.707 12.83-23.49 24.44-35.68 35.86-13.078-11.9-24.366-25.25-36.076-38.44-15.269 9.06-29.413 14.81-46.308 20.3-4.145 16.69-4.179 36.22-5.067 53.4l-35.369-.06-13.66-.04c-1.613-16.87-3.49-34.63-3.131-51.56-16.175-7-31.295-11.09-47.04-19.94-11.24 13.51-24.802 24.97-37.776 36.78-12.989-10.82-23.686-24.17-36.445-35.3 10.626-13.77 23.732-25.76 36.399-37.61-7.838-17.29-15.118-33.82-21.329-51.82-18.357.23-37.024-.31-55.344-1.43-.261-16.53.378-33.16.613-49.69 18.006-.28 35.968-1.38 53.995-1.52 3.227-8.61 6.196-17.31 10.132-25.64 3.507-7.41 7.804-14.38 11.26-21.83-11.38-13.66-24.659-26.09-36.485-39.44a1304 1304 0 0 0 34.572-36.86c13.724 11.96 24.621 27.55 40.228 37.17 8.85-5.6 18.032-10.55 27.984-13.93 6.301-2.13 13.386-2.88 19.197-6.15 1.379-1.74 1.955-3.11 2.02-5.36.169-5.89-1.061-12.25-1.468-18.16-.725-10.51-.939-21.11-1.299-31.634a3900 3900 0 0 0 41.066-.531"/><path fill="#092339" d="M316.738 1073.39c24.809-2.95 54.165 9.49 73.598 24.06 22.018 16.51 38.105 41.12 41.823 68.55 3.934 29.03-3.054 59.34-21.113 82.59-21.885 28.17-49.959 41.11-84.78 45.36-27.852.84-52.769-6.58-74.916-23.7-23.059-17.83-39.311-43.91-42.788-73.05-3.657-30.63 6.141-56.8 25.219-80.54 20.863-25.96 50.207-39.56 82.957-43.27"/><path fill="#FEFEFE" d="M313.441 1083.35c.222-.04.443-.1.668-.11 25.564-2.24 53.037 7.21 73.067 22.98a94.36 94.36 0 0 1 35.933 64.28 102.86 102.86 0 0 1-22.752 76.72c-18.182 22.21-44.569 34.37-72.77 37.22-24.053 2.28-49.869-5.24-69.174-19.64a102.46 102.46 0 0 1-40.103-66.71c-3.674-25.34 4.53-51.91 19.781-72.22 18.493-24.62 45.29-38.19 75.35-42.52"/><path fill="#092339" d="M375.241 1113.76c.393.09.801.12 1.179.25 5.49 1.97 14.663 13.75 17.616 18.82 2.816 4.84 2.031 6.5-1.994 9.91-21.142 17.91-47.028 39.8-57.45 66.04-2.613 6.58-3.498 13.88-5.531 20.66-3.065 10.23-10.037 20.03-19.788 24.92-9.316 4.67-19.199 3.06-28.731.16-5.832-2.88-11.166-6.67-15.337-11.69-6.872-8.28-9.651-18.54-8.375-29.19 1.152-9.62 5.812-18.25 13.675-24.01 10.744-7.87 22.491-8.56 35.103-6.3a269.7 269.7 0 0 1 69.633-69.57"/><path fill="#FEFEFE" d="M374.744 1124.72c4.02 3.19 7.471 7.31 10.997 11.04-18.953 21.33-41.782 34.2-55.131 62.33-5.186 10.93-6.279 23.24-11.576 34.04-3.37 6.88-8.778 13.32-16.343 15.59-8.888 2.67-17.478-.76-25.212-4.95-4.404-3.92-8.021-7.86-10.399-13.34-3.092-7.12-3.353-15.21-.206-22.37 3.164-7.18 9.167-12.47 16.548-15.06 9.152-3.21 17.265-1.41 25.766 2.42 16.486-28.24 39.898-50.04 65.556-69.7"/><path fill="#092339" d="M285.268 1209.16c2.703-.36 5.546-.69 8.245-.1 3.618.79 7.205 3.62 9.069 6.78 1.984 3.36 2.313 7.33 1.33 11.07-1.418 5.39-5.188 8.08-9.736 10.84-2.529.48-5.108.77-7.673.35-3.735-.62-7.382-2.96-9.419-6.16-2.139-3.36-2.534-7.52-1.632-11.35 1.382-5.87 4.901-8.43 9.816-11.43"/><path fill="#FEFEFE" d="M287.875 1215.5c2.283.24 4.75.64 6.606 2.13 1.883 1.52 2.574 3.39 2.38 5.76-.249 3.05-2.82 5.28-4.83 7.32-2.399-.18-4.953-.19-6.796-2.02-1.614-1.61-2.258-3.37-2.054-5.63.303-3.36 2.43-5.33 4.694-7.56"/><path fill="#092339" d="M725.579 736.139a2717 2717 0 0 0 39.613-.244c7.378-.166 15.565-1.265 22.881-.51 2.532.262 4.141 1.048 6.193 2.589 3.98 6.028 2.458 47.962 3.601 59.127 13.389 3.172 26.072 9.534 38.012 16.211 11.536-11.075 34.277-37.726 46.495-43.939 8.753 6.982 46.308 41.714 49.164 50.042-3.307 9.955-32.583 38.658-41.325 47.961 6.447 10.245 12.964 22.468 15.568 34.374 13.549 1.374 52.829 1.153 62.745 6.474 1.315 6.389 1.282 62.979-1.212 67.418-1.895 3.372-52.449 7.381-60.344 8.885l-1.3.259c-3.71 12.801-8.426 26.124-16.403 36.954 14.91 14.06 29.757 30.5 42.679 46.41-6.569 6.62-40.141 42.27-46.599 43.31-7.957 1.28-39.717-30.11-47.942-36.41-12.672 7.54-26.155 12.75-40.2 17.11-1.302 17.54-2.075 35.02-2.751 52.59-.123.54-.156 1.11-.368 1.63-.889 2.16-2.877 3.04-5.021 3.47-5.421 1.1-47.704.66-54.041-.15-2.678-.34-5.642-1.02-7.723-2.86-1.769-1.56-2.791-3.89-3.144-6.19-.905-5.9-.208-12.64-.321-18.64-.184-9.85-.925-19.72-1.529-29.55-16.251-4.44-30.092-11.38-44.972-19.09-13.308 13.34-26.801 27.6-41.591 39.27-16.928-13.61-31.409-30.86-46.196-46.74 7.373-14.09 25.571-29.91 36.621-41.46-7.042-13.71-12.777-27.598-17.921-42.097-8.195-.578-52.169-1.312-56.691-4.459-3.721-10.995-4.042-58.936.85-69.299 7.149-2.581 46.8-2.899 56.948-3.558 3.242-15.929 8.401-26.92 17.288-40.523-9.621-8.403-35.756-32.039-41.202-42.227 2.773-8.008 41.021-44.32 49.724-51.384 14.454 14.649 28.524 29.717 43.514 43.823 13.847-8.15 27.317-13.929 42.827-18.168.982-13.9-.955-50.159 4.073-60.409"/><path fill="#779BA8" d="m594.077 915.581 13.622-.853c-2.64 19.915-1.994 38.402-.408 58.325-10.846-.909-21.661-1.786-32.54-2.207l-15.85-.874-.046-52.955a662 662 0 0 0 35.222-1.436m141.7-170.081 51.222-.441c.087 8.977 2.028 44.694-1.223 50.462l-3.108-.003c-17.458-1.449-34.281-1.865-51.762-.281 1.145-12.484-.544-38.877 2.607-49.022zm-101.535 38.968c4.302 1.138 31.64 31.039 37.214 36.055-14.708 9.946-26.079 23.329-37.731 36.524-6.874-1.819-31.47-28.341-37.462-34.356 12.478-12.943 24.945-25.833 37.979-38.223m246.771-2.651c12.711 9.204 28.61 27.437 39.406 39.381-10.965 13.39-24.085 25.766-36.176 38.197-4.105-1.963-8.662-8.886-11.909-12.462-8.814-9.711-18.054-18.66-27.851-27.369 11.536-13.065 24.442-25.16 36.53-37.747"/><path fill="#779BA8" d="M751.655 801.408c20.476-1.491 41.95 2.671 60.742 10.779 43.755 18.878 69.791 55.67 86.765 98.603 20.345.778 40.571 3.251 60.897 4.358l.066 53.477c-21.138 1.272-42.802 5.055-63.829 7.847-1.99 17.332-9.197 31.878-19.323 45.948 14.13 14.78 28.924 29.39 42.009 45.1-11.845 11.2-23.3 22.56-34.445 34.46-17.007-12.29-31.273-27.87-49.008-39.22-10.931 12.43-31.452 17.95-47.301 20.13l-1.176 12.86a1849 1849 0 0 0-1.085 45.69l-52.357-.23c-.546-18.71-.951-37.27-2.409-55.94-20.457-4.95-37.787-13.69-56.114-23.78l-38.615 38.5c-12.667-10.22-23.904-23.76-35.221-35.52 12.396-12.86 25.699-25.69 36.614-39.84-12.578-20.52-19.891-41.478-22.516-65.473-4.057-37.077 4.699-70.468 28.153-99.614 28.612-35.555 62.934-53.342 108.153-58.135"/><path fill="#092339" d="M899.923 936.727c1.329.52 2.432 1.257 3.644 2.004.941 1.771 1.321 2.986 1.611 5.008 1.084 7.553 1.173 18.376-3.635 24.496l-3.291-.926c-1.823-3.149-1.833-7.245-1.967-10.829-.24-6.39-.761-14.924 3.638-19.753m-152.31-103.358c26.112-2.922 54.215 5.755 75.24 21.176a116.75 116.75 0 0 1 46.514 77.65 111.6 111.6 0 0 1-21.59 83.155c-19.831 26.25-45.3 40.18-77.633 44.57-30.297 1.11-56.804-4.93-81.219-23.76a114.66 114.66 0 0 1-43.959-76.266 113.8 113.8 0 0 1 23.733-84.422c20.199-25.574 46.928-38.198 78.914-42.103"/><path fill="#FEFEFE" d="M749.749 842.385c.582-.078 1.16-.184 1.744-.232 24.882-2.05 50.812 7.599 69.974 23.146 21.334 17.31 36.442 43.003 39.203 70.529a104.65 104.65 0 0 1-22.57 77.142c-19.167 23.41-43.196 34.64-72.857 37.77-25.074.63-49.999-5.97-70.201-21.28-22.062-16.72-37.17-43.329-40.803-70.724a104.46 104.46 0 0 1 21.74-77.772c18.535-23.759 44.36-34.961 73.77-38.579"/><path fill="#092339" d="M728.518 883.823c4.733-2.599 11.291-6.952 16.647-7.33 14.836-1.047 8.895 24.337 16.769 31.143 7.163-.611 7.271-21.614 15.167-26.147 2.412-1.385 4.852-1.715 7.536-1.041 7.07 1.774 22.01 12.132 25.341 18.642 1.738 3.396 1.214 5.946.197 9.363-3.925 5.493-7.755 11.2-12.906 15.64l.221 1.782c7.725 3.613 19.297-4.227 27.709-.126 3.219 1.569 4.665 7.643 5.443 10.796.805 3.264 1.016 7.327-1.271 10.067-4.536 5.436-19.099 5.304-25.575 5.997 6.1 3.123 13.76 6.066 19.009 10.405 2.904 2.401 5.035 5.475 4.971 9.397-.054 3.307-1.989 7.85-4.519 10.007-7.302 6.226-21.3-4.028-29.214-5.015-2.163-.269-2.374.081-3.886 1.417-1.244 7.272 5.653 11.782 8.991 17.718 1.434 2.549 2.094 5.482.783 8.222-3.249 6.8-14.116 10.56-20.86 12.62a211 211 0 0 0-17.252-24.653c-1.953 5.031-2.7 16.413-4.832 19.473-3.324 1.78-6.199 2.6-9.996 2.76-2.82.13-8.11-.18-10.053-2.55-3.183-3.87-2.052-13.126-2.032-17.966-4.053 5.616-8.032 10.696-13.403 15.126-11.832-7.84-22.941-22.188-30.015-34.335 6.971-7.291 15.51-11.939 21.464-20.369-7.122-1.449-14.893-.973-21.778-3.207-2.9-.941-5.41-2.483-6.492-5.513-1.748-4.889.185-15.761 2.667-20.349 2.807-5.187 16.122-1.914 21.575-3.917.452-2.278-8.256-13.128-10.037-16.457-.196-2.661.344-4.868 1.687-7.174 1.859-3.193 5.307-6 9.003-6.655 3.268-.58 5.362.378 7.789 2.361 3.44 2.81 7.018 5.341 10.636 7.913a1073 1073 0 0 1 .516-18.045"/><path fill="#1D2429" d="m797.269 924.093-1.175-3.316c-1.672-.406-2.325-.508-3.681-1.635 1.552-6.056 5.6-12.536 9.273-17.561l1.114.26c1.807 2.091 3.683 4.706 6.162 6.019.397.211.808.395 1.213.593-3.925 5.493-7.755 11.2-12.906 15.64"/><path fill="#FEFEFE" d="M709.625 898.698c5.77 3.734 13.271 11.587 14.804 18.398.76 3.375-.364 5.301-1.943 8.133-5.132-4.006-14.16-15.74-15.052-22.399-.237-1.771 1.189-2.794 2.191-4.132m20.598 83.193 2.181.369c.731.915 1.571 1.387 1.362 2.654-.796 4.813-9.215 11.727-12.895 15.001l-1.536-.884-8.906-9.548z"/><path fill="#FEFEFE" d="m744.19 883.876 2.205.449c1.837 5.935 1.953 12.193 3.432 18.231 1.385 5.65 3.072 12.309 8.524 15.33 2.192 1.214 4.607 1.791 7.004.704 7.667-3.476 13.748-23.879 16.928-31.463l12.306 8.548c-4.54 8.696-11.877 20.318-10.427 30.492 2.272 15.955 29.076 1.44 37.969 7.563 1.419 2.391 1.351 3.676 1.073 6.32-.375 3.564-22.458 5.442-26.57 9.499-1.955 1.928-1.645 2.728-1.401 5.217 5.5 8.242 16.14 8.276 23.046 14.371 1.923 1.697 1.642 2.342 1.731 4.756-6.572 9.863-23.399-8.208-33.339-3.367-2.312 1.125-4.237 3.851-4.804 6.277-1.678 7.186 6.961 18.055 10.457 24.237-.211.45-.376.93-.633 1.36-1.311 2.2-3.608 4.4-6.067 5.08-8.085-2-12.829-15.408-18.826-21.217-2.311-2.238-3.832-2.878-7.01-2.857-8.308 4.891-5.28 17.674-10.642 24.154-2.776-.06-4.027-.13-6.482-1.63-4.623-6.754 1.156-16.977-.034-24.669-.347-2.242-1.332-4.377-3.399-5.53-7.986-4.459-24.459 4.509-32.133 7.897l-5.969-7.62c5.556-4.253 16.401-11.07 17.939-18.317.508-2.395.163-4.504-1.331-6.437-5.111-6.615-18.527-6.328-26.217-7.038.4-5.87 1.58-11.42 2.828-17.154 10.674 5.969 20.99 3.635 32.434 6.25 15.302-20.451 3.966-29.467 9.873-44.918 1.162-3.04 4.784-3.492 7.535-4.518"/><path fill="#092339" d="M1621.57 102.388c11.42-1.172 23.78.389 34.74 3.705 32.03 9.69 51.75 33.838 66.9 62.419 18.17-4.926 38.42-7.623 57.06-4.159 24.09 4.479 46.71 19.533 60.47 39.784 12.6 18.555 20.04 44.246 15.64 66.615 50.45 42.948 82.08 113.667 89.98 178.807 10.09 83.17-16.67 162.817-67.96 227.996-50.02 63.573-121.43 100.69-201.16 110.259-47.81 3.903-92.72-2.014-137.41-19.69a306.62 306.62 0 0 1-168.57-162.746 296.94 296.94 0 0 1-1.78-231.39c33.35-81.802 95.35-138.436 176.03-172.135-.84-4.062-1.74-8.131-2.1-12.27-1.83-20.928 4.14-41.663 17.71-57.852 14.88-17.742 37.79-27.274 60.45-29.343"/><path fill="#B4BBBF" d="M1553.14 395.811c.51.338 1.07 1.264 1.44 1.76.39 7.463 2.12 18.601-.22 25.624l-2.07-.565a55 55 0 0 1-1.95-3.191c-2.9-5.21-5.95-12.234-3.79-18.205 1.07-2.965 3.98-4.057 6.59-5.423m185.69-1.452 3.2.721c1.93 1.846 2.83 3.048 3.24 5.77 1.21 7.912-4.43 17.23-9.29 22.956-1.62.559-.63.324-3.02.416-.42-1.027-.6-1.305-.72-2.562-.67-6.904 2.26-22.26 6.59-27.301m-16.1-28.862c7.02 3.95 24.04 10.987 27.29 18.086-3.26 1.677-7.72 1.108-11.29.776-3.83-.354-6.93 1.494-10.29 3.122-.46-1.952-.46-3.601-.45-5.587 0-2.667-.22-4.093-1.38-6.466-2.16-1.905-3.97-3.11-6.54-4.408 2.35-2.199 2.22-2.303 2.66-5.523m-50.41-237.229c17.12 9.841 30.37 26.629 38.75 44.275l-16.47 5.097c-1.53-20.895-15.14-31.316-22.28-49.372"/><path fill="#FEFEFE" d="M1570.64 506.544c1.68 1.291 1.2.649 2.2 2.447 10.7 19.409 31.54 32.834 48.94 46.075l-10.38 6.822-11.99 7.428-3.82-3.936c-9.55-9.824-29.69-38.558-28.82-52.526.21-3.282 1.73-4.132 3.87-6.31m105.63-.586.81.142.42 1.347c-9.78 17.106-29.19 30.44-46.12 39.757-7.18-4.807-13.92-9.981-20.65-15.395-3.28-2.495-6.03-5.681-8.86-8.666.04-5.401.26-10.813.41-16.212a150 150 0 0 0 2.87 1.196c24.23 9.77 47.46 7.903 71.12-2.169"/><path fill="#B4BBBF" d="M1729.36 305.119c12.16 6.602 23.52 14.265 35.07 21.859-4.62 13.629-9.09 27.347-14.47 40.698a1317 1317 0 0 0-41.2-24.579c8.9-10.314 15.49-25.397 20.6-37.978"/><path fill="#FEFEFE" d="M1568.05 302.638c18.99 6.28 37.65 13.625 56.51 20.288 21.08 7.448 44.77 13.978 64.16 25.147-18.48 3.437-31.31 1.654-48.97-4.561-13.2-4.986-25.76-11.845-38.32-18.234-21.25 21.263-26.5 24.877-53.63 38.371 3.52-21.897 9.51-41.578 20.25-61.011m131.57 194.107c1.16 10.735-3.69 25.859-7.49 35.986-12.16 32.352-45.26 58.047-75.93 71.799-12.84 5.757-23.94 8.037-37.48 2.915-1.3-1-3.36-2.496-4.14-3.989-3.3-6.236 8.23-12.175 12.8-14.754 37.96-21.417 95.62-49.292 112.24-91.957"/><path fill="#B4BBBF" d="M1767.55 174.726c22.8 2.666 43.3 11.574 57.84 29.836 12.72 15.969 20.71 36.719 18.24 57.293-2.07 17.314-10.61 33.152-24.52 43.786-11.87 9.075-26.41 13.014-41.1 14.22-7.36-4.059-14.32-9.163-21.69-13.035 3.66-2.918 7.36-5.84 10.82-9.003 17.61-16.128 30.47-36.198 31.49-60.51.59-13.945-2.8-30.916-11.53-42.109-5.71-7.322-13.25-13.602-19.55-20.478"/><path fill="#FEFEFE" d="M1581.57 243.131a630 630 0 0 1 147.79 61.988c-5.11 12.581-11.7 27.664-20.6 37.978-44.6-23.206-94.6-35.868-141.67-52.982 3.37-15.594 9.15-31.939 14.48-46.984"/><path fill="#B4BBBF" d="M1738.73 514.364c39.9 18.232 63.8 61.22 78.47 100.594 10.37 27.846 14.69 56.793 21.99 85.426-14.71 13.05-33.17 28.966-51.32 36.468 1.11-2.901 2.01-5.783 2.39-8.882 1.04-8.393.52-17.373.48-25.826-.28-59.675-20.34-120.655-57.05-167.889 1.28-6.8 3-13.279 5.04-19.891"/><path fill="#FEFEFE" d="M1733.69 534.255c36.71 47.234 56.77 108.214 57.05 167.889.04 8.453.56 17.433-.48 25.826-.38 3.099-1.28 5.981-2.39 8.882-4.8 2.354-9.56 4.804-14.33 7.216-1.01-15.895-4.02-98.147-8.7-106.058-1.29-2.179-2.87-3.058-5.32-3.443-2.39-.375-4.95.534-6.74 2.037-1.07 2.706-.97 5.114-.89 7.975.32 11.51 2.11 23.229 3.1 34.716a963 963 0 0 1 3.99 70.956c-16.91 7.404-34.83 13.644-52.87 17.578 4.87-78.443 10.48-156.679 27.58-233.574m-129.34-194.564c13.31 6.555 26.33 14.331 40.59 18.655 19.39 5.879 37.22 4.838 55.19-4.734 7.79 3.52 15.17 7.654 22.6 11.885-.44 3.22-.31 3.324-2.66 5.523-3.03 1.689-3.71 3.166-4.19 6.613-.81 5.789.52 12.361 1.05 18.195 1.53 16.932.78 33.705-5.54 49.648-8.92 22.49-26.23 43.14-48.9 52.587-15.08 6.286-32.09 6.998-47.2.347-28.68-12.618-45.89-48.106-47.32-78.077-.46-9.456 2.15-31.998-1.65-39.502-1.37-2.708-1.84-2.83-4.54-3.668-4.79 1.197-8.61 5.35-12.56 8.23l-1.47-.234c-.33-1.172-.51-1.61-.56-2.95-.08-1.761.34-5.534 1.83-6.662 3.23-2.439 10.4-3.97 14.3-5.906 15.54-7.705 28.91-17.628 41.03-29.95"/><path fill="#092339" d="M1589.01 396.506c5.7 3.581 11.41 6.969 17.38 10.091 4.28-1.073 9.03-2.499 13.33-.789 1.54.612 1.38 1.313 1.93 2.729-.64 2.83-2.21 4.391-4.07 6.494-3.23 1.224-6.02 2.238-9.51 1.45-8.48-1.911-16.62-4.915-21.32-12.66-.15-3.41.68-4.361 2.26-7.315m101.39 1.39c.57-.026 1.14-.134 1.71-.079 2.49.237 3.38.864 4.99 2.551 0 2.622-.99 4.382-2.77 6.245-5.94 6.229-13.59 10.076-22.16 10.501-2.01-1.28-4.23-2.603-6.01-4.181-1.87-1.662-2.37-2.945-2.38-5.352.28-.269.54-.565.84-.807 3.71-2.942 9.16-1.679 13.51-1.222zm-80.56 62.995c8.47-.383 10.93 4.03 17.54 8.306 11.37 7.348 17.51-4.572 27.6-6.794 2.86 1.042 3.38 1.246 5.32 3.567.33 3.2-.02 3.597-1.52 6.496-2.88 2.532-5.83 5.06-9.3 6.75-8.3 4.04-17.68 4.078-26.31 1.084-5.35-1.859-11.01-4.887-13.38-10.363-1.48-3.431-1.15-5.616.05-9.046"/><path fill="#FEFEFE" d="M1576.51 229.009c-10.49-10.249-17.31-22.611-19.94-37.079-2.93-16.09.98-32.141 10.41-45.374a76.23 76.23 0 0 1 49.72-30.687c19.22-3.139 39.67 1.057 55.62 12.399 7.14 18.056 20.75 28.477 22.28 49.372-3.71 1.236-8.61 2.537-11.06 5.853-1.98 2.664-2.21 5.457-1.43 8.522 2.66 1.562 4.19 1.487 7.09.363 26.39-10.255 49.69-17.472 78.35-17.652 6.3 6.876 13.84 13.156 19.55 20.478 8.73 11.193 12.12 28.164 11.53 42.109-1.02 24.312-13.88 44.382-31.49 60.51-3.46 3.163-7.16 6.085-10.82 9.003-54.41-35.898-117.01-61.144-179.81-77.817m139.48 274.457c3.92 1.265 7.78 2.807 11.65 4.223-19.12 49.04-23.89 115.508-28.69 167.832-2.91 31.668-6.26 64.099-6.06 95.89-63.42 6.3-107.22-1.808-165.96-25.296a2338 2338 0 0 0 4.37-88.956c.38-11.982 2.02-25.772.36-37.608-.35-2.482-.8-3.029-2.39-4.869-2.66-.253-3.44-.207-5.78 1.431-1.71 1.197-3.28 4.259-3.68 6.193-2.21 10.538-1.09 23.898-1.47 34.781l-2.99 84.372-10.83-6.104c-18.49-11.488-36.76-24.462-51.52-40.525 5.87-24.952 10.74-49.879 19.08-74.199 14.97-43.635 38.7-82.738 81.37-103.482 8.35 21.724 18.66 38.785 32.74 57.177-8.08 4.617-15.79 8.993-22.47 15.553a48 48 0 0 0-.95 3.113c-1.81 6.85-1.72 13.8 2.22 19.971 3.83 6.003 10.55 8.699 17.3 9.957 25.53 4.761 51.93-11.999 71.63-26.123 32.95-23.613 55.35-52.573 62.07-93.331"/><path fill="#092339" d="M1669.58 611.192c1.14-.158 2.29-.292 3.45-.392 4.2-.368 7.43.386 10.64 3.26 2.07 1.852 3.37 4.099 3.14 6.975-.35 4.286-3.14 6.648-6.35 9.045-1.53.334-3.03.641-4.59.72-3.41.171-6.3-.497-8.81-2.978-1.87-1.834-2.84-4.247-2.71-6.882.22-4.174 2.32-6.99 5.23-9.748m-.77 94.717c1.9-.203 3.75-.417 5.65-.058 2.94.553 5.46 2.362 7.22 4.732 1.73 2.323 2.47 5.016 2.02 7.908-.65 4.191-3.03 6.274-6.37 8.571-.47.004-.94.02-1.41.013-4.61-.067-8.71-.679-11.93-4.326-1.86-2.101-2.48-4.216-2.24-7.02.36-4.35 3.89-7.321 7.06-9.82"/><path fill="#FEFEFE" d="M1851.15 284.525c48.07 49.311 77.91 112.033 82.52 181.024a292.48 292.48 0 0 1-49.8 181.899c-9.99 14.859-21.83 28.505-33.6 41.967-3.1-19.365-7.82-38.048-13.19-56.887-3.43-11.111-6.95-22.17-11.17-33.011-15.2-39.058-41.7-77.049-79.7-96.794-13.87-7.209-28.71-11.764-42.97-18.053 4.4-6.245 8.86-12.514 12.45-19.272 2.1-3.956 10.59-25.666 12.85-27.042 1.86-1.126 5.38-1.777 7.52-2.577 8.42-3.148 15.47-9.142 19.38-17.293 5.07-10.546 3.15-19.525-.6-29.911 9.35-17.65 12.75-38.466 19.13-57.403 10.55-1.125 21.25-1.935 31.47-4.969 22.86-6.791 34.73-21.478 45.71-41.678m-299.95-67.303c.84.682.45.264 1.17 1.455 5.06 8.282 10.47 15.894 17.5 22.621-4.84 14.465-11.07 29.895-13.92 44.875-.72 3.746 2.1 7.776 1.05 11.216-2.28 7.45-8.39 14.532-11.28 22.029-7.57 19.613-15.54 71.38-10.59 92.007 2.91 12.167 10.32 19.929 20.73 26.128 6.83 19.644 15.42 36.956 27.64 53.847-18.34 8.446-37.79 12.608-54.8 24.245-46.48 31.793-69.41 91.137-82.7 143.763-1.13 4.495-1.97 21.074-5 23.584l-3.13-2.69c-22.15-22.091-40.61-50.582-52.66-79.409a288.55 288.55 0 0 1-.49-225.353c20.36-49.315 58.99-96.275 103.33-125.864 19.98-13.335 40.99-23.312 63.15-32.454"/></svg>