<svg xmlns="http://www.w3.org/2000/svg" style="display:block" viewBox="0 0 2048 2048"><path fill="#FEFEFE" d="M0 0h2048v2048H0z"/><path fill="#21345D" d="M1446.02 879.387c7.97 4.41 25.07 23.366 32.62 30.871a12225 12225 0 0 1 97.51 98.672l306.66 309.63c32.55 32.71 63.95 66.81 96.89 99.06-13.54 17.05-31.2 32.15-46.44 47.74l-103.29 105.48a28546 28546 0 0 1-227.75 230.23l-73.04 73.27c-23.09 23.47-46.04 47.73-70.62 69.64-2.88-124.09-3.01-248.29-4.29-372.4-16.25 18.49-35.22 34.82-52.47 52.42-15.52 16.83-32.17 32.68-48.28 48.95l-108.59 109.03c-19.52 19.53-39.54 38.72-58.48 58.81l-3.61-249.72c17.11-20.72 38.1-39.22 57.2-58.14 39.68-39.3 80-78.12 118.48-118.6-14.23-14.42-29.34-27.97-43.72-42.24l-135.82-135.39c-.86-29.93.06-60.1-.01-90.06l-1.27-164.758c10.6 9.592 20.16 21.078 30.08 31.418a5976 5976 0 0 0 50.09 50.92l196.17 199.47c.03-37.68-1.63-75.51-2.57-113.19a11547 11547 0 0 1-5.45-271.113"/><path fill="#FBD596" d="M1202.73 1044.38c10.69 7.91 20.38 19.61 29.86 29.1l66.53 67.09 272.95 277.06c-10.1 11.72-21.95 22.51-32.85 33.54l-58.25 59.14-180.67 181.6-48.2 49.4c-13.76 14.23-27.44 29.05-42.75 41.65-1.41-43.36-.23-87.17-.35-130.59-.05-17.62.3-35.34-.75-52.93 18.59-20.93 39.89-40.23 59.75-60l75.84-76.87c16.15-16.34 32.81-32.27 48.6-48.94-16-15.02-31.2-31.1-46.88-46.48l-142.53-140.52z"/><path fill="#E25B5B" d="M1472.55 938.346c9.99 7.597 21.6 22.33 30.91 31.623 34.55 34.471 68.12 69.931 102.61 104.471l239.65 242.33 65.02 65.9c11.39 11.59 23.26 22.95 33.87 35.26-10.22 11.75-21.72 22.72-32.56 33.93a4915 4915 0 0 1-73.61 74.98l-189.94 192.77c-55.32 56.64-113.79 110.95-167.13 169.44 1.52-41.7-.81-83.95-1.29-125.7l-1.38-214.25c13.39-16.06 28.26-30.51 43.03-45.27 28.28-28.26 57.85-56.18 84.76-85.7-14.66-16.74-31.25-32.09-47.05-47.78a6101 6101 0 0 1-80.38-80.34c.24-37.92-1.22-76.11-1.96-114.06a16570 16570 0 0 1-4.55-237.604"/><path fill="#21345D" d="M1177.35 91.354a139 139 0 0 1 38.1 1.094c39.62 7.052 67.37 30.494 89.59 62.707 7.24-6.59 15.09-12.196 23.5-17.214 37.76-22.53 86.82-29.385 129.35-18.434 49.18 12.664 92.36 43.142 118.04 87.405 26.91 46.397 35.79 98.684 22.12 150.827a182.2 182.2 0 0 1 58.42 36.741c30.67 28.277 51.49 69.951 52.86 111.854 1.48 45.249-11.74 86.932-43.29 120.004-30.7 32.184-71.65 50.92-116.23 51.769a211.77 211.77 0 0 1-149.48-58.679 2833 2833 0 0 0-129.34 144.064c-16.29 19.152-34.7 38.078-49.01 58.684l-1.15 1.686c-5.05 7.232-6.37 18.466-9.24 26.909-3.3 9.72-7.15 19.631-11.67 28.843a270.5 270.5 0 0 1-27.96 44.717c-7.87 10.419-16.76 20.738-23.14 32.159-11.09 19.872-12.76 39.563-26.65 61.17-26.77 41.68-67.4 66.94-115.45 77.31-77.291 16.68-150.866-1.45-216.576-43.73-17.284 37.07-26.726 80.33-29.12 121.04-1.449 24.64-1.872 49.57 3.857 73.75 2.422 10.22 5.41 21.03 10.943 30.07 14.594 23.82 47.536 40.3 72.258 51.09 9.868 4.31 26.436 8.84 33.417 17.26 2.045 2.47 3.414 5.41 2.986 8.69-.713 5.48-4.215 8.03-8.223 11.33 12.948-1.67 26.27-1.67 39.318-2.18l58.009-2.26c31.191-1.04 69.831-4.58 100.221-1.15 18.89 2.13 30.84 10.42 42.3 25.09 19.12 24.44 35.02 64.03 30.49 95.52-1.41 9.74-5.09 19.03-13.29 24.99-9.23 6.72-20.22 7.32-31.12 5.56-5.48 5.27-11.21 9.25-18.43 11.79-15.11 5.33-28.67 2.89-42.6-4-12.79 8.39-26.15 12.24-41.244 13.78-8.602.78-17.9-.42-25.933-3.57-10.29-4.02-20.071-11.64-24.229-22.15-3.897-9.86-1.819-17.81 2.15-27.06-13.713-5.05-27.503-11.45-38.219-21.59a3121 3121 0 0 0-66.01 2.98c-1.251 2.38-2.523 5.1-4.817 6.67-5.701 3.91-20.095-1.95-26.262-3.56-3.54 9.34-6.803 19.28-12.276 27.71-3.335 5.14-7.781 9.84-14.05 10.96-31.184 5.54-120.875-60.9-147.173-79.16-17.61-.09-35.507 1.79-53.098 2.79l-90.302 4.95-283.916 16.03c-23.301 1.33-113.435 8.98-130.7 4.54-5.591-1.44-10.25-6.98-12.985-11.8-2.972-5.25-4.661-11.35-4.443-17.4.586-16.24 12.104-42.37 17.605-58.51 6.89-20.2 20.091-51.45 23.551-70.9 3.435-19.31 1.803-40.19 3.238-59.84a712 712 0 0 1 21.544-130.82c37.878-140.542 128.906-269.428 256.123-342.314 98.753-56.578 224.052-84.578 335.858-54.288 4.868-5.112 10.096-10.138 14.187-15.902-.214-.561-.434-1.119-.642-1.682-10.486-28.36-2.884-62.616 9.639-89.088 7.325-15.486 17.004-30.333 34.096-36.085 13.352-4.494 24.874-1.879 37.046 4.2 16.315-15.409 38.251-29.111 58.095-39.229 10.747-5.48 22.413-8.958 31.826-16.712 21.407-17.638 40.597-38.497 60.954-57.359L1116.07 320.03a128 128 0 0 1-8.83-6.017c-24.23-18.399-38.39-50.015-42.35-79.53a131.15 131.15 0 0 1 26.34-96.82c21.41-27.909 51.91-41.756 86.12-46.309"/><path fill="#E25B5B" d="M392.117 1092.66c2.247-4.57 5.711-8.62 9.06-12.4l6.047.59c-3.055 4.76-5.274 9.38-7.435 14.57-2.767-.27-5.176-1.61-7.672-2.76"/><path fill="#FEFEFE" d="M401.177 1080.26c8.466-14.94 20.391-29.72 31.485-42.86.561 14.73.477 29.91 2.672 44.51-3.815-3.99-6.775-6.73-12.505-7.04-5.777-.3-11.132 2.63-15.605 5.98zM984.62 601.401l6.209-.588 1.487 1.329 2.04-1 .103.546c-4.877 4.335-63.843 13.997-76.825 17.186a786 786 0 0 0-59.203 17.071c-2.69.981-5.254 2.422-8.125 1.946-.283-2.556-.284-2.87.842-5.169 10.027-4.229 20.839-6.938 31.277-9.97 33.38-9.695 67.564-17.803 102.195-21.351m-43.486-78.075c9.143.368 17.462 3.243 26.11 5.995a314.6 314.6 0 0 0-113.996 35.619 430 430 0 0 1-20.775 10.531c23.538-26.054 74.229-46.602 108.661-52.145M738.738 1112.73c2.48 3.75-.108 10.34-.991 14.58-7.088 34.05-5.727 69.93-4.508 104.46-3.106-5.69-6.705-11.18-10.104-16.71a467 467 0 0 1-20.407-36.66c6.049-9.75 10.802-20.5 16.142-30.68 6.237-11.88 13.063-23.42 19.868-34.99m-346.621-20.07c2.496 1.15 4.905 2.49 7.672 2.76-.021 7.21.583 12.3 5.895 17.56 4.296 4.26 10.316 6.81 16.399 6.67 5.01-.12 10.161-2.12 13.419-6 1.597-1.9 2.547-4.78 3.477-7.06 6.05 17.58 8.565 36.52 13.714 54.43-8.044-1.12-67.944-36.53-78.492-43 4.942-8.98 11.754-17.19 17.916-25.36m448.378-510.485c37.919-16.149 107.393-45.881 148.296-42.438 6.137.516 11.959 2.451 17.639 4.732 6.63 2.664 13.09 5.711 19.55 8.767a178 178 0 0 1-26.68 39.063c-34.689 3.787-68.319 7.94-102.008 17.465-9.989 2.824-38.523 14.428-46.876 13.221-.847-2.371-.846-4.003-.794-6.473 2.094-3.182 6.078-3.593 9.653-4.748 12.989-2.375 25.957-7.15 38.711-10.696 15.701-4.365 31.902-7.745 47.91-10.787 16.215-3.081 46.265-4.243 59.454-12.773l-.24-2.197c-29.104-8.117-114.73 15.028-143.81 27.487-3.888 1.536-8.548 4.079-12.766 3.65l-1.024-.987c.198-2.365.168-2.919 1.517-4.829 6.257-3.09 12.785-5.063 19.167-7.799 5.817-2.494 11.224-5.482 17.193-7.758 24.214-9.233 51.036-15.19 76.619-19.212 18.185-2.86 38.484-3.483 55.804-9.799-6.76-2.144-13.77-4.735-20.886-5.162-35.538-2.136-105.358 15.665-137.286 32.116-4.384 2.259-10.841 6.844-15.889 5.327-1.338-2.006-2.266-3.981-3.254-6.17"/><path fill="#FEFEFE" d="M374.201 1118.02c10.548 6.47 70.448 41.88 78.492 43 2.105 6.19 4.37 12.37 6.131 18.67a554 554 0 0 0 19.561 45.05c-14.864-6.69-30.675-11.59-45.847-17.6-30.177-11.95-59.407-25.13-88.016-40.46 6.247-11.76 13.209-23 20.273-34.29 2.979-4.94 5.974-9.72 9.406-14.37"/><path fill="#E25B5B" d="M374.201 1118.02c10.548 6.47 70.448 41.88 78.492 43 2.105 6.19 4.37 12.37 6.131 18.67-31.171-8.01-67.762-29.21-94.029-47.3 2.979-4.94 5.974-9.72 9.406-14.37"/><path fill="#FEFEFE" d="M129.278 1294.46c68.732 55.87 211.74 93.9 298.992 106.59-18.065 3.16-37.233 3.15-55.519 4-18.153.2-36.649 1.91-54.831 2.7l-159.256 8.02c-22.345 1.15-44.824 3.36-67.2 3.28 3.68-17.77 10.291-35.51 16.021-52.74 7.929-23.83 15.533-47.52 21.793-71.85m921.052 82.99c11.54-.19 26.34-1.81 36.27 4.96 20.74 14.16 36.34 47.67 40.88 71.59 1.94 10.21 3.63 24.01-2.9 32.86-3.76 5.1-8.4 5.11-14.16 5.8 3.86-20.36 4.11-37.6-2.93-57.33-3.47-9.74-7.96-24.57-18.25-28.93-2.42-1.02-4.32-1.17-6.79-.2-5.02 7.95 6.23 21.61 8.94 29.61 2.52 7.43 4.09 15.45 4.73 23.26 1.01 12.38.16 27.25-8.51 36.95-8.87 9.93-21.7 10.19-33.99 10.64a215 215 0 0 0 3.81-6.48c10.78-19.22 12.66-44.02 6.63-65.25-1.78-6.3-3.61-14.05-9.65-17.46-2.84-.4-3.92-.08-6.46 1.22-5.34 6.88 2.19 26.55 2.16 35.88-.05 15.85-4.33 32.36-15.98 43.69l-1.01.96c-11.72 9.72-27.56 14.57-42.746 13.69-7.325-.43-17.656-1.89-22.502-7.9-2.961-3.67-3.293-8.22-2.654-12.73.619-4.36 2.247-7.14 5.791-9.81 4.069-3.06 7.528-5.31 12.711-4.6 3.906 2.28 4.589 4.72 5.738 8.86.748 2.7 1.507 5.1 2.643 7.65l1.587.52c4.275-3.11 25.702-35.11 28.902-41.06-3.34 1.75-6.71 3.64-10.23 4.98-19.928 7.6-48.194 5.52-67.488-3.04-16.696-7.41-27.687-18.03-34.325-35.18l.236 19.21c-19.196.46-38.446 1.76-57.636 2.57 4.536-19.88 10.347-39.52 14.177-59.54 17.28.17 34.588-.96 51.865-1.37a10917 10917 0 0 0 131.141-4.02m-811.038-49.54c29.137-89.44 69.559-177.53 124.991-253.87 22.501-30.98 47.479-59.32 71.929-88.678-.38 9.34-1.306 19.008-.631 28.328-40.668 48.28-79.952 102.53-109.927 158.15-15.038 27.9-27.592 57.08-39.295 86.51-6.522 16.4-16.451 40.52-19.038 57.28.826 2.48 1.162 3 3.679 4.26 1.915.95 4.641 1.27 6.636.55 2.471-5.18 4.122-10.88 6.006-16.3a3017 3017 0 0 0 16.055-41.41l1.609-4.46c9.935-25.82 21.392-52.36 35.025-76.45 2.989-4.89 5.043-10.26 8.191-15.14 28.609 15.33 57.839 28.51 88.016 40.46 15.172 6.01 30.983 10.91 45.847 17.6 3.582 5.38 7.276 11.46 9.573 17.5 6.806 12.86 14.765 24.88 21.961 37.48l2.931 4.12c19.967 26.13 39.567 52.69 62.207 76.64 10.535 11.14 22.536 20.94 33.666 31.48-27.074.09-54.42 3.45-81.423 2.07-21.036-1.07-42.062-4.79-62.867-7.96a1049.7 1049.7 0 0 1-225.141-58.16"/><path fill="#21345D" d="M358.88 1252.08c-3.837 3.29-7.703 6-12.812 6.79-5.357.83-10.344-.74-14.523-4.11-5.227-4.22-9.649-10.28-10.163-17.17-.442-5.92 2.071-11.78 5.976-16.14 4.117-4.6 9.739-7.48 15.942-7.73 5.764-.23 12.227 1.61 16.285 5.89 4.547 4.79 6.171 11.97 6.136 18.38-1.306 6.18-2.546 9.5-6.841 14.09"/><path fill="#E25B5B" d="M365.721 1237.99c32.571 14.57 74.734 24.08 109.542 33.28 10.848 2.87 23.477 7.69 34.656 8.45l2.931 4.12c-.442 2.17-.778 4.56-1.731 6.58-.582 1.23-.802 2.05-2.225 2.41-15.941 4.04-132.635-31.79-150.014-40.75 4.295-4.59 5.535-7.91 6.841-14.09m-21.199-71.31c28.609 15.33 57.839 28.51 88.016 40.46 15.172 6.01 30.983 10.91 45.847 17.6 3.582 5.38 7.276 11.46 9.573 17.5-47.683-8.04-108.457-38.34-151.627-60.42 2.989-4.89 5.043-10.26 8.191-15.14m-44.825 96.05 1.609-4.46c41.896 17.05 93.459 33 137.385 43.12 29.709 6.83 59.761 11.78 89.732 17.26 4.53.83 9.423 1.28 11.701 5.82 1.367 2.73 1.282 7.64 1.553 10.68-71.945-6.71-141.248-24.25-209.319-48.09-9.54-3.34-27.142-7.29-33.937-14.55.285-2.1.576-4.1 1.015-6.17.284-1.34.354-2.26.261-3.61m-16.055 41.41c15.916 4.66 31.408 10.64 47.374 15.27a1313 1313 0 0 0 154.667 34.56c23.728 3.78 47.533 7.58 71.608 8.04l.071 15.73c-68.163-3.46-135.527-17.09-201.447-34.21-13.444-3.49-70.278-22.81-78.279-23.09 2.471-5.18 4.122-10.88 6.006-16.3"/><path fill="#FEFEFE" d="M1041.03 560.084c12.21 4.078 23.66 12.268 34.25 19.513a285.76 285.76 0 0 1 111.57 150.57c5.19 16.477 8.31 33.378 11.51 50.322-4.5-2.264-9.09-4.524-14.22-4.741-11.46-.485-20 6.788-27.89 14.078 6.68.958 12.97 1.794 18.82 5.455 6.49 4.055 9.89 10.506 11.57 17.8 8.89 38.674-18.53 75.56-40.7 104.301-7.85 10.171-16.6 20.273-22.77 31.567-10.1 18.473-12.46 39.708-23.88 57.881-21.16 33.7-59.95 54.88-98 63.26a242.08 242.08 0 0 1-181.114-31.47 416 416 0 0 1-18.158-13.82 243.8 243.8 0 0 1-88.869-163.658c-5.297-53.961 10.215-111.423 44.844-153.53 2.823 1.519 5.723 3.074 8.915 3.65 9.808 1.77 17.811-4.307 25.264-9.691-8.5-.494-16.122-1.839-23.121-7.002-8.61-6.351-13.091-16.593-14.789-26.906-3.622-22 4.084-51.465 17.089-69.423 6.308-8.71 15.813-16.772 26.821-18.136 7.692-.953 15.286 1.807 21.074 6.854 18.495 16.126 16.08 51.482 17.651 73.957a550.7 550.7 0 0 1 107.571-32.742c16.372-3.323 38.078-3.908 53.261-9.815 16.281-6.335 36.501-42.442 43.301-58.274"/><path fill="#21345D" d="M789.366 597c1.481-.016 2.891.057 4.35.335 6.511 1.244 12.252 5.005 15.742 10.692 6.901 11.25 6.421 29.524 3.458 42.082-1.954 8.286-6.479 16.381-14.048 20.737-3.141 1.808-6.774 2.521-10.274 1.261-4.497-1.62-6.309-4.446-8.297-8.579.05-.796.491-1.521.794-2.259 7.735-3.379 12.927-7.026 16.268-15.085 3.158-7.618 3.318-18.273.013-25.872-1.441-3.313-3.794-6.075-7.328-7.211-6.875-2.209-13.491 2.243-19.429 5.181 4.089-11.087 7.845-16.207 18.751-21.282m294.214 8.122c3.28-.26 6.74-.573 10.01-.112 12.19 1.722 23.32 11.682 30.45 21.291 10.3 13.888 14.1 30.792 11.34 47.819-1.51 9.36-4.68 17.243-12.42 22.95-1.68-7.071-3.46-13.755-6.23-20.48-5.6-10.914-13.02-20.823-22.5-28.667-15.11-12.505-32.82-16.728-52.11-14.979 12.2-11.986 25.36-21.844 41.46-27.822m-22.72 74.002c4.55-.452 7.97-.541 12.21 1.394 4.33 1.981 7.36 4.803 8.87 9.397 3.46 10.562-1.26 24.341-6.43 33.705-10.98 19.881-30.1 32.257-51.52 38.387-5.56.904-11.63.356-16.64-2.393-2.93-1.607-4.7-3.999-5.51-7.209-2.381-9.416 3.52-21.835 8.19-29.911 11.05-19.126 29.11-37.488 50.83-43.37"/><path fill="#FEFEFE" d="M1055.1 689.932c1.39-.112 1.35-.135 2.93-.126 3.54.018 7.03.874 9.37 3.752 1.74 2.139 1.85 4.268 1.34 6.874-.87 4.379-4.47 6.436-7.92 8.659-4.21-.116-9.06-.508-11.93-4.09-1.66-2.061-2.35-4.103-1.8-6.749.9-4.34 4.58-6.175 8.01-8.32"/><path fill="#21345D" d="M1078.65 777.757c15.45 18.935 22.77 39.541 28.92 62.788 3.51-4.865 7-9.81 10.87-14.4 8.45-10.023 19.91-19.757 33.64-20.44 3.74-.186 8.36.574 11.09 3.406 3.27 3.402 4.12 7.721 3.91 12.325-.73 16.313-11.22 32.285-22.87 43.176-6.21 5.812-16.4 14.272-25.23 13.805-1.39-.073-2.29-.205-3.69.093-1.75.375-1.8 5.452-1.85 6.988-.65 22.092-.91 42.202-11.98 62.207-5.37 9.691-13.48 18.148-24.52 20.924-18.75 4.712-39.85-3.647-55.49-13.45-25.871-19.494-42.08-44.761-51.557-75.542 16.263 19.262 31.887 37.664 52.907 52.013 13 8.878 32.91 20.029 49.22 16.441 7.84-1.724 13.94-7.046 17.95-13.838 5.82-9.83 8.04-22.521 9.18-33.738 4.66-45.838-8.75-79.965-20.5-122.758"/><path fill="#FEFEFE" d="m1147.34 815.875 4.13-.053c1.42.97 2.38 1.191 2.96 2.911 1.02 3.015.11 5.346-1.36 7.989-2.39 4.333-4.78 5.631-9.45 6.987-2.15-.438-3.97-1.134-5.99-1.995-1.24-1.829-2.11-2.711-1.61-5.087 1.03-4.924 7.33-8.577 11.32-10.752"/><path fill="#21345D" d="M913.005 830.877c2.118.26 1.094-.153 2.928 1.546.571 5.643-3.762 10.704-6.814 15.109 24.914 61.171 55.608 102.28 107.771 143.384-14.3.647-21.081-1.909-33.224-9.265-19.221 13.616-37.942 22.389-61.425 25.139-6.675.2-12.834-.2-19.267-2.28-12.562-4.05-21.477-13.012-27.145-24.737-11.023-22.801-12.518-54.22-4.054-78.036 5.743-16.161 15.121-28.934 30.836-36.375a823 823 0 0 0-4.7-13.065c-21.629 7.026-37.613 5.406-58.237-3.6 26.192-2.805 48.925-7.655 73.331-17.82"/><path fill="#FEFEFE" d="M904.758 874.83c5.89 5.748 12.122 26.214 16.988 34.838 8.272 14.662 18.954 29.665 30.128 42.317 5.23 5.922 19.183 16.515 19.87 24.333l-1.483 1.379c-2.077.161-3.908.101-5.978-.133-28.595-27.176-56.526-58.639-71.631-95.539 3.871-2.806 7.886-4.986 12.106-7.195m-18.369 28.818c.341.321.739.591 1.023.963 6.682 8.731 34.525 62.116 33.245 71.061-.616 4.305-2.938 5.74-6.204 8.126-3.798.795-7.134 1.105-10.862-.266-7.653-2.814-12.469-9.18-15.904-16.297-10.212-21.156-8.673-41.895-1.298-63.587m-263.72-188.209c23.927-1.159 49.116.612 72.643 5.052-21.118 14.271-36.57 34.231-46.173 57.833-12.907 31.724-18.418 75.748-4.925 108.071a200.6 200.6 0 0 1 3.718-52.403c9.142-44.821 25.997-78.072 64.456-103.682-18.19 48.287-27.078 79.783-23.393 132.527.877 12.549 6.281 26.16 5.377 38.562-1.182 16.225-8.24 34.274-12.362 50.11-4.423 16.99-7.909 34.201-11.432 51.391 28.654 18.16 55.909 28.43 90.057 30.23-26.183 33.42-52.789 75.51-72.426 113.17-7.252-13.6-12.438-29.37-17.158-44.02-19.318-60-26.52-120.109-27.527-183.012a124 124 0 0 0-2.071 4.297c-26.109 56.462-5.5 152.715 15.779 209.155 23.155 61.41 58.954 131.16 111.519 172.5 25.178 19.81 54.37 34.21 83.422 47.39-20.317 19.2-37.961 49-48.831 74.46-11.014-3.01-21.85-7.88-32.379-12.27-48.783-20.31-85.433-44.7-127.698-75.87 32.067 47 100.282 92.72 151.052 117.03-2.926 7.03-6.193 13.79-9.644 20.57a1473 1473 0 0 1-16.939-7.08c-85.333-40.53-183.53-122.74-234.946-202.33-16.185-25.06-31.319-52.53-42.286-80.29-38.792-98.19-38.085-210.044-16.244-312.057-13.386 24.746-25.646 47.936-32.921 75.339-63.619 63.878-120.558 136.168-161.119 217.108-24.743 49.37-43.455 101.19-60.024 153.75-27.396-8.54-61.881-22.97-85.044-39.9 1.045-141.49 50.484-294.193 145.445-400.837 85.328-95.825 214.054-157.534 342.074-164.794m560.951-606.047c9.82-.862 20.01-.156 29.67 1.765 35.63 7.085 60.84 31.556 80.21 60.897a161.8 161.8 0 0 0-23.66 41.607c25.41-32.975 54.76-57.656 94.48-71.488 39.76-13.846 84.65-9.496 122.28 8.882a178.96 178.96 0 0 1 89.78 103.434c21.21 62.282 9.57 116.78-18.48 174.128 13.2-16.885 22.47-33.781 31.89-52.916 18.33 8.021 35.64 17.017 50.52 30.616 29.99 27.426 48.46 63.548 50.18 104.456 1.56 37.307-13.05 74.986-38.43 102.25a140 140 0 0 1-99.5 45.571c-51.23 1.539-101.03-19.867-138.03-54.573 15.84-17.782 34.27-34.236 48.83-52.957-5.23-25.225-8.42-51.963-11.79-77.543 18.2-3.631 32.35-9.394 48.25-19.063-7.38 2.294-14.69 4.591-22.35 5.729-31.87 4.733-64.85-6.4-90.21-25.533-50.13-37.809-65.44-90.506-73.66-149.938-5.9 46.499-1.3 91.123 26.2 130.478 22.07 31.589 54.12 52.59 92.04 59.374 3.84 22.817 8.32 45.26 13.37 67.832-13.36 14.019-27.53 27.197-40.98 41.114a3304 3304 0 0 0-87.01 94.033c-10.33 12.111-21.53 23.702-32.29 35.451-10.75-55.12-27.37-99.648-63.49-143.415a314.77 314.77 0 0 0-213.27-114.358c45.4 12.323 75.49 22.331 115.25 48.262a321 321 0 0 1 129.81 163.499c6.86 19.801 11.12 40.031 15.44 60.499-17.67 20.262-33.47 42.153-51.37 62.26-1.03-56.948-19.09-108.669-52.68-154.718a326.02 326.02 0 0 0-177.277-121.303c-14.148-3.811-28.586-5.892-43.041-8.142 20.451-20.646 42.731-39.383 63.998-59.162a10353 10353 0 0 1 168.41-152.565c2.31 1.799 4.66 3.534 7.16 5.076a80.5 80.5 0 0 0 61.05 9.712c-22.11-1.323-40.7-10.059-56.96-25.005-24.23-22.273-35.21-50.681-36.44-83.019a288 288 0 0 0-1.71 7.786c-5.02 24.711-1.32 47.269 12.55 68.327-10.74 10.792-22.76 20.541-33.79 31.108a182 182 0 0 1-1.49-1.142c-24.04-18.861-39.63-44.465-43.28-74.94a110.5 110.5 0 0 1 22.84-81.699c19.36-24.554 46.38-37.045 76.98-40.667"/></svg>