<svg xmlns="http://www.w3.org/2000/svg" style="display:block" viewBox="0 0 2048 2048"><path fill="#FEFEFE" d="M0 0h2048v2048H0z"/><path fill="#F9C85E" d="M1263.29 223.665c2.87 2.801 4.7 8.3 6.49 11.936 7.58 15.417 16.04 23.171 29.96 32.855-20.05 13.857-24.52 21.275-35.9 42.629-.56-.206-1.2-.262-1.67-.616-.6-.442-9.88-21.248-13.13-25.39-5.71-7.27-12.87-11.282-20.9-15.409 17.92-12.759 26.9-25.656 35.15-46.005"/><path fill="#3A2F6B" d="M957.121 1194.07c3.968.95 6.04 1.98 9.012 4.78 3.127 2.95 5.641 5.94 5.64 10.47-.001 8.82-6.658 17.04-12.759 22.81-17.971 17.01-41.161 22.34-65.256 21.62-2.517-.3-5.048-.46-7.565-.78-3.721-.46-5.494-1.27-7.827-4.23-.005-2.51-.115-3.02 1.19-5.11 15.609-4.84 32.876-12.72 45.742-22.85 9.883-7.78 19.986-22.77 31.823-26.71m-107.251-95.76a66 66 0 0 1 2.379-.13c13.751-.47 26.751 6.75 36.519 16.02 5.615 5.33 15.635 16.2 15.21 24.27-.144 2.72-1.546 5.17-3.409 7.05-11.628 1.65-24.852-27.88-44.836-30.75-7.675-1.1-14.268 2.19-20.261 6.69l-.995.76c-17.158 20.43-.634 45.89-7.684 56.43-.849 1.27-1.984 2.11-3.465 2.38-2.444.45-5.036-.01-7.047-1.55-3.161-2.41-4.461-6.76-5.129-10.48-3.206-17.88-1.902-40.9 9.689-55.85 6.764-8.73 18.508-13.23 29.029-14.84m176.28-86.18c8.37-.88 16.02-.05 23.93 2.95 12.25 4.65 24.87 15.46 30.09 27.73 1.82 4.29 3.18 10.55.66 14.87-1.21 2.07-2.14 2.12-4.25 2.35-7.33-2.69-10.86-10.72-15.48-16.57-6.69-8.46-16.56-15.21-27.54-16.16-7.88-.68-12.97 2.76-18.63 7.79l-1.09.98c-10.83 12.48-11.76 27.07-8.75 42.58.66 3.4 2.16 7.87 1.74 11.32-.28 2.37-1.53 4.12-3.27 5.64-2.47 2.16-4.504 3.01-7.818 2.71-3.246-1.69-4.644-4.33-5.662-7.71-5.424-18.01-3.468-41.95 6.114-58.27 6.816-11.61 17.396-16.98 29.956-20.21"/><path fill="#F9C85E" d="M569.365 1700.75c3.1 3.78 4.931 9.95 6.961 14.5 7.076 15.89 16.901 22.65 30.147 32.59-17.663 13.13-28.751 26.79-36.584 47.52-11.287-23.56-17.251-32.52-38.315-47.84 21.038-11.91 28.721-24.9 37.791-46.77m-271.709-95.18c2.592 1.97 3.956 7.22 5.442 10.22 7.961 16.03 18.195 33.04 36.167 39.13-20.762 13.95-31.523 27.15-40.468 50.46-1.457-1.59-1.115-.9-1.83-2.8-8.323-22.08-19.939-35.25-39.628-47.98 21.725-13.22 30.395-25.84 40.317-49.03"/><path fill="#3A2F6B" d="M993.66 1185.18c13.08-1.21 26.27 3.15 39.09 5.41a210 210 0 0 0 30.2 3.22 200 200 0 0 0 20.16-.07c8.97-.58 25.19-4.45 33.25-2.25 1.64 2.46 1.64 2.28 1.15 5.19-4.65 5.7-11.65 7.98-18.26 10.67-20.13 7.37-41.06 13.25-62.66 13.28-13.08.01-34.99-1.69-44.384-11.76-3.129-3.36-5.563-8.79-5.038-13.46.505-4.48 3.239-7.41 6.492-10.23"/><path fill="#F9C85E" d="M509.265 1427.69c3.032 6.22 5.264 12.98 8.146 19.3 17.118 37.53 27.551 42.83 61.607 63.62l-1.44.74c-39.224 20.33-54.596 37.84-67.992 79.92-1.391-4.51-2.796-9.06-4.568-13.44-12.825-31.75-35.144-55.69-66.69-69.1 39.764-17.2 55.009-42.42 70.937-81.04M991.037 177.411c6.02 4.226 9.363 18.033 12.533 24.731 16.35 34.486 39.75 54.43 73.15 71.76-29.95 17.381-53.62 35.158-70.3 66.222-4.85 9.052-8.135 20.722-14.061 28.896-.294.405-.599.802-.898 1.202-24.561-54.316-35.299-65.807-86.464-96.547 44.782-21.739 67.682-50.646 86.04-96.264"/><path fill="#3A2F6B" d="M1425.75 407.492a938 938 0 0 1 78.85 3.118c112.53 9.726 233.73 45.26 308.99 134.978 75.27 89.73 73.65 180.914 64.13 289.861 17.73-1.672 77.94-15.21 89.9-8.193 1.3 2.344 1.87 4.313 1.77 6.992-.36 10.095-44.23 117.782-51.08 135.664A7522 7522 0 0 1 1866.98 1104c-7.95 20.69-15.15 42.03-23.93 62.37-1.11 2.57-2.35 4-4.43 5.85-2.64.85-4.72 1.39-7.54.64-2.71-.72-4.81-3.83-6.33-6.01-13.28-18.98-24.53-40.09-36.32-60.04a8094 8094 0 0 0-63.36-105.26c-7.1-11.361-69.27-114.189-70.04-118.144-.61-3.104-.09-6.968 1.71-9.603 1.33-1.957 2.89-2.514 5.16-3.118 11.93-3.181 25.3-3.978 37.56-5.64a763 763 0 0 0 52.5-8.651c3.6-44.057-12.96-101.707-29.26-142.677-62.52-157.107-225.09-220.441-381.25-241.306a891 891 0 0 0-117.03-8.775c-27.21-.088-54.6.212-81.78 1.517-11.77.565-23.52 2.51-35.28 2.719-2.66.047-6.46.181-8.81-1.298-1.93-1.212-3.24-3.977-3.54-6.15-.28-2.015.24-4.875 1.73-6.376 5.97-5.994 29.38-10.184 38.12-12.352 96.63-23.971 191.56-33.259 290.89-34.204"/><path fill="#FEFEFE" d="M1393.63 426.448c70.9-3.233 146.44 1.034 215.14 19.724 119.92 32.618 222.72 102.797 248.92 232.268 7.28 36.005 7.4 73.68 4.98 110.184-.74 11.091-1.4 22.24-2.51 33.299-.79 7.886-2.54 15.856-2.42 23.806.05 2.926.39 4.995 1.84 7.528 10.02 5.911 72.63-6.309 87.74-8.638l-62.1 160.711c-17.29 45.69-33.65 93.57-53 138.25-19.62-30.94-37.98-62.33-56.59-93.86-21.82-38.19-45.49-75.494-68.37-113.064-10.1-16.583-21.65-33.283-30.16-50.724 14.76-1.761 79.47-8.356 87.37-16.034 4-3.89 4.82-11.445 5.08-16.673.98-19.452-1.8-39.219-5.14-58.345-12.71-72.887-43.43-142.226-93.91-196.895-78-84.468-207.48-128.15-318.63-142.782-50.16-6.602-100.23-7.751-150.68-9.774 63.62-12.577 127.76-16.912 192.44-18.981"/><path fill="#3A2F6B" d="M605.571 169.402a103 103 0 0 1 5.615-.437 187.7 187.7 0 0 1 136.38 48.924c36.915 33.811 59.446 76.701 61.663 127.097 1.528 34.741-5.59 72.343-25.134 101.682-7.982 11.982-17.928 22.57-27.631 33.156 8.476 11.174 19.906 20.536 30.176 30.055 11.275 10.452 22.207 21.071 32.81 32.211 24.781 26.032 48.59 52.762 72.583 79.506 27.319 30.453 54.302 60.564 79.771 92.623 28.128-17.349 85.166-45.282 118.536-38.444 6.19 1.268 12.02 3.923 15.51 9.408 4.2 6.592 3.58 14.985 1.74 22.235-7.44 29.29-45.68 77.432-65.64 100.715-93.675 109.227-208.199 201.177-329.769 277.547-36.599 22.99-74.503 43.5-111.782 65.32 10.172 59.85 48.72 109.89 96.842 144.81 69.772 50.63 178.112 74.65 262.857 61.36 3.952 11.52 9.179 21.67 16.768 31.26 24.274 30.66 64.144 43.81 101.584 47.94-5.4-7.35-10.78-14.71-15.03-22.81-11.58-22.09-18.83-57.08-7.26-80.47 5.17-10.47 20.14-18.39 28.49-26.88 37.2-37.8 63.42-81.24 79.23-131.85-35.43-9.92-72.08-17.57-106.81-29.7 7.93-13.06 17.47-25.38 26.08-38.03 22.51-33.06 45.45-66.27 66.33-100.38a2937 2937 0 0 0 65.21-114.442c11.58-21.764 22.2-44.239 34.38-65.654 16.54 4.342 32.91 11.235 49.2 16.649 53.1 17.652 106.09 37.452 159.91 52.781 11.79 18.993 20.77 41.229 30.9 61.25l78.59 157.396 263.79 524.4 79.78 161.79c11.15 22.42 21.43 45.34 33.58 67.24-.32 2.85-.37 6.67-2.37 8.9-1.98 2.21-4.78 2.77-7.6 2.94-14.89.89-30.09.44-45.02.46a5842 5842 0 0 1-96.39-.85l-194.64-.07-165.72.15c-19.98.02-84.37 2.68-99.5-2.3-7.48-8.35-72.71-136.42-74.37-145.75-.6-3.41-.56-5.7 1.48-8.61 3.25-2.43 7.45-2.29 11.36-2.44 13.53-.49 27.22.3 40.76.51a4101 4101 0 0 0 58.95.27c51.77.01 103.61-1.45 155.37-.05-9.43-22.59-20.92-44.32-31.72-66.26a5160 5160 0 0 0-53.49-107.98c-27.1-54.2-51.77-109.33-80.58-162.72-7.11 11.68-12.82 24.75-19.16 36.9l-47.04 90.97-132.79 252.55-35.71 68.3c-7.81 15.11-15.07 33.45-25.87 46.51l-270.582.56-77.724.6c-16.456.13-34.065 1.43-50.294-1.27l-1.334-1.98c-.632-5.32.778-9.78 2.868-14.65 6.346-14.79 14.361-28.84 21.872-43.04 10.868-20.54 21.425-41.3 31.91-62.04l151.163-294.47c12.58-25.1 32.794-57.4 40.235-83.63l.393-1.41c-17.88-.13-35.677 1.5-53.61.92-73.722-2.4-141.853-22.7-203.084-64.21-55.661-37.73-96.277-90.78-109.108-157.55-17.195 7.18-35.176 15.35-53.515 18.9-11.435 2.22-29.011 3.74-38.921-3.47-3.366-2.44-5.172-6.1-5.746-10.17-4.429-31.37 41.807-85.92 61.258-110.25-13.165-21.7-27.259-42.81-40.666-64.359-13.091-21.042-25.613-42.704-39.489-63.221-33.46-49.478-69.365-97.468-103.484-146.497-3.885 7.45-7.726 14.717-12.988 21.309-19.919 24.953-52.759 40.144-84.076 43.658a165.96 165.96 0 0 1-120.919-35.401 173.68 173.68 0 0 1-64.076-118.162 165.65 165.65 0 0 1 36.488-120.286c30.074-36.555 71.768-53.573 117.757-58.27-3.532-16.723-5.047-34.403-4.76-51.477a211.16 211.16 0 0 1 64.363-147.036c43.633-42.059 101.563-58.96 160.894-58.059a370 370 0 0 1 6.79-8.419c37.144-44.512 85.226-70.937 143.186-76.308"/><path fill="#F9C85E" d="M1070.01 1351.9c.07-1.25.14-2.49.3-3.74 1.02-8.08 10.22-13.66 16.09-18.26-3 7.42-6.14 14.81-8.78 22.35 22.21.64 43.86 7.98 65.88 8.86-4.72 22.28-12.59 43.66-16.16 66.24-12.01-1.05-24.12-2.95-36.16-3.29-11.81-17.66-18.55-36.68-21-57.69-.2-4.81-.12-9.65-.17-14.47"/><path fill="#FEFEFE" d="M1070.01 1351.9c3.03-.26 4.53-.45 7.36.93-1.78 5.07-3.47 9.52-7.19 13.54-.2-4.81-.12-9.65-.17-14.47m287.74-467.264c26.92 7.869 53.38 16.535 79.89 25.642a3057 3057 0 0 1-29.56 58.979c-24.96-2.798-48.67-10.756-73.31-14.542 7.22-23.516 16.79-46.211 22.98-70.079"/><path fill="#E95856" d="M1179.65 992.803c.19.258.42.491.58.772 2.3 4.214 1.38 15.805 1.45 21.025.65 46.2-2.4 94.21-13.59 139.16a1363 1363 0 0 0-62.71-15.54l-16.71-2.85c12.14-15.5 22.32-33.32 33.14-49.8 20.03-30.53 40.75-60.41 57.84-92.767"/><path fill="#DAD7F0" d="M551.546 852.247c6.14 8.596 11.72 17.748 18.127 26.123l.723-.672c14.12 19.478 37.009 56.041 53.366 71.499-19.609 27.259-37.75 54.793-53.733 84.333-17.832-24.7-33.825-51.042-50.672-76.448-6.665-8.864-12.066-20.011-17.735-29.618 8.046-10.404 14.137-23.312 21.167-34.535 8.823-14.086 18.869-27.338 28.757-40.682"/><path fill="#B94251" d="M551.546 852.247c6.14 8.596 11.72 17.748 18.127 26.123-15.005 18.189-41.712 57.665-50.316 78.712-6.665-8.864-12.066-20.011-17.735-29.618 8.046-10.404 14.137-23.312 21.167-34.535 8.823-14.086 18.869-27.338 28.757-40.682"/><path fill="#DAD7F0" d="M440.202 701.242c10.06 11.785 18.937 24.815 28.064 37.334l47.672 65.875c11.284 15.625 22.496 33.135 36.504 46.472l-.896 1.324c-9.888 13.344-19.934 26.596-28.757 40.682-7.03 11.223-13.121 24.131-21.167 34.535-13.958-24.229-30.871-47.263-46.712-70.296-11.331-16.475-21.876-33.474-33.362-49.841-8.339-11.883-17.528-23.194-25.43-35.374 16.901-22.66 31.705-45.246 44.084-70.711"/><path fill="#F9C85E" d="M1256.76 850.754a629 629 0 0 0 39.01 13.62 4005 4005 0 0 0 61.98 20.262c-6.19 23.868-15.76 46.563-22.98 70.079 24.64 3.786 48.35 11.744 73.31 14.542-10.92 22.139-21.57 44.943-33.87 66.333-13.85-5.24-44.81-10.33-60.44-13.63 7.06-22.416 14.08-44.756 20.6-67.339-22.03-3.476-43.98-8.148-65.74-13-8.6 22.398-17.3 44.796-24.72 67.619a357 357 0 0 0-44.77-5.49c-.7-5.772-.05-11.977-3.86-16.68-1.99-1.295-3.14-1.446-5.44-1.426-1.99.018-3.7-.033-5.68-.41 10.46-18.142 19.59-36.972 29.99-55.121 14.44-26.28 27.42-53.548 42.61-79.359"/><path fill="#FEFEFE" d="M1256.76 850.754a629 629 0 0 0 39.01 13.62c-7.1 26.129-19.93 50.721-27.56 76.831-13.14-2.758-43.75-6.58-54.06-11.092 14.44-26.28 27.42-53.548 42.61-79.359M846.258 1623.92c7.233-.08 14.786-.6 21.982-.03-3.324 26-13.616 54.22-21.284 79.31 20.971.32 42.805-.48 63.632 1.81a1454 1454 0 0 1-22.839 74.55c10.621.06 55.22-1.31 61.806 1.97-3.587 13.2-7.003 26.52-11.19 39.55-3.481 10.82-7.73 21.45-10.984 32.34l21.081.52-4.439 7.94c-72.951.27-145.989-.83-218.913.54 7.991-23.29 29.201-61.89 41.767-84.48 12.543-25.33 25.997-50.27 39.126-75.3 12.252-26.78 26.291-52.81 40.255-78.72"/><path fill="#F9C85E" d="M766.877 1777.94c12.543-25.33 25.997-50.27 39.126-75.3 13.037 1.38 26.179 1.44 39.277 1.48-6.505 25.13-14.019 49.86-21.18 74.8-19.077-.86-38.159-.28-57.223-.98m74.273 1.52c15.523-.89 31.325-.17 46.857.26-7.38 24.41-14.672 49.21-23.538 73.13l-12.025.1a1045 1045 0 0 1-47.908-.07l19.972-72.9z"/><path fill="#DAD7F0" d="M356.762 647.814c19.722 11.091 43.666 36.18 61.087 52.075-11.406 16.846-30.399 37.222-44.184 52.85-3.577 4.054-9.601 8.744-12.083 13.314-1.554 2.862-1.512 6.208-2.711 9.253-24.518 23.088-58.117 41.144-91.785 45.392-39.576 4.994-76.469-5.417-107.842-29.947-33.256-26.002-52.763-60.928-57.933-102.751 25.874 23.29 55.292 34.989 90.087 33.065 56.43-3.121 119.459-41.632 165.364-73.251"/><path fill="#3A2F6B" d="M347.812 692.716c.816.041 1.919.052 2.684.315 2.485.856 2.886 1.746 3.864 3.939-.295 1.479-.685 2.529-1.732 3.655-6.763 7.267-16.879 13.401-24.735 19.579a3818 3818 0 0 1-74.124 56.786l-3.14-.318c-1.917-2.104-2.076-2.318-2.497-5.122.733-2.241 1.687-3.413 3.395-4.955 9.452-8.534 20.633-15.871 30.807-23.585a3427 3427 0 0 0 65.478-50.294m29.206 6.258c2.269-.286 3.637-.526 5.89.119 1.889.54 1.6.867 2.433 2.447-1.382 8.094-87.423 73.78-100.325 85.46-2.521.022-4.525-.074-6.559-1.734-1.438-1.174-1.013-1.718-1.109-3.426 4.75-7.318 87.211-73.997 99.67-82.866"/><path fill="#E95856" d="m1533.51 1738.52 1.55-.24c6.59 4.02 55.18 108.54 61 121.43l-249.18.4c-.15-.03-.31-.05-.46-.11-5.45-2.35-56.73-109.06-61.92-120.05a9954 9954 0 0 0 149.51-.23c33-.15 66.58.87 99.5-1.2"/><path fill="#FEFEFE" d="M855.031 627.768c9.521 9.048 17.984 19.238 26.47 29.25 9.85 9.854 18.704 20.819 27.889 31.302 8.946 10.21 18.951 20.439 26.57 31.684-80.431 18.963-170.718 79.757-229.626 136.291-30.009 28.8-56.557 60.528-82.572 92.902-16.357-15.458-39.246-52.021-53.366-71.499l-.723.672c-6.407-8.375-11.987-17.527-18.127-26.123l.896-1.324c59.262-73.745 120.115-133.978 203.389-180.241 15.604-8.669 31.194-17.256 47.612-24.314 16.956-7.289 34.151-12.68 51.588-18.6"/><path fill="#E95856" d="M855.031 627.768c9.521 9.048 17.984 19.238 26.47 29.25-17.665 5.243-35.368 10.527-52.526 17.282-77.368 30.459-145.089 80.81-203.323 139.439-15.236 15.339-43.96 46.319-55.256 63.959l-.723.672c-6.407-8.375-11.987-17.527-18.127-26.123l.896-1.324c59.262-73.745 120.115-133.978 203.389-180.241 15.604-8.669 31.194-17.256 47.612-24.314 16.956-7.289 34.151-12.68 51.588-18.6"/><path fill="#FEFEFE" d="M1268.63 941.621c21.76 4.852 43.71 9.524 65.74 13-6.52 22.583-13.54 44.923-20.6 67.339 15.63 3.3 46.59 8.39 60.44 13.63-11.75 23.45-22.54 47.62-35.53 70.4-10.32 20.85-20.33 42.12-31.68 62.42-10.97 22.22-21.3 45.64-33.76 67.03-11.65 22.14-23.51 44.21-34.84 66.51-7.48 15.94-15.76 32.16-25.13 47.08l-10.72 19.93a1759 1759 0 0 1-59.05-7.85c-22.02-.88-43.67-8.22-65.88-8.86 2.64-7.54 5.78-14.93 8.78-22.35 13.99-12.6 25.97-26.32 38.17-40.63 17.28-21.46 30.84-44.88 41.96-70.01 8.77-22.48 16.55-44.57 21.91-68.14 4.44-25.87 8.36-50.98 10.53-77.15-.09-23.43.67-46.75.17-70.22 14.85.86 30.15 2.74 44.77 5.49 7.42-22.823 16.12-45.221 24.72-67.619"/><path fill="#F9C85E" d="M1248.41 1231.6c8.39.77 16.57 2.23 24.83 3.84-11.65 22.14-23.51 44.21-34.84 66.51-3.89-.75-7.93-.98-11.88-1.37 7.78-22.87 15.33-45.72 21.89-68.98m-81.88-12.34c4.41.45 8.71.91 13.15.78-4.24 24.28-13.93 48.15-19.82 72.21l-35.29-2.98c17.28-21.46 30.84-44.88 41.96-70.01m123.21-127.76c13.44 3.88 39.67 5.2 48.94 14.49-10.32 20.85-20.33 42.12-31.68 62.42-11.18-4.42-25.01-4.74-36.9-6.09a1251 1251 0 0 0 19.64-70.82m-129.34 200.99c11.91 1.25 23.75 3.43 35.63 5.01 10.15 1.35 20.37 2.14 30.48 3.82-3.95 12.7-14.19 34.9-13.24 47.71l-10.72 19.93a1759 1759 0 0 1-59.05-7.85c1.92-17.15 12.2-50.41 16.9-68.62m84.21-282.11 68.07 12.12c-7.93 22.45-16.3 45.06-22.86 67.95-22.06-3.94-44.78-9.06-67.1-10.63 6.64-23.22 13.32-46.86 21.89-69.44"/><path fill="#F9C85E" d="M1198.97 1073.97c7.67 1.94 15.33 3.97 23.02 5.81-8.11 23.21-16.55 46.54-23.07 70.24 23.03 4.68 46.19 8.53 69.28 12.87a2752 2752 0 0 0-20.04 68.48c-20.62-6.09-47.09-10.09-68.48-11.33-4.44.13-8.74-.33-13.15-.78 8.77-22.48 16.55-44.57 21.91-68.14 4.44-25.87 8.36-50.98 10.53-77.15"/><path fill="#FEFEFE" d="m1188.44 1151.12 10.04-.16c-4.19 23.4-15.29 45.7-18.8 69.08-4.44.13-8.74-.33-13.15-.78 8.77-22.48 16.55-44.57 21.91-68.14m-44.94 209.99a1759 1759 0 0 0 59.05 7.85c-5.84 13.01-12.7 25.55-19.18 38.25-4.24 8.31-8.08 17.19-12.88 25.18-10.89 19.67-20.47 40.07-31.61 59.58-9.67 18.89-24.55 52.27-36.85 68.01-5.05 9.8-9.55 20.85-15.36 30.14-5.89 13.98-13.47 27.54-20.67 40.89l-26.64 50.03c-4.26 8.14-7.98 16.9-12.61 24.8a4245 4245 0 0 0-23.9 45.71c-5.049 9.93-9.653 20.62-15.513 30.04a4603 4603 0 0 1-38.875 72.35l-21.081-.52c3.254-10.89 7.503-21.52 10.984-32.34 4.187-13.03 7.603-26.35 11.19-39.55-6.586-3.28-51.185-1.91-61.806-1.97a1454 1454 0 0 0 22.839-74.55c-20.827-2.29-42.661-1.49-63.632-1.81 7.668-25.09 17.96-53.31 21.284-79.31-7.196-.57-14.749-.05-21.982.03 12.702-25.61 27.001-50.41 39.511-76.06l5.025-9.98a2304 2304 0 0 0 31.905-62.11c10.863-24.47 25.387-53.04 38.486-76.44 10.372 11.02 21.236 20.26 33.755 28.75 18.05 9.65 37.21 20.22 57.64 23.47 13.58 1.57 43.05 7.78 54.96 1.31 1.93-1.04 2.22-1.06 2.81-3.23-4.69-9.18-13.58-16.59-19.17-25.57 12.04.34 24.15 2.24 36.16 3.29 3.57-22.58 11.44-43.96 16.16-66.24"/><path fill="#F9C85E" d="M1086.67 1590.12c-.86-6.66 2.41-23.53 7.37-28.58 2.21-2.24 5.11-1.54 7.99-1.56-5.05 9.8-9.55 20.85-15.36 30.14m41.94-161.31c13.82 1.36 28.31.82 41.88 3.58-10.89 19.67-20.47 40.07-31.61 59.58-7.86-2.56-18.43-2.4-26.73-3.2 6.38-19.69 11.22-39.94 16.46-59.96m-133.67-.73c18.05 9.65 37.21 20.22 57.64 23.47-3.69 10.86-5.75 22.39-8.16 33.59a666 666 0 0 0-65.413-6.01zm6.76 200.71c21.36 2.26 42.84 2.13 64.3 2.22l-26.64 50.03c-4.26 8.14-7.98 16.9-12.61 24.8-10.15-2.65-37.057-1.19-48.82-1.4a1921 1921 0 0 1 23.77-75.65m42.68-143.2a1407 1407 0 0 0 66.36 5.12c-7.29 22.6-14.75 45.5-20.35 68.58-22.24-.38-44.53-2.82-66.79-3.59a1033 1033 0 0 0 20.78-70.11m-121.681-9.82c18.396 2.09 36.554 3.37 55.031 4.35a1594 1594 0 0 0-18.846 70.86c21.318 1.96 42.806 2.78 64.066 5.09-6.98 23.68-12.48 48.21-20.29 71.56-22.005-.59-44.048-2.4-66.038-2.72a985 985 0 0 0 21.551-73.69 1320 1320 0 0 0-39.823-2.16c-8.585-.31-18.341.36-26.657-1.35-.454-3.29-.741-6.51-.899-9.83a2304 2304 0 0 0 31.905-62.11m-36.93 72.09 3.911 1.73c1.221 10.68-16.653 59.73-20.91 74.01a3268 3268 0 0 1 66.204 2.36c-8.907 25.85-15.98 52.36-23.731 78.58 21.394.33 42.855-.16 64.231.35-6.846 25.66-16.136 51.28-25.484 76.16 12.434.39 24.91 1.05 37.347.54a4603 4603 0 0 1-38.875 72.35l-21.081-.52c3.254-10.89 7.503-21.52 10.984-32.34 4.187-13.03 7.603-26.35 11.19-39.55-6.586-3.28-51.185-1.91-61.806-1.97a1454 1454 0 0 0 22.839-74.55c-20.827-2.29-42.661-1.49-63.632-1.81 7.668-25.09 17.96-53.31 21.284-79.31-7.196-.57-14.749-.05-21.982.03 12.702-25.61 27.001-50.41 39.511-76.06m182.691-854.517c4.36-.716 10.74-1.226 15.08-.468 2.95.515 4.64 1.435 6.36 3.837.5 2.919.43 5.149-.31 8.037-5.59 21.709-30.29 51.649-44.66 69.606-81.798 102.162-180.537 186.015-288.15 259.705-22.817 15.63-45.562 31.56-69.262 45.82-40.343 24.27-114.571 68.86-158.334 77.59-8.633 1.72-16.334 2.06-24.975-.1-.592-1.41-.76-1.61-1.032-3.3-2.695-16.74 40.362-76.98 50.766-91.29 6.06 6.9 10.975 14.78 17.03 21.76 4.092-2.38 9.442-3.31 13.151-5.9 4.32-3.02 9.579-17.23 12.384-22.55 49.344-93.58 113.096-171.649 200.496-232.182a629.6 629.6 0 0 1 144.643-72.9c8.39-2.985 34.976-8.453 38.991-16.421 1.86-3.693-.019-7.385-1.396-10.867l-.538-1.33c.301-.445.546-.932.902-1.333 4.016-4.529 53.644-20.219 62.194-22.452a208.5 208.5 0 0 1 26.66-5.262"/><path fill="#3A2F6B" d="M954.003 758.604c1.822.99 1.417.994 2.008 2.837-.512 2.282-1.113 3.933-2.259 5.996-44.297 79.707-250.802 245.633-339.194 271.233l-1.164-.34c2.553-3.87 27.16-17.29 33.264-21.05a1244 1244 0 0 0 79.987-54.467c57.086-42.702 113.174-88.627 164.394-138.272 21.839-21.168 40.912-45.072 62.964-65.937"/><path fill="#3A2F6B" d="M996.353 757.649c.888.825 1.172 1.641 1.683 2.723-.557 9.345-9.057 20.468-14.192 27.983-26.371 38.587-59.365 70.717-93.678 102.085-66.519 60.81-138.333 115.28-218.262 157.4-27.03 14.24-56.285 28.78-86.474 34.47l-.875-.95c7.748-6.25 31.06-16.03 41.227-21.35a873 873 0 0 0 69.533-40.2c85.507-54.666 167.073-115.962 237.503-189.435 22.434-23.404 42.461-48.2 63.535-72.726"/><path fill="#B94251" d="M1450.52 1208.72c8.61 9.55 33.74 68.33 41.52 84.62 12.29 25.76 25.41 51.19 37.94 76.85a35250 35250 0 0 0 164.86 333.58c25.88 52.03 50.82 104.61 77.41 156.27-25.57.39-51.18.15-76.75.2l-75.84-.14c-24.93-45.5-46.42-93.32-69.37-139.88L1418.7 1453.9c-15.17-30.54-29.44-61.43-45.07-91.76 10.87-24.03 23.63-47.48 35.29-71.18 13.52-27.48 26.19-55.75 41.6-82.24"/><path fill="#E95856" d="M1451.14 926.46c7.37 7.25 23.8 44.609 29.42 55.886l69.59 141.084 254.09 507.16a13228 13228 0 0 1 83.8 168.64c9.42 19.66 20.58 39.21 28.5 59.49-40.36 2.72-81.41 1.3-121.87 1.22a24170 24170 0 0 0-186.52-375.88l-95.54-193.57c-20.44-41.96-40.27-84.2-61.33-125.87-2.22 4.99-4.87 9.85-7.33 14.72-32.13 59.36-60.97 120.48-91.79 180.52l-157.55 300.85c-34.97 66.75-68.81 134.4-105.4 200.27a5541 5541 0 0 0-122.613-.85c12.587-27.49 28.573-54.17 42.763-80.94l83.33-157.98a34039 34039 0 0 0 286.06-550.85c24.02-48.04 49.56-95.252 72.39-143.9"/><path fill="#FEFEFE" d="M480.786 255.941c13.585-15.016 27.311-28.612 44.894-38.953 41.586-24.458 90.446-34.06 137.548-21.711a177.03 177.03 0 0 1 106.898 81.676c19.864 34.043 24.772 80.118 14.527 117.985-7.639 28.237-22.871 56.71-48.142 72.764-6.311 4.01-14.11 5.913-20.057 9.947-2.244 1.523-2.74 2.784-3.279 5.328 7.804 14.66 58.337 57.72 73.445 72.715a1603 1603 0 0 1 68.411 72.076c-17.437 5.92-34.632 11.311-51.588 18.6-16.418 7.058-32.008 15.645-47.612 24.314-83.274 46.263-144.127 106.496-203.389 180.241-14.008-13.337-25.22-30.847-36.504-46.472l-47.672-65.875c-9.127-12.519-18.004-25.549-28.064-37.334 9.416-20.033 15.019-40.116 18.755-61.862-12.712 21.171-25.706 41.163-41.108 60.509-17.421-15.895-41.365-40.984-61.087-52.075-45.905 31.619-108.934 70.13-165.364 73.251-34.795 1.924-64.213-9.775-90.087-33.065-.453-2.364-.789-4.731-.895-7.138-1.662-37.805 13.349-76.52 38.771-104.184 28.048-30.524 61.332-42.58 101.977-44.355 16.965 38.057 37.285 73.04 72.855 96.714-7.392-12.356-16.843-23.58-24.463-35.891-21.787-35.198-36.906-78.358-38.51-119.765-1.981-51.123 15.375-100.298 50.281-137.861 35.2-37.881 86.051-58.922 137.426-60.308 59.238-1.599 111.507 23.48 153.898 63.279 4.81 4.516 10.454 9.814 17.633 9.088 1.663-.168 1.853-.973 2.871-2.143.701-5.622-2.103-10.348-5.196-14.838-3.812-5.532-9.104-10.511-13.804-15.322a211.56 211.56 0 0 0-113.369-59.335"/><path fill="#3A2F6B" d="M655.152 513.583c.964.263 1.095.267 2.137.725 6.669 2.934 98.326 108.603 103.584 121.134-.079 3.187-1.732 4.806-3.628 7.16-2.818-.847-5.03-1.78-7.048-3.971-4.594-4.986-8.49-11.169-12.601-16.585a820 820 0 0 0-19.674-24.524c-11.135-13.422-22.29-26.976-33.89-39.995-10.436-11.713-25.128-24.138-32.541-37.824.501-2.887 1.805-3.9 3.661-6.12m16.893-28.075c1.263.134 1.711.147 2.848.368 13.748 2.678 92.791 100.372 105.673 116.333 5.15 6.38 15.692 17.042 18.921 24.161 1.038 2.287-.923 4.518-1.959 6.509-.959.1-1.503.201-2.51.086-5.264-.6-50.794-58.956-58.44-67.989a1084 1084 0 0 0-40.079-44.498c-8.629-9.051-18.24-17.629-25.995-27.408-.515-3.202.392-4.576 1.541-7.562m-50.333-114.18c3.258-.112 4.834-.848 7.256 1.787 3.11 3.383 4.249 9.634 5.725 13.923 7.103 20.637 12.428 39.714 12.887 61.774 1.484 71.256-42.899 137.342-90.742 186.86l-10.354 9.605c9.206-17.858 20.451-34.675 30.111-52.297 24.386-44.487 47.234-99.025 46.869-150.369-.091-12.769-.799-26.386-3.606-38.885-2.19-9.752-7.791-19.898-7.361-29.941 2.531-1.834 6.191-1.955 9.215-2.457"/></svg>