<svg xmlns="http://www.w3.org/2000/svg" style="display:block" viewBox="0 0 2048 2048"><path fill="#FEFEFE" d="M0 0h2048v2048H0z"/><path fill="#07090B" d="M490.588 67.404c22.989-3.69 58.671.741 81.514 5.8 133.695 29.61 227.58 129.761 327.297 216.13a4591 4591 0 0 0 180.531 151.04c22.13 17.643 43.22 36.545 66.39 52.873 8.64-6.045 15.43-13.384 25.11-17.997 5.79-17.701 11.68-33.787 22.4-49.273 11.91-17.186 29.49-32.522 50.6-36.284 16.04-2.859 35.37.752 48.54 10.387 17.18 12.567 21.93 31.576 25.35 51.385 15.66 9.018 29.98 19.019 42.16 32.506a137.63 137.63 0 0 1 35.44 98.388c-1.21 22.872-7.79 45.316-25.36 60.936-11.81 10.505-25.12 15.735-41.1 14.552-23.6-1.746-42.29-17.664-57.16-34.753-15.78 16.106-35.52 28.393-52.98 42.59-1.51 11.963-3.68 23.119-11.06 33.086-13.75 18.556-35.8 26.059-57.61 29.661 12.73 25.854 18.35 23.852 36.95 42.238 42.96 42.454 67.89 109.069 74.65 168.338 2 17.457 1.82 35.13 1.99 52.676 7.71 10.067 13.31 22.647 19.2 33.877l29.02 55.24a9264 9264 0 0 0 85.65 153.55c11.65 20.43 24.12 40.45 36.22 60.61 6.54 10.89 17.24 24.68 20.26 36.94-1.27 5.85-6.89 8.69-11.44 11.95 20.42 27.03 42.6 52.49 63.5 79.11 9.63 12.27 17.78 26.96 28.74 37.96 16.03 16.1 38.21 29.28 56.64 42.59l99.26 72.54c47.78 34.91 94.31 71.44 142.15 106.3 16.79 12.23 33.39 25.05 50.8 36.36 5.78-1.92 10.15-1.91 16.16-.71 22.05 4.4 63.73 27.16 76.09 45.68-6.56 22.93-17.84 44.9-25.92 67.41-11.83 32.99-17.81 89.5-50.65 107.82-32.57 18.18-89.48 12.42-123.83 2.92-3.1-8.81-5.17-18.25-2.02-27.39 7.48-21.67 41.38-32.68 60.1-41.5 3-6.3 5.38-12.6 7.6-19.21-2.45-2.55-5.52-4.97-6.36-8.42.87-.56 3.83-2.1 4.26-2.86 2.39-4.25-.34-18.05 1.25-24.5.08-.33.18-.66.27-1-5.08-11.76-1.02-14.02-12.52-23.3l.04-1.63c2.92-2.53 6.11-3.6 9.68-4.96-6.92-8.68-15.56-16.14-23.58-23.79-5.74 3.45-12.82 8.72-19.73 8.84-3.87.07-8.25-2.17-11.75-3.74-13.76-6.19-27.08-13.86-40.63-20.57a7168 7168 0 0 0-82.65-39.89c-78.36-37.45-157.85-72.6-236.45-109.55a3280 3280 0 0 1-66.74-32.19c-11.77-5.85-24.84-11.35-35.58-18.92-11.41-8.05-21.47-22.38-30.69-32.9-20.26-23.11-40.24-47.18-61.64-69.21-33.48 9.94-69.33 18.91-104.07 22.84-14.97 1.89-29.61 3.09-44.71 2.97-1.44-21.61-4.72-42.99-7.74-64.42-26.52 9.24-52.67 19.55-78.863 29.69-17.596 6.8-34.921 14.25-53.339 18.57a1937 1937 0 0 1 50.078 253.41c3.594 27.29 8.116 55.72 9.051 83.25-11.709 3.03-23.111 3.57-35.129 3.89-2.879 19.98-3.311 40.86-4.79 61.03 1.209.55 2.409 1.08 3.539 1.79 4.706 2.94 8.169 7.42 9.03 12.98 1.948 12.58-12.058 63.16-19.365 73.14-2.282 3.12-4.706 5.63-8.752 5.98-6.974.62-36.675-10.07-46.272-12.23-73.997-16.61-130.816-13.64-192.045-67.04-8.934-7.8-22.624-19.17-23.099-31.99-.229-6.18 3.217-12.86 7.594-17.07 13.885-13.34 44.979-8.65 61.775-3.97 13.692 3.82 27.652 11.04 41.993 11.41 9.772-8.09 22.83-.67 31.845-6.83 5.702-3.91 14.739 1.15 18.546-1.84.652-3.08 1.004-6.81 3.484-8.99 2.646-2.34 6.541-2.89 9.932-2.69 10.4.63 22.679 6.88 29.409 14.67l.86 1.01 1.132-46.67c-5.211-1.83-11.261-3.21-13.919-8.59-3.446-6.96-4.19-16.72-6.063-24.35-3.888-15.83-8.735-31.46-12.212-47.39-3.965-18.16-6.337-36.67-10.436-54.79-5.48-24.24-12.678-48.11-18.467-72.27a2984 2984 0 0 1-24.809-116.33c-4.375-21.67-9.737-43.74-12.466-65.68-2.225-17.88-2.704-36.95 2.952-54.29 5.162-15.83 24.617-30.5 37.372-40.96 15.477-12.69 32.359-23.48 48.886-34.73l57.484-39.42a2536 2536 0 0 1 59.931-39.63c12.093-7.85 24.133-16.43 37.023-22.87-6.37-12.79-14.46-24.68-20.7-37.62a529.9 529.9 0 0 1-49.83-172.707c-23.268-.078-45.594-1.04-68.598-4.925-1.03 4.922-2.156 15.7-5.524 19.216-11.598.8-61.103-13.372-72.407-18.666l1.738-28.393a203 203 0 0 1-9.721-2.438c-12.53-3.407-26.263-8.374-36.711-16.307-8.688-6.596-15.511-16.73-22.317-25.195-43.704-54.36-66.458-121.83-91.641-185.858-8.752-22.251-16.768-45.446-28.639-66.261-29.662-6.627-44.806-10.973-66.158-33.555-27.299 18.824-52.78 40.173-78.255 61.346-92.048 76.505-175.953 162.231-258.358 248.891-13.124-12.075-28.229-21.771-41.29-34.155-49.394-46.832-81.584-107.832-98.558-173.407-13.833-53.439-16.694-118.553-1.971-172.019 5.647-20.507 14.774-40.83 25.619-59.099 31.607-53.243 86.587-95.101 146.601-110.301-.613-17.258-1.502-34.525-.166-51.772 3.817-49.307 24.4-98 56.012-135.932 44.744-53.691 108.193-83.727 177.142-90.169"/><path fill="#F26162" d="M1006.89 773.32c1.16.245 2.16.665 3.25 1.095.45 1.208.6 1.431.75 2.889.28 2.564-.2 5.764-1.72 7.849-2.65-2.028-4.51-3.49-5.82-6.682.68-3.217.91-3.108 3.54-5.151"/><path fill="#FEFEFE" d="M1035.22 1160.76c3.74 3.16 6.56 13.8 8.38 18.56-2.23-.24-4.5-.25-6.35-1.64-3.13-2.35-1.81-13.29-2.03-16.92m-24.1-363.797c2.6 3.55 3.37 9.619 4.51 13.916-5.06 1.263-10.17 1.974-15.32 2.736-1.398.388-.507.251-2.71-.07 2.076-5.438 9.72-11.754 13.52-16.582"/><path fill="#F26162" d="M970.784 946.391c3.964-.236 8.464-.941 12.388-.582 2.712.248 4.059 1.104 5.881 3.001 1.104 4.355-.858 7.995-2.729 11.813-2.139.809-5.613 2.01-7.896 1.916-1.629-.066-3.135-.408-4.309-1.568-3.379-3.337-3.018-10.105-3.335-14.58"/><path fill="#181F28" d="m807.727 1435.53.553.2c1.352 1.75 23.164 103.26 24.814 114.76.106.74.165 1.49.276 2.23.627 4.21 14.744 47.6 16.595 48.98.694-11.64-3.928-25.63-5.331-37.42-3.494-29.35-5.229-59.32-7.354-88.82-.394-5.46-1.227-8.59 2.8-12.77 2.035-2.11 3.856-4.23 6.808-4.35-.036 2.79-7.693 5.99-8.737 10.42 2.742 28.6 3.659 57.48 6.817 86.01 2.539 22.94 10.072 47.92 8.48 70.86-2.77-11.53-5.509-23.1-9.016-34.43-3.316-10.72-7.474-21.25-10.406-32.07-5.068-18.7-8.739-38.04-12.783-56.99-4.717-22.11-9.792-44.31-13.516-66.61"/><path fill="#F26162" d="M1029.37 1203.64c5.14 16.2 6.33 33.8 10.57 50.32l-15.72-3.92-15.12-4.1a939 939 0 0 1 20.27-42.3m5.85-432.29 2.72-.419c3.93 3.109 9.25 25.152 11.06 31.149l-17.78 4.987c-1.89.527-2.12.529-4.17.077-6.19-8.384-8.28-23.047-8.22-33.239zm-7.49 398.53c4.49 24.21-13.43 51.09-23.81 71.97-2.59-8.64 2.6-48.81 3.46-59.49 6.48-4.64 13.46-8.5 20.35-12.48"/><path fill="#FEFEFE" d="M1261.21 1002.66c3.15 5.9 3.92 11.13 3.45 17.73-2.88 40.32-35.19 73.97-64.12 98.88l-1.43.6c-.04-2 20.79-28.36 23.9-33.16 17.08-26.27 31.58-53.13 38.2-84.05M227.765 371.051c3.677 4.278 18.449 75.878 21.235 87.349a355 355 0 0 0-13.5-19.446c-12.807-16.018-28.043-32.24-38.762-49.631 9.517-7.761 20.079-12.904 31.027-18.272m778.575 881.459c11.66 2.45 23.33 6.12 34.87 9.18 3.36 12.59 6.13 25.33 9 38.05l-11.45-3.83a1835 1835 0 0 0-49.454-14.81c5.255-9.83 11.064-19.19 17.034-28.59"/><path fill="#F26162" d="M1030.74 1408.43c1.77-.13 3.23-.03 4.99.15l-.4 1.13c-10.64 5.74-23.31 9.45-34.71 13.65-19.669 7.23-39.358 14.77-59.39 20.93l-1.613-.2c-3.176-4.02-4.375-21.85-5.292-27.79 31.88-4.32 64.288-6.4 96.415-7.87"/><path fill="#FEFEFE" d="M1267.36 594.983c8.32 4.393 15.98 10.197 24.37 14.634 25.02 13.226 51.07 17.158 78.8 19.841l-10.23 7.752c-4.91 2.862-9.57 5.23-15.13 6.586-15.59 3.803-31.63-.076-45.07-8.345-14.22-8.745-28.75-23.855-32.74-40.468M971.816 1662.01c2.51 3.01 4.035 25.1 4.661 30.26-19.073 10.93-74.139 35.63-95.242 41.9-.788.25-1.645.15-2.469.15 1.557-3.54 82.64-63.73 93.05-72.31m137.714-964.235c1.38.002 2.27.667 3.48 1.279 4.64 8.047-2.05 20.825.58 30.709-22.13 16.197-51.42 28.584-78.39 33.374l-2.92-.179-.74-1.514c5.02-4.03 17.41-5.246 23.9-7.893.36-.15.73-.309 1.09-.464.21-8.372-1.33-16.756-2.49-25.029 18.93-9.454 37.82-18.548 55.49-30.283M797.05 1352.33l114.72 42.49c-37.075-2.7-74.2-3.12-111.36-4.09-2.336-12.89-3.993-25.26-3.36-38.4m1086.78 376.75c.98 1.01 1.28 3.09 1.65 4.42 2.67 9.8 9.98 32.08 3.91 40.73-5.96 8.5-20.38 4.56-29.17 5-5.05.25-9.97 1.56-14.86 2.78l-5.58-6.21c-4.59-5.16-9.68-9.84-14.67-14.61 20.05-9.81 38.53-22.59 58.72-32.11m-822.7-355.74 2.35-.22c4.7 4.12 5.68 20.09 6.74 26.32-20.43 3.02-42.29 2.35-62.98 3.29-22.892 1.03-45.676 3.38-68.481 5.55l-4.256.29c-2.319-1.19-3.417-1.36-4.845-3.67.219-.5.336-1.07.657-1.51.962-1.35 2.53-1.7 4.02-2.11 18.527-5.16 38.151-8.08 56.96-12.29 23.215-5.2 46.365-11.88 69.835-15.65"/><path fill="#F26162" d="m1709.06 1604.01 47.95 35.88c-26.05 1.92-52.35 2.52-78.46 3.32-15.94 1.14-31.9 1.83-47.84 3.1 26.33-13.56 52.91-27.12 78.35-42.3"/><path fill="#FEFEFE" d="M1350.64 1422.63c16.04 2.57 31.91 6.46 47.76 10.03a2482 2482 0 0 1-41.52 55.68 899 899 0 0 1-20.27 27.36c1.08-16.34 4.03-32.94 6.42-49.15 2.15-14.51 3.68-29.78 7.61-43.92"/><path fill="#F26162" d="M891.394 1741.99c17.916 2.63 46.83 14.68 64.715 21.19 8.176 2.97 29.859 9.27 33.046 17.9.533 1.45-.231 2.19-.81 3.49-3.153 2.37-7.422 1.91-11.21 2.03-37.577 1.3-57.928-3.13-91.175-21.46l-2.357 1.52c-3.206-3.36-2.965-15.86-3.41-20.66 3.688-1.44 7.466-2.69 11.201-4.01"/><path fill="#FEFEFE" d="M1433.15 1350.04c1.06.75 75.16 91.93 78.05 96.27a786 786 0 0 0-24.26-16.17c-31.89-18.22-62.27-38.24-94.82-55.41a803 803 0 0 0 41.03-24.69"/><path fill="#F26162" d="M1312.84 1415.1c9.86 3.07 20.38 4.52 30.53 6.41-2.25 22.34-6.32 44.7-9.06 67.02-.96 7.82-1.47 25.61-3.68 32.25-.31.93-.68 1.22-1.28 1.86l-1.75-1.01c-10.84-33.02-24.56-65.21-34.81-98.38 6.58-2.93 13.35-5.48 20.05-8.15"/><path fill="#FEFEFE" d="M1955.7 1756.86c3.6 1.99 6.85 4.45 10.17 6.85-4.22 17.4-16.93 42.69-23.44 61.26-9.3 26.53-14.22 54.33-26.47 79.87-4.3 8.99-9.54 17.72-17.79 23.62-25.63 18.32-76.92 12.52-106.93 8.12-3.02-.53-6.12-.68-8.54-2.71-.67-2.13-.79-3.09-.2-5.24 6.31-.83 14 1.85 20.5 2.34 26.33 1.98 61.6.98 85.6-10.43 28.63-13.6 38.17-75.76 46.52-103.36 6.13-20.25 13.39-40.41 20.58-60.32"/><path fill="#181F28" d="m1283.53 1426.06 1.05-.09c.73.48 1 .58 1.58 1.39 3.08 4.33 31.81 87.08 35.08 97.63 1.06 3.42 2.09 6.69 1.84 10.3l-.95-.3 1.05-.38-.05-.48-3.04-.61.07-.01-18.04-21.89c-21.73-23.63-41.63-47.95-64.6-70.53 15.5-4.33 30.77-9.87 46.01-15.03"/><path fill="#F26162" d="M833.07 1304.69c5.592 2.08 50.059 57.43 58.904 67.38 4.356 4.89 9.076 9.31 13.984 13.64l-26.528-9.66c-26.716-10.41-53.125-21.47-80.609-29.74 6.689-19.01 19.396-28.98 34.249-41.62"/><path fill="#FEFEFE" d="M1578.5 1542.36c18.14.97 47.79.92 62.5 11.56-6.32 21.04-16.48 41.19-24.93 61.46-3.99 9-7.91 17.98-11.42 27.19a487 487 0 0 0-12.88-53.57c-4.59-15.32-10.29-30.92-13.27-46.64M691.819 1833.6c1.71.97 1.375.6 2.493 1.76 15.666 16.26 31.398 31.4 51.158 42.81 36.855 21.27 81.714 24.4 122.904 30.75 27.58 4.26 54.981 9.13 81.881 16.63-1.043 5.09-2.5 9.89-4.121 14.82-.555.96-1.26 1.31-2.156 1.93-9.532-1.88-18.749-5.59-28.03-8.44a534 534 0 0 0-35.531-9.24c-73.779-16.63-118.932-13.16-177.678-70.91-6.057-5.95-10.807-11.29-10.92-20.11"/><path fill="#F26162" d="M958.767 1214.92c.27 6.47-5.331 21.43-6.999 28.51-9.918 42.09-21.907 83.93-28.915 126.62l-1.842-14.9c-1.132-17.17-4.266-34.67-6.2-51.82-2.022-17.93-3.003-35.95-5.429-53.84 16.903-10.76 32.996-23.03 49.385-34.57m3.734 381.79c2.817 19.52 6.575 38.88 9.302 58.42-29.896 20.7-56.87 45.67-87.207 65.89l-5.707 5.03c24.768-45.25 56.025-85.89 83.612-129.34"/><path fill="#FEFEFE" d="M899.071 1782.68c17.764 7.52 34.184 11.71 53.155 14.62-2.159 19.62-2.685 39.43-3.292 59.15-7.002 1.73-14.505 4.02-21.737 4.28-8.629.31-14.285-2.82-20.515-8.49-7.066-20.73-7.075-47.67-7.611-69.56"/><path fill="#F26162" d="m429.579 93.816.819.045c1.887 1.451 1.949 2.162 2.565 4.396 1.097 3.981 1.249 8.221 1.966 12.285 1.377 7.805 3.349 15.597 5.084 23.338a1790 1790 0 0 0 20.37 81.732 794 794 0 0 1-21.007-25.203l-55.72-73.804c14.894-8.595 30.273-15.713 45.923-22.79m707.391 633.929 2.04.34c5.06 4.11 11.97 20.192 15.43 26.591-23.47 21.198-59.27 34.022-89.23 43.539-2.11.57-3.29.954-5.42.287-6.31-5.706-8.84-18.374-11.45-26.35 16.71-8.31 34.51-14.383 51.24-22.834 12.86-6.501 24.33-15.383 37.39-21.573"/><path fill="#181F28" d="M1647.31 1557.6c19.35 13.68 38.87 27.17 57.69 41.58l-50.22 28.69c-13.21 8.11-28.15 15.08-42.93 19.65 2.97-10.31 7.81-20.38 12-30.24 8.36-19.68 17.06-39.26 23.46-59.68"/><path fill="#F26162" d="M1052.99 1316.08c3.34 3.29 9.84 43.26 11.04 49.63l-125.611 28.11-12.783 2c25.251-13.69 48.397-29.39 72.462-44.99 18.172-11.77 36.642-23.1 54.892-34.75m444.33 221.62c24.24-.34 48.82 3.5 73.15 4.16 10.74 34.9 19.9 69.78 28.62 105.24-12.16-9.82-23.05-24.74-33.69-36.36a4799 4799 0 0 0-68.08-73.04"/><path fill="#FEFEFE" d="M1735.18 1647.43c9.46-.65 19.05-.48 28.54-.57 19.8 14.21 39.07 29.14 58.72 43.56-35.68-7.3-72.42-11.83-108.4-17.68-14.18-1.52-28.51-4.31-42.62-6.47-21.07-3.24-44.3-4.71-64.11-12.66z"/><path fill="#F26162" d="M1383.81 1378.87c10.76.47 100.72 57.86 117.17 68.23-17.1-2.33-34.21-6.86-51.09-10.5-22.46-5.84-45.33-9.65-68.06-14.23-19.47-3.92-38.77-8.76-58.35-12.12 9-7.22 47.44-24.56 60.33-31.38"/><path fill="#FEFEFE" d="M904.205 764.588c12.153 5.329 23.73 11.869 36.467 15.837 19.935 6.21 46.714 8.262 67.978 12.707-10.741 7.702-22.677 25.102-36.001 26.555-16.528 2.123-34.849 6.011-51.499 5.152-.89-2.476-2.147-5.25-3.856-7.289-3.789-4.52-35.67-5.806-43.164-7.003 10.965-14.602 20.296-30.545 30.075-45.959m12.548 635.142 1.029 1.09c5.671 24.18-10.578 102.21-15.2 130.79a8492 8492 0 0 1-29.3 172.49c-.533-.05-.833-.68-1.22-1.05-3.312-18.19 20.265-263.54 27.581-288.89 6.385-4.64 11.924-8.41 17.11-14.43"/><path fill="#F26162" d="M855.132 724.013c14.559 11.108 28.866 22.597 44.844 31.629-12.448 17.035-23.023 35.987-34.068 53.977-7.516-2.143-14.835-3.645-22.654-3.986-1.909 3.24-1.165 7.432-3.769 10.312-.31.007-.621.049-.931.02-8.435-.777-26.21-16.46-32.37-22.588 14.899-24.022 34.087-45.136 48.948-69.364"/><path fill="#FEFEFE" d="M967.642 1208.46c9.89-7.95 20.788-14.42 31.706-20.82-.424 15.38-2.007 59.51-6.777 72.3-3.885 10.42-11.901 21.03-17.577 30.77-7.158 10.45-13.276 22.53-18.632 34.03-11.342 19.02-20.123 39.47-30.167 59.17 3.355-25.05 9.703-49.7 15.598-74.25 5.879-24.48 11.58-49.11 17.979-73.46 2.446-9.3 5.593-18.39 7.87-27.74"/><path fill="#181F28" d="M974.994 1290.71c5.854.16 5.722 0 9.91-3.88 22.636 6.23 48.126 11.32 69.856 19.76-10.3 10.69-29.87 20.17-42.73 28.05-21.07 12.91-41.281 26.54-61.873 40.13-6.907 4.57-14.189 8.02-20.854 12.98-.584.44-1.196.83-1.801 1.23 2.954-5.39 6.801-10.08 10.106-15.24 7.708-12.04 14.487-25.1 19.009-38.69l.77-.4-1.594-.1.966-1.08c-6.195 6.83-13.968 38.72-24.979 43.59 7.671-17.22 18.345-33.27 25.523-50.6l-.941-1.72c5.356-11.5 11.474-23.58 18.632-34.03"/><path fill="#F26162" d="M136.426 588.502c7.227 6.291 22.085 29.622 28.607 38.467 16.939 22.975 34.565 45.443 51.35 68.53-10.149-4.779-20.554-8.654-31.102-12.427a2131 2131 0 0 0-43.851-15.129c-15.258-4.929-31.477-8.931-45.726-16.409 14.326-20.346 26.457-43.689 40.722-63.032M1513.93 1454.27c3.52 2.86 5.52 8.17 9.14 11.33 9.84 8.61 20.77 16.24 30.84 24.66-17.85 1.4-36.12 5.88-53.78 8.99-38.14 6.72-76.17 13.94-114.51 19.38-13.67 1.07-26.95 4.74-40.71 5.14 56.45-23.04 110.86-50.74 169.02-69.5"/><path fill="#FEFEFE" d="M1378.9 1527.14c-3.07-.19-6.83-.01-9.61-1.4 46.35-6.27 92.36-14.4 138.57-21.6 17.32-2.7 34.7-6.45 52.13-8.13 20.96 14.33 40.75 30.9 62.37 44.2-60.82-8.04-134.19-11.25-195.44-11.45-9.16-2.43-36.64-1.29-48.02-1.62"/><path fill="#181F28" d="m902.383 1254.04 1.046.41c2.465 12.42 2.119 26.04 3.526 38.71 3.443 31 7.974 61.83 9.246 93.05-9.262-11.13-21.594-19.54-31.086-30.91a584 584 0 0 0-47.788-54.61c8.853-5.38 16.936-12.61 25.22-18.85a672 672 0 0 1 39.836-27.8"/><path fill="#F26162" d="M888.854 1426.05c1.565 3.74-3.813 42.21-4.379 48.98-3.581 42.77-8.262 85.39-12.181 128.12-2.381 25.97-3.327 52.5-7.064 78.28a400 400 0 0 1-2.957-15.37c-2.171-15.65-3.051-31.68-4.467-47.42l-7.824-84.36c-1.927-21.54-3.424-43.15-6.423-64.58a2475 2475 0 0 0 45.295-43.65"/><path fill="#FEFEFE" d="M1274.36 1030.72c.61 2.51 1.06 4.95 1.02 7.55-.47 32.42-33.17 74.73-55.46 96.85-34.39 34.14-81.06 58.84-126.57 74.6-7.63 2.64-17.29 7.03-25.29 7l-1.61-1.95-7.16-20.19c23.29-6.38 45.75-13.81 67.45-24.55 23.54-11.64 44.95-26.32 65.85-42.13 38.12-28.85 65.63-49.81 81.77-97.18"/><path fill="#F26162" d="M189.102 392.957c9.83 7.336 54.202 67.89 62.864 81.13a3315 3315 0 0 0-76.813 3.027c-19.695 2.338-40.085 2.254-59.914 2.963 15.157-34.125 43.146-65.817 73.863-87.12"/><path fill="#FEFEFE" d="m1373.75 547.382 4.84-.438c2.43 1.609 3.27 3.01 4.22 5.795 6.01 17.583.28 51.86-8.13 68.325-31.07-.273-63.12-11.272-89.77-26.876-9.87-5.78-19.05-12.553-29.04-18.176a825 825 0 0 0-15.46-27.724c7.87 3.652 15.6 7.144 23.88 9.815 30.73 9.558 62.11 15.957 94.44 15.036-8.24-2.748-17.84-3.969-26.39-5.811-23.65-5.093-48.11-9.939-70.61-18.974 39.14 4.646 72.91 4.51 112.02-.972M1042.48 1190.5c1.99-.04 2.87.11 4.6 1.11 12.97 33.04 21.37 67.82 32.75 101.41l36.79 106.85c5.57 15.91 12.07 31.64 17.23 47.67.98 3.04 1.82 5.53.65 8.5l-2.58.55c-13.43 2.07-27.04 3.08-40.57 4.36a4489 4489 0 0 0-20.77-120.68c-4.29-22.34-34.44-136.07-28.1-149.77"/><path fill="#F26162" d="M1629.98 1664.87c7.26.48 14.82 2.65 21.98 4.06a1629 1629 0 0 0 37.47 6.87l92.11 15.28c16.89 2.66 36.88 3.59 52.85 9.36 8.07 2.92 27.26 18.52 37.91 24.34-5.77 2.85-11.27 6.07-16.81 9.33-11.51 6.85-22.94 13.83-34.98 19.74-18.78-8.06-37.14-17.59-55.7-26.21z"/><path fill="#FEFEFE" d="M502.848 80.46c10.739-.199 21.469.462 32.183 1.103-15.876 33.522-30.138 68.117-44.264 102.423-6.153 14.942-11.421 30.735-18.513 45.225-7.084-18.285-11.032-38.265-15.555-57.347l-18.922-80.178c21.484-6.764 42.582-10.333 65.071-11.227"/><path fill="#F26162" d="M851.673 814.348c20.215 4.9 39.931 6.943 60.62 8.059-7.299 41.591-19.277 82.209-28.421 123.366l-1.122 2.31c-7.028 1.368-45.669-10.407-54.995-12.835z"/><path fill="#181F28" d="M1112.86 521.013c3.83.127 5.91 1.03 9.25 2.978 9.18 5.367 17.05 12.877 24.48 20.412a218.7 218.7 0 0 1 57.75 102.415c3.77 14.855 7.38 27.806-1.26 41.754-9.9 15.993-30.47 26.445-48.99 28.348-6.3.646-12.76-1.408-19.06-1.098-5.04.248-10.72 2.569-15.67 3.692-1.57-2.27-.83-2.819-.41-5.436.24-3.092.39-6.507 1.26-9.483.11-.355.83-2.406.95-2.509.92-.744 21.8 3.409 33.13-2.894 8.45-4.7 13.43-13.506 15.64-22.684 1.73-7.226 1.99-15.661-2.31-22.089-2.99-4.476-7.93-7.124-13.19-7.882-10.71-1.542-18.29 4.188-26.2 10.344a211 211 0 0 1 6.68-26.095c6.38-19.012 17.64-41.221 8.37-61.297-8.73-18.896-30.28-29.154-48.6-36.193 5.62-4.731 11.96-8.423 18.18-12.283"/><path fill="#F26162" d="M648.45 113.695c6.333.836 14.296 6.676 20.557 9.227-3.58 25.339-10.718 50.205-15.342 75.396-18.137 2.327-36.536 8.116-54.383 12.239a6001 6001 0 0 1-96.421 21.159 685 685 0 0 1-22.308 4.094c17.592-17.521 40.508-32.225 60.856-46.561 35.65-25.118 72.103-49.495 107.041-75.554"/><path fill="#181F28" d="M924.636 1425.87c2.5 3.66 7.522 34.96 9.313 42.35 9.37 38.63 19.495 77.14 28.242 115.92-17.886 32.84-41.58 63.34-62.596 94.32a519 519 0 0 0-12.95 21.88l-1.631-.82c-2.571-5.15-2.805-8.86-2.37-14.59 3.63-47.73 15.737-94.12 23.771-141.17 4.725-27.67 9.139-55.51 13.335-83.27 1.738-11.49 2.457-23.26 4.886-34.62"/><path fill="#FEFEFE" d="M259.076 482.838c6.032 4.866 11.504 15.578 16.272 21.943 25.215 33.657 50.649 67.067 75.118 101.283 10.055 14.06 22.501 28.945 29.721 44.634-6.871 3.346-14.332 5.919-21.43 8.78l-58.198 23.04c-9.92-40.99-18.075-82.142-26.6-123.42-5.203-25.192-11.84-50.72-14.883-76.26m910.394 5.779c.85.243 1.71.487 2.54.791 41.48 15.085 77.17 86.189 95.02 124.584-15.29 12.461-31.58 23.9-47.01 36.274-1.61 1.352-2.56 2.08-4.63 2.527-4.32-5.917-8.79-26.661-11.83-34.94-2.26-6.169-5.46-11.884-8.34-17.774-16.8-34.424-39.31-61.5-69.77-84.636 15.81-5.807 31.02-16.287 44.02-26.826"/><path fill="#F26162" d="M476.093 248.867c20.474 27.208 46.137 49.938 70.582 73.469 23.658 22.772 46.967 46.122 71.353 68.112-13.416 11.43-26.31 23.526-39.353 35.381a2298 2298 0 0 0-42.718 39.713c-11.302-34.179-18.925-69.693-28.382-104.411-10.216-37.501-21.95-74.556-31.482-112.264"/><path fill="#FEFEFE" d="M716.222 1823.44c18.122.59 35.227 3.94 52.151 10.56 12.957 5.07 28.227 16.92 42.195 16.91 10.022-.01 53.969-4.94 62.817-7.64 2.673-.82 4.441-2.21 6.4-4.16.217-.22.427-.44.641-.66 5.314 1.49 16.493 20.63 22.301 25.69 16.742 14.59 32.109 4.46 50.793 3.43 3.836-.21 6.226.26 9.135 2.8 3.453 9.82-3.201 26.31-6.017 36.17-1.029 3.3-2.565 6.54-3.88 9.74-21.709-3.75-43.137-9.12-64.856-12.9-22.973-3.99-46.213-6.33-69.146-10.6-34.914-6.51-63.209-16.94-91.998-38.36-10.462-7.78-20.256-15.85-27.681-26.66 5.764-2.54 10.923-3.68 17.145-4.32m1176.858-96.92c20.06 1.21 37.95 13.11 54.91 22.95-5.28 22.6-14.87 44.12-21.63 66.29-6.2 20.39-9.68 41.64-16.9 61.72-5.42 15.07-13.43 29.92-28.76 36.78-16.66 7.45-76.6 13.58-92.98 6.06-2.5-1.15-3.02-1.98-3.78-4.53 2.69-8.93 16.13-16.1 23.47-20.95 9.83-5.76 20.55-8.85 31.35-12.23 17.18 4.95 24.69 10.72 36.28 24.47l2.15-.57 1.07-2.28c-.22-2.09-.48-3.87-1.27-5.83-6.48-15.99-19.15-19.09-33.75-24.92 2.35-5.68 3.86-11.61 5.48-17.52 4.77.65 9.67 1.47 14.48 1.47 3.18 0 4.85-.51 7.01-2.81.02-3.59-2.32-3.93-2.92-7.33l3.08-1.79c1.12-2.41.71-2.54-.15-5.12-1.38-1.12-3.36-2.45-4.42-3.86-1.46-1.94-1.1-2.89-.73-5.07 1.75-1.09 3.17-2.07 4.61-3.54l-.05-2.25a82 82 0 0 0-3.83-3.38c-1.72-1.42-1.43-1.81-1.92-3.9.75-2.56 1.82-4.25 3.34-6.38.87-1.21.5-1.51.33-2.94-2.35-1.15-3.75-1.58-4.99-4.02-.05-3.22.22-6.25-1.39-9.15-3.78-2.69-9.12-1.96-13.53-1.83l-.55-1.05c7.69-10.39 34.68-2.57 43.91-5.17 3.44-.97 6.06-3.06 7.78-6.2 7.85-14.38-1.91-40.67-5.7-55.12M666.961 554.831c2.369.628 3.284.886 5.057 2.701 7.136 7.305 13.035 17.571 19.4 25.752 9.515 12.229 20.044 23.974 30.384 35.526 18.107 20.227 37.761 39.264 57.036 58.378 18.928 18.769 37.85 38.034 58.022 55.463l-26.437 37.596a150 150 0 0 0-10.217 18.04c-51.075-49.269-88.594-106.629-119.531-170.086-9.228-18.93-18.373-37.949-25.77-57.685 3.887-2.171 7.988-3.886 12.056-5.685"/><path fill="#F26162" d="m498.195 613.012.969.337c-3.629 5.833-33.911 29.258-40.871 35.139-77.134 65.183-148.323 136.57-217.542 210.024l-.765.057c-.65-1.563-.055-1.962.519-3.447l38.317-101.586c7.706-21.031 16.134-42.202 21.886-63.866 20.507-7.439 40.524-16.028 60.854-23.913zm155.998-407.786c7.333.422 341.152 207.15 375.467 228.799-22.58-8.354-44.604-21.285-66.411-31.617a6709 6709 0 0 0-223.254-100.38l-102.163-43.166c-26.495-10.97-53.151-21.273-79.198-33.313 32.264-3.914 63.941-13.092 95.559-20.323"/><path fill="#FEFEFE" d="M96.542 659.689c29.752 13.11 61.577 22.534 92.178 33.542 13.854 4.984 28.906 9.2 41.438 17.056-1.16 50.928-5.195 101.782-7.283 152.677-.212 2.027-.528 3.241-1.514 5.028-2.486.127-3.75-.413-5.794-1.873-12.201-8.72-24.096-20.587-34.217-31.595-44.946-48.887-73.199-109.744-84.808-174.835"/><path fill="#181F28" d="M1378.9 1527.14c11.38.33 38.86-.81 48.02 1.62l-.24 1.46 2.25.54-.16.45 2.46.6c1.24.3 2.49.56 3.72.9 17.02 4.63 36.09 3.04 53.7 4.58 29.07 32.37 57.03 65.74 86.91 97.37 7.48 7.92 16.57 19.29 25.42 25.35 6.47 4.42 16.78 6.9 24.12 10.03 5.31 2.26 10.45 5.11 15.65 7.65 36.64 17.97 72.88 36.62 109.78 54.12 18.73 8.87 38.85 15.85 57 25.75l1.12.62c-3.47 2.89-6.89 5.52-10.73 7.91-8.18-5.2-17.4-9.19-26.08-13.55-20.84-10.46-41.98-20.25-62.87-30.58a6803 6803 0 0 0-184.62-86.56c-19.94-9.07-40.19-17.46-60.02-26.78-23.86-11.22-47.27-23.45-70.86-35.22-23.48-11.72-49.87-20.6-71.99-34.49 4.51-3.43 9.26-6.54 13.97-9.69 9.58.87 33.51 4.52 41.4.65 1.75-.86 1.43-1.06 2.05-2.73"/><path fill="#FEFEFE" d="M677.637 127.653c38.941 22.59 73.794 53.001 108.133 81.823 66.358 55.696 129.852 114.663 195.86 170.791a1348 1348 0 0 0 38.58 32.053c9.37 7.397 34.08 24.434 40.28 32.435-3.55-.798-6.1-2.787-9.07-4.825-50.28-34.312-102.897-65.316-154.668-97.303a14498 14498 0 0 0-236.217-143.811c5.05-23.437 9.494-48.478 17.102-71.163m573.443 269.606c.97-.104 1.95-.182 2.93-.21 14.54-.415 29.14 4.383 39.61 14.75 11.33 11.228 15.14 26.633 15.49 42.041 7.01 6.115 15.08 11.015 22.36 16.805 23.96 19.03 40.73 42.75 48.45 72.534-55.86 1.742-93.97 1.069-148.68-9.646-6.5-10.073-12.32-17.89-20.75-26.597 8-6.201 20.47-9.227 29.89-12.959 8.49-3.313 17.23-6.539 24.73-11.802-21.89 4.72-42.41 9.495-63.55 17.121-2.6-1.669-4.84-3.862-7.15-5.915 13.02-27.941 32.56-48.105 55.8-67.687-30.81 13.729-47.43 34.613-63.53 63.275l-8.53-7.14c5.04-17.682 12.54-35.709 22.94-50.934 12.68-18.551 27.91-29.429 49.99-33.636M1056.6 572.15c1.88-8.745 12.44-22.516 19.79-27.152 6.98-4.398 14.71-4.672 22.52-2.512 14.31 3.961 27.81 14.657 35.05 27.598 5.46 9.748 7.89 23.024 4.51 33.86-2.71 8.663-8.64 15.832-11.75 24.272-4.79 12.997-2.91 25.989-10.72 38.094l16.89-.32c2.94-5.098 7.31-9.612 13.2-11.171 3.09-.816 6.22-.234 8.91 1.429 3.44 2.126 5.55 5.661 6.4 9.566 1.42 6.601-.27 14.391-4.04 19.956-4.05 5.968-10.54 9.215-17.53 10.34-7.21 1.161-14.04.126-21.02-1.76-1.7-2.739-2.91-5.482-6.09-6.677-5.61.749-14.55 11.936-20.08 15.21-29.55 17.522-75.6 10.69-102.3-9.349-4.144-3.109-8.647-7.546-9.783-12.828-1.866-8.673 11.208-16.956 13.028-25.147.423-1.907-1.46-5.009-2.307-6.686l.451-2.118c7.996-4.435 34.501 10.008 38.821 3.095-1.22-2.053-2.27-2.889-4.63-3.566-9.43-2.706-20.24-1.754-27.688-9.564-.469-1.568-1.131-2.223-.271-3.768 1.551-2.786 4.419-3.674 7.209-4.768 4.26-1.674 5.85-3.924 8.12-7.696-4.61-7.425-7.22-14.29-9.31-22.772 14.76 1.18 27.73 1.72 39.88-8.325 4.65-3.845 7.1-8.592 10.51-13.413.65 1.025 1.09 1.816 1.95 2.737 7 7.568 20.31 4.604 29.31 7.571 8.23 2.716 18.32 11.168 26.82 11.513 1.84.075 1.14.216 2.57-1.178-.08-1.193-.03-1.368-.49-2.675-2.88-8.193-12.94-15.788-20.37-19.514-12.75-6.388-24.22-6.938-37.56-2.282"/><path fill="#07090B" d="M1028.95 617.301c.31.066.64.105.94.2 2.51.764 4.73 3.438 5.47 5.909.96 3.173.02 4.169-1.52 6.805-2.31-1.052-5.33-3.129-6.22-5.63-1.09-3.087.08-4.639 1.33-7.284m97.91 56.957c2.12.654 2.48.438 3.93 2.238-.9 2.789.99 6.77 2.21 9.419.86 1.868.16 2.962-.25 4.948-1.43-.018-2.18-.158-3.41-1.02-2.79-1.972-5.55-5.335-5.74-8.901-.17-3.289 1.33-4.293 3.26-6.684m18.3-15.529c.35.099.71.182 1.05.296 3.21 1.048 5.15 2.33 6.51 5.511 1.48 3.465.87 7.964-.64 11.291-1.44 3.171-4.03 6.334-7.61 7.115-2.99.651-4.41-.493-6.9-1.86.37-.153.75-.296 1.12-.458 4.86-2.14 10.04-4.95 11.95-10.063-1.95-3.331-6.98-5.433-10.27-7.353.76-2.675 2.51-3.042 4.79-4.479m-85.26-73.617c11.01.514 26.95.318 34.86 9.337 2.19 2.499 2.68 4.531 2.58 7.775-6.29-1.479-11.49-6.527-17.76-8.454-6.19-1.904-12.91-.101-19.21-2.144-1.4-2.68-.89-3.583-.47-6.514m.98 16.096c3.82 1.639 10.42 6.677 13.24 9.756 2.66 2.905 3.62 5.249 3.35 9.276-2.21 2.754-4.38 3.065-7.65 4.296-4.58-.328-11.6-1.557-15.41-4.232-1.31-.925-1.14-1.683-1.48-3.132.58-2.007.97-3.184 2.41-4.754 3.19-3.474 4.15-5.33 5.23-9.818.11-.462.2-.928.31-1.392"/><path fill="#FEFEFE" d="M1065.31 609.439c1.24.467 2.05.715 3.21 1.461 2.14 1.38 2.86 3.122 3.2 5.486l-1.7 1.298c-2.84-.397-6.33-.347-8.5-2.392.45-2.909 1.82-3.734 3.79-5.853M210.417 484.574c13.537-1.163 27.195-.881 40.763-.669.013 19.005-2.025 38.664-3.493 57.622-4.162 53.784-11.179 107.402-17.094 161.022-14.786-17.492-27.811-37.502-41.384-56.023a4351 4351 0 0 1-92.027-123.502c4.446-12.338 9.159-24.407 15.073-36.124 32.638.918 65.512-1.532 98.162-2.326m369.848 19.886c4.965 1.783 13.062 26.818 18.083 34.494 10.122 15.474 22.065 25.872 40.387 29.69-26.339-24.146-34.209-24.214-44.859-60.705 7.784 16.916 17.167 39.933 36.025 47.238 2.817 1.091 5.536 1.526 8.313.005 1.562-.855 1.23-1.319 1.574-2.891-2.328-3.983-11.458-7.251-15.408-10.845-6.709-6.103-12.198-13.664-17.667-20.853 13.149 5.821 30.117 12.119 38.709 24.362 4.279 6.099 4.934 22.417 7.064 30.48a233 233 0 0 0 7.754 23.483c4.381 11.096 10.34 21.832 15.716 32.491 17.225 34.153 35.959 67.293 58.733 98.11 15.93 21.555 60.274 73.971 80.575 88.155 7.589 5.302 14.532 8.237 23.689 9.603-7.168 25.097-12.489 51.094-18.198 76.572-16.638-5.246-34.529-10.988-47.9-22.534-52.987-56.77-79.451-136.813-107.69-207.676-8.151-20.454-15.151-43.626-26.647-62.377-15.625-6.415-32.206-7.048-47.18-15.98-16.247-9.691-25.47-23.048-33.954-39.526-2.229-4.33-5.078-9.072-6.07-13.871-.493-2.383-1.143-4.506.251-6.551 12.307 8.296 13.632 31.951 29.91 36.95 1.857-1.877-.292-4.806-1.457-6.848-11.665-20.443-19.717-26.018-18.879-51.918 7.153 16.698 11.152 34.422 22.717 49.02 2.514 3.174 4.411 4.916 8.483 5.398 1.964-1.119 2.078-.678 2.804-2.984-2.845-3.744-5.996-7.255-8.668-11.131-8.193-11.882-18.167-32.742-15.357-47.328l.938-.582c5.272 23.031 15.042 39.831 29.294 58.231l5.121-4.925c-12.685-16.503-23.862-33.577-26.206-54.757"/><path fill="#F26162" d="M624.896 393.771c20.332 5.272 41.728 8.054 62.403 11.884 55.042 10.197 110.337 18.908 165.442 28.733a3893 3893 0 0 1 120.417 22.688c38.192 8.074 76.332 17.562 114.742 24.473-24.64 1.193-57.34-2.397-83.01-3.467-42.545-1.525-84.963-.709-127.513-.379a6263 6263 0 0 1-136.64-.328c-36.224-.469-72.616-1.012-108.803-2.794-30.623-1.508-60.865-4.233-91.582-4.634z"/><path fill="#FEFEFE" d="M532.437 476.99c34.482 1.255 68.934 4.295 103.421 5.793 57.829 2.511 116.058 3.29 173.939 3.438 55.922.142 111.936-1.776 167.829-.639 20.48.417 41.914-.036 62.214 2.547-7.12 2.129-52.725.741-64.424 1.047-11.933.311-23.908 1.357-35.799 2.375a1372 1372 0 0 0-228.406 39.295c-18.339 4.828-36.566 9.273-54.394 15.801-.423.155-.836.594-1.266.465-.379-.113-4.038-5.138-4.764-5.977-3.911-4.52-8.528-8.693-13.254-12.341-9.197-7.097-21.017-12.551-32.351-14.991-.324-.07-.651-.13-.976-.195-2.849-5.306-5.361-12.537-11.326-14.692-9.627 5.136-10.631-1.914-20.221-2.426-4.432 1.371-7.564 7.627-10.097 11.317-13.517 1.654-5.196 12.409-10.362 19.788-1.825 2.607-7.087 3.051-9.587 6.178-2.92 12.301 9.01 30.455 14.933 41.068-17.904 6.397-28.364 18.434-44.384 25.977-11.918 5.612-25.239 9.429-37.675 13.806-21.516 7.572-42.822 15.262-63.928 23.927-5.451 2.238-18.528 10.054-23.848 8.127 2.335-12.017 126.209-150.931 144.726-169.688m458.84 469.001c11.393-4.793 33.963-5.549 47.153-8.111 16.6-3.223 32.77-9.269 48.63-15.03-3.68 52.5 27.13 121.37 52.25 166.83 8.83 15.96 19.4 31.41 27.44 47.74-33.91 23.29-68.55 38.43-107.89 50.14-18.06-44.95-41.37-87.49-58.72-132.74-4.605-12.03-7.892-24.59-11.837-36.84-3.196-9.92-7.237-19.329-9.739-29.488-.015-.06-.049-.112-.074-.168-1.143-7.045-3.244-14.151-4.908-21.105 3.686-.075 7.409-.244 10.96-1.335 3.413-1.049 6.856-2.95 8.257-6.431 1.836-4.56-.065-9.091-1.522-13.462"/><path fill="#F26162" d="M1001.99 1002.55c.8.1 1.6.18 2.39.33 4.78.89 9.37 3.08 12.05 7.29 2.08 3.27 2.53 7.18 1.45 10.88-1.51 5.16-4.7 7.65-9.18 10.24-1.7-.14-3.45-.26-5.11-.64-3.66-.82-6.857-3.46-8.853-6.57a14.8 14.8 0 0 1-1.779-12.21c1.475-5.15 4.569-6.94 9.032-9.32m115.56 91.32c2.31-.22 4.82-.58 7.14-.3 3.64.43 7.07 3.05 9.28 5.86 2.52 3.22 3.54 7.15 2.82 11.18-.88 4.94-3.56 7.85-7.6 10.52-5.6.56-10.55.79-15.08-3.1-2.91-2.51-4.47-5.9-4.45-9.75.02-6.27 3.55-10.35 7.89-14.41"/><path fill="#07090B" d="M1060.9 1129.02c1.85-.17 3.76-.38 5.62-.3 3.68.18 7.45 2.68 9.7 5.48 2.75 3.41 3.66 7.67 2.89 11.95-.95 5.28-3.85 7.76-8.06 10.73-1.84.19-3.73.41-5.58.37-3.99-.08-7.69-1.72-10.24-4.81-2.56-3.08-3.44-6.97-2.78-10.89 1.01-5.98 3.78-8.97 8.45-12.53"/><path fill="#F26162" d="M1064.01 1131.82c3.58.8 6.2 1.67 8.48 4.72 1.88 2.51 3.03 5.87 2.24 9-1.05 4.18-3.02 5.54-6.52 7.54-3.75-.78-7.11-1.78-9.69-4.81-1.83-2.16-2.37-4.36-1.99-7.16.6-4.34 4.22-6.91 7.48-9.29m-.02-163.286c2.32-.045 4.74-.147 7.05.137 3.82.469 7.7 3.577 9.78 6.686 2.19 3.269 2.95 7.142 2.11 10.99-1.17 5.413-4.27 8.874-8.83 11.77-2.8.275-5.92.553-8.66-.328-6.11-1.964-8.28-7.722-10.9-12.995 1.84-7.816 2.9-11.059 9.45-16.26m24.31 63.176c2.39-.13 4.86-.32 7.25-.13 3.84.32 7.86 3.27 10.03 6.33a13.48 13.48 0 0 1 2.17 11.03c-1.35 5.74-4.88 8.31-9.75 11.11-1.96.19-4.02.39-5.98.11-4.2-.59-8.66-3.66-10.9-7.21-2.13-3.36-2.69-7.62-1.72-11.47 1.26-4.98 4.69-7.32 8.9-9.77"/><path fill="#07090B" d="M1030.67 1067.97c2.32-.02 4.65.18 6.81 1.08a15.45 15.45 0 0 1 8.3 8.32 15.8 15.8 0 0 1-.39 12.73c-2.28 4.74-5.37 6.42-10.19 8.07-1.51-.07-3.03-.14-4.54-.31-4.08-.47-7.91-2.5-10.28-5.92-2.32-3.36-2.62-7.24-1.6-11.12 1.76-6.68 6.13-9.66 11.89-12.85"/><path fill="#F26162" d="M1027.64 1074.09c1.6-.15 3.31-.37 4.91-.28 3.45.21 6.48 1.55 8.54 4.42 1.49 2.06 1.91 4.42 1.28 6.88-1.04 4.1-3.92 5.99-7.2 8.22-1.09.08-1.56.13-2.73.1-3.6-.11-6.59-1.06-9.07-3.83-1.79-1.99-2.57-4.26-2.22-6.95.54-4.27 3.31-6.21 6.49-8.56"/><path fill="#FEFEFE" d="M478.657 243.084c26.162 6.436 51.874 19.32 77.1 28.868l136.281 50.228a11164 11164 0 0 1 277.989 104.224c37.413 14.681 75.943 27.651 112.353 44.649-16.16-.924-33.48-6.493-49.45-9.793a9848 9848 0 0 0-97.578-19.495c-83.34-16.128-167.292-28.301-250.611-44.381-14.052-2.712-48.682-6.548-59.756-12.082-10.505-5.249-134.916-129.431-146.328-142.218"/><path fill="#F26162" d="M317.52 175.641c3.579 12.498 3.256 31.36 4.608 44.773a3145 3145 0 0 0 9.031 74.506 22470 22470 0 0 0 32.876 234.192c4.915 34.333 8.45 68.963 13.987 103.184-12.111-15.935-23.332-32.625-34.892-48.967-18.354-25.392-37.613-50.207-56.414-75.274-8.942-11.923-21.018-25.029-27.014-38.626-5.698-12.922-7.873-28.531-10.953-42.328l-13.626-60.16a1028 1028 0 0 0 38.323-13.299c-.377-13.542-2.688-26.953-2.795-40.549-.399-50.685 18.207-96.344 46.869-137.452"/><path fill="#FEFEFE" d="M376.159 121.043c11.451 10.261 21.432 26.256 30.935 38.532 19.918 25.73 40.82 51.184 59.193 78.032-2.283 11.458-5.379 22.764-7.875 34.182l-32.079 142.029a5834 5834 0 0 0-37.357 180.968c-1.82 9.3-3.429 18.651-5.135 27.974-2.624-13.145-3.461-26.941-5.096-40.269a4596 4596 0 0 0-9.81-73.596c-11.112-77.741-23.888-155.371-33.508-233.312a5190 5190 0 0 1-8.117-73.645c-1.134-11.161-1.128-22.986-3.285-33.967 15.457-18.015 32.299-33.815 52.134-46.928m786.021 638.686c3.39 1.613 7 5.499 9.72 8.149 55.2 53.756 82.25 131.293 83.05 207.408.61 57.994-37.45 113.874-76.75 153.944-31.79-50.95-52.93-90.96-72.39-148.093-6.63-19.466-11.03-39.604-17.74-58.944 5.02-3.091 10.62-5.615 15.88-8.312-42.67 9.937-85.31 19.77-129.304 21.278-25.692 2.039-51.76.105-77.431-1.394l5.645-25.8c59.851 11.53 169.42 17.891 223.94-10.753-75.55 15.805-145.759 12.87-221.845 3.246a6241 6241 0 0 0 13.637-65.118c16.675-2.311 33.498-3.48 50.153-6.01 59.675-9.066 147.985-28.134 193.435-69.601m-101.97-262.306c26.31-1.292 52.31-.215 78.53 1.905-25.79 14.332-54.56 23.348-74.89 46.276-9.37 10.579-15.31 31.767-26.07 39.179-10.95 7.548-31.9 2.843-38.924 10.784-2.454 8.409 2.524 18.403 5.244 26.404-4.779 1.182-12.223 2.259-14.949 6.401 5.847 9.069-2.428 12.293-5.018 19.989-.972 2.885-.341 7.535-.234 10.584-2.329 3.255-5.093 6.194-7.321 9.536-2.743 4.115-4.153 9.923-3.018 14.801 2.949 12.673 23.183 22.764 33.4 29.409 6.49 12.933 10.15 28.343 14.11 42.233-3.15 1.093-5.51 1.971-8.06 4.15-2.22 3.596-1.75 7.908-1.83 12.012-7.59.94-15.026 2.895-22.6 4.031-23.795 3.568-53.967-1.216-74.114-14.978-6.189-4.228-11.207-9.889-17.114-14.483-11.707-9.104-23.812-17.785-35.714-26.638-.86-.787-2.014-2.011-3.061-2.602-2.652-1.497-3.436-1.377-6.291-.914-3.529 2.526-5.354 6.605-7.495 10.292-15.314-13.053-29.499-28.297-44.008-42.3-42.141-40.67-85.183-81.775-119.02-129.858 38.983-7.588 77.28-19.104 116.367-26.535 48.12-9.149 97.215-16.957 145.946-21.78 38.542-3.815 77.474-5.519 116.134-7.898M1281.6 1045.8c5.38 7.5 9.61 17.31 13.98 25.48 9.77 18.24 19.38 36.61 29.53 54.64a7217 7217 0 0 0 117.71 205.48c-9.97 8.33-22.57 15.34-33.69 22.08-61.65 37.35-128.1 63.83-196.88 84.91-20.83 6.49-42.9 12.09-64.46 15.36-7.16-17.74-12.5-36.49-19.02-54.51a3931 3931 0 0 1-60.78-180.1c38.03-5.56 73.34-16.85 106.26-36.9 50.44-30.73 93.17-78.18 107.35-136.44"/></svg>