<svg xmlns="http://www.w3.org/2000/svg" style="display:block" viewBox="0 0 2048 2048"><defs><linearGradient id="a" x1="1558.25" x2="1575.5" y1="424.526" y2="409.834" gradientUnits="userSpaceOnUse"><stop class="stop0" offset="0" stop-color="#AB2F39"/><stop class="stop1" offset="1" stop-color="#D3353D"/></linearGradient></defs><path fill="#FEFEFE" d="M0 0h2048v2048H0z"/><path fill="#C11F2C" d="m1203.38 241.281.84 7.932a1076 1076 0 0 1-23.37-.217c5.17-3.305 15.76-3.493 21.84-4.104z"/><path fill="#D3414A" d="M1498.07 1472.16c1.67 1.88 1.97 1.96 4.63 2.06 4.61.16 9.51-.79 14.09-1.34l4.46 6.44c-7.39 1.12-15.03 1.93-22.29 3.67-.14-3.61-.55-7.23-.89-10.83m5.73 87.38c8.45 1.64 20.06 2.76 27.05 7.89.71 1.32 1.39 1.8.95 3.36-2.75 9.74-21.3 11.38-26.22 17.9-.48-2.71-.35-5.79-.45-8.57l-.54-9.42c-1-3.18-.63-7.77-.79-11.16"/><path fill="#FEFEFE" d="m1504.59 1570.7.81-2.23c3.48-.97 8.67-1.32 11.95.34.34.18.64.44.96.66.2 2.35.58 1.56-.7 3.13-2.48 3.05-8.77 6.37-12.48 7.52z"/><path fill="#C11F2C" d="M446.403 1276.12c1.101-.07 2.615-.01 3.66-.32l-.149 142.86-4.452-1.99.327-92c.037-16.06-.645-32.54.614-48.55"/><path fill="#D3414A" d="m995.123 244.965 139.847-.579c20.99-.043 47.33-2.017 67.72.506-6.08.611-16.67.799-21.84 4.104-21.76.832-43.68.368-65.46.412l-120.276-.019zm-.021-25.995 208.498-.068-.44 5.064a17723 17723 0 0 1-208.08-.14zm804.908 540.611 7.04-.228-.04 137.408c0 21.264-1.65 44.883.15 65.898-2.23-.037-4.58-.47-6.81-.72.88-23.562.08-47.453.08-71.046a12329 12329 0 0 0-.42-131.312m-19.91-1.584 6.86.856-.54 133.849c-.17 22.267-2.26 47.521.14 69.531-2.9.473-5.38.678-8.32.468.26-.237.48-.536.79-.712.5-.285 1.06-.435 1.6-.653l-1.03-.625c1.08-24.155.18-48.694.17-72.886zm-288.44-446.53 2.98-4.524c43.98 42.487 86.92 86.182 130.58 129.02 15.84 15.538 31.35 31.707 47.74 46.642l-4.21 4.763c-5.95-7.315-13.63-13.93-20.37-20.545l-39.01-38.142a6734 6734 0 0 1-117.71-117.214"/><path fill="url(#a)" d="m1480.19 327.7 100.22 98.04c26 25.372 52.74 50.517 77.43 77.166l-3.4 5.343c-9.3-11.466-20.52-21.696-31.06-31.998a3154 3154 0 0 0-43.42-42.33c-34.85-33.476-69.19-67.752-103.46-101.826.93-1.612 2.44-3.006 3.69-4.395"/><path fill="#D3414A" d="m444.139 642.206 5.005-1.961.203 395.205-4.848-.41-.172-268.215.167-81.804c.06-13.896 1.325-29.09-.355-42.815"/><path fill="#C11F2C" d="m418.897 1035.86.168-275.952-.139-83.262c-.041-15.344-.674-30.983.237-46.294.421-7.062 2.103-10.612 7.418-15.338-.224 2.24-.403 4.428-.882 6.631-2.155 14.613-.826 30.803-.815 45.629l.073 84.057.108 284.419c-2.485 1.01-3.599.76-6.168.11"/><path fill="#FEFEFE" d="m1786.96 758.853 13.05.728a12329 12329 0 0 1 .42 131.312c0 23.593.8 47.484-.08 71.046-4.68-.303-9.13-.068-13.79.294-2.4-22.01-.31-47.264-.14-69.531z"/><path fill="#D3414A" d="M763.032 1457.61c55.38-.69 110.888.36 166.282.39l326.796.08-.66 6.01c-87.6-1.1-175.34.22-262.952.43l-229.442-.38z"/><path fill="#E2E3E2" d="M419.973 1274.67c2.101-.96 3.64-1.04 5.934-1.1 5.853.29 13.857-.58 19.296 1.2l1.2 1.35c-1.259 16.01-.577 32.49-.614 48.55l-.327 92c-6.684-3.5-13.365-6.91-19.703-11.02-2.035-.9-3.948-2.11-5.881-3.22.633-42.55.111-85.2.095-127.76"/><path fill="#C11F2C" d="M419.973 1274.67c2.101-.96 3.64-1.04 5.934-1.1.223 43.97.782 88.13-.148 132.08-2.035-.9-3.948-2.11-5.881-3.22.633-42.55.111-85.2.095-127.76"/><path fill="#E2E3E2" d="M995.08 223.826a17723 17723 0 0 0 208.08.14c.07 5.76-.02 11.563.22 17.315l-.69 3.611c-20.39-2.523-46.73-.549-67.72-.506l-139.847.579zm496.58 87.641a6734 6734 0 0 0 117.71 117.214l39.01 38.142c6.74 6.615 14.42 13.23 20.37 20.545a325 325 0 0 1-10.91 15.538c-24.69-26.649-51.43-51.794-77.43-77.166l-100.22-98.04a816 816 0 0 0 11.47-16.233"/><path fill="#FEFEFE" d="m763.056 1464.14 229.442.38c87.612-.21 175.352-1.53 262.952-.43l-2.17 16.62-.77 6.14c-56.48-1.47-113.2-.46-169.7-.47l-319.862.64.157-6.36z"/><path fill="#D3414A" d="m763.105 1480.66 305.815-.19 120.05.27c21.38.06 42.96.69 64.31-.03l-.77 6.14c-56.48-1.47-113.2-.46-169.7-.47l-319.862.64z"/><path fill="#E2E3E2" d="m620.391 615.673 62.161.216.562 20.279-133.675.225c-11.063.019-39.527-1.515-48.209.43-9.312-.274-49.99-2.681-56.067 1.154l-1.024 4.229c1.68 13.725.415 28.919.355 42.815l-.167 81.804.172 268.215-19.434.71-.108-284.419-.073-84.057c-.011-14.826-1.34-31.016.815-45.629 2.256-2.23 4.549-4.567 7.779-5.231 13.277-2.729 39.37-.499 54.109-.489zM1452.26 1819.73c.59-.09 1.18-.19 1.78-.27 26.38-3.46 132 21.75 160.23 31.76 14.59 5.17 30.2 11.55 42.39 21.32 7.18 5.77 15 15.12 15.81 24.68.67 7.77-3.47 14.94-8.52 20.51-40.98 45.22-185.55 51.19-244.95 52.97-62.59 1.88-217.33-6.71-263.52-50.04-5.51-5.16-10.66-12.26-10.57-20.15.08-7.09 4.31-13.11 9.31-17.77 23.04-21.5 93.64-39.03 125.76-39.85.15 2.33.48 3.71 1.66 5.69.83 1.4 1.16 1.95 1.6 3.58-2.28 2.88-4.95 5.87-6.79 9.04-5.54 9.5-7.26 39.33-4.15 49.98 1.68 2.29 3.51 3.49 5.99 4.78 25.91 13.42 87.26 26.49 116.72 27.83 14.16.65 29.01-.31 42.58-4.69 6.97-2.25 14.53-5.81 17.77-12.81 3.08-6.64 1.11-12.92-1.37-19.35 23.19 3.68 47.56 6.18 70.94 3.2 13.06-1.66 32.43-5.66 40.63-16.88 3.09-4.23 4.06-9.48 3.06-14.6-1.5-7.69-6.72-14.01-13.09-18.31-10.72-7.25-20.56-7.31-32.69-5.16-21.68-10.23-46.27-12.38-65.82-27.54-3.5-2.72-4.2-3.43-4.76-7.92"/><path d="M726.935 118.444c13.61-6.049 28.438-10.618 42.39-15.95a9552 9552 0 0 0 90.403-35.007c22.022 8 43.805 16.822 65.611 25.397 23.521 9.25 47.44 18.383 70.195 29.401-.871 32.175-.386 64.493-.432 96.685l-.022 4.856.043 21.139-.009 4.424c-.688 17.009-.129 34.254-.153 51.289-28.767 13.337-58.451 25.066-87.618 37.532-16.003 6.84-32.868 16.085-49.565 20.758-43.184-20.587-87.849-38.046-130.826-58.955a7586 7586 0 0 1-.017-181.569"/><path fill="#E2E3E2" d="m962.082 167.9 1.155.308c2.64 5.08.697 91.484.613 105.568-26.745 13.85-56.606 24.93-84.311 37.019l-.708-.082c-2.503-4.016-1.198-93.903-1.223-106.641 27.083-13.656 56.489-24.431 84.474-36.172m-204.012-1.398c10.691 3.819 21.1 9.018 31.496 13.622l56.256 24.896.19 109.623c-29.495-12.553-58.665-25.994-87.908-39.126zm100.208-89.558c8.421-1.036 105.638 40.431 122.57 47.227-8.158 3.633-16.702 6.528-24.93 10.037l-93.668 40.11c-1.752.581-2.738.909-4.605.459-9.753-2.348-21.101-9.049-30.326-13.131a2081 2081 0 0 1-86.997-40.046c39.666-13.703 78.714-29.76 117.956-44.656"/><path fill="#E2E3E2" d="M734.886 128.239a4422 4422 0 0 0 123.488 56.17c15.114-5.81 29.955-12.701 44.862-19.039l83.836-35.613-.051 165.44c-36.108 16.159-72.842 31.044-109.076 46.945l-.077-21.673c30.531-15.373 63.66-25.647 93.897-41.877.194-17.694 2.712-111.269-1.963-121.101-11.013.511-76.733 30.758-92.577 37.503-1.813.891-3.501 1.921-5.231 2.96-1.488 1.981-1.774 3.415-1.965 5.815-1.279 16.109-.157 33.035-.174 49.221l-.324 93.187c-2.416 1.119-4.951 2.436-7.482 3.254-2.594.838-3.892.153-6.17-1.05-1.644-2.256-1.65-4.502-1.846-7.201-1.112-15.269-.119-31.297-.111-46.631l.019-94.434c-13.032-7.075-27.756-12.542-41.325-18.624-15.743-7.056-40.015-20.038-55.46-23.754-2.534-.61-2.873-1.015-5.156.442-3.447 9.343-2.982 107.446-1.426 123.117 32.699 12.259 64.131 29.041 96.249 42.849l.1 21.039-111.967-50.813c-.879-55.341-.222-110.784-.07-166.132"/><path fill="#D3414A" d="m1371.37 385.211 4.11-.04-.35 163.868c-.02 19.15 1.94 54.04-.34 71.585-.66 5.05-1.91 8.951-5.55 12.642a75 75 0 0 1-3.99 3.71c-11.96 5.566-69.81 2.921-87.45 2.922l-172.52.247c-30.06-.011-60.82-1.439-90.8-.038-2.13.099-3.87.317-5.46 1.864.48 5.72-2.36 11.86-4.78 16.976-8.934 18.974-27.683 36.207-47.546 43.039-7.864 2.705-16.568 3.707-24.826 4.262-30.848 2.072-62.891.172-93.876.16-23.424-.01-58.843 1.957-81.16-.905-9.604-1.231-18.903-4.672-27.559-8.924-24.654-12.112-36.511-31.476-45.261-56.629l-58.049.098-176.819.197-5.005 1.961 1.024-4.229c6.077-3.835 46.755-1.428 56.067-1.154 8.682-1.945 37.146-.411 48.209-.43l133.675-.225-.562-20.279-62.161-.216-132.804.252c-14.739-.01-40.832-2.24-54.109.489-3.23.664-5.523 3.001-7.779 5.231.479-2.203.658-4.391.882-6.631.044-.043.079-.098.131-.13 2.712-1.669 4.9-2.475 8.079-2.701 12.389-.88 25.161-.328 37.587-.331l66.388-.006c39.486-.003 79.786-1.78 119.206 0 8.34-.572 16.693-.453 25.048-.424 4.631-24.969 15.543-45.304 36.895-59.83a93.2 93.2 0 0 1 36.534-14.761c21.816-3.554 62.892-.819 86.874-.732l57.359-.182c14.462-.077 29.606-1.062 43.857 1.75a86.1 86.1 0 0 1 54.524 36.924c7.467 11.256 11.247 23.558 13.377 36.795 11.17.048 23.1-.666 34.16.52 29.94-1.822 60.84-.372 90.86-.426a17322 17322 0 0 0 209.03-.605l-.02-225.341c8.31-.602 16.58-.441 24.9-.323"/><path fill="#E2E3E2" d="m1371.37 385.211 4.11-.04-.35 163.868c-.02 19.15 1.94 54.04-.34 71.585-.66 5.05-1.91 8.951-5.55 12.642a75 75 0 0 1-3.99 3.71l-5.29-2.459c-12.51 2.346-26.18 1.374-38.89 1.339l-58.06-.122-162.1.263c-29.77.021-59.71-.628-89.45.088.86-6.725.72-13.733.9-20.514a7443 7443 0 0 0 91.64.11l160.96.052c28.4.045 57.8 1.741 86.1-.043-.98-2.221-2.72-3.361-4.57-4.815l-.02-225.341c8.31-.602 16.58-.441 24.9-.323"/><path fill="#C11F2C" d="m1371.37 385.211 4.11-.04-.35 163.868c-.02 19.15 1.94 54.04-.34 71.585-.66 5.05-1.91 8.951-5.55 12.642a75 75 0 0 1-3.99 3.71l-5.29-2.459c2.21-1.35 4.61-2.877 6.4-4.76 2.43-2.55 3.85-5.547 4.29-9.029 1.24-9.729.38-20.546.38-30.371l-.01-60.718.11-93.649c.06-16.66.87-33.547.14-50.18l-19.92.037c-1.47 50.257-.33 100.839-.35 151.132l-.15 50.966c-.04 9.063-.72 18.766.21 27.745-.98-2.221-2.72-3.361-4.57-4.815l-.02-225.341c8.31-.602 16.58-.441 24.9-.323"/><path fill="#FEFEFE" d="M759.533 543.262c29.503-2.173 60.291-.331 89.926-.353l51.822-.25c14.756-.084 30.526-1.091 45.017 2.058 10.59 2.301 21.523 8.318 29.973 15.021a77.8 77.8 0 0 1 28.819 52.599 80.25 80.25 0 0 1-17.088 59.071c-12.469 15.281-29.98 25.651-49.753 27.576-31.795 2.185-64.284.439-96.166.582-23.923.107-62.466 2.642-84.548-.889a86.4 86.4 0 0 1-35.154-14.267 75.37 75.37 0 0 1-31.753-49.215 77.84 77.84 0 0 1 13.608-59.04c13.15-18.496 33.228-29.147 55.297-32.893"/><path d="M924.014 589.207c2.627-.231 5.341-.453 7.982-.426 2.762.029 4.961.343 7.003 2.326l.028 2.911c-4.039 7.573-10.7 2.163-16.067 6.619-1.649 1.369-2.884 4.307-2.69 6.387.314 3.379 9.194 2.356 11.769 4.486-.289 2.623.18 3.016-1.805 4.926-2.48-.66-4.01-1.336-6.509-.388-4.473 5.409-3.058 13.601-2.915 20.202.067 1.445.307 3.413-.045 4.807-.577 2.286-2.006 3.5-3.803 4.848-1.379-.087-1.593.136-2.646-.756-5.502-4.658-.915-17.444-1.711-24.07-.741-6.155-4.08-3.797-7.603-6.773l.07-3.527c2.3-3.338 4.476-1.087 6.338-3.473 6.438-8.251-.693-9.965 12.604-18.099m-109.37.591c3.448.005 5.243-.468 7.757 2.017.824 2.491 1.257 4.23 1.065 6.861-.334 4.556-.418 9.099-.526 13.664 3.162-1.968 6.152-3.727 9.821-4.569 3.754-.862 8.008-1.042 11.313 1.244 3.925 2.715 5.53 7.352 6.324 11.866 1.384 7.867 1.412 17.662-3.321 24.44l-2.986-.631c-2.911-5.608-2.227-11.816-2.076-17.94-.064-1.728-.064-4.214-.636-5.82-.608-1.709-1.279-2.538-2.784-3.429-2.692-1.593-7.571-3.024-10.591-1.983-8.744 3.013-3.705 21.65-6.641 28.595-2.318 1.17-2.35.974-4.907.344-.677-.772-1.558-1.404-2.031-2.316-1.719-3.306.038-46.054.219-52.343m60.486 17.162c2.184-.253 4.277-.4 6.477-.221 5.037.409 9.876 2.111 13.055 6.175 2.787 3.564 3.86 9.288 3.263 13.712-1.916 1.313-4.725.871-7.053.935-5.631.155-16.578-.864-20.575 3.36 1.138 2.874 3.142 4.852 6.077 6.11 4.894 2.099 9.684.575 14.429-1.071l.829-.486 2.329.789 1.24 3.277c-.725 1.535-.761 2.023-2.199 3.078-4.443 3.263-12.628 3.434-17.791 2.274-4.703-1.057-8.819-3.555-11.385-7.705-2.855-4.619-3.306-10.315-1.913-15.494 2.048-7.618 6.548-11.136 13.217-14.733"/><path fill="#FEFEFE" d="M877.62 613.914c2.041.136 4.256.262 6.223.855 2.306.695 4.093 1.937 5.315 4.018l-.718 1.727c-3.102 2.06-7.102 1.466-10.692 1.39-2.122.687-4.159 1.322-6.349 1.77l-1.607-1.587c1.065-3.429 4.911-6.291 7.828-8.173"/><path d="M782.529 592.175c8.341-.716 14.547 1.06 22.365 3.583-.075 3.464.255 7.31-1.434 10.413-5.591-2.968-11.742-5.398-18.19-5.089-4.435.213-8.551 1.869-11.342 5.42-3.223 4.101-4.964 10.267-4.308 15.439.58 4.567 3.15 8.446 6.802 11.182 6.049 4.53 11.613 4.785 18.798 3.655 2.546-1.769 3.721-3.262 6.874-3.164 1.317 1.802 1.99 2.426 1.282 4.812-.834 2.814-3.999 5.161-6.571 6.329-6.251 2.84-14.101 1.373-20.204-1.118-6.694-2.732-12.241-7.504-14.86-14.365-2.722-7.129-2.107-15.448 1.352-22.217 4.29-8.396 10.69-12.188 19.436-14.88M1203.6 218.902a151.76 151.76 0 0 1 52-104.63 156.7 156.7 0 0 1 114.44-38.996c40.91 2.922 80.7 21.919 107.59 53.053a156.3 156.3 0 0 1 36.74 113.661c-1.75 23.121-8.45 44.716-19.73 64.953l-2.98 4.524a816 816 0 0 1-11.47 16.233c-1.25 1.389-2.76 2.783-3.69 4.395-27.43 29.811-60.91 47.091-101.02 53.076l-4.11.04c-8.32-.118-16.59-.279-24.9.323-28.68-3.845-54-11.985-77.72-29.048-36.36-26.15-57.46-63.487-64.53-107.273l-.84-7.932c-.24-5.752-.15-11.555-.22-17.315z"/><path fill="#FEFEFE" d="M1347.18 83.393c37.21-3.663 76.27 8.784 105.44 31.911 30.83 24.449 49 59.707 53.1 98.605 4.15 39.287-6.56 77.457-31.55 108.2-26.47 32.573-62.09 51.247-103.68 55.506-35.28 4.233-74.71-9.604-102.28-31.234a148.34 148.34 0 0 1-56.4-99.212 147.56 147.56 0 0 1 32.29-109.707c25.97-32.242 62.4-49.653 103.08-54.07"/><path d="M1357.73 139.43c25.77-1.003 63.94 3.155 85.02 19.582 4.45 3.471 8.03 7.675 9.58 13.188 2.9 10.267 1.6 22.471 1.58 33.088-.04 25.423-2.05 59.384.66 84.071l.16 1.361c-1.19 1.909-2.42 3.783-3.85 5.528-17.62 21.615-54.92 25.88-80.73 28.584l-1.55.024c-36.43.393-71.09-6.527-97.78-32.521a97 97 0 0 1-.32-3.691c-1.6-23.345.06-47.448.06-70.869 0-12.163-1.98-25.679-.03-37.656.95-5.833 3.59-10.93 7.53-15.299 18.55-20.515 53.89-23.761 79.67-25.39"/><path fill="#E2E3E2" d="M1445.82 254.076c.15.226.33.433.45.677 2.02 4.168.66 28.372-1.2 33.305-4.3 11.376-17.61 15.814-27.85 20.216l-.9-.903c-2.36-11.054-.61-26.029-.6-37.503 11.38-3.581 20.52-8.757 30.1-15.792m-167.62-1.56c10.54 7.594 19.56 12.982 31.88 17.347l.03 38.996c-11.7-5.035-23.68-11.192-31.8-21.246-.5-11.632-.11-23.445-.11-35.097m.13-48.981c10.2 7.36 19.01 12.565 30.85 17.188l-.01 40.789c-11.35-5.011-21.53-10.808-30.61-19.327-.74-12.778-.23-25.84-.23-38.65m167.55-.412c1.94 2.436.95 33.069.95 38.429-9.41 10.198-16.95 15.296-29.85 20.321-2.77-4.168-1.2-35.092-1.17-42.207 11.11-4.58 20.68-8.979 30.07-16.543m-129.78 68.353c14.4 3.136 28.07 5.347 42.83 5.96a1333 1333 0 0 1-.23 39.543c-13.85.412-28.77-2.53-42.14-5.968-.71-13.101-.37-26.406-.46-39.535m92.85-.095c2.3 5.365.55 31.679.49 39.181-13.91 4.362-28.76 5.739-43.24 6.58-3.1-4.439-1.38-32.284-1.33-39.701 15.14-.826 29.29-2.826 44.08-6.06m-93.15-49.077c14.45 2.865 28.54 4.672 43.23 5.522l-.05 42.107c-14.79-1.086-28.72-2.698-43.08-6.616zm93.17-.948c2.21 2.566 1.05 36.47 1.03 42.272-14.56 3.21-28.84 5.43-43.71 6.579-3.08-5.392-1.23-34.574-1.2-42.67 14.98-.861 29.26-2.993 43.88-6.181m-55.72-73.945c22.61-2.674 64.57 2.573 83.25 16.903 5.5 4.216 9.72 10.116 10.24 17.192.42 5.557-1.58 10.898-5.23 15.057-14.92 16.976-49.75 21.357-70.76 22.698-25.97 1.802-62.64-1.594-83.87-18.456-4.94-3.917-8.84-9.021-9.29-15.496-.4-5.589 1.84-10.618 5.42-14.802 15.41-17.968 48.25-21.166 70.24-23.096"/><path d="M1786.56 962.233c4.66-.362 9.11-.597 13.79-.294 2.23.25 4.58.683 6.81.72 29.79 1.656 63.31 16.822 86.08 35.707 31.34 26.004 51.31 66.254 54.74 106.604 3.68 43.16-8.64 85.65-36.68 118.89-27.15 32.18-65.08 52.42-107.26 55.71-40.6 3.16-80.68-11.42-111.41-37.79-31.71-27.21-50.65-67.25-53.54-108.78-3.03-43.67 10.5-86.34 39.41-119.42 25.01-28.622 61.54-48.471 99.74-50.879 2.94.21 5.42.005 8.32-.468"/><path fill="#FEFEFE" d="M1779.72 970.387c36.77-3.668 76.96 9.33 105.69 32.333a143.92 143.92 0 0 1 53.07 96.72c4.49 43.28-4.17 83.35-32.01 117.49-23.83 29.22-59.59 50.19-97.4 54-38.77 4.57-76.95-7.67-107.33-31.85-30.48-24.26-49.56-61.28-53.9-99.75-4.58-40.56 6.1-82.68 31.8-114.7 25.02-31.168 60.56-49.737 100.08-54.243"/><path d="M1783.14 1019.08c7.45-.22 14.77-.04 22.21.38 2.59 8.31 5.81 16.5 8.75 24.69 6.68 1.79 13.14 4.53 19.59 7.01 5.17-4 10.73-7.47 16.19-11.05 7.94 5.32 15.36 12.98 20.4 21.07a364 364 0 0 1-11.44 15.91l7.14 21.87c5.78 1.84 13.58 3.35 17.72 8.09 5.2 5.96 2.91 17.15 2.49 24.35-6.18 3.61-12.52 5.63-19.4 7.42a1853 1853 0 0 1-8.13 19.68c3.09 6.6 7.11 12.96 10.72 19.3-5.27 8.44-11.55 13.8-19.66 19.23-5.82-4.5-11.67-8.68-17.89-12.61-5.81 3.57-12.39 5.8-18.72 8.29-2.31 6.68-3.67 20.72-9.32 24.68-5.97.13-16.09 1.63-21.29-1.51-6.59-3.99-7.62-18.06-9.25-25.1-5.6-1.83-11.14-4.22-16.66-6.31-7.34 3.46-13.94 8.03-21.5 11.17-6.18-5.61-11.87-11.89-17.2-18.31 2.53-6.99 6.67-13.11 10.78-19.23-2.83-6.27-5.13-12.88-7.64-19.29-6.09-1.59-15.3-2.22-19.7-7.09-4.82-5.35-2.57-19.15-2.38-25.79 6.57-3.06 13.84-4.8 20.93-6.21 2.5-7.25 5.46-14.35 8.31-21.47-3.52-5.87-7.16-11.24-11.45-16.58 4.85-8.63 12.06-15.79 19.91-21.72l16.45 11.01c6.58-2.5 13.4-4.48 20.11-6.61 1.57-7.53 3.39-20.8 9.93-25.27"/><path fill="#E2E3E2" d="M1785.91 1025.97c4.07-.14 9.89-.99 13.41 1.32 5.75 3.77 6.13 16.89 7.18 23.15 9.94 1.68 17.89 4.92 26.32 10.33 5.62-3.76 10.98-8.06 16.36-12.16 4.3 3.9 8.28 7.99 12.27 12.2-3.33 6-7.54 11.72-11.34 17.45 5.12 9.23 7.78 18.96 10.56 29.08 6.22 1.16 12.24 2.37 18.28 4.28l.07 14.73c-6.01 2.54-12.48 4.4-18.67 6.49-2.91 8.36-6.38 16.59-10.83 24.25 3.55 7.25 7.36 14.35 11.19 21.46-3.22 3.51-6.91 6.37-10.61 9.36-6.09-3.78-11.59-8.39-17.19-12.85-9.4 4.37-15.55 8.12-26.25 8.35a768 768 0 0 1-4.97 25.36c-4.83 2.12-11.7.78-16.85.31-1.38-8.52-3.35-16.68-5.66-24.99-8.22-1.77-15.35-5.25-22.85-8.91a1319 1319 0 0 0-18.86 11.3c-3.78-2.88-7.22-6.04-10.7-9.25 2.68-6.9 6.91-13.37 10.62-19.77-3.99-8.49-7.51-17.01-10.85-25.78-6.73-.7-13.25-2.3-19.84-3.82-.22-5.99.05-12.02.17-18.02 6.54-.72 13-1.6 19.48-2.72 3.07-9.54 5.9-18.7 10.46-27.67-2.57-6.51-6.59-12.28-10.32-18.16 3.07-4.69 6.24-8.64 10.16-12.64 5.51 4.63 11.85 8.09 18.02 11.74 8.62-5.33 16.19-7.66 26.06-9.73 1.73-8.31 2.34-16.61 5.18-24.69"/><path d="M1786.25 1074.13c10.46-1.19 21.05.56 30.12 6.1 10.08 6.17 17.18 16.59 19.89 28.03a43.2 43.2 0 0 1-5.69 33.19c-7.16 11.16-17.3 16.89-29.99 19.51-10.59.43-20.34-.93-29.6-6.42a44 44 0 0 1-20.43-27.2c-2.82-11.29-.59-23.43 5.55-33.26 7.09-11.37 17.48-16.99 30.15-19.95"/><path fill="#FEFEFE" d="M1786.88 1081.11c7.65-.54 14.63.28 21.61 3.6a37.7 37.7 0 0 1 19.82 22.39c2.82 8.89 2.17 18.84-2.15 27.14-5.3 10.17-13.96 15.33-24.44 18.79-8.93 1.24-17.79.24-25.82-4.05a36.1 36.1 0 0 1-17.73-21.96c-2.62-9.4-1.05-19.74 3.77-28.17 5.65-9.87 14.31-14.82 24.94-17.74"/><path d="M1672.96 482.605c33.85-35.301 73.65-56.915 123.37-58.02 41.07-.913 82.65 17.473 111.89 45.9 32.69 31.79 49.57 72.685 50.05 118.167a174.7 174.7 0 0 1-48.94 122.879c-28.13 28.69-62.36 44.445-102.28 47.822l-7.04.228-13.05-.728-6.86-.856c-21.18-3.502-41.08-9.644-59.96-19.984-38.92-21.309-69.89-57.587-82.24-100.426-12.69-44.051-5.37-89.522 16.54-129.338l3.4-5.343a325 325 0 0 0 10.91-15.538z"/><path fill="#FEFEFE" d="M1783.73 433.381c.25-.042.48-.1.73-.124 39.32-4.006 80.43 10.307 110.34 35.788a154.5 154.5 0 0 1 54.12 105.138c3.51 46.368-9.81 89.999-40.41 125.263-27.34 31.502-62.86 48.149-104.2 51.127-36.5 3.11-74.56-12.553-102.94-34.542-33.01-25.577-55.81-61.78-61.08-103.519a157.68 157.68 0 0 1 32.95-116.992c27.36-35.059 66.51-56.721 110.49-62.139"/><path d="M1786.71 477.437c15.84-1.192 33.59.878 49.1 4.102 19.34 4.017 37.68 11.004 48.87 28.201 1.7 29.551.05 59.82-.03 89.439-.04 17.442 2.2 37.441-.59 54.543-.93 5.732-3.32 10.574-7.22 14.874-17.1 18.844-50.66 25.65-74.89 26.685a249 249 0 0 1-40.18-2.975c-20.32-3.296-45.85-10.513-58.44-28.014.14-31.123.81-62.226.72-93.357-.06-17.428-1.94-36.134.03-53.364.66-5.808 2.15-10.906 6.01-15.405 15.76-18.327 53.82-23.203 76.62-24.729"/><path fill="#F66778" d="M1876.69 627.159c1.44 9.376.36 20.317.22 29.866-4.07 5.136-8.33 9.169-13.33 13.34-.67-11.045.04-22.55.18-33.633zm-165.39-92.642a584 584 0 0 0 12.84 9.451 1324 1324 0 0 1-.08 37.094c-5.43-3.808-9.07-8.612-12.74-14.015-.28-10.826-.05-21.699-.02-32.53m164.39 1.318c2.72 3.364 1.32 28.109 1.3 33.746-3.54 4.203-7.22 7.332-11.54 10.67-.09-.06-.18-.105-.26-.179-3.64-3.785-1.38-28.678-1.26-34.945 4.27-2.656 7.96-6.025 11.76-9.292m-164.42 90.834c4.38 3.6 8.97 6.825 13.6 10.074l-.01 35.013c-5.19-2.255-9.51-6.081-13.88-9.585a1909 1909 0 0 1 .29-35.502m-.18-46.219a472 472 0 0 0 13.44 9.064c-.14 12.367.04 24.754.08 37.123l-.49.581c-4.52-.398-9.98-7.534-13.07-10.821zm165.46.427c2.69 3.439 1.33 28.609 1.31 34.332-4.16 4.877-8.56 8.903-13.64 12.794-2.97-4.744-.99-31.471-.91-38.363 4.64-2.559 8.9-5.734 13.24-8.763m-19.63 59.205c2.42 9.757.7 23.394.52 33.53-7.3 3.183-14.7 5.955-22.18 8.676-2.94-4.69-.83-27.789-.66-34.477 7.58-2.286 14.93-4.906 22.32-7.729m-.53-92.027.7.186c2.65 4.595.74 28.859.56 35.572-6.89 3.697-13.95 6.263-21.37 8.633l-1.19-.297c-3.11-5.158-.82-30.247-.65-37.477 7.48-1.779 14.67-4.127 21.95-6.617m-126.42 91.413c10.68 4.696 21.68 7.312 32.99 9.967l.01 34.998c-11.6-2.087-21.9-4.875-32.72-9.573-.53-11.741-.23-23.632-.28-35.392m.08-92.816c10.48 4.515 21.05 7.053 32.2 9.38a1482 1482 0 0 1 .03 38.659c-11.27-2.636-21.77-5.786-32.25-10.729zm-.07 45.486c10.63 4.728 21.25 7.667 32.6 10.176l-.07 38.436c-9.92.158-23.28-5.594-32.33-9.53-.46-12.989-.17-26.08-.2-39.082m96.68 57.28.72.482c2.34 7.481.71 25.213.69 33.752-19.31 4.61-39.22 4.047-58.84 2.001-2.38-7.502-.64-26.76-.59-35.364 19.63 2.982 38.5 1.844 58.02-.871m-.29-92.948.75-.042c2.35 2.857 1.07 32.424 1.03 38.223-20.17 2.748-37.7 3.3-57.95.934l-.85-.368c-3.06-5.716-1.31-30.497-1.32-38.591 20.13 2.297 38.28 2.032 58.34-.156m30.46 36.52c2.59 11.351.58 26.788.36 38.517-29.14 13.54-57.3 13.197-88.67 11.276v-39.546c31.36 4.085 59.05 2.175 88.31-10.247m-79.41-107.624c25.82-3.207 63.63.585 86.22 14.606 5.82 3.611 11.55 8.83 12.94 15.833.88 4.434-.2 8.72-2.88 12.339-11.74 15.883-44.41 20.578-62.46 22.683-27.88.978-62.24-.632-86.56-15.945-5.64-3.548-11.8-8.65-13.09-15.582-.71-3.872.31-7.51 2.64-10.644 11.62-15.648 45.38-21.031 63.19-23.29"/><path d="M347.083 1364.33c23.668 13.6 48.399 25.86 72.795 38.1 1.933 1.11 3.846 2.32 5.881 3.22 6.338 4.11 13.019 7.52 19.703 11.02l4.452 1.99 7.016 5.43c-1.218 120.49-.015 241.14.091 361.65.041 46.62.746 93.35-.141 139.96-13.874 3.99-29.019 5.92-43.21 8.71l-79.144 15.74c-21.305 4.1-43.237 7.61-64.101 13.54-32.392-14.52-64.263-31.1-96.082-46.86-1.512-42.41-.368-85.29-.354-127.75l.07-234.08c.001-15.27-1.829-136.39.592-143.84 4.077-4.41 154.054-41.5 172.432-46.83"/><path fill="#FEFEFE" d="M344.705 1374.15c8.421.9 85.028 42.36 95.713 50.06-19.363 3.89-38.475 9.18-57.737 13.55a9400 9400 0 0 1-101.493 21.45l-10.289 1.87c-27.748-16.5-56.129-31.37-84.729-46.32 12.592-2.82 25.069-6.63 37.584-9.82 40.295-10.27 80.522-21.08 120.951-30.79"/><path d="M308.063 1401.27c7.717-.67 15.98-.69 23.108 2.7 3.877 1.84 7.708 4.97 8.889 9.27.719 2.63.24 5.21-1.221 7.46-4.116 6.35-12.91 8.08-19.772 9.72-8.725.93-18.225 1.57-26.07-3.13-3.281-1.96-6.292-5.04-6.973-8.94-.416-2.39.149-4.81 1.419-6.84 4.177-6.66 13.435-8.78 20.62-10.24"/><path fill="#FEFEFE" d="M315.407 1408.41c5.976.27 11.551-.24 16.122 4.27.484 2.37.596 2.84-.952 4.95-3.504 4.77-11.791 5.52-17.138 6.52-3.489.06-6.996.02-10.455-.49-3.456-.51-5.682-1.62-7.834-4.46-.067-2.35-.199-2.85 1.37-4.76 4.314-5.25 12.637-5.52 18.887-6.03"/><path fill="#E2E3E2" d="M182.21 1593.38c28.232 13.64 57.275 26.7 84.616 42.03l.159 154.28c-12.812-5.69-25.326-12.73-37.816-19.12-15.694-8.03-31.762-15.69-46.94-24.67zm.068 162.34c28.553 13.01 56.451 28.61 84.336 43.06l.324 154.41c-27.746-14.37-56.433-27.37-84.459-41.25-1.379-51.98-.281-104.22-.201-156.22m.023-334c28.194 15.64 56.783 29.96 84.459 46.62l.071 158.07c-27.416-15.51-57.143-26.88-84.502-42.43z"/><path fill="#FEFEFE" d="M447.433 1765.33c.603.14.985.75 1.456 1.15.766 17 .29 34.25.348 51.27l.132 100.89c-22.024 6.33-45.638 9.65-68.123 14.09-34.64 6.85-69.191 14.32-104.016 20.17l-1.616-.47c-2.662-6.67-1.009-135.41-.861-153.77 57.824-9.41 115.126-22.39 172.68-33.33"/><path fill="#C11F2C" d="M415.572 1801.27c2.126-.17 1.092-.4 3.046.91 1.266 9.94.348 21.03.358 31.09l.031 63.12c-36.644 6.67-72.964 15.66-109.77 21.35-1.107.09-2.181-.11-3.28-.24-3.275-5.86-1.124-80.48-1.01-94.15 13.453-3.87 27.758-6.01 41.506-8.7z"/><path fill="#FEFEFE" d="m410.578 1809.29.941.12c3.047 7.33 1.34 68.23 1.386 80.93a7082 7082 0 0 1-98.678 19.5l-1.104-.13c-3.935-4.44-2.065-71.08-2.076-80.78 32.927-7.52 66.351-13.33 99.531-19.64m36.803-210.98.433.11c.382.51.864.96 1.144 1.54 1.183 2.42.102 139.86.065 156.27-22.674 6.07-46.321 9.89-69.349 14.48-34.276 6.84-68.552 14.02-103.012 19.86l-.385-.08c-.42-.49-.974-.88-1.26-1.45-1.167-2.34-.283-138.17-.219-153.57 23.021-6.44 47-10.57 70.384-15.58 34.026-7.29 68.02-15.05 102.199-21.58"/><path fill="#C11F2C" d="M411.683 1639.25c.251-.05.498-.12.751-.15 2.739-.31 4.145-.59 6.288 1.13 1.137 11.42.561 23.17.539 34.63l-.226 58.18c-35.237 8.22-71.371 14.25-106.884 21.21-1.935.55-3.718.63-5.721.72l-1.236-1.18c-1.286-11.59-.556-23.62-.499-35.28l.255-57.95c11.558-2.97 23.679-4.77 35.404-7.1z"/><path fill="#FEFEFE" d="M411.82 1646.42c2.426 2.53 1.078 71.66 1.05 81.13-33.711 4.66-67.191 13.56-100.843 19.12-1.373-9.18-.701-19.47-.696-28.76l.108-51.67a8965 8965 0 0 1 100.381-19.82m35.211-215.13.925.61c2.391 5.06 1.114 139.66 1.135 157.58-57.323 12.89-115.425 22.89-172.375 37.33-1.101-.19-.426.04-1.728-1.26-.831-17.76-.269-35.79-.315-53.58a7984 7984 0 0 1 .157-103.16c57.605-11.63 114.668-25.78 172.201-37.52"/><path fill="#C11F2C" d="M415.514 1471.18c1.436-.03 1.7.33 2.913 1.02 1.885 8.67.486 20 .486 28.96l.104 64.16c-14.517 4.28-30.119 6.64-45.014 9.48a2881 2881 0 0 0-65.658 12.97l-1.611-.32c-.474-.63-1.176-1.13-1.423-1.88-2.22-6.68-.514-80.38-.479-91.98 36.669-8.23 73.825-15.04 110.682-22.41"/><path fill="#FEFEFE" d="m411.233 1479.41.303.25c2.558 6.66.934 67.93.942 80.37-33.4 7.07-66.866 13.24-100.38 19.7-2.887-13.11-.836-62.92-.79-80 32.939-7.86 66.577-14.47 99.925-20.32"/><path d="M480.347 1386.82c15.623-6.21 33.393-9.55 49.745-13.55 38.649-9.46 77.769-17.32 116.157-27.79 38.006 22.72 78.387 41.37 116.654 63.72l.129 48.41.024 6.53.049 16.52-.157 6.36-.432 293.2c-.097 42.96 1.071 86.22-.204 129.14-19.524 7.41-44.644 10.35-65.406 14.48l-122.699 24.87c-14.724-6.76-29.148-14.78-43.696-21.98-16.784-8.3-34.788-16.04-50.455-26.3-1.208-63.14.063-126.49-.006-189.66a19662 19662 0 0 1 .297-323.95"/><path fill="#FEFEFE" d="M641.727 1355.2c1.554-.26 2.622-.23 4.202.2 6.699 1.85 15.397 8.09 21.74 11.43 25.776 13.58 52.221 26.71 77.12 41.83a9523 9523 0 0 1-154.568 33.38l-14.291 2.71c-27.049-12.58-62.146-35.41-86.904-52.55a7408 7408 0 0 1 152.701-37"/><path d="M610.922 1382.21c8.476-1.16 17.992-1.11 25.29 3.98 3.038 2.11 5.993 5.59 6.428 9.41.37 3.24-.294 6.11-2.277 8.7-5.096 6.65-14.122 7.87-21.848 9.15-8.301.53-17.728 1.3-25.238-2.93-3.302-1.86-6.044-4.74-6.804-8.56-.531-2.67.044-5.46 1.438-7.78 4.708-7.82 14.742-10.1 23.011-11.97"/><path fill="#FEFEFE" d="M613.483 1389.13c3.852-.17 8.091-.6 11.887.15 3.785.76 6.16 2.23 8.363 5.42.232 2.63.225 3.92-1.508 6.06-3.787 4.68-11.712 5.14-17.248 5.95-1 .02-2.001.01-3.001-.02-6.097-.23-12.573-.15-17.006-4.89-.596-2.4-.786-2.92.671-5.16 3.23-4.94 12.499-6.29 17.842-7.51"/><path fill="#E2E3E2" d="M487.728 1577.17c28.39 12.04 55.569 27.94 83.424 41.3l.035 153.93c-27.544-14.64-55.742-28-83.143-42.93zm1.09 161.93c26.637 15.3 54.885 28.49 82.341 42.3l-.016 155.98a1912 1912 0 0 1-83.197-41.75l.055-110.51c.007-13.14-1.943-33.95.817-46.02m-.457-336.67c9.379 4.37 18.51 11.4 27.413 16.86a2157 2157 0 0 0 55.202 32.87l.196 157.45a2551 2551 0 0 1-83.597-42.32z"/><path fill="#FEFEFE" d="M753.205 1582.24c3.22 4.35 1.535 139.4.98 155.91-21.088 6-43.387 9.48-64.894 13.75a10458 10458 0 0 0-108.252 21.76c-.512-.54-1.219-.96-1.536-1.63-1.619-3.47-.044-136.53.114-153.27 57.943-11.03 116.299-22.48 173.588-36.52"/><path fill="#C11F2C" d="M717.349 1625.3c2.428-.49 3.772-.8 6.131.07 3.16 7.57 1.257 76.97 1.229 90.66-34.588 8.59-70.501 14.13-105.486 21.09-2.033.43-3.609.52-5.68.36-.257-.49-.58-.96-.772-1.48-1.64-4.45-.879-71.44-.451-80.64.154-3.32.501-6.21 1.817-9.28 12.244-6.49 83.87-17.19 103.212-20.78"/><path fill="#FEFEFE" d="m717.325 1632.42.663 1.46-.251-1.55c2.474 3.6.883 68.72.843 78.46-31.969 7.74-65.085 12.2-97.35 19l-1.399-.47c-2.715-6.31-1.008-66.48-.982-78.3 32.468-6.87 65.652-13.75 98.476-18.6m31.38 115.82c1.723-.31 2.915-.32 4.643-.04 3.16 5.42 1.13 135.56.916 155.42-18.607 5.04-38.168 8.15-57.076 11.97a5723 5723 0 0 0-111.37 23.02c-2.258.35-3.978.43-6.24.1-1.89-16.95-.544-35.27-.546-52.37l.071-104.21c56.639-10.49 113.079-22.71 169.602-33.89"/><path fill="#C11F2C" d="M718.478 1787.24c2.257-.36 3.531-.69 5.622.37 2.803 5.81.854 79.61.693 93.03-13.244 3.67-27.442 5.37-40.96 7.9a2514 2514 0 0 0-62.957 12.81c-2.522.06-4.217.04-6.655-.77-3.544-4.47-1.048-81.88-.752-93.07 11.922-3.44 24.819-5.04 37.057-7.33a5643 5643 0 0 0 67.952-12.94"/><path fill="#FEFEFE" d="m713.55 1795.31 3.474-.27c2.935 3.02 1.422 70.86 1.383 80.19-30.948 6.44-62.229 11.26-93.188 17.78-1.709.28-3.387.42-5.111.57-3.015-4.91-1.141-69.1-1.107-80.1 30.921-7.5 63.207-12.54 94.549-18.17m38.848-380.01.798.15c3.708 5.08 1.456 142.56 1.242 158.93-20.973 5.53-42.583 9.19-63.842 13.45-36.4 7.29-72.967 14.65-109.14 22.97l-.655-.09c-.413-.56-1.043-1.01-1.237-1.68-1.686-5.77-.302-29.24-.312-37.07l-.028-119.39c58.072-10.34 115.23-26.27 173.174-37.27"/><path fill="#C11F2C" d="m722.371 1455.27 2.042.93c2.275 5.82.728 83.81.721 97.02-11.887 2.93-24.308 4.71-36.367 6.91a5026 5026 0 0 0-73.973 13.58l-1.587-.17c-2.621-4.82-.999-85.4-.642-96.5 13.4-3.99 27.651-6.01 41.387-8.62z"/><path fill="#FEFEFE" d="m717.725 1463.47.877.86c.896 9.69.352 19.77.335 29.52l-.117 53.45c-32.906 5.05-65.75 12.29-98.589 18.03-3.097-4.11-1.235-71.82-1.189-82.86 33.057-5.19 65.538-14.45 98.683-19"/><path fill="#D3414A" d="M419.973 1274.67c-39.856 1.73-80.502.27-120.416.26-32.477 0-66.962 2.22-99.206-1.52a118.77 118.77 0 0 1-79.69-45.34c-19.911-25.58-27.415-58.93-23.256-90.82 4.052-31.08 18.905-59.67 44.027-78.84a113.35 113.35 0 0 1 49.814-21.51c17.88-3.02 37.349-1.58 55.457-1.48l80.682.12 58.89-.15c10.66-.03 22.082-.88 32.622.47 2.569.65 3.683.9 6.168-.11l19.434-.71 4.848.41 1.059.07c21.637 1.22 43.791.17 65.479.14l130.414-.31 331.121.28 113.36-.1c21.96-.05 46.5-2.19 68.15 1.6 22.22 3.89 43.23 16.28 58.29 32.94 22.68 25.09 26.14 54.4 26.29 86.75.05 9.82.35 19.79-.24 29.59a94.6 94.6 0 0 1-32.1 66.13 89.47 89.47 0 0 1-46.39 21.34c-22.33 3.13-48.81 1.06-71.5 1.05l-139.35-.01-492.81-.46c-3.053-.02-8.873-.89-11.057 1.34-1.045.31-2.559.25-3.66.32l-1.2-1.35c-5.439-1.78-13.443-.91-19.296-1.2-2.294.06-3.833.14-5.934 1.1"/><path fill="#FEFEFE" d="M221.209 1042.5c81.128-1.11 162.365-.38 243.503-.3l394.964.22 197.474-.12 55.73-.04c14-.04 28.65-.66 42.55 1.21 18.3 2.48 38.21 13.24 51.44 25.93 19.21 18.42 28.59 43.74 29.12 70.06.77 38.04 3.95 74.08-24.9 103.61-26.09 26.71-57.39 24.46-91.75 24.63l-623.391.33-202.769-.19-55.88-.31c-13.23-.08-26.776.34-39.903-1.42-22.015-2.95-41.98-13.31-58.165-28.42-22.841-21.33-35.434-50.26-36.171-81.45-.712-30.18 10.109-60.55 31.266-82.3 24.699-25.38 52.785-31.16 86.882-31.44"/><path fill="#D3414A" d="M1005.25 1158.63c.56.01 1.12.02 1.68.04 3.42.12 5.04.76 7.32 3.23.42 3.17-.5 4.79-1.9 7.5-1.13-.06-2.26-.08-3.38-.31-2.54-.54-3.79-1.38-5.27-3.44-.3-3.33.19-4.07 1.55-7.02"/><path fill="#C11F2C" d="M1005.69 1177.82c2.91.31 5.51.29 7.88 2.21 1.82 14.91.38 31.32.26 46.39-2.53-.02-4.3-.14-6.74-.94-3.58-5.58-1.46-39.09-1.4-47.66"/><path d="M731.195 1097.82c10.119-.29 22.546-1.96 32.443-.08 2.569.49 3.746.96 5.272 3.05l-.785 2.31c-3.878 1.62-8.627 1.27-12.787 1.4l.033 22c.08 3.78 1.137 10.7-1.382 13.44-2.564.18-4.696.53-7.081-.67-2.385-10.02-.397-24.55-.316-35.1-3.157.07-8.175.82-11.194-.12-3.234-1-3.272-3.42-4.203-6.23"/><path fill="#D3414A" d="M1096.42 1155.36c1.67.33 3.8.35 5.07 1.53 5.74 5.32 2.6 33.75 2.4 42.53-.15 6.41-.84 13.48 3.9 18.45 2.08.68 3.76 1.25 5.56 2.53.77 2.6.33 3.84-.37 6.36-2.1.49-4.52 1.19-6.68.93-2.69-.33-5.17-2.05-6.74-4.21-6.46-8.85-4.76-55.89-3.14-68.12"/><path d="M460.218 1098.21c2.411-.12 4.835-.25 7.25-.2 5.236.12 9.904.91 13.581 4.89l-.416 1.99c-4.911 2.89-13.568.1-19.362 1.11-3.446.6-6.836 2.21-8.517 5.46-1.935 3.73-1.253 8.52-.243 12.42 1.093 4.21 3.014 7.13 6.99 9.13 5.824 2.91 10.468 1.13 16.233-.82 1.336-1.05 1.511-.68 3.129-.53 1.52 2.03 1.702 1.98 1.527 4.48-1.772 2.05-3.239 3.61-5.774 4.69-5.907 2.52-14.264 1.01-19.898-1.6a19.78 19.78 0 0 1-10.321-11.45c-2.185-6.17-1.496-13.11 1.546-18.87 3.24-6.13 7.865-8.71 14.275-10.7m136.954-1.5 3.393.48c4.704 2.77 13.818 27.02 16.397 32.58 2.685-5.1 13.74-30.27 15.584-31.8 2.668-.11 3.35-.19 5.697 1 .7 3.55-2.551 8.43-4.099 11.64-3.333 7.07-6.133 14.35-9.378 21.45-1.63 3.57-4.035 8.44-8.087 9.61-1.544.45-1.21.21-2.837-.62-5.543-9.09-17.738-32.38-18.36-42.47zm182.47 1.16c7.043-.19 14.193-.57 21.23-.27 3.908.16 7.019.2 9.779 3.15l-.584 2.2c-4.557 2.92-13.803.3-19.345 1.55-1.372.31-2.212 1.35-2.761 2.65-1.085 2.57-.504 4.9.207 7.41 3.985 2.72 12.483.29 17.644 1.9.551 2.44.679 2.33-.586 4.47-4.796 2.28-12.191 1.25-17.543 1.27.028 3.93-.531 6.95 1.402 10.44 7.356 5.07 12.424.06 20.1 1.23 1.911 2.17 1.56 2.75 1.668 5.69-6.211 3.6-23.664 1.43-31.144 1.38zm-131.563.08c10.152-.26 21.284-1 31.318.49l1.675 3.39c-2.211 5-16.703.12-23.358 4.62-1.747 2.63-1.886 3.82-1.954 6.85 4.06 4.54 12.791 1.76 18.516 2.92.988 2.24 1.054 2.19.355 4.53-4.109 2.48-13.448 1.24-18.49 1.25l.02 12.24c7.629.01 15.309-.16 22.929.22 1.098 2.25.758 1.93.147 4.16-6.103 4.8-23.008 2.45-31.068 2.35zm-71.503 30.46c.167-6.89-1.249-25.45 1.204-30.88 2.111-.67 2.138-.64 4.222.14 5.618 7.67 2.267 32.44 2.014 42.13-1.359 1.33-2.3 1.08-4.137 1.34-7.2-2.37-20.833-21.42-26.58-27.69-.232 8.24 1.049 17.34-.169 25.42-.241 1.6-.858 1.62-2.057 2.56-2.45.04-2.733.2-4.705-1.19-1.505-9.5-1.795-33.54.072-43.25.397.03.797.05 1.192.1 7.46 1.04 23.3 24.36 28.944 31.32"/><path fill="#C11F2C" d="M966.639 1176.24c6.985-.56 18.248-.37 24.075 4.23l.076 2.81c-4.968 4.63-17.943-.12-24.831.87-2.636.38-3.606.8-5.121 2.95.028.76.005 1.5.297 2.24 2.814 7.06 17.565 7.67 24.27 10.35 3.379 1.35 7.222 3.6 8.359 7.31 1.031 3.36-.487 6.83-2.091 9.74-3.525 6.39-6.165 7.58-12.973 9.56-3.873.36-7.816.37-11.66-.29-4.814-.82-10.617-1.87-13.613-6.06-.304-2.54-.318-2.63.963-4.84 6.126-1.91 14.063 3.94 20.712 3.69 3.021-.12 6.013-1.26 7.758-3.87 1.463-2.19 1.261-4.06.737-6.48-4.405-5.68-15.599-3.76-22.018-6.27-3.975-1.55-7.503-5.28-8.962-9.29-1.087-2.98-.677-5.68.774-8.44 2.828-5.38 7.758-6.82 13.248-8.21m-60.825 7.84c5.516-5.38 10.275-7.83 18.124-7.86 4.713-.02 9.537 1.25 12.959 4.65 7.902 7.84 5.495 29.32 5.397 39.91-.015 1.67-.442 2.91-1.173 4.4-2.324 1.58-2.697 1.47-5.546 1.47-7.942-8.58 5.855-41.68-12.487-43-4.899-.35-9.008.74-12.657 4.04-1.066.97-1.997 2.03-2.915 3.13-1.026 8.23-.337 27.91-3.649 33.25-.901 1.45-.765.97-2.711 1.34-.305-.25-.64-.48-.915-.76-3.329-3.46-3.57-10.34-3.589-14.89-.033-8.04-1.4-27.2 4.243-32.85l1.535.2c1.773 2.38 2.497 4.19 3.384 6.97"/><path d="M821.655 1097.68c6.532-.09 13.374-.48 19.874.26 4.499.51 9.516 2.01 12.282 5.86 2.3 3.2 2.615 7.72 1.891 11.49-.976 5.09-4.219 7.51-8.255 10.34 1.57 2.88 3.325 5.25 5.247 7.9 1.768 2.43 3.274 4.69 2.822 7.74l-3.797 1.02c-5.043-3.02-6.629-7.76-10.153-12.17-1.922-2.4-4.428-3.57-7.581-3.4-7.1.4-2.396 9.89-5.865 14.07-2.13.44-3.231.62-5.297-.12-2.918-8.12-.866-33.03-1.168-42.99"/><path fill="#FEFEFE" d="M829.873 1104.38c4.171-.05 9.776-.62 13.689.91 2.601 1.01 3.268 2.1 4.485 4.5.146 3.52-.752 5.61-2.214 8.78-5.183 2.31-10.591 1.79-16.099 1.6z"/><path d="M691.878 1097.59c7.16-.12 14.961-.78 21.992.79 4.624 1.04 9.743 3.18 12.023 7.64 1.566 3.07 1.171 6.63.097 9.78-1.932 5.66-5.509 7.07-10.639 9.41 3.875 4.84 8.005 9.52 12.065 14.21l-.748 1.48c-14.088.43-8.755-5.76-17.306-11.17-2.608-1.65-5.426-2.87-8.514-2.15-2.042 3.56-.815 7.87-1.749 11.97-2.289 1.85-2.597 1.49-5.596 1.37-.457-.47-1.078-.82-1.372-1.4-1.322-2.64-.246-36.3-.253-41.93"/><path fill="#FEFEFE" d="M699.653 1104.26c4.271.03 9.328-.3 13.364 1.24 2.546.97 4.515 2.65 5.139 5.38.624 2.74-.704 5.31-1.79 7.71-5.621 2.64-10.758 2.11-16.755 1.75z"/><path fill="#D3414A" d="M1143.87 1176.21c3.76-.07 7.33-.11 10.93 1.1 6.57 2.21 11.74 7.83 14.44 14.1 1.67 3.88 2.7 7.83 1.1 11.88-5.55 3.58-34.35 1.33-42.85 1.52 2.19 4.71 4.38 8.83 8.72 11.88 6.04 4.24 12.32 3.48 19.18 2.07 2.65-1.21 5.69-3.05 8.67-2.9 1.53.07 1.68.76 2.6 1.79-.26 1.17-.22 1.4-.93 2.57-2.09 3.42-8.12 5.93-11.8 6.86-6.99 1.78-13.88 1.05-20.08-2.71-6.58-3.98-11.57-9.91-13.27-17.52-1.48-6.63-.41-13.82 3.48-19.45 4.91-7.11 11.63-9.61 19.81-11.19"/><path fill="#FEFEFE" d="M1142.04 1183.18c2.49-.17 5.24-.25 7.69.34 4.62 1.12 9.26 4.66 11.7 8.68.14 2.61.1 2.65-1.39 4.8-3.5 2-7.81 1.33-11.72 1.23-5.76.22-15.13 1.99-19.69-1.91l.27-2.34c3.88-6 6.57-7.99 13.14-10.8"/><path d="M504.232 1098.13c5.222-.39 10.908-.54 15.856 1.38 5.6 2.18 10.334 6.42 12.75 11.95a20.84 20.84 0 0 1-.056 16.9c-3.255 7.16-8.795 10.3-15.822 13.03-4.962.54-9.796.28-14.472-1.62-6.322-2.56-11.764-7.61-14.189-14.05-1.882-5-1.814-10.62.512-15.46 3.145-6.54 8.811-9.83 15.421-12.13"/><path fill="#FEFEFE" d="M503.669 1105.19c3.212-.36 6.658-.9 9.855-.19 4.268.95 8.134 3.94 10.369 7.66 1.973 3.29 2.53 7.13 1.438 10.82-1.586 5.35-5.16 8.23-9.944 10.69-1.426.17-2.854.33-4.289.38-4.269.17-8.401-1.59-11.41-4.62-3.069-3.09-4.481-7.35-4.143-11.67.472-6.05 3.614-9.42 8.124-13.07"/><path fill="#C11F2C" d="M843.053 1157.87c3.337-.07 7.262-.52 10.164 1.46 4.976 3.41 32.218 51.99 33.414 58.87.464 2.68-.673 4.08-2.077 6.19-2.712 1.18-2.671 1.21-5.5.38-5.052-4.66-8.373-13.7-11.573-19.86a553 553 0 0 1-29.093-.43c-2.629 6.24-5.714 16.34-11.37 20.41l-1.058-1.19c-.367-6.63 1.868-13.38 2.927-19.93 2.686-16.59 4.098-31.45 14.166-45.9"/><path fill="#FEFEFE" d="M847.303 1166.52c6.906 6.07 13.884 19.75 17.078 28.4.463 1.26.426.64-.225 2.03l-5.906.17-20.383-.15c2.011-10.66 5.225-20.47 9.436-30.45"/><path fill="#D3414A" d="m1039.86 1220.78-2.43 4.11c-2.37.94-2.38 1.2-4.73.33-4.58-9.03-1.93-48.07-1.62-59.91.09-3.57.17-6.65 2.85-9.18l2.03.74c5.65 7.76 3.6 19.57 3.37 28.72.26-.08.54-.14.8-.25 1.5-.59 2.58-1.51 3.88-2.45 5.95-4.28 12.37-7.25 19.85-6.04 6.42 1.03 12.58 3.52 16.47 8.95 3.91 5.45 4.75 12.97 3.31 19.39-1.69 7.57-6.75 14.45-13.31 18.55-6.12 3.81-12.57 4.72-19.52 3.03-4.64-1.13-7.45-2.89-10.95-5.99"/><path fill="#FEFEFE" d="M1039.96 1192.97c5.33-5.18 12.19-10 19.99-9.77a16.35 16.35 0 0 1 12.18 5.91c3.35 4.02 4.78 9.49 4.21 14.67-.51 4.64-2.71 9-6.45 11.85-4.63 3.52-11.96 4.92-17.64 4.02-5.12-.81-8.28-3.62-11.97-7.04-1.39-6.97-2.13-12.6-.32-19.64"/><path fill="#D3414A" d="M230.733 1080.26c4.226-.11 8.854.55 12.681 2.41 14.741 7.16 53.234 45.23 58.11 60.2 2.488 7.64 1.311 14.5-2.528 21.49-5.831 10.63-39.877 42.93-50.191 50.03-3.524 2.43-7.208 3.64-11.282 4.83-8.872-.58-14.415-2.92-21.634-7.96-14.719-10.27-49.298-42.04-51.924-59.31-1.247-8.2 2.029-15.22 6.864-21.65 6.674-8.88 41.49-42.23 49.984-47.22 3.148-1.85 6.348-2.36 9.92-2.82"/><path fill="#FEFEFE" d="M198.072 1109.83c12.291 9.75 23.605 24.06 34.518 35.53 7.778-8.02 25.987-29.65 35.154-33.85 1.654-.75.922-.64 2.728.06l.542 2.26c-1.089 3.79-28.29 29.35-33.581 34.8 7.673 7.79 31.041 28.9 34.185 37.38l-.997 2.02-2.399.4a568 568 0 0 0-35.141-35.74c-7.019 6.95-28.989 31.92-35.915 34.35-1.418.5-2.056.95-3.456.23.377-6.18 29.569-32.03 35.582-38.79-5.36-5.17-34.455-30.99-34.633-35.27z"/><path d="M1254.3 914.947c-13.62 6.061-42.47 22.531-56.88 17.405-6.66-2.37-10.71-8.403-13.36-14.637-2.53-5.934-3.76-12.441-6.04-18.494-7.27-19.228-14.69-30.127-5.97-51.134 8.72-21.016 28.44-29.875 41.59-46.899 11.17-14.457 13.88-33.793 25.58-47.54 5.86-6.893 14.38-12.489 22.79-15.72 17.03-6.548 35.58-3.683 52.9-8.679 12.23-3.529 19.75-12.495 29.64-19.674 16.41-11.912 43.82-6.681 61.02 1.139 17.74 8.063 34.51 22.95 41.06 41.773 4.01 11.527.98 21.613-4.36 32.097 6 8.763 37.39 48.955 39.07 54.305.21.697-.15 2.665-.31 3.15-.5 1.539-2.01 3.347-2.94 4.695 4.3 6.911 7.88 13.367 10.06 21.265 4.97 17.938 1.03 42.715 10.79 58.54 7.81 12.675 25.24 17.422 20.37 36.109-1.54 5.921-5.75 10.707-9.8 15.11 1.55 26.382 4.13 56.802-14.97 78.112-10.83 12.09-26.77 16.72-42.52 17.29-5.1.19-10.23.06-15.33-.03-.73 10.64-1.63 21.3-2.1 31.96 6.43 3.56 14.85 7.94 19.8 13.33 8.6 9.36 15.96 38.32 19.72 51.4 12.24 42.56 17.34 86.5 26.07 129.75 23.85-8.55 51.61-14.18 75.95-3.36 8.4-4.69 36.22-24.53 44.89-20.55 3.64 1.67 8.68 10.42 10.86 13.88 23.14 36.8 43.4 75.81 64.7 113.71a3043 3043 0 0 1 25.47 45.66c4.24 7.76 9.32 15.78 12.44 24.05-9.41 9.87-62.48 38.36-78.06 47.61-24.33 14.44-48.17 30.15-73.1 43.56-3.39 1.83-6.73 3.46-10.57 4.07-8.21-8.95-13.71-22.63-19.5-33.29-10.14-18.66-20.37-37.85-32.01-55.59l-4.46-6.44c-4.58.55-9.48 1.5-14.09 1.34-2.66-.1-2.96-.18-4.63-2.06.34 3.6.75 7.22.89 10.83 2.75 25.42 2.07 51.21 4.84 76.55.16 3.39-.21 7.98.79 11.16l.54 9.42c.1 2.78-.03 5.86.45 8.57 1.01 11.09 2.44 22.31 2.55 33.44-12.3 11.3-31.33 16.78-47.03 21.33a12642 12642 0 0 1-7.23 132.04c-.8 14.65-.43 29.66-1.61 44.23.56 4.49 1.26 5.2 4.76 7.92 19.55 15.16 44.14 17.31 65.82 27.54 12.13-2.15 21.97-2.09 32.69 5.16 6.37 4.3 11.59 10.62 13.09 18.31 1 5.12.03 10.37-3.06 14.6-8.2 11.22-27.57 15.22-40.63 16.88-23.38 2.98-47.75.48-70.94-3.2 2.48 6.43 4.45 12.71 1.37 19.35-3.24 7-10.8 10.56-17.77 12.81-13.57 4.38-28.42 5.34-42.58 4.69-29.46-1.34-90.81-14.41-116.72-27.83-2.48-1.29-4.31-2.49-5.99-4.78-3.11-10.65-1.39-40.48 4.15-49.98 1.84-3.17 4.51-6.16 6.79-9.04-.44-1.63-.77-2.18-1.6-3.58-1.18-1.98-1.51-3.36-1.66-5.69 1.29-13.74 1.33-27.86 2.11-41.66 2.81-49.47 4.25-99.27 8.98-148.6-19.17-3.87-42.94-10.33-55.55-26.43 5.47-46.47 11.81-92.85 16.99-139.35l.77-6.14 2.17-16.62.66-6.01c4.52-43.78 11.18-87.32 16.56-130.99a6309 6309 0 0 1 11.23-86.6c4-30.63 6-63.12 17.8-91.94 7.4-18.09 21.34-33.89 36.34-46.13 7.57-6.16 16.5-11.82 26.35-13 1.94-1.62 2.55-2.85 3.49-5.18l-.77-1.19c-21.74 3.47-72.07 10.5-90.83-2.12-1.7-1.15-2.71-2.48-3.18-4.44 8.75-9.09 17.7-11.48 23.38-23.94-10.78 2.36-34.04 8.54-43.78 2.34l-.74-2.17c2.28-3.53 6.86-6.09 10.23-8.66 19.67-15.01 22.61-24.29 17.35-48.588-6.01-27.762-8.61-56.698-25.24-80.525"/><path fill="#FEFEFE" d="M1486.37 1335.19c2.6.88 5.95 1.93 8.08 3.64 1.73 1.39 1.71 2.06 2.05 4.11-2.8.94-5.02 1.97-7.99 1.17-2.13-2.6-1.91-5.72-2.14-8.92m37.52-36.89c9.39-4.19 34.44.06 45.28 2.01-10.15 6.01-20.25 12.95-31.71 16.09 4.17-2.84 8.34-5.53 11.99-9.05l.23-2.19c-2.2-1.88-2.43-1.85-5.34-2.11-4.34 1.72-7.05 5.07-11.57 6.62-.92-.27-.54 0-1.13-.82 3.62-2.22 7.75-4.35 10.93-7.15 1.51-1.32 1.11-.56 1.23-2.53-6.46-2.34-12.46.37-18.79-.61-.38-.06-.75-.17-1.12-.26m-26.9 140.88c4.63 11.58 13.19 23.04 19.8 33.7-4.58.55-9.48 1.5-14.09 1.34-2.66-.1-2.96-.18-4.63-2.06-.47-10.98-1.07-21.99-1.08-32.98m-51.94 384.15c.03.04.07.07.09.12.6 1.59 1.1 2.78 2.11 4.18.93 1.27 2.29 2.77 2.93 4.2.99 2.2.69 4.7-.02 6.93-1.02 3.22-3.35 5.56-6.39 6.96-5.79 2.67-9.97 2.44-15.89.49-3.04-1.96-7.35-4.54-9.25-7.67-1.11-1.85-.97-2.4-.56-4.37 4.46-4.32 20.07-7.57 26.98-10.84M1332.76 1845c2.22 1.88 4.61 12.51 6.44 16.02-2.64 3.16-5.28 6.28-8.86 8.4-5.6 3.31-10.53 2.37-16.54.87-5.74-5.07-7.99-10.02-10.8-16.94 10.65-.38 20.17-4.08 29.76-8.35m81.01 49.73c1.96-.08 3.97 0 5.9.31 11.07 1.75 21.43 5.98 28.04 15.27l-14.44 5.05c-8.55 2.11-20.87 6.06-29.08 1.93-.97-1.36-1.84-2.02-1.9-3.76-.21-6.46 7.25-14.34 11.48-18.8m119.97-34.62c7.06.6 18.6 3.19 23.1 9.4 1.66 2.3 1.42 2.94 1.07 5.59-4.02 4.72-14.84 6.99-20.69 8.9-6.66 2-13.53 2.99-20.38 4.14.66-6.12.42-14.58 3.5-19.98 3.01-5.28 7.87-6.45 13.4-8.05"/><path fill="#F6E5DB" d="M1485.83 1321.96c11.39-12.05 21.65-19.76 38.06-23.66.37.09.74.2 1.12.26 6.33.98 12.33-1.73 18.79.61-.12 1.97.28 1.21-1.23 2.53-3.18 2.8-7.31 4.93-10.93 7.15.59.82.21.55 1.13.82-9.28 5.52-18 2.85-28.26 3.9 2.34 2.97 9.63.51 13.66 4.85.83 2.66.93 3.24.38 5.97-2.88 2.85-5.71 2.24-9.21 3.48-3.53 1.25-.4 5.69-2.12 9.11l-2.25.44c-5.6-2.36-10.07-3.82-16.2-3.96l-1.58-.02z"/><path fill="#FEFEFE" d="M1394.55 1872.54c10.37 3.4 20.43 7.76 30.92 10.75 41.43 11.81 93 18.76 133.29.45.25-.11.51-.24.77-.36l1.2.57c-.04 2.8-1.2 4.53-2.57 6.87-26.56 18.03-75.5 14.67-105.05 7.3-14.16-3.53-28.2-13.35-43-9.1-5.29-2-12.32-3.45-16.2-7.61-1.1-3.56-.23-5.3.64-8.87m-115.63 23.94a78 78 0 0 0 2.2 1.14c32.03 15.7 95.99 32.28 131.65 29.05 12.61-1.14 23.9-5.46 35.77-9.41 1.7 2.06.85 4.26.65 6.86-9.53 7.6-22.3 10.28-34.18 11.47-25.67 2.57-115.5-12.79-135.21-28.87-1.47-2.8-.91-7.09-.88-10.24"/><path fill="#E2E3E2" d="M1387.21 1829.78c2.7 2.37 5.34 2.82 8.78 3.61-10.57 14.65-7.52 28.48-9.69 45.31-13.21-6.4-39.33-14.18-44.61-29.07-1.25-3.53-.9-6.9-.51-10.55 1.69-2.94 5.09-3.63 6.07-6.93 12.4-2.93 27.22-2.19 39.96-2.37"/><path fill="#F6E5DB" d="M1476.21 1367.62c20.64 10.47 44.44 16.12 63.94 28.17-3.77 5.57-6.95 10.26-9.36 16.59-3.84-.65-7.66-1-11.54-1.33-22.17.38-45.82-2.44-67.77-5.51 7.57-13.09 14.81-26.41 24.73-37.92"/><path fill="#FEFEFE" d="M1377.47 1709.93c4.97 37.34 8.14 82.04 9.74 119.85-12.74.18-27.56-.56-39.96 2.37 10.8-40.54 19-81.82 30.22-122.22m69.44-365.78c9.6 2.47 18.14 9.4 23.94 17.2a398 398 0 0 0-24.31 36.23c-4.96 8.26-9.43 17.5-15.42 25.04-2.95 3.7-5.59 6.25-9.9 8.25-8.97-2.22-17.09-6.74-25.05-11.29 12.55-28.93 26.2-54.7 50.74-75.43"/><path fill="#D3414A" d="m1407.55 1833.6 1.48.54c3.25 5.51 6.36 10.56 11.24 14.85 4.81 4.22 12.12 6.13 18.44 5.45 7.84-.84 11.44-5.78 16.21-11.38 2-2.34 2.5-3.25 5.63-3.51l1.32 1.37c-.27 1.46-.62 2.67-1.29 4-.65 1.29-1.46 2.61-1.91 3.98-.85 2.61-.75 4.34.35 6.77 7.42.58 5.37-9.43 11.55-11.98l1.85.82c1.29 4.04-.09 8.85-.77 12.96l.81 1.06c3.7-2.41 6.26-6.44 8.95-9.89 5.66 2.08 11.47 3.87 17.19 5.78-2.07 2.39-3.8 4.28-4.8 7.36l.83 1.57c.42-.04.84-.06 1.25-.13 4.39-.78 6.52-4.07 9.12-7.35 2.36.9 5.97 1.88 7.73 3.75 5.09 5.41-2.29 21.84-3.73 28.32-35.03-1.04-84.51-8.45-115.86-24.94 2.81-12.05 5.59-20.37 14.41-29.4m-114.16 21.09c3.47 1.62 7.07 10.88 9.74 14.35 3.92 5.1 8.47 10.24 15.3 10.85 11.05.98 20.47-6.74 28.63-13.07l1.74.32c1.52 3.67.57 9.22.4 13.17l2.7.58c2.18-2.5 3.86-5.65 5.64-8.45 2.78 1.33 8.82 3.24 10.15 5.86-1.57 2.54-2.74 4.41-3.14 7.44l1.15 1.45c.9.02 2.4.1 3.25-.15 3.22-.94 4.36-4.31 5.9-6.95l9.78 5.06c-1.05 3.31-2.61 6.27-1.47 9.62l2.2 1.01c2.67-1.19 3.09-3.3 4.42-5.81 2.56-1.04 7.25 1.53 9.95 2.54l2.75 1.08c1.16 4.19-4.89 12.37-6.02 17.09-.66 2.77-.6 5.98-.66 8.83-35.6-3.59-86.26-13.67-116.75-32.01.58-5.99 1.02-12.53 2.69-18.32 2.04-7.07 5.38-10.9 11.65-14.49m322.68-571.91c3.23 1.18 5.44 4.31 7.3 7.06 19.28 28.49 35.08 60.53 51.87 90.56 16.59 29.67 34.87 59.1 50.17 89.38-15.57 12.02-34.72 21.57-51.67 31.72a3391 3391 0 0 1-98.55 57.91c-13.9-24.27-26.67-49.1-40.93-73.2-13.55-22.9-29.13-44.85-40.11-69.15l13.11.8c20.15 31.3 38.87 62.78 56.66 95.51 4.97 9.88 9.57 20.71 16.88 29.07 25.24-12.37 49.41-29.13 73.52-43.67 18.03-10.88 38.39-20.86 55.09-33.56-1.04-12-81.87-143.82-93.43-166.62-27.11 13.08-53.37 30.11-79.39 45.25-8.91 5.19-25.04 12.61-32.34 19.07-2.29 2.02-1.5 4.25-1.39 6.99-1.48.74-.81.65-2.2.57-5.02-.29-7.55-1.43-10.84-5.29-3.11-3.64-2.45-6.52-2.1-11.01 18.19-6.23 33.74-17.05 50.09-26.87 12.2-7.32 24.93-13.74 37.23-20.88 13.61-7.89 26.87-16.78 41.03-23.64"/><path fill="#517579" d="m1450.57 1646.15 1.22-.04c1.75 2.12 1.43 4.13 1.38 6.84-.28 14.75-1.91 29.91-2.84 44.66-2.48 39.18-5.33 78.42-5.44 117.69-5.91 2.52-11.8 5-18 6.72-7.37 2.05-24.99 6.58-31.71 2.73l-.91-3.65a4570 4570 0 0 0-6.99-94.85c-1.01-12.47-4.11-26.09-3.6-38.51.43-10.38 4.4-21.4 7.1-31.42 20.1-.96 40.25-5.65 59.79-10.17m-151.42 8.12c27.47 4.72 54.39 4.81 82.14 3.4-12.33 53.86-24.5 108.17-38.66 161.58-1.1 4.48-2.74 8.84-4.24 13.21-16.63 10.38-30.56 14.38-50.11 12.23-.49-25.96 2.34-52.6 3.85-78.54 2.18-37.31 3.67-74.65 7.02-111.88"/><path fill="#D3414A" d="M1394.27 905.017c1.89 1.845 1.68 10.877 1.86 13.893.75 12.343 1.12 25.016-2.35 37.02-4.94 17.09-25.49 37.908-24.79 53.57.6 13.18 11.76 22.24 20.92 30.22-1.83 8.23-4.79 17.12-9.83 23.95-9.3 12.62-24.56 13.72-38.81 15.96 3.92-4.54 8.27-9.7 10.74-15.2-.52-2.73-.35-2.79-2.51-4.49-6.8 5.83-12.13 13.54-18.71 19.77l-16.39.87c6.02-5.32 12.94-11.98 15.17-19.91.71-2.57.64-4.39-.62-6.78l-1.74-.33c-4.49 2.63-7.13 10.27-10.79 14.33-3.65 4.04-8.33 7.13-12.75 10.27-4.78 2.73-13.15-.34-18.19-1.58 4.11-2.79 8.04-5.83 11.07-9.8 5.79-7.58 19.32-33.22 16.93-42.19-.67-2.5-1.76-2.7-3.88-3.65-7.31 2.2-5.42 14.85-9.91 20.25-5.11 6.13-22.28 7.66-30.19 9.14 5.1-4.56 9.82-10.19 13.59-15.91 12.73-19.28 4.83-38.515.55-59.08 37.09-23.05 73.84-46.788 110.63-70.323"/><path fill="#FEFEFE" d="M1436.18 791.052c8.2 6.235 29.08 38.259 36.41 48.475-11.34 8.872-23.57 16.975-35.3 25.352-47.14 33.658-95.81 64.403-144.75 95.331l-10.99 6.687c-5.64-22.437-9.16-36.14-19.89-56.804 15.97-14.907 36.53-27.435 54.55-39.899a2591 2591 0 0 1 119.97-79.142"/><path fill="#F6E5DB" d="M1469.4 851.742c1 .211 1.73.598 2.56 1.229 13.46 10.314 11.91 48.661 15.69 64.63 1.31 5.515 3.06 10.999 6.49 15.589 5.14 6.852 18.03 13.602 18.03 22.977 0 7.651-6.62 13.509-11.44 18.682 1.73 15.497 3.42 31.231.81 46.731-6.73 39.86-33.38 43.94-67.51 43.71-4.39-.04-10.83-.9-14.46 1.69l.31 1.93c2.42 3.13 4.43 3.68 8.17 4.74-.72 12.89.43 44.72-9.27 53.93-5.85 1.07-16.89-8.03-22.06-11.42-8.98-5.18-18.01-11.21-26.17-17.6 8.15-18.68 19.88-35.39 26.89-54.48 1.94.98 3.98 2.14 6.05 2.81 2.12.68 3.35.43 5.22-.73-1.46-8.16-26.12-17.52-30.59-32.8-4.17-14.26 11.79-29.493 17.98-41.452 10.57-20.429 11.64-49.276 4.66-70.964 22.67-16.539 45.51-33.341 68.64-49.202"/><path d="M1454.25 1009.38c3.89.71 7.1 3.1 10.55 4.92 12.11 6.4 16.94-.16 28.47-2.75l.89 1.05-.44 4.81c-.66.63-1.31 1.28-2.01 1.87-5.53 4.66-12.8 5.21-19.76 4.61-5.56-.47-13.13-2.52-16.51-7.43-1.9-2.77-1.45-3.99-1.19-7.08m2.24-126.25c1.9.413 3.27.955 4.97 1.886.09.68.42 1.369.27 2.04-.5 2.336-12.85 8.919-15.21 10.752-5.55 4.311-8.41 13.51-11.06 19.755-2.87-1.007-3.15-1.227-5.03-3.62-.76-4.141.5-6.95 2.48-10.488 5.12-9.151 13.37-17.472 23.58-20.325m.54 30.013c3 1.062 4.65 2.002 6.02 5.003 3.89 8.552 2.68 25.72-.84 34.507-2.9-1.175-4.64-2.124-6.03-5.053-4.93-10.373-2.51-23.959.85-34.457"/><path fill="#FEFEFE" d="M1612.83 1308.63a4057 4057 0 0 1 57.99 100.38c9.94 17.49 21.03 34.87 29.7 52.99-38.7 24.46-79.38 46.09-117.42 71.55a1871 1871 0 0 0-39.5-72.18c-8.3-14.16-18.12-28.11-25.42-42.76 6.12.01 26.87 2.69 29.29 2.02 4.61-1.26 7.8-.27 12.28.75l.98-.81c-4.45-4.72-20.91-7.5-27.41-8.15 2.23-2.43 4.59-5.2 7.39-6.97 7.76-4.93 26.55-12.35 35.79-14.16 9.71 4.31 13.98-4.86 18.95.51 2.37-2.62 3.76-5.9 7.06-7.17l2.98.56 1.44-1.16c.21-2.26.21-4.23-1.39-6.08-1.76-2.02-2.48-2.3-4.95-2.48-2.05 2.22-1.87 4.92-2.09 7.78-1.74 1.92-2.23 2.59-4.96 2.94-2.56.33-4.92-.58-6.78-2.26l-.38-.77c-2.7-.23-5.1-.42-7.81.03l-.61 1.28 1.9 3.39c-4.14 3.06-27.51 7.78-34.22 9.61 14.44-38.03 21.17-9.82 37.37-19.28-8.8-1.73-24.16-7.2-32.04-1.41-1.57 1.15-2.62 2.82-3.78 4.36-1.49 1.97-2.47 3.86-5.2 4.13-9.25.93-26.66-10.24-32.76-16.58 34.46-20 68.33-41.51 103.6-60.06"/><path d="M1633.04 1382.72c2.49.41 3.56.61 5.34 2.45l-.45 2.14c-6.37 7.16-17.05 11.53-25.5 15.89-2.73.49-3.06.66-5.56-.47l.2-1.77c6.03-8.41 17.04-13.43 25.97-18.24m-27.17 75.1c2.1-.05 3.13.59 5.02 1.43l.47 2.14c-4.57 7.29-18.38 13.49-25.88 17.91-2.52-.1-4.2-.85-6.21-2.27l-.15-2.24c4.77-7.22 19.05-12.84 26.75-16.97m55.13-31.01c2.3-.15 3.14.15 5.09 1.35l-.22 2.04c-5.69 7.98-19.44 14.22-28 18.88-2.89-.81-3.37-.83-5.3-3.07l.41-2.03c5.74-7.49 19.63-12.8 28.02-17.17m-50.79-85.93c2.72-.23 3.98-.46 6.43.97l-.02 1.77c-5.06 7.97-14.01 11.94-22.7 14.62-14.31-4.54-21.49-5.55-36-1.38 5.93 1.39 21.7 1.42 25.6 5.68l-1.36.19c-7.65-.19-7.08-.15-13.18 4.14-2.16 1.52-3.11 1.58-5.66 1.17-3.62-2.55-6.76-6.55-7.59-10.96.64-1.63.56-2.13 2.06-3.21 8.28-5.96 24.83-3.68 33.98-1.8 6.5-3.16 12.42-7.21 18.44-11.19m-34.34 58.77c5.86.48 17.64 6.8 22.07 10.69 2.4 2.12 2.93 3.53 3.02 6.67-4.26 5.83-6.05 1.69-11.68 2.62.79 1.65 1.52 3.32 2.26 5-.49 2.69-.37 2.71-2.48 4.41-4.62.58-9.4-1.19-13.86-2.33-5.36 3.51-11.53 7.69-17.77 9.37-3.09.84-3.83.56-6.58-1.03 5.41-18.86 30.83-9.58 36.9-13.93-1.69-4.95-8.47-5.79-9.8-11.18l1.13-.82c4.48 1.57 6.93 5.95 11.57 7.59-2.89-6.32-10.83-9.24-13.97-15.34-.29-.57-.54-1.15-.81-1.72"/><path fill="#FEFEFE" d="M1357.06 711.254c8.83-.886 17.78-.887 26.54.666 19.9 3.53 39.12 14.84 50.43 31.85 5 7.519 8.13 15.77 6.03 24.845-4.5 19.488-37 33.998-53.04 43.461-5.34-12.748-20.16-60.515-27.33-67.417-2.36.679-2.43.559-3.78 2.58-.28 8.243 20.48 58.789 24.72 70.085a2186 2186 0 0 0-59.36 40.184c-5.48-8.843-26-45.904-33.83-48.219l-1.54 1.373c-1 8.489 23.15 41.832 28.86 51.28l-28.3 19.772-17.87 12.62c-10.01-8.426-46.65-45.223-57.36-44.608l-1.29 1.529c4.26 9.597 41.69 38.083 51.99 48.093-2.62 1.973-5.24 3.948-7.97 5.769-9.92 6.628-42.33 23.454-53.88 20.026-3.88-1.152-6.43-4.555-8.17-8.052-2.84-5.711-3.82-12.573-5.85-18.649-5.5-16.474-14.92-26.631-7.78-45.234 7.66-19.972 25.5-28.662 38.77-43.865 12.81-14.674 15.52-34.829 27.37-49.677 20.81-26.07 52.8-14.295 79.58-25.713 12.6-5.371 20.64-17.147 33.06-22.699m.78 387.556 1.52.25c5.81 4.62 10.91 9.67 17.14 13.82 18.9 12.6 35.73 17.16 43.4 41.08 2.68 8.35 3.46 21.6 8.74 28.42 1.07 1.38 2.14 1.08 3.75 1.31l1.52-1.42c2.25-12.08-10.59-33.17-11.18-43.21-.29-4.94 2.45-7.76 5.28-11.47 3.17-4.14 4.05-8.98 5.34-13.95 5.66 3.5 11.06 7.63 16.5 11.49 8.68 17.52 13.82 38.3 18.71 57.19a1067 1067 0 0 1 24.56 122.34l-8.15 9.22c-8.26-51.3-6.64-129.28-35.54-172.67-2.04-3.07-4.78-7.59-8.62-8.39-1.78 3.36.19 8.21 1.61 11.49 5.41 12.53 11.35 23.4 15.41 36.65 16.95 55.33 15.25 122.91 24.36 180.46-11.12-13.21-29.22-27.98-46.23-31.81-10.61-36.02-17.48-73.13-24.81-109.94-3.11-15.59-4-32.54-9.89-47.4-3.73-9.39-9.98-18.02-18.31-23.83-8.29-5.78-19.46-8.89-29.49-6.77-3.08.64-5.32 1.56-7.08 4.18 3.3 4.49 20.45 2.48 29.04 7.34a43 43 0 0 1 17.72 19.52c7.12 16.08 8.5 37.36 11.89 54.64 6.65 33.94 13.41 68.07 22.76 101.39-9.81 2.31-20.25 6.1-26.45 14.49-.45 2.67-.52 2.79.71 5.18 3.93 2.22 18.49-12.8 29.9-12.1 2.56.16 5.86 1 7.55 2.94-3.82 6.36-10.98 11.3-15.84 17-13.21 15.48-22.56 32.72-30.54 51.3-6.25-4.42-11.27-10.36-16.16-16.17-25.19-31.4-46.7-75.39-52.2-115.42-2.52-18.35-2.5-37.35-2.19-55.84.14-8.91 1-18.3.19-27.16-.27-2.95-.81-5.07-2.31-7.61l-1.84-.31c-3.27 3.46-3.27 9.79-3.43 14.31-1.92 55.88-.49 92.32 23.7 144.15 6.83 14.62 14.66 29.36 24.09 42.46a161 161 0 0 0 14.84 17.94c3.25 3.34 7.73 6.9 10.43 10.6 1.65 2.26.34 4.56-.26 7.02 1.15 2.17 2.17 2.7 4.18 4.04 8.26 5.48 21.56 14.21 31.73 11.82 11.21-2.64 17.92-15.88 23.66-24.82a236 236 0 0 0 39.43 4.61c2.86 21.8 3.29 43.55 4.67 65.45 2.88 45.41 5.35 90.83 9.03 136.18-27.43 19.05-98.38 30.18-133.24 32.01-35.62 1.86-96.43-1.66-123.87-26.48 6.4-38.76 9.89-80.57 14.63-119.78a20870 20870 0 0 1 26.8-213.75l8.61-66.52c2.83-21.6 5.17-43.4 12.03-64.18 8.43-25.53 28.13-49.08 52.2-61.29"/><path d="M1468.85 1523.88c4.11-.27 7.76-.02 10.91 2.96 2.04 1.93 3.2 4.34 3.25 7.16.1 4.92-2.12 7.79-5.52 11.06-1.29.14-2.71.36-4.02.31-3.24-.13-5.79-.93-8.06-3.34-2.22-2.36-3.19-5.2-2.83-8.44.53-4.61 2.78-6.9 6.27-9.71m-18.78-244.95c1.13 0 1.79-.03 2.97.13 3.31.46 5.92 1.74 7.95 4.45 1.94 2.61 2.64 5.83 2.01 9.02-.85 4.32-3.33 6.39-6.83 8.75-1.11-.04-1.54-.04-2.74-.22-3.48-.52-6.97-2.03-8.89-5.18-1.58-2.6-2.14-5.1-1.55-8.07.88-4.49 3.37-6.52 7.08-8.88m15.57 179.81c4.68 0 8.83.56 12.3 3.99 2.37 2.36 3.48 4.71 3.4 8.12-.08 4.21-2.75 7.02-5.74 9.59-.29.04-.58.09-.87.11-3.85.35-7.18-.06-10.19-2.67-2.51-2.18-3.78-5.25-3.79-8.55 0-4.61 1.83-7.33 4.89-10.59m9.58 124.18c3.93.51 7.47 1.32 10.02 4.67 2.08 2.73 2.88 5.82 2.17 9.2-.92 4.33-3.2 6.3-6.8 8.6-2.29-.05-4.83.01-7.02-.72-2.47-.83-4.53-2.79-5.78-5.05-1.47-2.68-1.58-5.47-.68-8.33 1.44-4.58 4.12-6.14 8.09-8.37m-36.15-367.96c1.82-.06 3.7-.18 5.5.17 3.05.59 6.44 2.67 8.02 5.39 1.43 2.44 1.91 4.67 1.29 7.44-1.02 4.45-3.9 6.27-7.55 8.47-1.18.13-2.13.27-3.34.23-3.34-.12-6.71-1.39-8.8-4.12-1.71-2.23-2.16-5.03-1.77-7.74.69-4.62 3.15-7.01 6.65-9.84m-97.58 243.68a159.2 159.2 0 0 0 45.85 7.55c15.67.12 30.49-4.71 44.24-4.9 2.1-.03 3.15.39 4.98 1.34 5.5 6.5 5.07 55.31 4.44 65.67-.81 13.52-6.4 22.07-16.28 30.75-11.73 8.4-25.68 11.37-39.91 10.52-15.87-.95-33.6-6.42-44.23-18.82-12.92-15.07-9.82-33.5-8.29-51.63.7-8.22.92-16.53 1.75-24.72.73-7.09 1.84-11.18 7.45-15.76"/><path fill="#FEFEFE" d="M1343.24 1467.51c33.73 7.27 54.67 6.98 88.55.81.54 18.84 4.69 52.02-.7 69.02-1.68 5.28-4.57 9.04-8.09 13.19-.67.55-1.35 1.08-2.05 1.6-12.58 9.32-27.31 11.57-42.55 9.23-12.5-1.93-26.51-6.99-34.01-17.72-10.94-15.62-4.04-57.7-1.15-76.13"/><path d="M1382.95 1485.19c4.39-.05 9.3-.3 13.6.7 2.53.59 3.59 1.05 4.88 3.29-.72 2.35-2.61 3.33-4.52 4.69-4.52.07-9.48.34-13.87-.84-2.31-.62-3.11-1.12-4.18-3.21.75-2.33 2.24-3.17 4.09-4.63"/></svg>