<svg xmlns="http://www.w3.org/2000/svg" style="display:block" viewBox="0 0 2048 2048"><path fill="#FEFEFE" d="M0 0h2048v2048H0z"/><path d="m921.06 1031.32 1.934.75c3.535 4.86 1.47 18.52 1.169 24.82l-2.566-1.06c-3.461-4.47-1.226-18.9-.537-24.51m-14.493-2.84c1.868 2.04 2.848 3.12 5.521 4.05.553.2 1.116.36 1.674.54l.684 1.69c-1.317.37-2.584.73-3.674 1.61-1.674 1.36-2.53 3.51-2.717 5.62-.28 3.14.814 8.05 2.986 10.37 1.17 1.24 4.392 1.11 6.073 1.31-.884 1.29-2.096 2.39-3.556 3.04-2.015.89-2.824.33-4.548-.6-4.795-5.89-3.882-16.52-5.158-23.79zm54.285 316.02 1.274.61c1.662 3.13 1.21 7.68 1.258 11.16.065 4.79.721 16.87-2.579 20.23-1.404-1.43-1.423-1.07-1.756-3.25.105-5.03 1.636-16.73-1.16-20.78l-3.696 1.29-.773-1.22zm31.79-45.47c3.36-.28 8.218-.83 11.158 1.13 1.24.82 1.02 1.96 1.27 3.31l-1.22 1.01c-2.62-1.07-5.001-2.45-7.891-1.82-1.607 1.16-2.505 1.5-3.412 3.32-1.704 3.43-1.207 6.89.098 10.32 2.274 1.91 2.599 2 5.554 2.38 2.671-.39 3.761-.98 6.171.36l-.74 1.79c-2.32 1.38-4.079 2.2-6.827 2.28-3.29.1-5.674-1.26-7.878-3.6-2.172-2.31-3.03-5.58-2.789-8.68.403-5.2 2.729-8.42 6.506-11.8M809.556 651.196c5.33-.082 10.95-.641 16.104.871l.657 1.65-1.022 1.245c-2.816-.109-5.973-.537-8.663.423-1.395.498-2.137 1.702-2.634 3.061-.825 2.26-.447 4.45.712 6.377 3.314.852 5.493-.28 8.751-1.188l1.229.916-.176 3.019c-3.591-.16-7.234.064-10.827.162.028 4.33.853 11.097-2.071 14.429l-2.597-.49 1.939.12c-3.806-6.598-1.67-22.976-1.402-30.595m105.36 6.75c3.074.441 6.179.764 8.263 3.379 2.915 3.656 3.294 9.265 2.276 13.657-.549 2.371-1.235 4.762-3.346 6.156-2.363-4.221.582-11.004-1.308-15.641-1.308-3.208-2.935-3.595-5.763-5.136-7.537 6.729-4.151 12.514-6.154 21.248l-1.093-.348c-2.367-5.461-3.576-12.766-2.249-18.648.466-2.065.368-2.418 2.185-3.635l1.821 2.189zm-32.999.226c6.905 3.08 1 13.666 4.98 19.516 2.424.994 2.624 1.061 5.174.509 4.197-3.972 2.465-12.762 3.004-18.168l1.58-1.107 1.919 1.154.338 2.674c.095 6.285.525 12.683-.535 18.897l-2.157 1.014c-5.221-1.615-10.81-.616-14.842-4.692-1.926-5.596-.434-14.039.539-19.797m23.966 640.178c1.756.41 2.094.77 3.373 2.18.393.44.755.9 1.133 1.35 2.977-2.03 5.686-3.6 9.375-3.05 1.509 1.02 2.118 1.66 2.91 3.37 2.278 4.9 1.995 14.95.004 19.94l-1.381-.42c-1.838-3.65-1.783-6.46-1.615-10.42l.073-1.55c-.17-2.99.237-4.28-1.773-6.58-2.227-.16-4.439-.36-6.671-.18-3.697.3-.207 15.89-3.704 19.86l-1.526-.34c-2.32-5.86-1.477-17.98-.198-24.16m65.849-331.183c2.529.268 4.295.296 6.57 1.551l-.249 1.858c-3.375 2.95-6.396 3.685-10.688 4.781-.357 7.407.082 14.722.496 22.119-1.757-.221-3.389-.591-5.101-1.039-4.355-6.438-2.14-19.79-1.195-27.28 2.966-2.094 5.123.876 10.167-1.99M861.888 1290.03a38 38 0 0 1 7.26.42c2.999.46 4.851 1.21 6.642 3.66-2.858 3.4-13.177.4-17.936 3.27-1.948 1.18-3.067 2.8-3.389 5.06-.641 4.49 2.025 10.16 4.493 13.76 2.922 2.04 5.36 2.02 8.846 2.2 2.661-.44 4.961-1.28 7.302.23-.47.74-.551.99-1.362 1.59-3.473 2.56-8.915 3.14-12.932 1.89-3.678-1.15-6.618-3.61-8.372-7.05-2.404-4.71-2.157-10.72-.278-15.56 1.971-5.08 4.911-7.25 9.726-9.47m130.863-632.049c3.309.261 6.461.281 9.129 2.53 2.18 1.836 3.52 4.096 3.92 6.901-2.72 4.556-11.492 3.93-16.419 5.446l-.55 1.559c.384.418.763.842 1.153 1.256 3.496 3.723 6.018 3.272 10.746 3.373l1.42-.719.78 1.003-1.35 1.816c-2.486 1.191-4.194 1.807-6.986 1.498-3.139-.348-5.809-1.63-7.707-4.217-2.272-3.098-2.263-7.909-1.364-11.472 1.133-4.487 3.385-6.626 7.228-8.974"/><path fill="#FEFEFE" d="M993.788 660.441c1.281.334 2.052.485 3.313 1.069 2.388 1.106 3.489 2.468 4.299 4.856l-1.444 1.681c-3.011.019-7.256.606-9.751-1.165.279-3.036 1.708-4.094 3.583-6.441"/><path d="M966.603 658.01c1.647-.001 3.515-.075 5.127.281 3.637.804 6.482 3.983 8.495 6.921.017 2.845-.106 2.978-1.764 5.309-3.284.123-6.76.077-10.008.536-2.529.358-3.664.596-5.278 2.681.743 2.686 3.163 3.827 5.381 5.203 3.133.513 5.266-.614 8.078-1.792.629-.46.174-.233 1.524-.045l.183 2.011c-.517.759-.842 1.331-1.603 1.936-1.834 1.456-4.064 2.072-6.378 1.857-3.112-.29-6.776-1.595-8.671-4.184-2.445-3.34-2.427-7.747-1.574-11.632 1.011-4.604 2.548-6.602 6.488-9.082"/><path fill="#FEFEFE" d="M967.709 660.416c2.951.465 5.019 1.312 6.769 3.858.98 1.425.594 1.586.319 3.146l-2.05 1.418c-2.811-.03-5.678.344-8.08-1.334.137-3.09 1.438-4.485 3.042-7.088"/><path d="M1095.19 959.461c2.3.172 4.43.047 6.29 1.594.15 1.999.07 4.393 1.09 6.164.68 1.193 3.94 1.304 5.3 1.558l.89 1.735c-3.28 2.517-8.2 5.886-9.34 10.112-.63 2.329-.13 3.87.91 5.892 2.54 4.878 5.01 5.242 9.83 6.898-1.75 2.224-2.22 2.89-5.01 3.804-1.93.634-4.03.538-5.77-.55-7.79-4.878-3.16-15.424-4.7-22.77l-3.08-1.204c-1.15-3.517 2.38-4.598 3.51-7.592.43-1.135.06-4.29.08-5.641m-79.99 339.519c4.73-.25 7.47.06 11.51 2.57 1.85 2.62 2.53 4.07 3.09 7.22-2.39 6.94-10.54 1.32-16.01 4.74l.02-.76-.32 4.47c3.58 1.83 7.47 2.03 11.31 1.17.88-.93.28-.51 2.01-.87l.6 1.68-1.31 1.86c-2.08 1.13-3.59 1.84-5.99 1.97-3.2.18-7.05-.23-9.28-2.79-2.25-2.59-2.4-6.13-2.11-9.37.5-5.71 2.22-8.21 6.48-11.89"/><path fill="#FEFEFE" d="M1015.52 1302.4c3.33.29 5.26.56 8.04 2.47 1.03 2.4 1.1 2.23.19 4.67-3.05.06-6.1.42-8.98-.76-.98-2.81-.22-3.63.75-6.38"/><path d="M911.342 702.48c4.478-.272 10.034-1.068 14.047 1.43 2.837 1.766 4.291 4.06 5.123 7.256-.52 2.372-.611 3.44-2.374 5.235-3.222 3.282-7.846 2.833-12.086 2.874.043 3.689.954 11.215-1.284 13.854l-1.66-.35c-3.942-7.046-1.866-22.139-1.766-30.299"/><path fill="#FEFEFE" d="M915.977 705.359c3.102.072 5.335.139 8.209 1.522 1.697 3.098 1.358 4.56 1.288 8.034-2.917.693-5.429 1.621-8.359.508-1.896-2.601-1.211-6.92-1.138-10.064"/><path d="M936.553 1299.09c2.678-.37 6.283-1 8.912-.05 3.23 1.17 6.117 4.55 7.408 7.68.862 2.08.651 2.41-.164 4.36-4.05 2.14-8.382 1.24-12.782 1.79-2.079.25-2.463-.04-3.787 1.71.257.7.527 1.59 1.006 2.17 1.795 2.19 3.05 2.09 5.637 2.29 2.898-.11 6.062-.75 8.377 1.19-2.028 2-4.076 2.59-6.848 2.92-4.011.47-7.115-.02-10.25-2.7a10.44 10.44 0 0 1-3.732-7.98c-.021-5.66 2.372-9.49 6.223-13.38"/><path fill="#FEFEFE" d="M939.796 1301.49c2.21.67 4.611 1.42 6.373 2.98 1.591 1.42 1.834 1.42 1.91 3.61l-1.978 1c-3.167.06-7.441.72-10.072-1.18.46-3.05 1.818-4.07 3.767-6.41"/><path d="M959.21 702.462c2.46.096 4.066.447 6.34 1.393l-.104.986c-4.249.061-8.928-.251-12.166 2.903l.236 1.885c1.345 1.138 2.534 1.992 4.099 2.831 2.869 1.541 6.157 3.018 7.992 5.869 1.263 1.962 1.939 3.959 1.232 6.278-.825 2.707-3.152 4.702-5.55 6.03-5.607 3.106-14.064 3.501-20.09 1.48-3.181-1.067-6.002-3.131-7.412-6.238-2.501-5.511-.436-12.996 1.725-18.291 2.245-1.802 4.104-3.399 7.013-3.702-1.591 4.202-3.308 8.453-4.386 12.819-1.032 4.18-1.22 6.96 1.018 10.767 1.79 1.38 2.969 2.073 5.198 2.371 2.431.326 3.095-.057 4.993-1.546.268-.21.525-.435.787-.653 3.158.941 5.615 1.666 8.923 1.378 2.387-1.123 3.067-2.018 4.41-4.266-1.182-9.359-13.594-9.866-15.868-18.105l1.626-2.256c3.443-1.613 6.214-1.777 9.984-1.933m103.07 265.15c1.84.182 2.99.255 4.6 1.251.39.246.74.588 1.16.783 2.34 1.073 4.13-.026 6.45-.717 1.08-.321 2.15-.684 3.26-.906 2.25-.449 3.96.098 5.81 1.368 2.7 1.853 3.17 6.594 3.48 9.597.56 5.369.47 12.782-3.11 17.139l-1.65-.279c-2.71-4.96-2.06-9.688-1.81-15.098 0-.306.01-.613-.01-.919-.22-3.355-1.03-4.459-3.5-6.477-2.25-.052-3.42-.123-5.23 1.57-5.36 5.017-3.24 14.173-3.84 20.722l-1.57.981-1.99-.56c-4.6-6.331-2.3-20.837-2.05-28.455m-226.809-1.274c.636.181 1.325.228 1.906.542.864.466 2.219 2.174 3.475 2.186 3.62.035 6.789-3.372 10.906-2.077 2.444.769 4.67 2.869 5.786 5.153 2.934 6.004 2.545 16.927.03 22.985-.793 1.909-.835 2.269-2.782 3.104-3.113-4.752-1.927-13.831-1.857-19.385-.59-2.447-.948-3.583-2.77-5.351-2.066-.665-3.639-1.397-5.833-.997-7.262 1.325-2.511 19.905-5.916 25.022-2.418.35-2.532.142-4.7-1.053-.628-7.382-2.255-23.875 1.755-30.129m203.639 1.825c.91-.094 1.83-.197 2.75-.247 3.44-.191 6.82-.042 9.43 2.534 2.83 2.798 5.12 6.901 5.01 10.912-3.47 4.666-12.46 2.322-17.89 3.479l-.76 1.554c.96 2.279 1.96 3.308 3.81 4.928 3.26 1.095 5.37.859 8.73.33l.49-1.006 1.35-.463 1.17 1.381c-.24 2.087-.02 2.098-1.44 3.915-1.47 1.881-3.15 3.158-5.68 3.075-4.31-.14-9.83-3.608-12.37-6.972a14.02 14.02 0 0 1-2.65-10.634c.88-5.907 3.36-9.287 8.05-12.786"/><path fill="#FEFEFE" d="M1041.91 971.392c1.1.29 2.39.575 3.39 1.118 2.3 1.256 3.35 3.143 4.29 5.463-1.03 1.75-.25 1.072-2.59 1.68-3.22.02-6.33.476-8.94-1.52.15-2.877 2.1-4.634 3.85-6.741"/><path d="M932.983 648.17c2.465 1.279 2.534 1.347 3.743 3.847-.27 2.868-.65 4.975.745 7.64 3.103-.213 6.452-.557 9.545-.229 2.699.287 4.171 1.481 5.879 3.515 1.973 5.311.421 11.319-1.822 16.321-6.597 4.197-10.939 3.282-18.293 2.42-.314-11.199-.11-22.319.203-33.514"/><path fill="#FEFEFE" d="M939.089 661.632c1.954.036 3.884.004 5.743.722 2.183.843 4.035 2.792 4.598 5.097.924 3.783-.778 7.693-2.484 10.958-2.331.37-4.501.908-6.798.098-1.765-.623-3.313-2.964-3.683-4.744-.825-3.975.362-8.845 2.624-12.131"/><path d="M784.586 956.263c3.571.031 6.637.086 10.074 1.111 1.111 2.227 1.108 3.234.752 5.681-4.036.594-8.116.051-12.159.635-4.017.58-8.82 2.209-11.124 5.787-1.422 2.208-1.482 5.067-.946 7.567 1.061 4.952 3.524 10.751 8.187 13.292 5.001 2.725 11.685.389 16.649-1.158-.044.908-.086 2.476-.287 3.324-.563 2.369-2.146 3.949-4.351 4.902-4.557 1.971-9.641.97-13.944-1.171-5.74-2.856-10.24-7.737-12.256-13.86-1.611-4.892-1.703-10.09.955-14.636 3.736-6.39 11.616-9.824 18.45-11.474m246.194-308.739 1.12.993c2.74 5.817 1.86 27.924-.27 33.997-5.87-.438-11.2.686-16.86-1.296a50 50 0 0 1-1.26-1.848c-2.56-3.964-3.33-8.492-2.23-13.109.69-2.891 2.07-5.689 4.92-6.99 3.57-1.627 7.04-.046 10.44 1.167l1.31.476c1.66-1.601 1.55-8.96 2.31-11.678.17-.573.34-1.141.52-1.712"/><path fill="#FEFEFE" d="M1018.96 661.49c2.38.071 4.64-.05 6.78 1.155 1.67.939 3.21 3.834 3.42 5.735.46 3.934-.94 8.221-3.26 11.337-2.34-.171-5.12-.182-7.17-1.44-2.08-1.273-3.69-3.763-3.95-6.175-.47-4.306 1.55-7.467 4.18-10.612"/><path d="M963.166 1298.86c4.466-.17 12.744-.39 16.41 1.81 2.443 4.88 1.021 15.13 1.205 20.83l-1.285 1.3-2.052-.8c-2.803-.65-4.761.28-7.474.85-3.34.71-6.62.74-9.555-1.15-1.562-2.18-2.249-3.74-2.517-6.45-.703-7.1.788-11.02 5.268-16.39"/><path fill="#FEFEFE" d="M965.511 1302.64c2.109 0 4.702-.2 6.634.76 1.853.92 3.332 3.05 3.672 5.06.667 3.96-1.184 7.69-3.25 10.89-1.59.03-3.566.21-5.113-.14-2.53-.56-3.487-2.02-4.819-4.07-1.051-5.02.277-8.2 2.876-12.5"/><path d="M872.436 968.172a95 95 0 0 1 4.358-.465c3.758-.286 9.39-.284 12.086 2.86 2.268 2.644 2.513 6.482 1.854 9.711-4.975 6.185-11.609 2.632-18.039 5.391.3 2.436.832 2.872 2.494 4.608 2.73 2.85 6.927 2.457 10.589 2.574 1.664-1.045.666-.736 3.102-.45l.45 1.618-1.814 2.149c-3.451 1.526-6.451 2.139-10.221 1.337-3.946-.839-7.22-3.284-9.364-6.671a17.65 17.65 0 0 1-2.22-13.336c1.04-4.481 2.973-6.819 6.725-9.326"/><path fill="#FEFEFE" d="M877.398 971.937c1.16.17 3.007.305 4.133.792 2.24.969 3.161 2.497 4.272 4.549l-.888 1.719-3.165.554c-1.798.113-4.106.467-5.866.162-2.41-.418-2.783-.763-3.911-2.803 1.377-2.658 2.949-3.523 5.425-4.973"/><path d="m981.181 967.274 5.472 1.092.835 1.93c1.534-.515 3.081-1 4.609-1.532 3.327-1.16 4.97-1.76 8.513-1.153 1.96 1.445 3.54 2.877 6.04 3.15 2.85-1.386 6.56-3.587 9.83-3.495 2.83.079 4.09.874 5.54 3.219 2.87 4.629 3.23 17.324 2.14 22.79-.55 2.739-1.22 2.768-3.46 4.222l-1.63-.465c-2.38-4.83-.79-13.115-1.74-18.639-.48-2.803-1.39-3.789-3.6-5.403-2.1-.09-3.39.03-5.27.948-.55.273-1.1.561-1.66.842-.15 6.981.63 15.46-1.48 22.101-1.94.427-2.83.307-4.7-.328-2.511-5.821.09-14.377-1.616-21.015-1.182-1.236-1.477-2.086-3.281-2.315-2.583-.328-4.867.575-6.705 2.422-3.355 3.372-1.801 16.101-1.819 21.063l-2.175.677-1.929-1.095c-4.246-7.454-2.168-20.586-1.914-29.016m-171.167-.205c2.359-.094 4.727-.2 7.044.381 3.726.936 6.942 3.68 8.772 7.013 2.138 3.897 2.538 8.285 1.213 12.521-1.664 5.322-4.968 8.414-9.774 10.961-2.579.056-5.338-.018-7.803-.888-3.837-1.353-7.089-4.589-8.855-8.202a15.44 15.44 0 0 1-.554-12.473c1.912-5.013 5.289-7.106 9.957-9.313"/><path fill="#FEFEFE" d="M811.669 971.67c2.896.647 5.647 1.565 7.531 4.022 1.774 2.313 2.301 4.896 2.051 7.747-.359 4.096-2.814 6.794-5.769 9.347-2.366-.57-4.604-1.096-6.39-2.887-2.509-2.516-3.508-5.85-3.217-9.329.343-4.095 2.745-6.512 5.794-8.9"/><path d="M941.29 966.833c3.418.519 6.599 1.317 9.116 3.846 3.437 3.452 5.42 8.794 5.176 13.644-.208 4.127-2.135 8.096-5.42 10.658-3.782 2.951-8.966 1.61-13.284.824-.38-.069-.758-.153-1.138-.229l-.176 1.673c.087 2.682.684 6.411-.604 8.821-.69 1.3-.841.88-2.479 1.15l-1.57-1.18c-3.87-9.592-2.606-26.537-1.316-36.811 2.373-1.398 6.626.367 11.695-2.396"/><path fill="#FEFEFE" d="M937.62 972.479c2.567.043 5.225.147 7.319 1.833 2.221 1.789 3.281 4.253 3.622 7.021.515 4.176-1.127 7.716-3.584 10.925-1.965-.083-4.244-.047-5.992-1.062-2.103-1.22-3.276-3.556-3.88-5.811-1.134-4.235.427-9.262 2.515-12.906"/><path d="M897.316 966.677c1.913.208 3.147.626 4.801 1.562l1.726.996c1.625-.085 3.036-.232 4.591-.746 1.221-.404 2.668-1.065 3.943-1.229 2.673-.344 5.27 1.546 7.16 3.265 2.922 2.657 4.757 6.23 4.834 10.21.092 4.711-2.226 9.518-5.472 12.852-3.925 4.029-8.262 3.576-13.491 3.456l-.492-.3c-2.533 1.353.06 14.237-2.67 18.267-.92 1.36-1.896 1.04-3.381 1.23-3.403-3.63-1.634-42.907-1.549-49.563"/><path fill="#FEFEFE" d="M906.584 972.505c2.151.074 5.33.008 7.091 1.294 1.989 1.452 3.397 3.652 3.653 6.148.431 4.196-1.221 8.072-3.497 11.444-3.049.218-4.582.28-7.47-.985-1.301-1.459-2.214-2.554-2.766-4.481-1.196-4.175.768-9.919 2.989-13.42"/><path d="M1686.29 1538.97c8.64-.48 29.4 5.98 36.69 11.11 5.04-1.82 10.31-4.07 15.53-5.24 4.17-.94 7.63-.76 11.23 1.63 4.07 5.9 1.62 33.65 1.91 42.88 9.74-3.13 23.78-11.43 33.72-11.18 2.85.08 5.04 1.05 6.93 3.22 4.93 5.67 3.23 15.45 2.92 22.28 8.42-2.8 17.07-6.16 25.74-8 2.95-.62 5.42-1 8.03.65 2.8 33.12.86 71.6.83 105.17-.03 50.3 1.1 101.12-1.06 151.37-13.51 7.99-48.87 18.62-65.14 24.59a7130 7130 0 0 0-138.91 52.5c-14.11 5.49-28.78 12.49-43.77 14.8-7.56 1.16-14.46.59-21.79-1.52-14.72-4.23-81.15-37.34-94.13-46.68-1.24-29.25-.2-58.99-.24-88.28l-.23-176.14c7.79-4.49 16.79-7.42 25.07-10.94 22.42-9.53 45.04-18.47 67.61-27.62 43.26-17.53 85.89-36.79 129.06-54.6"/><path fill="#FEFEFE" d="M1689.08 1549.05c5.36-.41 14.83 4.65 20.54 6.19-17.73 8.54-37.78 14.47-56.17 21.61-51.09 19.86-102.6 38.42-152.96 60.12l-5.9 3.46-11.48-6.17c28.61-12.17 57.72-23.11 86.26-35.46 39.3-17 79.18-35.97 119.71-49.75m90.01 39.91c3.18.06 3.63-.17 6.1 1.75 1.94 4.66 1.06 10.4.89 15.37-14.71 7.21-30.31 12.72-45.63 18.5l-76.89 28.39c-17.3 6.48-45.79 20.18-62.89 23.18-10.8 1.9-23.78-1.21-34.92-1.36-2.79-.41-6.23-.4-8.42-2.33 1.13-2 1.94-2.25 4.03-3.2 4.97-2.27 10.56-3.36 15.69-5.3l47.95-18.02c51.38-18.92 103.01-37.27 154.09-56.98m-216.36 95.72c10.61.21 21.12.77 31.71 1.54.76 24.97 1.57 238.67-.11 243.16-.34.91-1.03 1.65-1.55 2.47-2.91 1.15-5.83 2.16-8.87 2.92-6.33 1.58-14.55 3.17-20.42-.32-.08-.47-.4-2.26-.37-2.68.03-.5.24-.99.36-1.49-2.14-3.29-.75-217.54-.75-245.6m175.63-129.81 1.93.77c3.66 8.11 1.68 27.54 1.62 36.87-20.04 8.4-40.71 15.13-61.18 22.4-43.82 15.57-93.39 32.66-135.6 51.3-7.56-3.04-14.84-7.55-22.03-11.41l-18.52-9.43c31.82-14.56 65.41-26.21 98.09-38.68zm-263.27 87.63c23.29 8.01 54.55 26.46 77.13 38.18a18384 18384 0 0 1 .62 250.39c-26.31-11.98-53.39-25.08-78.2-39.89l-.59-152.05c0-32.19-.37-64.47 1.04-96.63"/><path d="M1492.31 1732.51c13.02 4.95 31.19 11.16 41.71 20.35 1.35 3.17.79 3.75-.07 6.98-9.87-1.28-34.4-13.85-42.33-20.38-.85-3.02-.21-4.01.69-6.95m1.46 42.47c9.03 2.33 34.73 13.15 40.25 20.59.62 2.98.37 3.49-.67 6.4-8.72-2.13-36.04-14.44-41.25-21.16-.55-2.99.07-3.19 1.67-5.83m-1.48-85.2c10.48 3.58 35.04 15.1 43.92 21.59 1.01 3.16.47 3.64-.62 6.67-10.95-.87-35.26-13.41-43.96-20.43-.96-3.25-.2-4.62.66-7.83"/><path fill="#FEFEFE" d="m1817.5 1607.06 1.93.08c2.35 5.04-.12 215.61-.17 240.11-30.65 11.89-61.94 22.2-92.75 33.71-39.66 14.81-79 30.62-118.8 45.07-.75.1-1.51-.17-2.26-.29-2.14-6.61-.7-49.86-.7-59.64l.2-181.03 136.73-51.29c25.15-9.34 50.03-19.3 75.82-26.72"/><path d="M1707.22 1697.27c3.2-.26 6.65-.11 9.79.61 8.06 1.84 14.76 6.55 19.13 13.58 7.32 11.79 6.7 23.75 3.47 36.62.4-.08.8-.15 1.19-.24 4.02-.93 7.57-1.84 11.75-1.67 8.73.36 17.43 3.12 23.23 9.95 6.7 7.9 8.85 19.71 7.58 29.77-1.73 13.8-10.3 26.61-21.34 34.88-7.83 5.86-17.12 10.07-27.09 8.52-9.5-1.46-16.98-7.72-22.57-15.18-2.86 8.96-6.22 15.83-11.86 23.36-5.72 6.24-12.63 11.78-20.29 15.41-8.75 4.14-18.7 5.78-27.93 2.21-9.13-3.54-16.55-11.17-20.37-20.13-4.59-10.77-3.39-22.68.9-33.35 6.77-16.8 19.64-26.67 35.78-33.56-2.45-4.55-4.68-9.28-5.6-14.41-2.29-12.8 2.21-25.77 9.75-36.07 8.73-11.92 20.13-18.02 34.48-20.3"/><path fill="#EF767B" d="M1745.23 1754.19c6.04-.44 10.91-.33 16.45 2.37 5.78 2.83 9.79 7.55 11.83 13.64 3.22 9.66 1.4 20.11-3.4 28.9-5.89 10.79-14.28 17.35-25.9 20.96-5.88.27-10.48.19-15.75-2.69-9.48-5.19-12.43-15.67-14.98-25.38a75 75 0 0 1 2.75-8.12c5.7-13.88 15.09-23.9 29-29.68"/><path d="m1738.14 1806.48-.46.76c-3.81.03-6.04-1.48-8.76-4.11-2.24-2.18-3.18-4.86-3.18-7.97.01-7.54 4.98-15.39 10.11-20.55 4.47-4.49 9.66-7.92 16.15-7.83l.74 1.38c-3.18 1.82-6.76 3.53-9.59 5.84-2 2.64-4.04 5.26-5.91 7.99 1.36 1.74 2.69 3.44 3.92 5.28l3.38 5.85c-1.72 2.37-2.75 4.57-5.9 5.14-1.8.33-3.83.24-5.67.25z"/><path fill="#EFCBD2" d="M1737.24 1781.99c1.36 1.74 2.69 3.44 3.92 5.28l3.38 5.85c-1.72 2.37-2.75 4.57-5.9 5.14-1.8.33-3.83.24-5.67.25-.51-7.31.04-10.51 4.27-16.52"/><path d="M1752.74 1768.16c1.81 3.57 3.49 7.33 5.62 10.72 1.77 2.67 2.03 5.13 1.48 8.36-.69 4.03-3.32 8.05-6.69 10.32-1.12.75-2.31 1.32-3.54 1.87-.57 2.43-.48 3.65-3.01 4.81-2.57 1.17-5.76 1.15-8.46 2.24l-5.17-7.97c1.84-.01 3.87.08 5.67-.25 3.15-.57 4.18-2.77 5.9-5.14l-3.38-5.85c-1.23-1.84-2.56-3.54-3.92-5.28 1.87-2.73 3.91-5.35 5.91-7.99 2.83-2.31 6.41-4.02 9.59-5.84"/><path fill="#D09997" d="m1743.15 1774 7.29 5.82c-3.46 2.26-6.41 4.47-9.28 7.45-1.23-1.84-2.56-3.54-3.92-5.28 1.87-2.73 3.91-5.35 5.91-7.99"/><path fill="#F29E9F" d="M1752.74 1768.16c1.81 3.57 3.49 7.33 5.62 10.72-2.15 1.89-2.39 2.75-5.32 2.64l-2.6-1.7-7.29-5.82c2.83-2.31 6.41-4.02 9.59-5.84m-8.2 24.96c1.36-3.09 2-4.13 4.86-5.94l2.22-.2.86.91c-2.1 4.24-4.2 6.64-2.87 11.54-.57 2.43-.48 3.65-3.01 4.81-2.57 1.17-5.76 1.15-8.46 2.24l-5.17-7.97c1.84-.01 3.87.08 5.67-.25 3.15-.57 4.18-2.77 5.9-5.14"/><path fill="#EF767B" d="M1704.51 1706.28c6.31-.5 12.25-.16 17.86 3.05 5.62 3.22 9.11 8.34 10.55 14.6 2.18 9.55-.22 20.08-5.38 28.29-6.62 10.56-14.52 14.06-26.01 16.94-6.89.19-13.37-.06-19.6-3.44a20.15 20.15 0 0 1-9.91-12.24c-2.51-8.48.09-17.74 4.24-25.26 6.51-11.8 15.58-18.28 28.25-21.94"/><path d="m1705.74 1746.93 4.23 2.17c1.63 2.67 1.37 3.74 1.38 6.82-1.78.63-2.34.69-4.14.63-1.94-2.82-1.39-6.24-1.47-9.62"/><path d="M1683.3 1736.7c2.23-3.78 4.65-7.52 7.48-10.88 3.31-3.93 7.69-6.78 12.88-7.14l1.13 1.05c-1.88 1.48-3.88 2.94-5.6 4.6-2.41 2.31-2.03 4.02-2.08 7.12l.94.53c7.41-1.83 14.48-11.3 20.84-10.55 2 1.66 2.98 2.54 3.39 5.21 1.28 8.52-2.36 17.76-7.3 24.5l-1.31-.48c.36-1.73.6-3.22.68-5-3.66-.7-7.76.47-10.84-1.87-3.88-9.73 11.7-10.63 14.13-18.62-1.15-2.13-.32-1.45-2.3-2.25-2.42 6.43-15.17 12.13-19.94 19.44-1.21 1.86-1.92 2.38-1.4 4.57l4.24 1.82c-.56 2.25-3.03 3.27-4.89 4.61.76 2.33 1.43 4.62.35 6.82-1.77-.56-1.72-.32-3.05-1.52-5.79-5.25-6.57-14.66-7.35-21.96"/><path fill="#D09997" d="m1697.11 1731.45.94.53c-2.67 2.96-3.66 7.09-6.14 10.22-1.3 1.65-1.46 1.97-3.59 2.23-1.54-1.65-1.73-2.66-2.07-4.86 1.33-3.16 3.02-4.73 6.21-6.19 1.52-.7 3.11-1.29 4.65-1.93"/><path fill="#EF767B" d="M1670.53 1777.15c5.76-.76 11.92-.22 17.56 1.15 5.71 1.4 10.66 5 13.43 10.23 4.42 8.37 3.65 19.06.62 27.74-5.32 15.27-15.98 24.68-30.23 31.26-7.02 1.34-12.63 1.69-19.38-1.24-5.86-2.54-9.97-7.45-12.24-13.34-4-10.41-2.52-22.45 2.34-32.29 6.06-12.27 15.29-19.1 27.9-23.51"/><path fill="#F29E9F" d="M1666.27 1795.21c-.27-.44-1.15-1.79-1.28-2.24-.61-2.12.23-2.93 1.05-4.76 2.47-1.32 3.26-1.24 6.09-1.22l3.52 3.8c-1.43 2.42-1.53 3.44-4.41 4.09-1.53.35-3.39.27-4.97.33"/><path d="M1678.58 1788.16c3.29-.39 5.34.15 7.98 2.25 3.53 2.79 5.12 6.23 5.63 10.6l-.79 2.32c-3.39 1.36-7.38 1.02-9.82 3.6.2 2.39.09 3.71 1.52 5.73 2.44-1.65 3.99-5.02 6.83-5.09 1.92 2.78 2.35 4.96 1.64 8.21-1.39 6.44-6.35 10.9-11.89 14.05-5.08 2.88-12.64 5.53-18.52 3.93-3.03-.83-4.68-2.53-6.16-5.26.2-3.56 2.55-7.39 1.87-10.59 1.44-4.28 3.49-6.77 7.1-9.41 1.77-3.7 4.06-5.2 7.36-7.51 3.17-1.01 3.58-1.16 5.71-3.69-3.32-2-7.01-1.86-10.77-2.09 1.58-.06 3.44.02 4.97-.33 2.88-.65 2.98-1.67 4.41-4.09z"/><path fill="#D09997" d="M1663.76 1830.6c-2.07-.16-3.2-.36-4.98-1.45-.85-1.97-1.87-3.46-.86-5.65 1.17-2.55 2.56-2.75 4.98-3.45.34 3.5.78 7.03.86 10.55"/><path fill="#F29E9F" d="m1677.04 1797.3.91.58.58-.52 1.75 3.45c-.62 1.58-1.21 2.89-2.11 4.35-.8 1.31-1.14 2.15-1.48 3.63l-2.4-.4-1.87-2.28c-3.36-.77-5.38.96-8.45 2.39 1.77-3.7 4.06-5.2 7.36-7.51 3.17-1.01 3.58-1.16 5.71-3.69"/><path fill="#D09997" d="M1678.58 1788.16c1.5 1.71 1.36 2.01 3.62 2.61 3.16.85 6.32 3.69 7.84 6.55.15 1.81.49 1.45-.57 2.71-1.33 1.57-2.62 1.91-4.49 2.59-2.19-1.67-4.22-3.69-6.45-5.26l-.58.52-.91-.58c-3.32-2-7.01-1.86-10.77-2.09 1.58-.06 3.44.02 4.97-.33 2.88-.65 2.98-1.67 4.41-4.09z"/><path fill="#F29E9F" d="m1674.29 1808.39 2.4.4c-.74 3.67-1.03 8.2-3.8 10.9-3.14 1.37-5.43 1.18-8.8.93l8.92 4.82c3.11-1.83 8.46-6.24 11.81-6.42-.94 3.21-3.02 6.35-6.12 7.89-4.09 2.03-10.4 3.02-14.94 3.69-.08-3.52-.52-7.05-.86-10.55 2.86-4.23 7.71-7.98 11.39-11.66"/><path d="M85.297 1207.05c30.893-1.43 62.408-.1 93.375-.09l185.991.05 169.09.07c31.32.03 63.159-1.11 94.394.83 3.089 7.13 1.09 63.14 1.062 75.34 11.327-8.19 48.96-37.37 60.138-40.62 2.599-.76 3.643-.74 5.932.63 3.387 13.16 1.479 50.35 1.566 65.71 15.019-.01 117.351-2.05 123.279 1.89.945 2.6.875 3.05.348 5.78-4.06 3.37-87.114 1.8-99.284 1.77-6.538-.02-17.353-1.55-23.28.44-.309.11-.593.28-.89.41.048 12.65 1.766 64.57-3.03 72.82-9.276-2.15-53.721-37.82-64.375-45.42-.516 19.29 2.084 75.77-1.605 90.06-6.074 2.75-125 .69-141.494.74l-261.701-.21-89.071.07c-16.849.01-34.042.82-50.816-.59-.989-15.46-.285-31.39-.383-46.92l-.427-95.81c-.029-18.36-2.148-72.07 1.18-86.95"/><path fill="#F29E9F" d="M686.955 1253.11c2.966 5.68.753 111.02.328 125.15-15.627-11.49-31.415-22.64-46.834-34.42-12.83-9.63-25.98-18.86-38.94-28.32 12.207-10.77 26.024-20.13 39.234-29.65 15.304-11.03 30.528-22.27 46.212-32.76"/><path fill="#FEFEFE" d="m95.97 1216.48 336.63-.3c62.011.05 124.557-1.72 186.484.69.473 24.36.723 48.89-.224 73.23-6.247 5.41-27.181 17.84-28.553 24.67 1.46 6.78 23.076 20.39 29.597 25.3a4609 4609 0 0 0-.166 64.66l-.259 23.91-526.464.01-.06-155.39c.033-11.85-1.52-45.81.857-55.79z"/><path d="M440.713 1357.32c1.663.57 3.285 1.17 5.021 1.47 2.127.36 3.443.64 5.309 1.76.162 3.29-1.886 5.46-3.544 8.28-2.316 3.93-1.637 8.02-1.446 12.42l-.201 3.83c-1.151 1.19-2.043 1.93-3.378 2.86l-1.144-.4c-3.376-5.85-.98-23.3-.617-30.22m-59.023 1.41c1.515-.75.613-.57 2.759.03l.709 2.25c-2.172 3.95-5.858 1.2-7.75 4.34-3.898 6.49 2.927 16.86-2.663 23.28-1.095-.53-2.567-.88-3.174-2.01-2.642-4.88-1.94-21.22-.773-26.92 1.279-.32 2.27-.46 3.587-.28 2.144.3 3.637.63 5.75-.11.523-.18 1.036-.39 1.555-.58m21.156-2.17c2.184 1.12 3.29 1.82 4.699 3.85-1.543 3.28-5.503 3.47-8.502 5.41-6.296 4.08-1.458 13.02-3.146 19.2-.624 2.29-1.594 2.24-3.513 3.42-1.213-1.48-1.772-2.09-2.075-4.01-.803-5.06-1.796-21.69.905-25.51a30 30 0 0 1 3.67 1.87c.383.23.76.47 1.14.71zm-61.84-94.03c.309.35.668.66.926 1.05 2.084 3.12 1.569 34.73.795 39.81-.43 2.82-.988 2.75-3.257 4.27l-1.548-1.37c-2.212-5.57-2.028-34.38-.442-40.59.555-2.17 1.666-2.11 3.526-3.17m120.594 95.52c3.703-.07 7.357.25 10.584 2.18l-.024 1.84-1.615 1.16c-3.017-.11-5.811-.44-8.672.72l-.66 2.05c3.411 3.86 10.499 7.72 12.317 12.42.633 1.63.509 3.19-.572 4.57-2.186 2.79-5.783 4.04-9.07 4.85-3.773-.6-6.717-1.33-10.185-2.96 1.475-1.16.948-1.04 2.49-1.39 3.815-.86 8.216-1.15 10.741-4.34-2.513-5.79-10.653-6.51-12.507-13.46 1.218-4.27 3.515-5.45 7.173-7.64m-72.511-94.65c1.682.17 3.052.56 4.646 1.12 3.285 4.6.847 22.2 1.865 28.87l1.053.42a59 59 0 0 0 2.433-2.67c2.62-3.11 3.023-5.26 2.64-9.26-.031-.33-.073-.65-.11-.97.816-.37 1.29-.62 2.102-.9 2.657-.91 6.854-2.04 9.458-.75l-.088 1.82c-3.691 3.91-6.469 7.88-9.344 12.39.711 4.75 5.48 8.19 5.715 13.02-8.137 2.61-7.096-7.44-13.054-9.28l-1.445 1.78c.024 2.46-.014 4.62-.445 7.06l-2.023 1.27-1.611-.83c-4.211-8.23-1.913-32.72-1.792-43.09m29.995 94.63c3.99-.03 7.942-.34 10.998 2.74 3.393 3.42 3.422 9.28 3.899 13.8-6.067.12-15.032-1.39-19.732 3.07l1.05 2.24c5.649 2.95 8.285 3.58 14.532 2l.666-.58 1.091.54c-.249 2.88-.437 2.82-2.505 4.9-3.354 1.19-6.091 1.01-9.57.27-3.814-.81-7.4-2.77-9.406-6.23-2.293-3.95-2.086-8.92-.605-13.11 1.879-5.32 4.579-7.35 9.582-9.64"/><path fill="#FEFEFE" d="M419.93 1361.61c2.587.38 4.507.77 6.284 2.88 1.645 1.95 1.682 2.58 1.231 4.86l-2.197.97c-1.716.05-3.477.15-5.19.04-2.355-.16-3.351-.22-4.941-2.1.688-2.98 2.723-4.59 4.813-6.65"/><path d="M311.022 1266.05c5.454-.36 11.767-.69 16.193 3.27 1.957 1.75 1.59 3.35 1.569 5.7l-1.386 1.3c-2.921-1.08-5.932-2.29-8.99-2.9-3.998-.8-8.983-.69-12.306 2-2.982 2.41-3.448 6.21-3.38 9.77.093 4.89.796 9.4 4.61 12.76 3.396 2.99 6.475 4.04 10.934 3.81 2.063-1.26 3.785-2.5 6.285-2.61 1.705-.07 1.312.06 2.762 1.21l-.103 2.22c-.911 1.23-1.774 2.25-3.075 3.1-3.814 2.48-8.244 3.47-12.689 2.29-5.52-1.47-10.463-5.78-13.187-10.74-2.903-5.28-3.337-11.42-1.372-17.1 2.587-7.48 7.195-10.89 14.135-14.08m52.364 11.06c2.768-.08 5.525.01 8.161.98 3.67 1.34 6.499 4.57 8.105 8.04 1.946 4.21 2.044 8.81.239 13.09-2.059 4.87-4.859 6.5-9.656 8.35-2.902.09-5.791.18-8.586-.74-4.127-1.35-7.393-4.87-9.069-8.81a15.26 15.26 0 0 1 .157-12.57c2.323-5.1 5.577-6.5 10.649-8.34"/><path fill="#FEFEFE" d="M363.361 1281.92c3.873.39 6.61.72 9.385 3.81 1.867 2.08 2.47 4.9 2.307 7.61-.248 4.13-2.758 7.17-5.734 9.73-3.781-.38-6.615-.8-9.065-4.06-1.986-2.63-2.889-5.69-2.3-8.98.694-3.87 2.313-5.85 5.407-8.11"/><path d="M269.458 1346.46c1.224.3 2.31.52 3.48 1.05 5.893 2.63 15.947 32.96 18.504 39.93-2.058 1.32-.966 1.12-3.247.76-3.263-2.6-4.491-5.98-7.077-9.03-2.117-2.5-4.059-1.87-7.06-1.96a611 611 0 0 0-11.795.26c-.835 2.24-1.638 4.57-2.725 6.7-1.162 2.27-2.73 3.52-5.13 4.34l-1.328-1.19c-.175-2.31-.114-4.15.556-6.38 1.065-3.54 13.888-31.99 15.822-34.48"/><path fill="#FEFEFE" d="M271.125 1354.69c.181.28.378.55.542.84 2.202 3.87 7.371 12.51 6.075 16.75l-2.493.41c-3.673-.01-6.104.63-9.16-1.51-.882-5.24 2.954-11.6 5.036-16.49"/><path d="M308.658 1357.84c5.004.44 7.651 2.18 11.819 4.8 1.518-.77 2.619-1.57 3.929-2.62 7.739-6.18 9.318 3.18 15.04 3.9 3.422-2.68 6.786-6.01 11.422-5.93 3.192.06 6.539 1.5 8.818 3.72 2.85 2.78 4.117 6.8 4.154 10.71.043 4.37-1.584 9.53-4.875 12.55-2.371 2.18-5.185 3.29-8.405 2.93-4.9-.55-7.468-3.3-10.392-7l-.778-1.01c.038 3.94.274 7.9.235 11.83-.031 3.14-.612 6.71-2.929 8.99l-1.533-.75c-2.074-4.3-1.445-8.8-1.291-13.46.17-6.55 1.786-16.28-1.887-21.94-1.641-1.03-2.772-2.17-4.847-1.66-10.313 2.52-4.985 17.62-9.539 24.86l-1.441.32c-3.304-6.58 1.18-15.95-3.083-22.14-1.58-2.29-2.61-2.56-5.114-3.13-11.09 3.92-2.081 17.68-6.65 24.95-2.272.29-2.441.63-4.589-.45-.924-8.84-.979-19.06.32-27.86l1.907-.96c2.225.87 2.584 1.88 4.037 3.71 1.948-1.39 3.799-2.87 5.672-4.36"/><path fill="#FEFEFE" d="M346.862 1362.71c.45.05.9.08 1.349.13 3.33.38 5.501.87 7.672 3.73 1.895 2.49 2.684 5.27 2.2 8.39-.63 4.07-2.638 6.05-5.773 8.35-2.675-.59-5.431-1.47-7.545-3.28-2.301-1.98-3.73-4.32-3.662-7.46.097-4.52 2.775-6.9 5.759-9.86"/><path d="M84.302 555.06c17.447-.763 35.161-.175 52.635-.172l99.317.023 296.968.023c12.956.001 92.307-1.386 95.049 1.107 3.949 15.904 1.368 68.159 1.367 88.005 11.053-7.395 55.175-41.358 65.4-39.861 3.952 4.416 1.965 57.342 1.95 66.786l61.113.049c10.163.027 21.636-.819 31.649.772 3.254.518 5.453 1.762 7.481 4.4l-.598 1.121c-9.145 5.449-85.109 3.171-99.406 3.249l-.192 23.964c-.228 12.141 2.291 35.425-1.441 46.032l-1.986.546c-15.826-4.623-48.31-33.646-64.133-44.318-.37 30.369.751 61.045-.813 91.349-13.109 1.164-26.618.519-39.778.507l-64.637.071-220.09.233-166.458-.01c-10.169-.028-43.936 1.596-52.27-.677-3.445-12.65-1.44-32.137-1.453-45.703l-.07-74.212-.144-77.979c-.035-14.926-.918-30.466.54-45.305"/><path fill="#F29E9F" d="m687.219 615.811.821.268c2.901 6.119.196 106.254.028 122.918a3911 3911 0 0 1-48.451-35.875l-37.637-27.273c26.073-22.305 56.742-40.965 85.239-60.038"/><path fill="#FEFEFE" d="M92.956 564.124c108.924-1.114 217.95-.014 326.882.037l122.603-.069c25.807-.025 51.774-.6 77.55.695l.063 86.093c-7.157 6.127-15.471 10.945-23.251 16.239-2.938 2-5.679 3.829-6.392 7.551 1.967 7.554 22.837 19.465 29.561 24.244l-.019 61.586-.041 28.866c-20.32.758-40.819.174-61.159.255l-129.307.336a28041 28041 0 0 1-336.472.022 17630 17630 0 0 1-.018-225.855"/><path d="M430.96 706.734c4.262.086 8.291.117 12.475 1.062l.262 1.279a150 150 0 0 0-6.357 3.156c-1.667 4.947-.635 11.793-.488 17.019.13 1.507-.051 2.733-.252 4.223-1.5 1.284-1.613 1.957-3.66 1.939-3.96-4.31-2.092-22.462-1.98-28.678m-26.258-14.364 3.141 1.26c3.589 7.654 1.241 32.644.918 41.85-1.375-.403-2.613-.967-3.923-1.539-3.016-7.398-2.025-33.503-.136-41.571m13.075 1.878 3.176.492c3.993 4.577 2.042 33.058 1.926 40.437-1.858-.374-3.509-.965-5.277-1.642-1.881-8.92-.522-29.745.175-39.287m60.443 11.996c4.831-.349 8.279-1.087 12.347 2.053l-1.174.995 1.087-1.467c-3.404 3.644-9.67 2.32-12.548 6.142 1.794 3.989 9.413 7.146 12.633 10.913.265 1.134.924 2.512.445 3.632-1.564 3.655-5.863 5.586-9.332 6.883-4.217-.431-6.994-1.424-10.759-3.456 2.288-1.83 6.596-1.441 9.493-2.452 2.166-.756 2.299-.682 3.374-2.807-1.188-1.88-.622-1.431-2.262-2.553-2.456-1.682-6.803-3.776-8.516-6.252-1.552-2.243-1.249-3.207-.889-5.709 1.901-2.497 3.498-4.155 6.101-5.922m-77.171-88.734c1.201.07 2.831.042 4.033.323 5.02 1.175-.045 5.736 2.975 7.98 2.688 1.996 5.333-.557 7.823 3.073l-.531 1.877c-1.993.296-3.936.71-5.903 1.147-1.395 1.258-2.346 1.743-2.969 3.592-1.128 3.344-.267 8.27 1.76 11.211 1.84 2.668 4.285 2.554 7.201 3.173.394.698.35 1.753.434 2.55-1.905 1.536-3.372 2.118-5.906 1.917-2.333-.185-4.19-1-5.789-2.735-7.388-8.014-3.54-23.403-3.167-32.949zm-30.192 88.776 3.944 1.231c3.019 4.995 1.023 10.569 1.535 16.021.218 2.322 1.528 4.47 3.665 5.512 2.39 1.165 3.793.744 6.119.037 4.534-4.71 3.417-14.477 3.586-20.603 1.785-1.83 1.472-1.366 3.815-1.422 2.104 2.132 1.468 3.807 1.551 6.688.013 5.56 1.96 16.784-1.013 21.313-2.521-.457-2.902-1.619-4.527-3.47-1.777.159-1.184-.099-2.594.736-2.251 1.334-4.349 3.034-7.148 2.73a10.2 10.2 0 0 1-6.61-3.545c-4.248-5-2.407-18.644-2.323-25.228m82.859-.176c3.186.112 5.572.536 8.63 1.44 2.15 1.891 3.553 3.621 4.238 6.427.659 2.699.577 4.802-.75 7.277-2.039 1.233-3.263 1.234-5.555 1.124-2.84-.138-5.529-.084-8.363.115l-.922 1.482c.671 2.465 1.568 3.437 3.373 5.213 3.526 1.515 7.496 1.063 11.265.986.122 2.449.144 1.833-1.251 3.499-2.705.865-4.857 1.414-7.714 1.039-4.025-.527-8.269-2.657-10.363-6.269-1.767-3.048-1.606-6.358-.852-9.661.103-.452.219-.902.323-1.354.491-2.125.882-4.396 1.651-6.44 1.009-2.679 3.889-3.682 6.29-4.878"/><path fill="#FEFEFE" d="M453.328 710.817c1.071-.059 2.644-.192 3.688-.043 2.105.302 3.332 1.774 4.595 3.304-.01 2.305-.073 2.132-1.703 3.795-3.326.097-6.479.329-9.731-.535-.105-2.939 1.502-4.184 3.151-6.521"/><path d="M426.966 626.037c1.353-.103 2.686-.211 4.043-.183 4.171.088 7.499 1.242 10.292 4.443 2.377 2.726 3.846 6.163 3.584 9.791-4.314 5.027-12.878 1.316-18.832 2.976-.353 1.891-.599 1.256.499 2.817 2.55 3.624 5.626 3.79 9.685 4.43 2.029-.56 3.868-.874 5.965-1.054l1.508 1.288c-.175.246-.315.52-.524.737-2.479 2.566-9.127 3.251-12.502 2.973-3.414-.282-6.698-1.603-8.848-4.361-2.763-3.546-3.769-10.331-2.651-14.621 1.183-4.539 4.109-6.634 7.781-9.236"/><path fill="#FEFEFE" d="M429.906 629.637c.554.092 1.111.17 1.663.277 2.85.552 4.74 2.269 6.149 4.769.894 1.586.729.998.15 2.694l-2.618.612a169 169 0 0 1-3.819.119c-2.844.033-4.133.084-6.145-1.845.637-2.941 2.598-4.558 4.62-6.626"/><path d="M314.092 624.988c1.161.266 1.791.382 2.974.801 3.302 1.168 5.315 2.888 6.581 6.123 2.562 6.542 3.026 14.659.162 21.119-1.898 1.558-1.719 1.634-4.14 1.426-2.634-7.002 1.76-15.727-2.325-22.677-2.531-1.739-3.198-2.333-6.34-2.646-8.575 5.366-1.784 18.8-6.01 25.037-2.609.074-3.114.397-5.17-1.135-.503-5.29-.26-10.687-.237-15.997-.366-1.576-.788-3.655-1.828-4.959-1.753-2.199-3.13-2.15-5.646-2.238-9.845 5.31-3.289 15.442-6.079 23.808l-1.968.715c-1.983-.913-2.96-1.157-3.495-3.564-1.062-4.783-.82-21.219 2.038-24.616 1.396.418 2.345.835 3.609 1.614.404.249.798.516 1.196.774 1.919-1.504 3.663-2.465 5.888-3.456 4.269.017 7.368 3.038 11.029 4.968a123 123 0 0 1 9.761-5.097m-58.295-9.508c1.554.14 2.989.444 4.512.767 5.17 5.343 13.74 29.506 15.576 37.108-2.076 1.289-2.374 1.338-4.825 1.32-3.086-2.355-3.45-5.727-5.282-8.92-1.202-2.094-1.302-1.991-3.559-2.55-2.87-.14-7.551-.859-10.198.308-2.539 1.118-3.808 3.442-4.454 5.966-.416 1.621-.631 2.657-1.648 4.043-2.246.189-2.815.758-4.678-.657l-.176-3.041.98 1.05-.873-.947c2.992-11.231 9.083-24.194 14.625-34.447"/><path fill="#FEFEFE" d="M257.952 624.817c2.556 3.33 4.502 8.297 4.561 12.509l-1.547 1.142c-3.218-.313-4.986.131-7.331-2.189-.38-3.67 2.695-8.202 4.317-11.462"/><path d="M280.685 707.126c2.761-.131 5.66-.344 8.413-.052 3.536.376 7.061 3.266 9.107 6.053 2.228 3.034 3.207 6.602 2.369 10.322-1.223 5.43-4.303 8.188-8.876 10.961-1.715.243-3.493.517-5.229.488-3.719-.061-7.408-1.953-9.839-4.723a14.16 14.16 0 0 1-3.413-10.624c.541-5.662 3.071-9.073 7.468-12.425"/><path fill="#FEFEFE" d="M284.57 710.721c3.268.72 5.849 1.228 7.962 4.132 1.636 2.249 2.328 4.868 1.887 7.61-.668 4.145-2.682 6.065-5.878 8.415-3.396-.643-5.507-1.216-7.764-3.982-1.731-2.123-2.491-5.184-2.082-7.866.623-4.089 2.669-6.077 5.875-8.309"/><path d="M345.722 707.145c2.773-.356 6.221-.798 8.962-.197 3.667.805 7.046 3.721 8.978 6.855 2.015 3.268 2.362 7.107 1.265 10.774-1.464 4.895-4.653 7.323-8.878 9.829-1.847.252-3.721.521-5.585.575-3.671.106-7.377-1.587-9.831-4.296-2.588-2.857-3.653-6.682-3.205-10.479.715-6.056 3.698-9.375 8.294-13.061"/><path fill="#FEFEFE" d="M348.311 710.854c3.507.057 6.162.111 8.705 2.963 1.894 2.124 2.428 4.322 2.359 7.107-.102 4.121-2.2 6.64-4.994 9.322-3.09-.021-5.867-.02-8.322-2.178-1.756-1.543-2.744-3.368-2.874-5.709-.275-4.968 1.96-7.961 5.126-11.505"/><path d="M326.339 694.326c1.726.223 3.321.624 4.997 1.083l1.019 1.862c-.505 8.592 2.058 30.334-.539 36.472l-3.271.59c-.833-.898-1.645-1.759-2.549-2.587-3.776 1.755-6.873 2.945-11.035 3.354-3.101-1.503-5.388-2.603-7.24-5.621-2.542-4.141-2.65-9.951-1.071-14.437 1.254-3.561 3.807-6.9 7.447-8.234 3.829-1.403 6.707 0 10.145 1.578l1.106.52c1.557-4.164.906-10.092.991-14.58"/><path fill="#FEFEFE" d="M315.911 710.81c2.583.048 5.729.109 7.819 1.822 1.88 1.54 3.175 4.451 3.229 6.861.099 4.5-1.535 7.977-4.733 10.989-1.961.041-4.378.105-6.191-.739-2.209-1.029-3.839-3.243-4.355-5.591-1.099-5.002 1.248-9.545 4.231-13.342"/><path d="M372.243 613.638c4.056 3.873.403 8.753 2.512 13.278 4.633-.518 11.606-1.53 15.322 1.904 2.743 2.535 4.06 6.571 4.112 10.218.083 5.921-1.172 10.313-5.39 14.506-.133.023-.268.041-.4.069-4.681.98-7.058.683-11.541-1.111-2.132-.854-4.095 1.926-6.808 2.369l-1.548-1.336c-1.752-7.404-1.808-27.903-.114-35.804.573-2.671 1.633-2.732 3.855-4.093"/><path fill="#FEFEFE" d="M376.722 630.85c1.982.012 4.406-.007 6.28.625 2.166.731 3.834 3.15 4.576 5.198 1.472 4.059-.363 9.346-2.431 12.882-2.466.16-5.394.536-7.673-.681-2.186-1.167-3.287-3.187-3.866-5.507-1.052-4.211.93-9.044 3.114-12.517"/><path d="M334.335 614.253c2.5.373 3.139.437 5.131 1.941.875 2.475.859 3.946.525 6.578-.033.258-.396 2.622-.333 2.998.705 4.187 13.119-.2 16.946 2.586 2.977 2.166 3.535 5.311 3.9 8.764.724 6.847-.128 10.975-4.343 16.406-7.003 1.967-9.154.614-15.288-2.645-1.122 2.058-1.677 3.327-3.81 4.424l-2.368-.762c-2.637-11.742-.569-28.129-.36-40.29"/><path fill="#FEFEFE" d="M344.237 630.857c1.872.135 4.036.22 5.788.978 2.154.931 3.909 3.164 4.54 5.389 1.321 4.661-.478 9.148-2.95 13.018-3.128-.076-6.242-.149-8.821-2.214-1.973-1.579-3.291-3.977-3.362-6.529-.122-4.386 1.86-7.636 4.805-10.642"/><path d="m227.429 696.498 4.643.325c6.309 3.754 11.356 22.015 14.132 28.889 2.996-6.998 8.968-26.503 15.48-29.305l1.989 1.319c4.485 8.698 3.448 24.9 2.983 34.746-1.878 2.019-1.921 1.735-4.719 1.877-2.554-4.63-1.264-14.306-1.217-19.638-.1-1.675-.347-3.319-.569-4.982-3.468-.315-8.659 21.863-13.607 24.926-6.018-3.496-10.922-19.222-13.756-25.65-.386 7.571.26 18.596-4.274 24.916l-1.534-.242c-3.24-7.597.027-27.933.449-37.181M93.26 878.474l342.116.147 120.578-.37c24.009-.084 48.363-1.023 72.326.514 2.363 3.696 1.061 66.919 1.058 76.682 17.554-12.817 36.128-28.217 55.08-38.748 3.156-1.753 7.149-3.959 10.843-2.943 3.215 4.139 1.136 53.582 1.168 62.574 13.289-.03 30.615-1.894 43.503.456 3.185.581 6.157 1.304 8.039 4.119l-1.01 1.762c-9.144 4.667-39.085 2.425-50.627 2.396-.08 19.217 2.543 67.297-1.156 82.867l-1.88.94c-4.08-.53-6.963-2.8-10.282-5.03-18.338-12.2-35.533-26.03-53.688-38.49l-.027 64.43c-.016 12.43 1.252 26.63-1.353 38.75-2.532 1.1-4.928 1-7.618 1.03-119.588 1.53-239.391.33-359.003.28l-115.367-.06c-20.179-.01-41.398 1.36-61.41-.88-1.11-10.61-.487-21.85-.467-32.53l.142-59.37c.041-50.534-1.473-101.509.074-151.985.058-1.877.435-2.919 1.252-4.57 2.836-1.911 4.351-1.716 7.71-1.971"/><path fill="#F29E9F" d="m686.298 925.973.657.398c2.228 4.039.77 114.219.844 129.679a1930 1930 0 0 1-52.696-37.24c-13.041-9.22-26.543-18.34-38.4-29.065 16-12.472 32.905-23.86 49.492-35.535 13.368-9.41 26.436-19.261 40.103-28.237"/><path fill="#FEFEFE" d="m611.5 887.484 8.022.038c.086 24.82-.433 49.634-.195 74.457-9.595 6.801-20.666 13.766-29.205 21.821-2.36 2.227-3.555 4.027-3.595 7.385 3.063 7.942 25.473 21.365 33.416 27.225-.432 33.94.193 67.9-.365 101.85-18.794.87-37.842.35-56.668.4l-101.734.25-322.676-.07-45.377-.05c-1.6-77.56-.33-155.355-.083-232.945z"/><path d="m424.45 964.73 3.149.391a20.8 20.8 0 0 0 3.918 2.852c3.009-1.596 5.645-3.274 9.13-3.46 1.845 1.395 1.759 1.245 2.099 3.532-2.357 2.316-5.601 2.046-8.52 3.217-1.848.742-2.494 1.897-3.241 3.62-.244.561-.464 1.132-.696 1.699-.002 1.054-.022 2.108-.017 3.162.014 2.58.223 5.304-.127 7.873-.401 2.936-1.679 5.46-3.926 7.375-3.96-5.179-2.26-23.448-1.769-30.261m-48.479-11.49c1.963.167 3.556.544 5.426 1.161 2.445 8.205.587 29.768.527 39.201-2.047-.156-3.646-.454-5.584-1.136-1.717-12.475-.45-26.57-.369-39.226m80.633 77.48c1.799.19 3.553.5 5.339.8 3.059 5.32 1.105 34.08 1.028 42.01-1.916-.15-3.087-.42-4.803-1.29-4.211-8.31-1.712-31.38-1.564-41.52m-32.727 13.47c3.376.34 6.851.25 9.702 2.28.618 2.19.865 1.55-.362 3.82-2.78.05-5.442-.52-8.166-1-2.341.83-2.507.37-3.752 2.69 3.102 4.71 10.769 6.56 14.926 10.97.397 1.32 1.067 2.32.489 3.68-1.604 3.76-6.333 5.99-9.928 7.38-3.997-.08-7.867-.76-10.841-3.59l.005-1.91c3.256-1.51 7.051.28 10.633.14 2.01-.08 1.996-.01 3.374-1.59-1.364-8.07-8.913-5.39-13.523-10.87-.69-3.31-.2-5.41.67-8.65 2.246-2.54 3.559-2.49 6.773-3.35m-117.642-79.929c3.221.584 4.364 2.17 7.705 2.438l-.748.225c2.434-.816 5.474-2.154 8.01-2.442 2.67-.304 5.23.548 7.205 2.401 3.313 3.109 4.305 7.389 4.395 11.785.107 5.259-.732 11.718-4.575 15.591-3.383-4.362-2.225-12.116-2.267-17.509-.535-3.221-.719-3.555-2.905-5.987-2.664-.903-4.226-1.665-7.045-.546-7.451 2.959-2.395 15.669-4.528 21.455-.525 1.425-1.498 1.409-2.781 1.968l-1.504-1.434c-2.662-8.208-1.195-19.409-.962-27.945m147.568.778c4.392-.298 9.994-.743 13.52 2.371 2.315 2.045 5.028 7.052 5.117 10.108.186 6.376-17.571 2.102-21.631 5.503.414 1.982 1.562 3.706 3.266 4.908 2.848 2.007 4.778 1.348 8.019 1.104 2.863-.442 4.252-1.066 6.927.158l.334 1.682c-.207.276-.381.581-.622.828-2.439 2.509-7.228 3.462-10.613 3.128-3.885-.385-7.784-2.821-10.114-5.911-2.465-3.27-3.219-7.348-2.547-11.348.968-5.766 3.696-9.219 8.344-12.531"/><path fill="#FEFEFE" d="M456.979 968.585c1.004.18 1.923.306 2.891.589 3.02.88 4.787 3.066 6.143 5.786l-.775 1.538-2.988.555c-3.631.106-7.652.705-10.567-1.678.623-3.081 3.084-4.761 5.296-6.79"/><path d="M292.114 1044.05c3.928.25 8.389.34 11.475 3.17 3.567 3.28 3.783 8.62 4.419 13.12-5.326.07-11.439-.95-16.633-.01-2.18.4-2.528.77-3.781 2.42.744 2.38 1.66 4.03 3.886 5.37 2.734 1.64 6.368.69 9.314.18l1.822-1.25 1.805.52.17 2.1c-.914 1.36-1.625 2.3-3.147 3.07-3.401 1.72-7.936 1.24-11.442.09-3.677-1.2-6.606-3.75-8.092-7.34-1.779-4.3-1.279-9.51.649-13.68 2.108-4.55 4.982-6.13 9.555-7.76"/><path fill="#FEFEFE" d="M290.667 1048.7c3.5-.03 6.511.04 9.141 2.73 1.503 1.53 2.118 1.76 2.307 3.98l-2.335 1.17c-3.605.04-8.818.81-11.942-1.14-.211-3.15 1.106-4.16 2.829-6.74"/><path d="M259.332 1032.13c3.066-.03 6.184.04 9.117 1.06 2.475.86 5.434 3.25 6.348 5.78.93 2.57.801 3.25-.274 5.54l-2.122.2c-1.643-1.81-3.503-4.19-5.446-5.65-1.892-1.43-4.636-1.96-6.958-1.54-2.629.47-4.878 2.07-6.427 4.2-3.134 4.3-4.14 10.04-3.227 15.24.654 3.72 2.532 7.31 5.772 9.4 3.882 2.49 7.235 1.81 11.481.94 2.055-2.29 2.267-3.37 5.42-3.62l.986 1.78c-.128.45-.22.9-.385 1.34-1.065 2.79-3.346 5.02-6.013 6.34-3.317 1.64-6.889 1.51-10.282.21-5.929-2.28-11.209-7.38-13.44-13.35a21.16 21.16 0 0 1 1.156-17.35c3.214-6.08 7.945-8.58 14.294-10.52m103.095 12.05c3.58.37 6.636.62 9.271 3.41 3.574 3.79 4.787 12.77 4.26 17.75-.292 2.76-1.013 5.82-3.266 7.6-4.522 1.21-13.112 1.32-17.566-.17-2.789-.93-3.844-2.94-5.244-5.29-.01-1.29-.085-2.72.089-4.01 1.598-11.86 12.807-4.45 18.7-9.16l-.475-2.38c-1.565-1.84-2.636-3.08-5.165-3.38-2.784-.34-5.159 1.75-7.308 3.23-1.454 1.01-1.612.75-3.309.71l-1.386-2.69c3.18-3.27 7.007-4.83 11.399-5.62"/><path fill="#FEFEFE" d="M359.23 1060.45c2.632-.18 5.681-.75 8.127.42 1.363.66 1.228 1.48 1.634 2.78-.866 2.72-1.967 3.96-3.832 6.04-1.815-.02-3.912-.01-5.624-.65-2.373-.89-3.349-2.68-4.113-4.88 1.094-2.16 1.726-2.39 3.808-3.71"/><path d="M399.918 965.112c2.604.001 5.535-.132 8.036.656 3.805 1.199 6.741 4.366 8.369 7.92 1.682 3.669 1.735 7.732.259 11.483-1.896 4.819-4.789 6.857-9.37 8.926-2.568.01-5.515.193-7.997-.523-3.708-1.07-6.878-4.433-8.496-7.828-1.733-3.636-1.819-7.67-.381-11.425 1.902-4.966 4.884-7.077 9.58-9.209"/><path fill="#FEFEFE" d="M400.601 969.655c2.335.123 4.742.261 6.765 1.599 2.457 1.626 4.052 4.652 4.212 7.572.251 4.58-1.525 7.748-4.566 10.964-2.975-.261-5.999-.392-8.33-2.503-2.138-1.936-3.085-4.278-3.193-7.118-.164-4.306 2.341-7.556 5.112-10.514"/><path d="M279.786 965.03c2.562-.06 5.238-.235 7.785.074 3.513.426 6.983 3.549 8.828 6.436 2.212 3.463 2.802 7.498 1.685 11.452-1.623 5.749-4.995 8.202-10.102 10.813-2.307.122-4.723.248-7.019-.08-3.71-.53-7.129-3.321-9.045-6.44-2.1-3.42-2.647-7.387-1.662-11.268 1.43-5.635 4.646-8.249 9.53-10.987"/><path fill="#FEFEFE" d="M279.835 970.002c3.35-.261 6.293-.602 9.143 1.634 2.271 1.782 3.206 3.862 3.467 6.686.399 4.318-1.8 7.514-4.565 10.522-2.799.214-5.793.389-8.213-1.301-2.227-1.555-3.273-3.764-3.647-6.389-.577-4.055 1.517-8.02 3.815-11.152"/><path d="M394.15 1044.07c2.913.04 5.803.26 8.504 1.48 3.918 1.76 6.78 5.64 7.955 9.69a14.52 14.52 0 0 1-1.327 11.2c-2.429 4.31-5.859 6.07-10.458 7.4-2.55.04-5.414-.13-7.862-.91-3.563-1.14-6.592-4.61-7.974-7.99a15.15 15.15 0 0 1 .615-12.59c2.448-4.84 5.604-6.49 10.547-8.28"/><path fill="#FEFEFE" d="M393.821 1048.72c2.745.27 5.568.76 7.714 2.66 2.316 2.04 3.566 4.87 3.375 7.99-.268 4.4-2.493 6.99-5.486 9.95-2.916-.19-5.525-.29-7.935-2.23-2.321-1.87-3.65-4.54-3.565-7.52.14-4.85 2.43-7.73 5.897-10.85"/><path d="M240.035 952.959c7.788-.191 15.316-1.151 22.191 3.305 2.973 1.927 5.58 5.083 5.877 8.735.216 2.652-.779 5.238-2.436 7.272-4.152 5.095-8.44 6.118-14.712 7.019-1.17-.236-2.126-.076-3.305.038-2.115 3.409-.992 7.268-1.396 11.082-.267 2.513.065 2.551-2.01 4.219l-2.814-.55c-2.775-3.626-1.429-34.17-1.395-41.12"/><path fill="#FEFEFE" d="M246.465 958.644c2.689.007 5.493-.075 8.159.276 2.423.318 3.766 1.568 5.136 3.506.909 3.235.615 5.34-.006 8.615-1.99 1.11-4.552 2.068-6.802 2.449-2.71.46-3.609-.074-5.652-1.743-1.679-4.163-1.016-8.697-.835-13.103"/><path d="M340.516 964.533c2.665.348 4.037 1.202 6.174 2.695l.763.544c4.337-1.352 12.266-2.921 16.557-.856 2.256 1.085 3.624 2.535 4.295 4.988 1.131 4.136.073 13.495-2.193 17.184-1.957 3.187-6.449 4.01-9.755 4.869-3.096-.419-5.837-1.851-8.667-3.105l-.481.764 1.228 2.148-1.151-.821c.321 3.8.182 7.377-2.17 10.517-1.845.5-2.209.94-4.062.25-1.126-12.917-.575-26.205-.538-39.177"/><path fill="#FEFEFE" d="M350.745 969.734c2.857.004 5.847.083 8.22 1.89 2.27 1.729 3.289 3.907 3.572 6.693.435 4.284-1.811 7.533-4.545 10.516-2.791.087-5.829-.211-8.111-1.983-2.416-1.877-3.629-4.702-3.563-7.729.091-4.239 1.492-6.487 4.427-9.387"/><path d="M338.426 1029.42c2.1.63 2.083.38 3.64 2.18.756 7.29 2.449 36.74-.503 41.76-3.448.44-3.697-1.97-7.08-2.43-5.288 2.48-7.721 3.18-13.487 1.82-2.751-2.25-4.847-4.33-6.12-7.73-1.544-4.12-1.694-8.86.215-12.89a13.82 13.82 0 0 1 8.484-7.34c5.048-1.52 8.792.27 13.184 2.67-.049-5.32-1.028-13.42 1.667-18.04"/><path fill="#FEFEFE" d="M324.867 1048.91c3.722-.09 6.956.01 9.633 3.08 1.811 2.07 2.576 4.7 2.316 7.42-.429 4.47-2.216 6.83-5.67 9.54-3.628-.07-6.513-.3-9.107-3.27-1.859-2.13-2.37-4.34-2.313-7.1.088-4.3 2.278-6.81 5.141-9.67"/><path d="M1642.17 91.396c15.28-1.61 32.66 2.635 46.23 9.564 25.4 12.969 37.83 33.302 46.48 59.666 6.2-1.712 12.71-2.954 19.13-3.398a72.34 72.34 0 0 1 52.78 17.339c15.28 13.397 25.06 32.052 26.23 52.432 1.12 19.6-5.19 38.824-18.32 53.478-16.06 17.918-34.52 22.036-57.67 23.447-.13 16.741-1.9 35.558.41 52.049 1.19 8.517 4.71 17.21 7.04 25.551 1.69 6.087 3.06 13.654 6.34 19.061 3.29 5.421 8.91 9.214 12.29 14.67 3.05 4.928 3.45 11.139 1.93 16.651-3.29 12.009-14.65 19.737-24.76 25.73 3.4 14.835 18.64 39.257 18.59 47.751-.02 3.617-1.32 7.162-4.15 9.548-7.6 6.4-32.39 14.286-42.25 13.626-7.44-.497-10.93-4.12-15.63-9.442-5.42 4.103-12.47 7.407-17.08 12.331-5.54 5.922-4.82 12.256-4.78 19.785 8.23 2.494 16.33 5.971 24.53 8.674 24.26 7.991 67.66 21.559 88.77 33.745 5.7 3.291 10.83 7.11 15.25 12.033 20.64 23.022 59.24 92.194 67.31 122.455-67.52 46.674-145.81 63.51-226.69 65.806-67.18.657-134.74-6.112-197.68-31.082-13.67-5.423-55.03-22.977-60.05-36.364-1.76-4.704.68-11.22 2.67-15.45 7.69-16.404 17.18-32.496 25.43-48.687 8.11-15.907 15.68-35.841 26.94-49.677 5.56-6.832 12.53-12.367 20.12-16.791 12.69-7.401 26.79-11.864 40.42-17.156 24.35-9.454 48.52-18.602 73.06-27.578l-.15-17.324-19.94-13.135c-5.75 5.385-10.26 8.015-17.81 10.29-11.66-3.441-33.99-7.306-40.56-18.145-6.25-10.303 3.43-27.286 6.81-37.355 2.22-6.599 3.89-13.298 5.5-20.067-7.82-4.767-13.38-10.805-16.52-19.541-2.79-7.766-2.94-16.711.84-24.182 3.72-7.357 9.76-11.218 17.37-13.704.91-14.82 7.09-27.436 9.36-41.787 1.96-12.388.02-39.32.01-52.91-6.79-.245-13.5-.649-20.16-2.059a70.2 70.2 0 0 1-45.48-31.683 73.04 73.04 0 0 1-9.57-56.39 75.82 75.82 0 0 1 33.95-47.056c19.52-11.945 39.7-13.028 61.47-7.78 3.55-12.574 10.05-24.669 18.26-34.808 16.61-20.514 37.95-29.58 63.73-32.13"/><path fill="#FEFEFE" d="M1568.75 631.866c2.41 2.14 4.92 4.049 6.44 6.944-2.76 1.655-6.24 1.113-9.44 1.151-1.67.027-3.35-.05-5.02-.079l-.67-1.062c2.69-2.593 5.7-4.733 8.69-6.954m160.71-.117c3.14.647 6.02 6.267 7.75 8.803l-8.96.228c-3.83.079-7.58-.067-11.4-.319zM1528.38 408.47c1.62.255 3.25.533 4.65 1.498 8.7 6.017 8.22 29.865 8.84 39.565-1.86.382-5.38-1.628-7.24-2.362-2.72-1.462-5.55-3.16-7.75-5.339-4.75-4.71-7.85-11.209-7.47-17.978.4-7.09 3.8-10.92 8.97-15.384m223.77-.114c2.22-.303 4.66-.777 6.89-.729 4.06.087 8.7 2.876 11.45 5.783 3.23 3.418 4.71 8.147 4.51 12.805-.36 7.979-4.75 12.373-10.45 17.308-5.13 3.422-10 5.755-15.73 7.912.42-12.863-.9-30.969 3.33-43.079"/><path fill="#A79997" d="M1746.7 459.264c2.56.521 3.53.525 5.48 2.214 3.42 9.897 6.44 20.708 11.41 29.935 2.23 4.138 7.18 9.658 7.05 14.344-4.9 5.673-16.56 8.182-23.64 10.54-3.74 1.145-7.54 2.412-11.46 2.685-3.95.275-6.97.105-10-2.642-2.4-8.013 11.52-21.064 14.38-29.223 3.21-9.17 5.03-18.329 6.78-27.853m-205.59-1.927c2 .822 2.75.957 3.62 3.153 1.51 3.855 1.73 9.179 2.88 13.367 3.9 14.229 10.07 25.773 19.24 37.263-1.18 2.36-2.44 5.548-4.39 7.356-3.04 2.824-7.75 1.543-11.38.951-8.49-2.509-21.08-4.829-26.84-11.827-.96-9.636 10.47-34.54 13.47-45.422.72-2.622 1.52-2.963 3.4-4.841"/><path fill="#D09997" d="M1703.61 348.437c14.27.677 28.38 2.213 42.54 3.998 3.42 16.111 10.84 30.693 12.22 47.322l-13.61.106c-18.23-12.447-30.63-32.533-41.15-51.426"/><path fill="#FEFEFE" d="m1683.98 537.977 1.44.486c1.53 6.324.6 14.212.51 20.759a80 80 0 0 1-12.28 5.458c-22.3 7.883-45.95 5.416-66.96-4.709l-1.95-1.682c-1.13-6.376-.53-13.183-.38-19.654 29.67 9.431 50.55 10.705 79.62-.658m33.8 31.586c14.57 4.335 28.95 9.534 43.33 14.444.23 11.447 2.61 49.79-1.65 58.141-10.08.271-19.67-16.32-27.53-21.841-2.96-.074-3.42 1.051-5.58 2.947-12.03 11.217-29.76 18.581-45.78 21.314 14.21-23.816 30.23-47.913 37.21-75.005m-138.77-2.492c3.47 1.889 7.87 17.126 9.95 21.763 8.82 19.602 20.81 37.662 32.46 55.647-20.09-3.606-32.83-7.928-48.94-20.717-2.03-1.643-3.93-3.323-6.32-4.435l-1.77 2.857.46-1.419c-8.74 10.448-16.21 16.611-29.55 20.091-2.68-18.412-5.71-36.897-6.93-55.472 16.62-6.856 33.58-12.65 50.64-18.315"/><path fill="#D09997" d="M1595.53 347.409c20.49-1.745 41.93-.595 62.52-.535-11.97 21.269-28.97 41.973-48.46 56.757-4.6-4.028-8.93-8.464-13.33-12.704 3.19-4.739 8.93-10.142 10.83-15.419.81-2.245.6-2.561-.35-4.596l-3.46-1.204c-7.04 1.722-23.31 27.061-29.91 33.953-5.56 5.799-11.46 10.458-18.09 14.967-1.95.963-3.46 1.715-5.63 1.95 4.95-6.445 16.19-12.283 22.6-19.303 6.09-6.677 21.79-26.902 21.44-35.488-1.9-1.827-3.04-2.048-5.62-2.442-6.56 1.746-12.53 17.986-17.12 23.65-7.23 8.917-16 15.867-24.92 22.973-2.09-3.528-4.46-6.909-6.73-10.327 1.91-15.888 11.81-31.5 11.06-47.246 14.9-2.74 30.08-3.902 45.17-4.986"/><path fill="#FEFEFE" d="M1592.67 561.687c1.93.722 1.41.371 2.82 1.369 13.81 9.78 25.92 14.426 42.88 15.564 20.41 1.371 43.97-2.187 59.77-15.959l10.58 4.294c-6.26 19.227-14.56 36.968-24.47 54.559-6.97 11.255-18.44 34.79-31.81 38.567-4.38-.388-7.28-2.551-10.4-5.507-12.41-11.753-52.13-72.76-51.89-89.664.03-1.826 1.23-2.138 2.52-3.223m177.97 26.858c8.72 2.675 17.61 5.249 25.89 9.117 8.33 3.889 15.34 9.19 21.49 16 19.44 21.508 51.62 83.09 61.51 110.828-22.1 14.308-43.55 24.964-68.31 33.875a1234 1234 0 0 1-2.41-46.002c-1.14-12.842.06-52.038-7.67-59.453l-2.21.707c-6.33 10.227-.38 68.034 1.08 83.738.62 6.625 3.51 17.201 1.54 23.506-2.34 1.409-3.97 2.503-6.8 2.59-3.52-9.424-3.47-30.673-5.41-42.045-3.9-22.763-12.94-44.098-16.83-65.614-3.85-21.273-1.84-45.558-1.87-67.247m-253.3 1.411 1.34.472c.17.371.37.73.51 1.113 2.11 5.752 6.6 44.651 6.09 52.025-1.85 26.694-11.56 54.524-18.36 80.41-3.47 13.173-6.12 27.899-11.42 40.411 1.34-20.57 14.08-97.959 8.13-111.459l-1.69-.311c-.34.259-.7.487-1.02.777-2.76 2.564-4.31 7.056-4.98 10.692-.89 4.785-.45 10.221-.78 15.122a679 679 0 0 1-2.98 30.553c-1.15 16.619-3.38 33.781-6.07 50.213-23.46-6.376-52.06-20.211-71.49-35.26 2.23-7.088 5.07-13.893 8.23-20.612 8.75-18.657 38.83-80.827 52.21-92.677 11.64-10.309 27.87-16.291 42.28-21.469m151.48-243.085c7.63-.054 15.25.051 22.87.09 5 7.515 8.59 16.053 13.33 23.761 9.45 15.348 22.44 27.039 35.82 38.825-.64 29.004-1.06 61.637-17.42 86.784-12.9 19.816-34.86 33.056-57.76 37.893-27.44 5.794-54.03-1.399-77.16-16.625a99 99 0 0 1-3.39-2.5c-26.98-20.861-31.29-53.28-35.45-85.018 16.85-7.18 29.15-18.292 41.67-31.451l10.79 12.504-1.07.536c-5.71 2.894-14.34 7.435-16.45 13.89.89 2.713 1.03 2.747 3.38 4.39 3.46.186 6.66-2.244 9.58-3.936 3.51-.352 5.23 1.721 8.26 2.95 2.72 1.103 5.77.783 8.25-.833 3.33-2.159 6.54-8.961 6.94-12.805.3-2.803-.57-3.243-2.23-5.354 20.37-18.979 37.4-38.049 50.04-63.101"/><path d="M1671.62 376.394c8.45-.345 18.99-1.822 27.22.013 2.44.544 3.1 1.13 4.38 3.204-.15 2.468-.44 4.008-1.53 6.234-7.44-.062-14.97.789-22.4.328-3.35-.209-6.18-.525-8.53-3.137-.46-3.028-.19-3.727.86-6.642m12.26 32.626c.43-.02.86-.052 1.3-.06 4.48-.077 8.49.412 11.61 4.004 1.62 1.86 2.4 4.163 2 6.622-.67 4.174-3.66 6.716-6.87 9.063-1.51.062-3.01.109-4.52-.061-3.13-.354-6.79-2.443-8.46-5.188-1.39-2.292-1.77-4.702-1.11-7.325.86-3.415 3.35-5.094 6.05-7.055m-18.42 41.008c1.2-.285 2.44-.106 3.67-.056 1.75 1.955 1.63 1.962 1.69 4.606-1.31 2.682-2.76 4.034-5.32 5.476-11.43 6.438-25.47 4.415-37.56 1.207-1.11-.677-2.72-1.565-3.59-2.608-1.55-1.857-1.85-3.709-1.6-5.994 9.89-4.591 20.07 9.298 42.71-2.631m-51.35 20.279c4.93 2.974 6.41 9.304 10.42 13.602 5.91 6.341 13.01 10.721 21.92 10.83 5.1.062 10.19-1.355 14.8-3.481 12.65-5.834 9.83-11.83 17.96-18.379 1.82-1.465 2.5-1.673 4.68-1.214.58.773 1.63 2.072 1.98 2.937 1.28 3.065-.26 5.056-1.47 7.782-1.9 2.766-3.84 5.445-6.17 7.862-8.23 8.512-19.96 12.575-31.65 12.673-11.87.1-22.87-4.444-31.04-13.11-3.26-3.455-5.72-7.689-5.47-12.567.19-3.652 1.52-4.606 4.04-6.935"/><path fill="#FEFEFE" d="M1533.58 648.777c35.76-1.191 61.04 1.221 96.03 6.507 2.56 2.59 5.12 5.228 7.9 7.592 4.56 3.89 10.13 7.282 16.37 6.581 8.58-.964 14.05-8.23 19.24-14.321 30.15-4.853 58.96-7.792 89.45-3.419 2.57 15.197 8.14 29.393 11.56 44.373 5.4 23.659 8.35 47.342 11.22 71.399l-17.54 4.209c-68.28 15.61-138.6 16.251-207.61 5.86-18.39-2.769-37.24-5.664-54.93-11.54 8.33-39.166 23.26-77.395 28.31-117.241"/><path d="M1551.02 672.138c2.22-.096 4.54-.246 6.74.132 3.63.624 6.95 2.562 9.05 5.627 1.88 2.743 2.42 6.119 1.64 9.334-1.37 5.644-5.32 8.506-10.05 11.337-2.3.134-4.8.209-7.05-.371-3.81-.986-7.04-3.307-9.02-6.729-1.83-3.167-2.09-6.997-.89-10.442 1.68-4.816 5.21-6.784 9.58-8.888"/><path fill="#FEFEFE" d="M1551.98 678.374c.95.136 2.58.319 3.43.694 2.28 1.005 2.73 2.337 3.53 4.438-.16 3.586-1.4 5.295-3.44 8.179-.29-.077-.59-.132-.88-.231-2.99-1.027-4.37-2.634-5.64-5.425.05-3.415 1.15-4.966 3-7.655"/><path d="M1724.09 674.327c1.95-.196 3.96-.407 5.91-.285 7.61.474 14.98 5.485 19.57 11.327 3.11 3.958 6.94 10.486 6.19 15.679-.2 1.426-.43 2.021-.13 3.513.3 1.52 3.27 2.824 4.58 3.67.53 1.249 1.11 1.94.83 3.348-1.83 9.113-16.7 26.609-24.5 31.178-10.46 6.133-21.59 5.548-32.9 2.632-2.53-1.128-5.07-2.278-7.41-3.765-7.85-4.982-19.18-17.817-20.71-27.62-1.23-7.839 5.32-6.323 8.4-10.972.9-1.357-.01-4.433-.2-6.078 2.11-1.793 3.51-1.752 6.16-1.998 4.11 3.126 2.61 9.222 6.49 12.588l1.85-.382c7.76-6.994.45-17.415 6.1-24.881 4.27-5.639 13.23-7.055 19.77-7.954"/><path fill="#FEFEFE" d="M1731.51 681.501c1.97.455 4.05.952 5.91 1.748 3.54 1.517 7.16 6.024 8.59 9.49 1.52 3.664 1.96 7.064.31 10.739-4.56 1.407-8.3 2.751-12.94 1.025-4.49-5.248-2.04-16.22-1.87-23.002m-7.92-.533 1.62.484c1.39 4.302-1.9 18.627-2.27 24.378-3.62-.547-7.31-.726-10.95-1.004l-1.25-.316c-.93-1.283-2.02-2.642-2.46-4.19-1.17-4.115.36-8.428 2.51-11.888 3.32-5.329 6.92-5.997 12.8-7.464m-40.89 32.316c11.62 2.945 55.03.635 69.55.817-2.8 5.869-5.96 10.714-10.2 15.6-3.79 3.442-7.53 6.399-12.32 8.337a33.34 33.34 0 0 1-27.15-.795c-10.42-5.004-15.99-13.512-19.88-23.959m-45.18-611.998c19.05-1.38 37.2 1.45 53.56 11.818 22.28 14.123 30.69 34.648 36.33 59.334 10.9-2.685 22.19-6.047 33.51-5.764 17.1.427 32.84 7.327 44.56 19.86a65.63 65.63 0 0 1 18.06 48.487 62.38 62.38 0 0 1-21.18 43.728c-14.24 12.617-30.37 15.858-48.93 14.697-9.72-10.785-23.5-19.05-36.71-24.845-8-3.505-17.96-7.825-26.61-4.486l-.02 3.406c6.41 6.904 23.53 9.936 32.43 14.504 9.26 4.752 16.98 10.5 24.71 17.42a845 845 0 0 1-.29 43.683 649 649 0 0 0-81.44-6.579c-38.9-1.603-77.04.788-115.67 4.814-.44-14.871-.11-29.816-.08-44.696 10.15-8.911 23.16-15.711 35.65-20.679 5.52-2.197 12.05-3.975 16.99-7.245.7-2.784.9-3.117-.08-5.774-.84-.523-1.36-.932-2.41-1.139-14.96-2.969-48.51 23.679-60.97 31.43l-.89.545c-19.12-.478-34.29-5.721-47.97-19.322-11.87-11.792-18.05-28.235-17.93-44.874.13-17.318 8.14-34.654 20.44-46.733 12.32-12.108 29.71-19.13 46.99-17.905 8.97.636 17.72 2.69 26.73 2.843 5.37-3.075 7.24-17.156 9.77-23.018a73.7 73.7 0 0 1 7.5-13.133c13.02-18.108 32.47-26.847 53.95-30.377"/><path d="M86.797 225.313c40.468-.773 81.089-.088 121.573-.092l233.64.037 117.309.169c22.759-.029 46.87-1.775 69.398 1.018 1.696 28.046.467 56.873.495 85.005 11.836-8.81 44.718-33.194 56.959-39.28 2.758-1.371 5.719-2.667 8.764-1.573 4.328 7.491 2.221 56.177 2.256 67.792a9320 9320 0 0 0 117.965-.142l202.674-.088 86.46-.027c15.87.001 32.34-.851 48.15.437 6.63.54 12.45 1.002 17.47 5.803 4.88 4.666 8.28 9.707 9.02 16.485 2.08 19.141.07 42.679.09 62.357l.31 135.177-.28 359.249c-.03 61.452-1.15 123.17.52 184.6 8.81 5.08 14.14 9.86 18.27 19.44 39.93 1.3 81.03 1.57 120.9-.25.14-21.84 1.78-42.54 18.22-58.81 9-8.91 22.67-16.32 35.08-18.93 20.81-4.39 58.19-1.96 80.4-1.98l164.49-.22c.06-30.7 1.01-61.832-.87-92.465-13.54-.256-29.25 1.846-42.47-.161-2.62-.398-2.98-.542-4.5-2.551-.01-3.933 1.34-6.918 3.37-10.261 6.75-11.12 16.87-21.521 25.14-31.689 12.89-15.862 25.71-33.465 40.14-47.908 2.38-2.376 4.78-4.827 8.25-4.811 2.9 1.955 5.42 4.174 7.85 6.697 6.92 7.199 70.88 83.11 70.77 87.874-8.74 5.849-38.34 3.355-49.82 3.335a3653 3653 0 0 0-.49 91.96c54.86 1.89 110.3.44 165.2.36 22.51-.03 55.57-2.57 76.88 2.11 11.61 2.55 20.97 8.38 29.42 16.6 16.57 16.13 24.06 37.05 24.39 59.9.36 24.46-5.75 47.41-23.27 65.22-9.14 9.28-21.15 16.73-33.91 19.68-23.68 5.47-67.15 2.47-93.36 2.37l-145.53-.08-.48 201.25c14.88-.05 36.11-2.1 50.39.57 1.42 1.21 1.67.82 1.66 2.41-.03 4.18-3.56 8.7-6.12 11.75-13.51 16.12-28.83 31.07-43.05 46.61-10.03 10.95-19.15 22.91-29.51 33.52-1.97 2.02-3.58 3.92-6.44 4.19-10.96-5.6-73.73-82.2-79.97-96.14.35-.35.63-.79 1.05-1.04 6.47-3.92 44.49-1.89 54.17-1.82a12274 12274 0 0 0-.76-201.06c-56.62-1.42-113.52-.24-170.16-.16-20.26.03-57.99 2.43-76.13-1.7-11.59-2.65-23.9-10.17-32.21-18.52-16.49-16.55-18.14-34.3-18.26-56.37a11696 11696 0 0 0-119.97-.15c-.47 1.52-.94 3.01-1.5 4.5-3.53 9.48-9.11 13.01-17.87 16.99a22962 22962 0 0 0-.15 354.45l.13 98.44c.03 16.49 1.33 34.05-.35 50.41-.65 6.33-2.41 11.54-6.95 16.16-5.21 5.32-9.64 6.44-16.82 7.32-13.1 1.59-27 .74-40.19.74l-67.46.02-210.683.42c-46.384-.08-92.933-.89-139.299.11-.211 20.47 1.815 42.72-.364 62.96-.401 3.73-.983 6.3-3.942 8.72-2.259.25-3.743-.2-5.707-1.35-7.693-4.51-14.949-11.35-22.061-16.82a663 663 0 0 0-35.498-25.35c-.246 30.5 1.221 61.71-.694 92.12-26.123 2.16-53.813.37-80.113.35l-156.327-.13H187.009l-66.286.03c-9.035.01-18.366.68-27.363.25-3.185-.16-5.206-.8-7.756-2.78-2.995-9.42-1.996-222.43-.49-248.43 22.427-1.42 45.288-.48 67.76-.47l121.923.04 354.039-.53c1.795 31.8.818 64.16.969 96.04 10.469-7.72 54.572-41.88 64.242-43.36 1.782-.28 1.059-.34 2.655.86 1.391 8.6.591 17.87.538 26.57l.068 40.83c70.809.96 141.728.37 212.55.48l172.182-.21 46.65-.02c9.09.01 19.34.8 28.28-.8 3.19-.58 7.67-2.97 9.57-5.68 2.29-3.26 2.18-11.78 2.34-15.83 1.47-37.93.1-76.5.06-114.51l-.04-216.12c-15.44-.3-30.98.23-46.43.43a112 112 0 0 1-1.9 4.73c-3.52 8.09-9.53 14.9-17.95 17.96-7.84 2.84-17.31 2.62-24.73-1.32-6.86-3.64-11.47-10.26-13.58-17.63a31.83 31.83 0 0 1 3.11-25.02c3.77-6.53 9.76-11.73 17.2-13.51 8.44-2.01 17.31.46 24.54 4.95 7.21 4.47 10.46 11.99 12.51 19.89l47.28-.24-.03-154.06c-10.52-6.03-17.5-10.37-21.49-22.4a3193 3193 0 0 0-39.84-.14c-7.7.06-16.52 1-24.12-.1-3.07-.45-4.56-1.57-6.3-4.04l.46-2.13c1.63-1.47 3.07-2.35 5.3-2.67 7.02-1 15.29-.08 22.41-.04l42.84-.21a79 79 0 0 1 2.6-4.79c4.99-8.57 9.23-11.16 18.64-13.62 1.68-37.49.08-75.64-.21-113.187-12.88.039-29.78 2.053-41.43-3.891l-.46-2.077c9.31-6.752 30.81-4.211 42.01-4.172a26766 26766 0 0 0-.19-302.868c-15.75-.755-31.73-.248-47.52-.265-2.59 8.555-6.48 16.181-13.96 21.482-6.72 4.765-14.97 5.645-22.94 4.118a28.72 28.72 0 0 1-19.08-12.89c-4.64-7.31-5.73-16.305-3.46-24.612 2.23-8.181 7.68-15.813 15.27-19.787 6.89-3.603 14.61-3.589 21.85-1.065 11.96 4.17 17.08 11.743 22.26 22.655l47.3.14c1.56-63.56.29-127.356.61-190.941l.25-72.995c.03-14.97.85-30.442-.97-45.313-1.27-1.803-2.57-3.611-4.17-5.144-3.47-3.312-6.32-4.257-11.05-4.635-19.98-1.595-40.99-.303-61.09-.305l-122.677.031-175.982-.038c-32.132.017-64.491-.707-96.597.534-.388 16.716 2.45 50.884-.817 65.157-.307 1.343-1.089 1.384-2.21 2.076-12.396-.819-51.908-32.391-64.962-40.825a3369 3369 0 0 0 .139 55.424c.063 10.029.757 20.606-.186 30.587-.195 2.058-.255 4.355-1.99 5.654-2.812 2.103-7.641 1.858-11.04 1.934-40.663.91-81.529.127-122.212.057l-211.647-.069-125.235.069c-23.548.011-47.949 1.363-71.361-1.079-1.13-1.555-.9-.811-1.107-2.41-1.541-11.9-.642-24.626-.635-36.64l.034-65.655-.196-86.614c-.013-13.911-.696-28.254.167-42.126.254-4.084.407-5.206 2.87-8.472"/><path fill="#FEFEFE" d="M1168.79 1112.19c2.92-.18 5.77-.34 8.59.57 4.17 1.35 8.13 4.69 10.12 8.6a14.66 14.66 0 0 1 .82 11.39c-1.92 5.61-6.4 8.05-11.5 10.33-1.78 0-3.46-.18-5.2-.58-5.19-1.17-10.09-4.14-12.77-8.84-1.95-3.41-2.44-7.36-1.16-11.09 1.84-5.39 6.25-8.02 11.1-10.38"/><path d="M1171.87 1119.73c3.76.33 5.52.56 8.38 3.18 1.04 2.5 1.7 3.74.76 6.51-1.05 3.09-3.71 4.57-6.37 6.11-3.28-.31-5.01-.62-7.68-2.61-1.42-2.58-2.01-3.33-1.35-6.37.67-3.06 3.87-5.19 6.26-6.82"/><path fill="#FEFEFE" d="M1089.47 1292.21c4.05-.14 8.84.3 12.46 2.25a20.1 20.1 0 0 1 9.83 12.13 21 21 0 0 1-1.88 16.21c-3.42 6.01-8.4 8.5-14.85 10.25-4.36.06-8.39-.29-12.31-2.39a21.1 21.1 0 0 1-10.1-12.41 20.52 20.52 0 0 1 2.1-16.74c3.58-5.74 8.43-7.76 14.75-9.3M1085 652.181c3.27-.243 6.87-.235 10.06.587 5.88 1.513 11.2 5.487 14.1 10.845a19.94 19.94 0 0 1 1.54 15.472c-2.19 7.126-6.87 11.042-13.31 14.257-4.2.568-8.17.783-12.3-.426a21.02 21.02 0 0 1-12.51-10.102 21.7 21.7 0 0 1-1.27-17.315c2.54-7.068 7.13-10.269 13.69-13.318"/><path fill="#F29E9F" d="M687.02 282.101c3.229 5.467 1.427 108.47 1.387 123.243a2096 2096 0 0 0-49.923-35.122c-12.632-8.598-25.493-16.993-37.516-26.431 26.991-22.662 57.334-41.343 86.052-61.69m.528 1332.709c2.772 9.7.87 30.27.844 41.12l-.217 83.93-49.486-35.53c-12.661-9.1-25.285-18.95-37.217-28.97 28.908-19.88 56.998-40.93 86.076-60.55"/><path fill="#FEFEFE" d="M1644.19 862.967c10.19 8.923 18.74 20.563 27.31 31.017 12.43 15.159 24.79 30.323 37.8 44.995-14.53.187-29.79-.67-44.19 1.281-1.96 33.265-.68 67.37-.8 100.74l-19.56.03c-5.93.07-11.79-.2-17.71-.53-.04-18.17 2.14-88.057-2.85-99.968-6.76-3.82-33.64-.94-42.92-.693 21.22-25.343 41.89-51.336 62.92-76.872m-18.35 344.923 38.44-.05-.63 142.16c-.07 15.76-2.23 52.34 1.32 66.31 4.97 4.03 36.99 2.24 45.11 2.26-18.23 23.3-39.4 44.81-58.99 67.03-3.07 3.91-6.62 7.28-10.17 10.73-8.84-7.96-16.25-17.94-23.85-27.06-13.88-16.66-27.62-33.29-40.54-50.71l48.25.38c3.01-22.48 1.08-48.05 1.1-70.95zm-246.02-156.59c19.6-2.11 41.24-.41 61.03-.4h128.64l216.47.09c38.51.01 77.67-1.49 116.11.37 8.35.41 16.18 2.42 23.62 6.23 15.55 7.97 26.22 23.61 31.28 40.02 6.21 20.11 5.52 46.74-4.74 65.48-9.27 16.92-25.24 28.63-43.65 33.64-19.64 3.77-49.17 1.39-69.74 1.32l-137.36-.4-218.45.33-67.67.06c-12.85.01-26.03.63-38.83-.34-8.13-.62-16.92-3.75-23.7-8.22a54.48 54.48 0 0 1-23.7-35c-3.98-20.46-3.51-61.32 8.6-78.55 9.88-14.05 25.48-21.96 42.09-24.63"/><path d="M1762.43 1111.5c1.77.84 2.55 1.45 3.97 2.75l-.13 1.75c-2.38 1.18-5.74 2.48-7.46 4.56-3.25 3.96-1.89 8.22-1.64 12.88.2 3.82 0 5.8-2.49 8.6l-2.83-1.3c-2.9-5.5-2.44-20.85-.62-26.86 1.82-.61 2.88-.6 4.72-.2 2.91.62 3.98-.75 6.48-2.18m119.93.81c4.42.57 3.73 1.72 7.15 2.98 2.56.94 5.7-3.12 9.27-1.4l.14 2.6c-1.93 2.95-5.41 3.12-8.15 4.99-2.47 1.7-2.05 3.02-2.27 5.77.11 4.3.13 8.5-.23 12.79-1.67 1.79-1.34 1.42-3.51 1.76l-1.61-1.41c-2.96-8.33-1.23-19.27-.79-28.08m-49.26-12.03 4.07.64c5.51 4.73 1.49 30.13 3.53 39.77-1.28.22-2.46.36-3.77.28-2.2-.15-2.54.22-4.06-1.53-1.52-12.51-.72-26.59.23-39.16m-213.76-5.04c2.18.26 3.75.33 5.6 1.59 1.11 13.79 1.42 31.51-.51 45.21-2.6-.45-3.99-.37-6.04-2.1-1.16-14.38-.56-30.34.95-44.7m-79.28-.89c.88.12 1.3.16 2.25.39 2.24.52 7.01 1.35 8.18 3.19-.25 2.18-.18 2.87-2.09 4.26-.48.34-1.01.59-1.51.89-2.41 11.05-1.2 24.31-1.3 35.71-.37 1.22-1.22 1.97-2.03 2.93-2.47-.92-1.42-.25-3.2-1.92-3.11-8.74-.53-35.14-.3-45.45m269.82 18.71c3.28-.17 7.58-.83 10.74.07 2.65.75 4.88 2.35 6.28 4.7l-.57 1.12c-5.04 2.49-11.8-1.48-17.26.62-2.53.97-2.71 1.95-3.44 4.26.52 3.53 1.67 8.3 4.71 10.57 3.4 2.53 8.59 1.81 12.48 1.44 1.13-1.04.39-.66 2.44-.58l.5 1.7c-.85 1.6-.88 2.01-2.47 3.08-3.58 2.4-9.11 2.37-13.13 1.24-3.77-1.06-6.81-3.39-8.68-6.83-1.9-3.48-2.11-7.73-1-11.5 1.51-5.15 4.93-7.35 9.4-9.89m-328.4.06c5.15-.45 10.21-.66 15.07 1.31 1.36 1.85 1.54 1.56 1.56 4.03-2.78 1.41-5.75.01-8.67-.38-2.54-.34-3.82-.63-5.97.97.5 6.24 13.72 5.16 17.46 11.81-.26 4.54-3.22 7.14-6.42 10.01-2.36.27-4.76.59-7.14.6-4.35.02-7.39-2.08-10.32-5.07l2.21-3.16 1.66-.02c2.53 1.51 4.58 2.79 7.56 3.26 2.81-.91 3.44-1.09 5.41-3.25l-.34-1.94c-3.05-2.85-7.78-3.25-11.69-4.38-3.24-.95-4.46-1.96-6.04-4.89.45-3.96 2.97-6.25 5.66-8.9m-37.59-.45c3.18.13 4.43.25 7.03 2 .38.26.75.52 1.13.78 3.68-1.28 8.35-3.48 12.25-2.37 2.44.69 4.27 2.43 5.21 4.76 2.11 5.18 2.41 14.5.42 19.74-.77 2.03-.72 2.11-2.79 2.99-.25-.19-.53-.34-.75-.56-3.48-3.39-2.26-10.81-2.07-15.26-.36-3.35-1.19-4.05-3.62-6.11-3.07-.54-3.37-.45-6.24.79-4.94 5.44-2.24 12.76-3.21 19.52-1.65 2.05-1.68 1.83-4.32 2.21l-.99-.74c-1.58-8.7-.75-17.6-1.86-26.39zm73.29-15.56 3.1 1.3c1.76 4.4.66 10.16.5 14.83 3.3.1 9.11-.45 11.99 1.02 1.13.58 1.05 1.64 1.36 2.76-2.93 4.31-8.94.3-13.01 2.87-.33 3.83.76 8.91 3.06 12.02 2.46 3.33 6.85 3.24 10.62 3.69l-1.15 3.1c-1.96 1.72-4.04 1.95-6.58 1.84-13.13-.56-9.13-16.8-13.8-20.81-1.38-1.19-2.04-.32-3.68-2.19l.37-2.46 3.28-1.45c1.36-3.8-.1-6.32-.09-10.08 0-3.02 2.09-4.52 4.03-6.44m43.27 14.94c2.63-.11 5.79-.39 8.27.63 3.66 1.51 5.51 5.14 6.78 8.65 2.31 6.36 2.62 12.97-.36 19.1-6.9.17-14.46 1.39-20.93-1.21-.64-1.44-1.31-2.93-1.72-4.46-.72-2.74-.22-4.73 1.09-7.19 3.79-3.36 9.81-4.05 14.6-5.51l.6-1.48-2.23-2.35c-2.01-.65-3.17-1.07-5.31-.65-1.69.33-3.18.58-4.9.72l-.82-1.25c1.54-2.94 2.07-3.24 4.93-5"/><path fill="#FEFEFE" d="M1559.05 1128.09c3.38-.25 6.76-.93 9.9.61.96 2.88.12 4.06-.76 6.91-3.27.38-5.87.82-8.82-.95-1.21-2.91-.94-3.43-.32-6.57"/><path d="M1775.77 1113.16c4.23-.26 8.44-.58 12.69-.41 1.5.73 2.71 1.32 3.65 2.79 1.79 2.82 2.6 8.62 1.58 11.83-1.83 5.8-12.2-1.32-18.37 2.79.57 2.29 2.57 4.52 4.68 5.62 2.5 1.3 3.07.97 5.5.07 1.35-1.38 1.71-1.75 3.59-2.43l2.36 1.41.52 2.48-1.65 2.26c-3.29 1.64-6.38 1.88-10.01 1.33-3.86-.59-7.04-2.09-9.29-5.39-2.61-3.82-2.95-8.91-2-13.33.98-4.53 2.95-6.56 6.75-9.02"/><path fill="#FEFEFE" d="M1779.77 1116.6c1.02.11 2.76.18 3.75.63 2.26 1.02 3.12 2.35 3.99 4.55-.93 2.35-1.12 2.25-3.36 3.48-1.4.03-3.01.16-4.42.02-2.58-.26-2.92-.08-4.59-2.06.66-2.92 2.62-4.55 4.63-6.62"/><path d="M1640.84 1113.16c4.94-.32 10.14-.43 13.98 3.22 2.58 2.44 3.86 6.83 3.7 10.27-4.28 5.16-12.48 1.83-18.59 3.05l-.72 1.4 1.51 3.15c2.02 1.68 4.14 2.85 6.87 2.61 3.34-.3 5.52-2.98 7.76-5.21l2.19.86.68 1.95c-.62 1.39-1.18 2.61-2.35 3.64a15.87 15.87 0 0 1-12.13 3.73 12.37 12.37 0 0 1-8.46-4.93c-2.89-3.84-3.77-9.29-2.73-13.94 1.08-4.82 4.22-7.4 8.29-9.8"/><path fill="#FEFEFE" d="M1641.88 1117.82c1.21-.03 2.89-.18 4.11.06 3.11.62 5.31 2.51 6.82 5.21-.72 1.05-1.69 1.25-2.83 1.8-3.26.07-8.12.84-10.95-.9.16-2.95 1.17-3.8 2.85-6.17"/><path d="M1856.8 1113.09c3.22-.15 6.87-.56 10.07-.05 3.51.55 6.08 2.97 7.81 5.92 1.5 2.54 2.09 5.05 1.27 7.93-6.14 5.57-12.63.74-19.02 3.88l.32 1.86c2.3 2.58 3.46 3.07 6.79 3.96 1.44-.2 3.02-.51 4.48-.52 2.12 0 3.27.21 4.76 1.78l-.96 1.68c-2.91 1.51-5.48 2.19-8.79 2.13-3.88-.06-7.89-2.01-10.55-4.8-2.84-2.97-3.96-6.87-3.66-10.92.43-5.95 3.08-9.13 7.48-12.85"/><path fill="#FEFEFE" d="M1858.95 1117.88c2.82-.14 5.32-.18 7.93 1.15 2.32 1.19 2.82 1.81 3.48 4.13l-1.37 1.93c-3.56.01-9.41 1.1-12.36-.94-.24-2.91.83-3.82 2.32-6.27"/><path d="M1386.99 1100.22c4.08-.36 9.88-1.11 13.38 1.39 1.92 1.38 3.59 3.16 3.96 5.45-6.71 2.74-15.86-2.52-22.25 3.14-2.42 2.14-3.31 4.7-3.25 7.85.1 4.45 2.43 13.81 6.15 16.59 3.33 2.5 7.45 1.95 11.25 1.26 3.03-.91 4.64-1.81 7.75-1.05l.31 1.85c-1.02 1.25-1.97 2.3-3.4 3.1-5.17 2.88-10.58 3.46-16.17 1.55-5.07-1.73-9.04-5.03-11.22-9.98-2.55-5.78-2.32-12.57-.01-18.39 2.74-6.92 6.95-9.78 13.5-12.76m309.79-.86c1.5.16 2.97.37 4.44.73 2.97.72 5.46 1.43 7.02 4.3 1.05 1.93 1.53 2.34.92 4.52-5.4 1.21-12.34-2.72-18.2-2.83-4.26 1.87-7.55 3.94-9.65 8.26a14.3 14.3 0 0 0-.54 11.02 15.86 15.86 0 0 0 9.13 9.5c5.56 2.26 10.52.17 15.8-1.82l2.09.06 1.13 1.47c-2.3 3.98-5.95 5.52-10.26 6.57-6.23 1.52-11.6 1-16.98-2.67-4.41-3.01-6.97-7.85-7.74-13.05-.92-6.22.49-12.37 4.33-17.37 4.9-6.37 10.86-7.79 18.51-8.69m-276.86 12.89c2.63.08 5.57.35 8.09 1.12 3.52 1.07 6.63 4.54 8.07 7.81 1.62 3.66 1.58 7.62.02 11.29-2.25 5.32-6.18 7.55-11.34 9.54-3.27.01-6.36 0-9.23-1.79a17.46 17.46 0 0 1-7.75-11.16c-.78-3.74-.06-7.88 2.1-11.05 2.55-3.73 5.81-4.78 10.04-5.76"/><path fill="#FEFEFE" d="M1417.78 1117.97c2.62-.24 5.6-.67 8.04.57 2.35 1.2 3.6 3.27 4.16 5.78.92 4.13-1.21 8.54-3.19 11.99-2.58.35-5.67.42-8-.93-2.36-1.37-3.65-3.56-4.24-6.16-.91-4.05.99-8.05 3.23-11.25"/><path d="M1727.38 1112.15c2.54.2 5.45.43 7.78 1.53 3.58 1.68 6.25 4.94 7.55 8.63a14.32 14.32 0 0 1-.75 11.15c-2.35 4.72-5.75 6.31-10.55 7.99-3.62-.06-7.12.09-10.47-1.43-3.38-1.53-6-5.04-7.08-8.53-1.17-3.78-.6-7.85 1.39-11.26 2.96-5.07 6.65-6.67 12.13-8.08"/><path fill="#FEFEFE" d="M1727.32 1116.77c2.3.43 4.53 1.05 6.35 2.62 2.57 2.23 3.41 5.3 3.09 8.57-.39 4.12-2.83 6.5-5.98 8.82-3.9-.46-6.39-.74-9.05-3.98-1.71-2.09-2.15-4.65-1.59-7.25 1-4.6 3.43-6.39 7.18-8.78"/><path d="M1584.96 1096.65c2.35.02 3.88.06 6.01 1.07 2.24 4.14 1.05 10.3.93 15.01 4.64-.39 8.64-.75 12.83 1.63 2.93 1.67 5.55 4.37 6.41 7.7 1.56 6.04-1 11.77-4.16 16.75-1.15.56-2.3 1.08-3.49 1.56-4.24 1.69-6.01 1.02-10.09-.71l-1.07-.47c-.63.44-1.52 1.1-2.2 1.4-2.21.97-2.64.75-4.6-.28-1.88-14.01-.6-29.48-.57-43.66"/><path fill="#FEFEFE" d="M1591.65 1118.04c2.22-.26 4.78-.66 6.97-.06 2.39.65 4.19 1.67 5.23 4.04 1.77 4.04.19 8.82-.86 12.82-1.59.45-3.85 1.12-5.5 1-2.93-.21-3.46-.97-5.35-2.98-1.56-4.83-.82-9.83-.49-14.82M104.133 234.475l317.765.317a14967 14967 0 0 1 197.551.106c1.616 27.885.59 56.266.544 84.197-8.28 5.692-17.402 11.172-24.994 17.736-2.5 2.161-4.26 4.13-4.553 7.559 2.746 8.429 21.977 18.499 29.613 23.817-.338 23.083-.093 46.206-.104 69.293l-.044 21.356-527.015.062c-.655-26.372-.127-52.883-.125-79.272l.118-144.632z"/><path d="m455.141 384.044 1.632-.03c3.918-.091 5.548.019 8.795 2.329l.169 2.629c-4.53.306-10.922.569-14.49 3.734-2.031 1.801-3.055 4.232-2.967 6.921.108 3.275.941 7.835 3.81 9.826 2.535 1.758 6.047 1.552 8.938 1.262 1.774-.178 3.355-.369 5.133-.125.471.065.939.147 1.408.22-1.286 2.694-2.265 4.667-5.175 6.007-2.87 1.321-6.157 1.177-9.072.119-4.795-1.741-8.787-5.827-10.758-10.491-1.515-3.588-1.716-7.805-.228-11.433 2.387-5.82 7.306-8.586 12.805-10.968m-135.899-1.075c3.313.098 6.911.882 9.451 3.133 3.771 3.34 5.156 9.207 5.547 14.018.382 4.699.285 12.394-3.229 16.022-1.127 1.165-1.613.732-3.075.647-3.59-6.049 1.359-16.658-2.698-23.659-1.558-2.689-3.305-3.304-6.093-4.205-.308-.1-.619-.19-.929-.285-.412.308-.837.6-1.237.924-7.662 6.18-5.158 17.976-5.983 26.955l-3.081.791c-.65-1.518-1.282-2.988-1.714-4.586-1.749-6.471-3.644-22.232-.171-28.072 2.607-.61 4.435-.54 6.888.63.276.132.539.292.808.437zm95.263-114.082c7.807-.181 17.074-1.468 24.552.929 1.785 1.778 1.777 1.608 1.838 4.115-2.811 2.529-14.936 2.44-19.241 2.85-.282 4.289-.237 8.614-.298 12.912 4.699.091 13.095-1.583 16.84 1.553 1.217 1.019 1.121 3.572 1.343 5.103-5.897.164-11.874-.142-17.777-.247.182 7.144 1.128 13.629-2.738 19.956l-1.425-.235c-6.131-10.925-3.191-34.607-3.094-46.936m-74.3 98.609c1.754.207 3.402.565 5.117.984 3.968 5.644 1.842 20.291 1.884 27.319 3.149-3.809 8.659-11.92 13.574-12.967 2.753-.586 3.313.144 5.479 1.627.481 3.781-12.027 8.101-14.1 15.807-.47 1.748 1.114 3.417 1.991 4.909 2.991 3.528 6.431 7.012 8.508 11.165-1.822 1.327-2.04 1.354-4.159 1.564-4.199-1.192-7.727-5.992-10.614-9.114l-1.509.213a78 78 0 0 1-1.121 5.741l-2.044.78-1.453-1.083c-4.161-10.761-1.678-34.566-1.553-46.945m132.983 2.065 3.884.535c4.081 4.186 2.037 21.926 1.977 27.87 2.579-3.156 5.178-6.753 8.212-9.473 2.42-2.169 5.437-3.662 8.65-3.485l.324 2.022c-2.111 4.633-5.956 8.099-9.419 11.759 3.042 3.317 5.498 6.979 8.054 10.67 1.491 2.279 2.757 4.384 3.787 6.927-8.137 4.34-10.915-9.967-17.672-11.56-3.183 3.753-.995 9.665-4.623 13.361-1.612-.21-2.165-.712-3.478-1.611-1.268-8.49-2.455-39.951.304-47.015m-163.876-101.29c3.057.179 7.381-.026 10.194 1.127 2.198.901 3.155 2.555 4.04 4.588-3.854 6.132-16.193-.413-21.543 5.539-3.463 3.853-3.85 12.146-3.073 16.975.702 4.365 3.348 8.447 7.113 10.793 5.322 3.315 11.607 1.116 17.172-.292-.102 1.68-.371 3.366-.575 5.037-1.504 1.669-1.823 2.159-3.948 2.822-5.654 1.764-11.806 1.843-17.062-1.167-5.497-3.148-8.967-8.786-10.512-14.812-1.832-7.149-.825-15.266 3.32-21.451 3.727-5.561 8.491-7.861 14.874-9.159m-66.005 100.756c2.405-.093 4.688-.159 7.064.296 3.398.65 8.726 2.042 10.728 4.998l-.564 2.071c-4.756 3.493-11.515-.036-17.48 1.548-3.216.853-5.877 2.629-7.366 5.688-2.612 5.363-1.822 14.463.41 19.832 1.189 2.861 3.203 5.371 6.217 6.417 5.372 1.865 9.419-.11 14.36-2.291 1.078-1.452.339-.956 2.347-1.269 1.192 1.916 1.061 1.941.733 4.198-1.998 2.639-3.851 4.761-6.896 6.219-3.545 1.698-7.52 1.225-11.121-.014-5.766-1.985-11.092-5.707-13.728-11.339-2.923-6.248-2.591-14.084-.27-20.464 3.019-8.294 7.801-12.183 15.566-15.89m135.86-100.266c7.824-.096 21.466-1.892 28.237 2.005l.003 2.303c-3.733 3.703-15.788 2.319-21.269 2.322l-.055 13.652c5.164-.024 12.713-.97 17.34 1.36.235 1.678.092 2.325-.31 3.924-3.749 1.743-12.401.873-16.842 1.105l.059 14.31c5.502-.019 14.398-1.169 19.431.588l.29 2.703-1.641 1.738c-7.668 2.482-17.27 1.221-25.273 1.083zm-17.932-.458c2.976.065 4.694-.234 7.301 1.274.177 1.718.338 3.388.394 5.115.216 6.683 2.015 36.816-1.961 40.913-2.575.082-2.871-.042-5.1-1.352-2.211-4.035-.949-13.525-.832-18.343l-22.963-.184.016 19.785c-2.325-.215-4.413-.555-6.67-1.153-1.142-6.835-1.639-39.543.735-45.573l2.57-.657-1.508-.08 2.928.912c3.889 5.214 2.212 14.417 2.064 20.686l22.79.166a476 476 0 0 1 .236-21.509m58.164 114.784c2.26.16 4.662.263 6.833.945 4.156 1.307 7.741 4.642 9.577 8.561 2.18 4.654 2.114 10.179.005 14.847-2.559 5.667-6.218 7.754-11.794 9.969l-1.149-.085c-2.787-.184-5.607-.224-8.163-1.483-4.193-2.065-7.607-6.1-9.059-10.527a16.83 16.83 0 0 1 1.167-13.293c2.835-5.282 7.106-7.176 12.583-8.934"/><path fill="#FEFEFE" d="M419.007 388.835c3.616.099 6.112.583 8.683 3.356 2.125 2.292 2.779 5.912 2.372 8.91-.675 4.976-2.837 7.652-6.808 10.515-3.666-.53-6.43-.848-8.79-4.081-2.061-2.824-2.702-5.844-2.065-9.272.853-4.597 2.9-6.771 6.608-9.428"/><path d="M274.939 383.064c2.857-.216 5.822-.509 8.661.011 4.822.882 9.046 4.106 11.678 8.185 2.533 3.926 3.477 8.755 2.293 13.299-1.524 5.852-4.608 9.017-9.76 11.907-3.072.486-6.278.815-9.381.387-4.584-.632-8.909-3.973-11.369-7.787-2.797-4.337-3.41-9.635-2.043-14.571 1.569-5.664 5.03-8.545 9.921-11.431"/><path fill="#FEFEFE" d="M279.94 387.861c3.346.923 6.102 1.668 8.209 4.608 2.248 3.138 2.98 6.642 2.092 10.396-1.124 4.749-3.366 6.741-7.462 9.139-1.211-.231-2.094-.372-3.303-.737-2.938-.886-4.986-3.031-6.3-5.742-1.77-3.651-1.892-7.147-.427-10.924 1.462-3.768 3.644-5.075 7.191-6.74"/><path d="M370.25 368.264c2.43.169 3.879.101 5.903 1.606 2.343 4.887 1.292 11.368 1.19 16.747.297-.192.593-.387.892-.575 4.125-2.592 7.506-3.702 12.374-2.318 3.725 1.059 6.475 3.879 8.11 7.308 3.204 6.719 2.099 12.81-.508 19.459a57 57 0 0 1-1.588 1.724c-7.011 7.244-17.045 4.565-26.194 4.7-.531-16.197-.367-32.449-.179-48.651"/><path fill="#FEFEFE" d="M381.901 388.78c2.814.338 5.71.665 8.02 2.5 2.348 1.865 3.813 5.042 3.924 8.025.174 4.707-1.902 8.481-5.079 11.753-3.723.138-6.512.64-9.765-1.268-1.64-2.481-2.875-4.333-2.922-7.452-.079-5.208 1.976-10.176 5.822-13.558M93.136 1559.01c67.949-.8 135.972-.28 203.928-.27l322.996.3c.046 30.88 1.214 62.22-.408 93.05-7.767 5.99-16.297 11.13-23.835 17.38-2.732 2.27-4.563 3.96-4.913 7.69 2.929 8.32 22.239 19.48 29.465 25.11l-.353 60.86-.161 28.92c-93.351 1.63-187.027-.23-280.398-.53a22366 22366 0 0 1-246.423.05 19132 19132 0 0 1 .102-232.56"/><path d="M402.883 1702.38c3.708 1.05 3.485 2.5 5.635 3.48.667.3 1.342-.59 2.019-.87 3.64-1.51 6.003-2.02 9.877-1.47l.342 1.3c-3.094 3.57-8.218 3.64-11.017 7.38-.361.48-.684.99-1.026 1.49.104 5.01 1.094 11.73-.243 16.51-2.335.87-2.452.83-4.858.15-2.621-7.64-.894-19.7-.729-27.97m-14.385-7.62 1.472 1.81c.35 2.34.593 4.16 1.668 6.3l3.399.53 1.014 1.54-.552 2.1c-.547.13-2.588.57-3.037.79-1.74.86-1.519.88-1.841 2.51-.784 3.98-.044 12.97 2.641 16.12.257.3.598.52.882.79.338.33.652.69.982 1.02.254.26.513.52.769.77l-.325 2.7c-1.904-.19-4.607-.34-6.292-1.23-7.017-3.71-2.283-15.55-4.41-21.9l-3.126-1.52-.44-2.11a94 94 0 0 0 7.196-10.22m37.281-84.49c2.213.29 3.699.62 5.668 1.69 1.635 13.11.481 27.51.412 40.78-2.373-.32-3.836-.05-5.619-1.76-1.288-13.32-.488-27.31-.461-40.71m-89.891 92.8c6.082-.26 8.822-.65 13.768 3.07-.138.74-11.777 2.09-14.37 4.5-1.978 1.84-2.455 4.08-2.487 6.67-.046 3.82 2.061 6.33 4.702 8.77 3.071 1.28 5.21.61 8.308-.08l1.768-1.06 1.798.46.009 1.89c-.688.83-1.218 1.57-2.149 2.21-2.711 1.84-7.043 2.37-10.219 1.86-3.164-.5-5.836-2.25-7.513-5-2.36-3.87-2.622-9.15-1.575-13.48 1.194-4.93 3.82-7.17 7.96-9.81m122.457-.01c2.383-.13 5.786-.59 8.074.08 2.163.63 3.628 1.68 4.674 3.65-2.762 1.51-6.246.64-9.269.36-1.895 1.35-1.871.87-2.51 3.33 2.498 3.85 9.207 5.79 12.797 9.22.563 1.47 1.166 2.28.857 3.89-.762 3.98-3.693 5.96-6.767 8.18-3.029.25-5.603.25-8.614-.19-2.125-1.69-2.784-1.74-3.325-4.36l1.668-.98c3.453.61 6.639 1.47 10.108.54 1.537-1.96 1.624-1.94 1.576-4.41-2.497-3.09-8.231-4.38-11.868-6.08-1.514-2.29-2.204-3.01-1.942-5.88.289-3.15 2.365-5.32 4.541-7.35m-87.045-79.89c3.713.11 8.846 1.08 11.515 3.78.302 2.63.229 2.47-1.37 4.62-3.774.74-5.029-1.32-8.428-2.78-2.329-1-3.366-.88-5.588.15-2.203 3.64-2.767 8.39-1.9 12.56.622 2.99 1.748 4.42 4.243 6.06 2.67.55 3.804.84 6.417-.27 1.922-1.27 2.343-1.5 4.622-1.68l1.699 1.64-.311 2.17c-1.179 1.44-1.945 2.17-3.699 2.93-3.583 1.53-9.025.58-12.484-.88a11.42 11.42 0 0 1-6.317-6.52c-1.768-4.59-.703-10.42 1.553-14.66 2.356-4.43 5.445-5.8 10.048-7.12m-63.502 78.81c4.257-.02 7.374.29 10.839 2.85 1.273 2.35 1.384 2.36.904 4.97l-1.765.68c-.896-.88-2.13-2.27-3.25-2.94-2.255-1.35-4.108-.85-6.532-.35-1.801 1.77-2.32 1.62-2.601 4.24 3.263 3.28 10.728 4.5 15.071 6.73.97 1.37 1.948 2.11 1.947 3.87-.003 3.72-2.261 6.18-4.641 8.72-4.006.88-7.747 1.34-11.786.25-2.58-.69-3.326-1.33-4.485-3.66 1.941-2.37 11.628-.47 15.352-2.61l.024-1.66c-4.074-4.65-10.632-3.36-15.031-7.36-1.952-1.78-2.117-2.48-2.407-4.91 1.689-4.12 4.61-6.6 8.361-8.82m20.909-78.5c.271.1.557.16.815.29 1.945.95 3.187 1.9 5.382 2.25 1.584-.62 3.245-1.31 4.918-1.63 3.19-.62 7.541.24 9.869 2.56 2.931 2.91 3.639 7.8 3.652 11.74.015 4.66-.532 10.69-4.036 14.08l-1.274-.87c-1.542-5.6-1.091-11.39-1.011-17.15-.386-2.39-1.408-4.31-3.52-5.57-2.308-1.37-4.389-.99-6.777-.32-3.656 4.26-2.76 10.59-2.851 15.87-.053 3.11.212 6.24-2.123 8.5-1.134-.28-2.252-.18-2.892-1.28-2.242-3.85-1.325-23.81-.152-28.47m-33.909-.11 3.714.67c1.086 1.29 1.883 2.16 3.257 3.17.949-.41 1.908-.81 2.846-1.25 1.962-.91 3.539-2.07 5.829-1.97 2.353.11 5.074 1.56 6.604 3.33 3.354 3.88 3.031 10.71 2.387 15.42-.49 3.58-1.27 8.37-4.284 10.7l-.944-.75c-1.362-4.48-.913-9.27-.849-13.91.026-2.24-.125-4.8-.933-6.92-.906-2.38-1.822-3.28-4.015-4.44-.859.2-1.539.29-2.33.77-8.343 5.09-3.03 16.96-6.02 23.46-.597 1.3-1.642 1.18-2.891 1.56l-1.742-1.02c-2.224-8.57-.776-19.86-.629-28.82m64.037 79.68c4.674-.24 9.392-1.06 13.422 1.86 3.318 2.41 5.069 7.65 5.518 11.53.493 4.27.432 10.56-2.406 14.02-5.863 0-11.524.93-17.365.49-.294-.32-.607-.62-.883-.95-2.267-2.73-3.745-5.64-3.546-9.24 3.944-5.96 11.15-4.29 17.273-6.63.203-2.54.14-3.02-.919-5.33-3.897-2.15-8.843-1.4-13.195-1.44l-.389-1.48z"/><path fill="#FEFEFE" d="M360.067 1719.17c3.752-.29 7.403-1.05 10.723.8.316 2.99-.489 4.15-1.664 6.87-3.306.41-6.339.71-9.187-1.26-.933-2.84-.607-3.46.128-6.41"/><path d="M278.636 1702.92c1.419-.01 2.841-.02 4.26.06 4.192.25 9.131 2.18 11.713 5.66 2.235 3.01 1.803 6.02 1.094 9.39-5.656 2.76-13.02-.71-18.641 2.06l-.235 1.87c.589.86 1.415 2.31 2.233 3.04 2.152 1.9 3.001 1.69 5.721 1.66 3.067-.06 5.86-.48 8.49 1.32l-.846 1.4c-3.014 1.38-6.138 2.62-9.535 2.45-3.373-.18-6.617-2.33-8.694-4.92-2.58-3.23-3.504-7.38-3.022-11.44.66-5.57 3.019-9.27 7.462-12.55"/><path fill="#FEFEFE" d="M280.855 1706.53c2.892.32 5.176.61 7.499 2.63 1.739 1.52 2.207 2.12 2.259 4.35l-1.685 1.43c-3.669-.04-7.978.54-11.121-1.37.108-3.19 1.342-4.39 3.048-7.04"/><path d="M446.668 1623.94c4.079.09 8.296-.16 11.503 2.79 2.894 2.67 5.173 7.17 5.199 11.08-3.888 6.06-12.464.86-17.987 3.97l-.23 1.9c.74 1.49 1.293 2.69 2.768 3.62 3.645 2.29 7.822 1.29 11.761.6.752-.38.216-.2 1.678.21l-.266 2.18c-1.001 1-1.195 1.28-2.485 2.12-2.48 1.62-6.425 1.52-9.198.98-3.751-.71-6.975-2.72-8.974-6.01-2.485-4.09-2.651-9.24-1.431-13.77 1.292-4.8 3.455-7.14 7.662-9.67"/><path fill="#FEFEFE" d="M446.796 1628.74c1.447-.08 3.289-.31 4.703-.01 2.483.52 3.832 1.69 5.425 3.55.152 2.41.09 2.51-1.218 4.54-3.223.12-7.914.88-10.707-.75-.431-3.17.534-4.44 1.797-7.33"/><path d="M431.766 1703.08c2.815-.29 5.802-.74 8.599-.14 3.04.65 5.397 2.15 6.899 4.94 1.472 2.74 2.037 5.29 1.204 8.31-5.148 5.96-13.317 1.44-19.546 4.6.307 1.69.139 1.94 1.389 3.3 3.087 3.36 4.84 3.21 9.021 3.47 2.234-.79 3.825-1.58 6.226-1.16l.668 1.47c-.207.27-.384.57-.622.81-2.457 2.5-9.134 3.27-12.494 2.98-2.953-.26-6.027-1.57-7.661-4.17-2.657-4.22-1.757-10.89-.79-15.48.991-4.71 3.34-6.38 7.107-8.93"/><path fill="#FEFEFE" d="M432.803 1706.95c1.655-.07 3.567-.24 5.191.1 2.774.58 4.092 2.03 5.66 4.2-.463 2.07-.5 2.22-1.807 3.69-3.708.06-8.789.87-11.763-1.37-.184-2.7 1.32-4.46 2.719-6.62"/><path d="M267.184 1611.69c2.888.38 4.403.07 6.405 2.49 3.662 4.44 16.845 35.34 15.964 40.17-5.131-1.77-7.583-7.07-10.786-11.04l-4.517-.43-13.668-.1c-1.302 3.56-2.487 7.11-4.41 10.39-2.555.73-2.825.92-5.307.07-.967-5.32 13.311-33.65 16.319-41.55"/><path fill="#FEFEFE" d="M270.225 1620.63c2.357 3.84 5.513 8.95 6.544 13.36.494 2.1.494 2.32-.682 4.18l-3.839.08c-2.566.22-4.856.4-7.427-.01l-1.108-1.88c-.186-4.97 4.244-11.33 6.512-15.73"/><path d="M241.11 1690.44c2.987-.18 6.011-.36 9.004-.27 4.74.15 9.862 2.1 13.026 5.77 1.801 2.09 2.479 4.62 2.184 7.34-.578 5.32-3.161 8.48-7.197 11.74 2.489 4.01 6.296 8.86 7.508 13.4.529 1.99.621 1.16-.402 2.84-2.782.1-2.938.39-5.031-1.37-2.593-4.35-6.215-12.11-10.758-14.32-3.126 2.97-3.293 10.58-3.832 14.83-1.89.95-2.003.6-3.989.25-2.744-5.05-.863-33.15-.513-40.21"/><path fill="#FEFEFE" d="M246.767 1695.01c1.731.13 3.479.25 5.197.5 2.314.33 4.59 1.17 5.899 3.23 2.145 3.37 1.065 6.95.3 10.58a84 84 0 0 1-2.018.58c-3.38.93-5.56 1.43-8.68-.37-1.903-4.19-.909-9.97-.698-14.52"/><path d="M391.166 1608.27c.591.09 2.992.41 3.479.65 4.078 1.95 2.187 11.45 2.681 15.37l1.431.98c4.863-.94 10.205-2.22 14.698.62 3.167 2.01 4.832 5.45 5.362 9.06.879 5.98-.85 10.55-4.157 15.41-2.643 1.53-5.264 2.52-8.329 2.24-4.609-.43-9.226-.5-13.851-.64l-1.104-1.22c-2.144-13.23-.915-29.03-.21-42.47"/><path fill="#FEFEFE" d="M401.325 1628.85c3.094-.13 6.049-.3 8.669 1.72 2.285 1.75 3.2 3.96 3.426 6.76.344 4.27-1.77 7.57-4.374 10.69-3.343.18-6.452.36-9.194-2-2.067-1.77-3.156-4.17-3.19-6.87-.057-4.54 1.561-7.15 4.663-10.3"/></svg>